<svg xmlns="http://www.w3.org/2000/svg" xmlns:xlink="http://www.w3.org/1999/xlink" viewBox="0 0 847.08 601.98"><defs><style>.cls-1{fill:url(#linear-gradient);}.cls-2{fill:url(#linear-gradient-2);}.cls-3{fill:url(#linear-gradient-3);}.cls-4{fill:url(#linear-gradient-4);}.cls-5{fill:url(#linear-gradient-5);}.cls-6{fill:url(#linear-gradient-6);}.cls-7{fill:url(#linear-gradient-7);}.cls-8{fill:url(#linear-gradient-8);}.cls-9{fill:url(#linear-gradient-9);}.cls-10{fill:url(#linear-gradient-10);}.cls-11{fill:url(#linear-gradient-11);}.cls-12{fill:url(#linear-gradient-12);}.cls-13{fill:url(#linear-gradient-13);}.cls-14{fill:url(#linear-gradient-14);}.cls-15{fill:url(#linear-gradient-15);}.cls-16{fill:url(#linear-gradient-16);}.cls-17{fill:url(#linear-gradient-17);}.cls-18{fill:url(#linear-gradient-18);}.cls-19{fill:url(#linear-gradient-19);}.cls-20{fill:url(#linear-gradient-20);}.cls-21{fill:url(#linear-gradient-21);}.cls-22{fill:url(#linear-gradient-22);}.cls-23{fill:url(#linear-gradient-23);}.cls-24{fill:url(#linear-gradient-24);}.cls-25{fill:url(#linear-gradient-25);}.cls-26{fill:url(#linear-gradient-26);}.cls-27{fill:url(#linear-gradient-28);}.cls-28{fill:url(#linear-gradient-29);}.cls-29{fill:url(#linear-gradient-30);}.cls-30{fill:url(#linear-gradient-31);}.cls-31{fill:url(#linear-gradient-32);}.cls-32{fill:url(#linear-gradient-33);}.cls-33{fill:url(#linear-gradient-34);}.cls-34{fill:url(#linear-gradient-35);}.cls-35{fill:url(#linear-gradient-36);}.cls-36{fill:url(#linear-gradient-37);}.cls-37{fill:url(#linear-gradient-38);}.cls-38{fill:url(#linear-gradient-39);}.cls-39{fill:url(#linear-gradient-40);}.cls-40{fill:url(#linear-gradient-41);}.cls-41,.cls-42,.cls-43,.cls-44,.cls-45,.cls-46,.cls-47,.cls-48,.cls-49,.cls-50,.cls-51,.cls-52,.cls-53,.cls-54,.cls-55,.cls-56,.cls-57,.cls-58,.cls-59,.cls-60,.cls-61,.cls-62,.cls-63,.cls-64{fill:none;}.cls-41,.cls-43,.cls-44,.cls-45,.cls-46,.cls-47,.cls-48,.cls-49,.cls-50,.cls-51,.cls-52,.cls-53,.cls-54,.cls-55,.cls-56,.cls-57,.cls-58,.cls-59,.cls-60,.cls-61,.cls-62,.cls-63,.cls-64{stroke-miterlimit:10;}.cls-41,.cls-42,.cls-43,.cls-44,.cls-46,.cls-47,.cls-48,.cls-53,.cls-54,.cls-56,.cls-57,.cls-59,.cls-60,.cls-61,.cls-62,.cls-63,.cls-64{stroke-width:0.94px;}.cls-41{opacity:0;stroke:url(#linear-gradient-42);}.cls-42{stroke-miterlimit:10;opacity:0.04;stroke:url(#linear-gradient-43);}.cls-43{opacity:0.09;stroke:url(#linear-gradient-44);}.cls-44{opacity:0.13;stroke:url(#linear-gradient-45);}.cls-45,.cls-49,.cls-52,.cls-55,.cls-58{stroke-width:0.94px;}.cls-45{opacity:0.17;stroke:url(#linear-gradient-46);}.cls-46{opacity:0.22;stroke:url(#linear-gradient-47);}.cls-47{opacity:0.26;stroke:url(#linear-gradient-48);}.cls-48{opacity:0.3;stroke:url(#linear-gradient-49);}.cls-49{opacity:0.35;stroke:url(#linear-gradient-50);}.cls-50,.cls-51{stroke-width:0.94px;}.cls-50{opacity:0.39;stroke:url(#linear-gradient-51);}.cls-51{opacity:0.43;stroke:url(#linear-gradient-52);}.cls-52{opacity:0.48;stroke:url(#linear-gradient-53);}.cls-53{opacity:0.52;stroke:url(#linear-gradient-54);}.cls-54{opacity:0.57;stroke:url(#linear-gradient-55);}.cls-55{opacity:0.61;stroke:url(#linear-gradient-56);}.cls-56{opacity:0.65;stroke:url(#linear-gradient-57);}.cls-57{opacity:0.7;stroke:url(#linear-gradient-58);}.cls-58{opacity:0.74;stroke:url(#linear-gradient-59);}.cls-59{opacity:0.78;stroke:url(#linear-gradient-60);}.cls-60{opacity:0.83;stroke:url(#linear-gradient-61);}.cls-61{opacity:0.87;stroke:url(#linear-gradient-62);}.cls-62{opacity:0.91;stroke:url(#linear-gradient-63);}.cls-63{opacity:0.96;stroke:url(#linear-gradient-64);}.cls-64{stroke:url(#linear-gradient-65);}.cls-65{fill:url(#linear-gradient-66);}</style><linearGradient id="linear-gradient" x1="900.44" y1="299.56" x2="-23.05" y2="304.39" gradientUnits="userSpaceOnUse"><stop offset="0" stop-color="#700696"/><stop offset="0.51" stop-color="#209fe3"/><stop offset="0.99" stop-color="#2fa"/></linearGradient><linearGradient id="linear-gradient-2" x1="900.65" y1="340.55" x2="-22.84" y2="345.39" xlink:href="#linear-gradient"/><linearGradient id="linear-gradient-3" x1="900.16" y1="245.84" x2="-23.33" y2="250.68" xlink:href="#linear-gradient"/><linearGradient id="linear-gradient-4" x1="900.39" y1="290.22" x2="-23.1" y2="295.06" xlink:href="#linear-gradient"/><linearGradient id="linear-gradient-5" x1="900.37" y1="286.82" x2="-23.12" y2="291.65" xlink:href="#linear-gradient"/><linearGradient id="linear-gradient-6" x1="900.37" y1="287.38" x2="-23.12" y2="292.22" xlink:href="#linear-gradient"/><linearGradient id="linear-gradient-7" x1="900.66" y1="342.61" x2="-22.83" y2="347.44" xlink:href="#linear-gradient"/><linearGradient id="linear-gradient-8" x1="900.2" y1="254.48" x2="-23.29" y2="259.31" xlink:href="#linear-gradient"/><linearGradient id="linear-gradient-9" x1="900.58" y1="327.31" x2="-22.91" y2="332.15" xlink:href="#linear-gradient"/><linearGradient id="linear-gradient-10" x1="900.84" y1="375.5" x2="-22.66" y2="380.33" xlink:href="#linear-gradient"/><linearGradient id="linear-gradient-11" x1="900.43" y1="298.17" x2="-23.06" y2="303.01" xlink:href="#linear-gradient"/><linearGradient id="linear-gradient-12" x1="900.44" y1="300.58" x2="-23.05" y2="305.41" xlink:href="#linear-gradient"/><linearGradient id="linear-gradient-13" x1="900.45" y1="301.86" x2="-23.04" y2="306.69" xlink:href="#linear-gradient"/><linearGradient id="linear-gradient-14" x1="28.13" y1="99.54" x2="510.02" y2="-6.83" xlink:href="#linear-gradient"/><linearGradient id="linear-gradient-15" x1="44.24" y1="172.56" x2="526.14" y2="66.19" xlink:href="#linear-gradient"/><linearGradient id="linear-gradient-16" x1="35.7" y1="133.86" x2="517.59" y2="27.49" xlink:href="#linear-gradient"/><linearGradient id="linear-gradient-17" x1="530.47" y1="159.03" x2="739.59" y2="15.18" xlink:href="#linear-gradient"/><linearGradient id="linear-gradient-18" x1="530.47" y1="159.03" x2="739.59" y2="15.18" gradientTransform="translate(21.78 -97.69) rotate(9)" xlink:href="#linear-gradient"/><linearGradient id="linear-gradient-19" x1="530.47" y1="159.03" x2="739.59" y2="15.18" gradientTransform="translate(58.57 -190.77) rotate(18)" xlink:href="#linear-gradient"/><linearGradient id="linear-gradient-20" x1="530.47" y1="159.03" x2="739.59" y2="15.18" gradientTransform="translate(109.47 -276.95) rotate(27)" xlink:href="#linear-gradient"/><linearGradient id="linear-gradient-21" x1="530.47" y1="159.03" x2="739.59" y2="15.18" gradientTransform="translate(173.23 -354.1) rotate(36)" xlink:href="#linear-gradient"/><linearGradient id="linear-gradient-22" x1="530.47" y1="159.03" x2="739.59" y2="15.18" gradientTransform="translate(248.27 -420.34) rotate(45)" xlink:href="#linear-gradient"/><linearGradient id="linear-gradient-23" x1="530.47" y1="159.03" x2="739.59" y2="15.18" gradientTransform="translate(332.74 -474.02) rotate(54)" xlink:href="#linear-gradient"/><linearGradient id="linear-gradient-24" x1="530.47" y1="159.03" x2="739.59" y2="15.18" gradientTransform="translate(424.58 -513.82) rotate(63)" xlink:href="#linear-gradient"/><linearGradient id="linear-gradient-25" x1="530.47" y1="159.03" x2="739.59" y2="15.18" gradientTransform="translate(521.51 -538.76) rotate(72)" xlink:href="#linear-gradient"/><linearGradient id="linear-gradient-26" x1="530.47" y1="159.03" x2="739.59" y2="15.18" gradientTransform="translate(621.15 -548.24) rotate(81)" xlink:href="#linear-gradient"/><linearGradient id="linear-gradient-28" x1="530.47" y1="159.03" x2="739.59" y2="15.18" gradientTransform="translate(21.79 -97.72) rotate(9)" xlink:href="#linear-gradient"/><linearGradient id="linear-gradient-29" x1="530.47" y1="159.03" x2="739.59" y2="15.18" gradientTransform="translate(58.58 -190.79) rotate(18)" xlink:href="#linear-gradient"/><linearGradient id="linear-gradient-30" x1="530.47" y1="159.03" x2="739.59" y2="15.18" gradientTransform="translate(109.49 -276.98) rotate(27)" xlink:href="#linear-gradient"/><linearGradient id="linear-gradient-31" x1="530.47" y1="159.03" x2="739.59" y2="15.18" gradientTransform="translate(173.25 -354.13) rotate(36)" xlink:href="#linear-gradient"/><linearGradient id="linear-gradient-32" x1="530.47" y1="159.03" x2="739.59" y2="15.18" gradientTransform="translate(248.27 -420.34) rotate(45)" xlink:href="#linear-gradient"/><linearGradient id="linear-gradient-33" x1="530.47" y1="159.03" x2="739.59" y2="15.18" gradientTransform="translate(332.72 -474) rotate(54)" xlink:href="#linear-gradient"/><linearGradient id="linear-gradient-34" x1="530.47" y1="159.03" x2="739.59" y2="15.18" gradientTransform="translate(424.55 -513.81) rotate(63)" xlink:href="#linear-gradient"/><linearGradient id="linear-gradient-35" x1="530.47" y1="159.03" x2="739.59" y2="15.18" gradientTransform="translate(521.49 -538.76) rotate(72)" xlink:href="#linear-gradient"/><linearGradient id="linear-gradient-36" x1="530.47" y1="159.03" x2="739.59" y2="15.18" gradientTransform="translate(621.12 -548.24) rotate(81)" xlink:href="#linear-gradient"/><linearGradient id="linear-gradient-37" x1="548.06" y1="588.69" x2="902.63" y2="379.17" xlink:href="#linear-gradient"/><linearGradient id="linear-gradient-38" x1="531.01" y1="559.83" x2="885.58" y2="350.31" xlink:href="#linear-gradient"/><linearGradient id="linear-gradient-39" x1="532.34" y1="562.09" x2="886.91" y2="352.57" xlink:href="#linear-gradient"/><linearGradient id="linear-gradient-40" x1="553.57" y1="598.01" x2="908.14" y2="388.5" xlink:href="#linear-gradient"/><linearGradient id="linear-gradient-41" x1="572.66" y1="630.33" x2="927.23" y2="420.81" xlink:href="#linear-gradient"/><linearGradient id="linear-gradient-42" x1="0" y1="510.18" x2="273.37" y2="510.18" xlink:href="#linear-gradient"/><linearGradient id="linear-gradient-43" x1="14.3" y1="510.18" x2="287.67" y2="510.18" xlink:href="#linear-gradient"/><linearGradient id="linear-gradient-44" x1="28.6" y1="510.18" x2="301.97" y2="510.18" xlink:href="#linear-gradient"/><linearGradient id="linear-gradient-45" x1="42.9" y1="510.18" x2="316.27" y2="510.18" xlink:href="#linear-gradient"/><linearGradient id="linear-gradient-46" x1="57.2" y1="510.18" x2="330.57" y2="510.18" xlink:href="#linear-gradient"/><linearGradient id="linear-gradient-47" x1="71.5" y1="510.18" x2="344.87" y2="510.18" xlink:href="#linear-gradient"/><linearGradient id="linear-gradient-48" x1="85.8" y1="510.18" x2="359.17" y2="510.18" xlink:href="#linear-gradient"/><linearGradient id="linear-gradient-49" x1="100.1" y1="510.18" x2="373.47" y2="510.18" xlink:href="#linear-gradient"/><linearGradient id="linear-gradient-50" x1="114.4" y1="510.18" x2="387.77" y2="510.18" xlink:href="#linear-gradient"/><linearGradient id="linear-gradient-51" x1="128.7" y1="510.18" x2="402.07" y2="510.18" xlink:href="#linear-gradient"/><linearGradient id="linear-gradient-52" x1="143" y1="510.18" x2="416.37" y2="510.18" xlink:href="#linear-gradient"/><linearGradient id="linear-gradient-53" x1="157.3" y1="510.18" x2="430.67" y2="510.18" xlink:href="#linear-gradient"/><linearGradient id="linear-gradient-54" x1="171.59" y1="510.18" x2="444.97" y2="510.18" xlink:href="#linear-gradient"/><linearGradient id="linear-gradient-55" x1="185.89" y1="510.18" x2="459.26" y2="510.18" xlink:href="#linear-gradient"/><linearGradient id="linear-gradient-56" x1="200.19" y1="510.18" x2="473.56" y2="510.18" xlink:href="#linear-gradient"/><linearGradient id="linear-gradient-57" x1="214.49" y1="510.18" x2="487.86" y2="510.18" xlink:href="#linear-gradient"/><linearGradient id="linear-gradient-58" x1="228.79" y1="510.18" x2="502.16" y2="510.18" xlink:href="#linear-gradient"/><linearGradient id="linear-gradient-59" x1="243.09" y1="510.18" x2="516.46" y2="510.18" xlink:href="#linear-gradient"/><linearGradient id="linear-gradient-60" x1="257.39" y1="510.18" x2="530.76" y2="510.18" xlink:href="#linear-gradient"/><linearGradient id="linear-gradient-61" x1="271.69" y1="510.18" x2="545.06" y2="510.18" xlink:href="#linear-gradient"/><linearGradient id="linear-gradient-62" x1="285.99" y1="510.18" x2="559.36" y2="510.18" xlink:href="#linear-gradient"/><linearGradient id="linear-gradient-63" x1="300.29" y1="510.18" x2="573.66" y2="510.18" xlink:href="#linear-gradient"/><linearGradient id="linear-gradient-64" x1="314.59" y1="510.18" x2="587.96" y2="510.18" xlink:href="#linear-gradient"/><linearGradient id="linear-gradient-65" x1="328.89" y1="510.18" x2="602.26" y2="510.18" xlink:href="#linear-gradient"/><linearGradient id="linear-gradient-66" x1="349.45" y1="585.81" x2="580.32" y2="437.13" xlink:href="#linear-gradient"/></defs><title>herologo</title><g id="Layer_2" data-name="Layer 2"><g id="Layer_1-2" data-name="Layer 1"><path class="cls-1" d="M348.44,213.34h84.83c0,15.28,1.74,30.54-.46,45.2-2.53,16.9-16.63,25.46-39.42,27.11,2.7,1.19,4.38,2,6.11,2.66,23.65,8.94,37.1,30.81,34.6,56.29-2.28,23.19-20.52,43-44.5,46-13.3,1.64-27,.29-41,.29V338.31c3.53,1,6.91,1.89,10.28,2.83,12.58,3.52,25.2,6.88,37.71,10.64,7.17,2.16,13.95,3.1,19.52-3.15,4.17-4.68,5.25-10.09,2.53-16-3.7-8-10.68-9-18.41-8.9-14.11.17-28.23.05-42.35.05h-9.4Zm20.73,20.19v31.24c10.11,0,19.51.24,28.9-.07s15.61-6.65,15.82-15.14c.22-8.76-6.2-15.56-15.85-15.95C388.66,233.24,379.25,233.53,369.17,233.53Z"/><path class="cls-2" d="M50.34,391.41V298.22h71.79v93.19Z"/><path class="cls-3" d="M122.56,250.91A36.32,36.32,0,1,1,87,213.63,36.35,36.35,0,0,1,122.56,250.91Z"/><polygon class="cls-4" points="335.8 299.85 314.22 298.17 292.87 299.39 293.37 287.96 314.22 288.9 335.88 286.51 335.8 299.85"/><path class="cls-5" d="M705.82,361.15l-14.28-1.31v-31L676.65,328V214.53h14.91V327.6l16.18,1.12-2,32.57Z"/><path class="cls-6" d="M816.86,360.79V328.7l14.76-1V214.78h15.46V327.91l-15,1v31.71H816.64Z"/><path class="cls-7" d="M705.71,361.29l16.77-1.57V328.63l15.35-.86V297.26c5.6-.71,10.35-1.32,15.12-1.91l-.11-.13c.52,10.8,1,21.6,1.58,32.78l-16,.77V360l-15.43.87V391.7H707.78q-1-15.31-1.94-30.56A1.53,1.53,0,0,0,705.71,361.29Z"/><path class="cls-8" d="M769.88,295.5l-17-.26.09.11c.31-3.57.92-7.13.93-10.69.09-23.14,0-46.29,0-70h15.78q0,40.49,0,81Z"/><path class="cls-9" d="M801.11,360.13H785.39V329l-15.53-1.18c0-11.05,0-21.69,0-32.35l-.17.2,15.52,1.17v30.81l15.71.94c0,10.91,0,21.3,0,31.69Z"/><path class="cls-10" d="M816.64,360.58v31.25H801.1v-31.7a1.62,1.62,0,0,1-.18.19l15.93.46Z"/><path class="cls-11" d="M275.19,391.83H246.44V234.58c-30.42,22.63-57.26,42.06-83.23,62.58-3.48,2.76-3.48,11-3.56,16.77-.36,25.36-.16,50.73-.16,77.4H131V217h29.63v44.73C182.11,246,199.72,233,217.36,220.07c10.1-7.41,19.87-12.79,33-4.94,13.55,8.1,25.82,14.39,25.25,34.23C274.28,296.17,275.19,343.05,275.19,391.83Z"/><path class="cls-12" d="M478.61,315c-.06,3.91-.09,8.14.18,12,2,29.18,15.8,44.83,36.87,43.37,18.47-1.27,33-13,47.46-34.22l6.5,4.44c-18.64,31.9-39.56,49.63-68.08,51.61C468.15,394.56,446.39,372,443.91,336c-3.93-56.72,36-119.41,88.54-123C560.32,211,574,225,575.23,242.87,578.05,283.71,529.75,301.06,478.61,315Zm.43-7.85c45.91-14.25,68-33.69,65.82-65.46-.72-10.37-5.84-18.48-17.18-17.7C501.75,225.81,482.16,267.55,479,307.17Z"/><path class="cls-13" d="M607,288.57v55.95A28.38,28.38,0,0,0,635.4,372.9h25.67v18.93H633.5a45.35,45.35,0,0,1-45.41-45.42V214.78H607v54.87h54.06v18.92Z"/><path class="cls-14" d="M88.94,179H62c10.84-5,7.93-14.57,7.94-23Q70,87.44,70,18.85V8.11c-4.76,1.55-9.31,1.83-12,4.21-3,2.7-4.32,7.3-7.43,13-.4-3.24-.61-4.15-.61-5.07,0-6,0-11.92,0-18.47h52.59V23.72c-6-5.62-5.71-18.71-19.47-13.4v7c0,49.39-.17,98.78.21,148.16C83.3,169.89,86.88,174.3,88.94,179Z"/><path class="cls-15" d="M429.34,177.54c-14.62,0-29.36,1.21-43.83-.28-21.66-2.23-29.62-17.41-20.09-37a239.94,239.94,0,0,1,17.13-29c7.81-11.58,8.37-22.24-.06-33.93C375,67,368.62,55.86,362.14,44.83a68.3,68.3,0,0,1-6.6-15C350.45,12.66,359.22.29,376.93.14,408.3-.12,439.68,0,471.05.3c14.48.15,21.05,7.1,21.19,21.41.12,11,.15,22,0,32.95C492,73.71,477,84.15,459.6,76.55c-7.2-3.16-13.89-8.37-19.55-13.93-8.54-8.41-15.7-18.22-24-26.91-4.8-5-10.1-10.15-16.18-13.24-9.33-4.75-18.23,2.24-17.14,12.7a23.54,23.54,0,0,0,2.92,9.66c6.94,11.34,14.06,22.59,21.6,33.54,4,5.83,10.48,7.3,17.37,7.26,15.68-.09,31.37-.16,47.06,0,13,.13,20.57,6.75,20.57,17.44s-7.91,17.37-20.62,17.45c-18,.11-36.09-.12-54.11.41A58.73,58.73,0,0,0,400,124.52c-6.45,2.28-8.92,7.86-8.05,14.53.9,6.85,5.3,11.11,12,11.43a51.56,51.56,0,0,0,16.94-2c11-3.27,21.62-7.85,32.63-11.1,6.14-1.81,12.83-3.19,19.13-2.72,11.66.87,19.15,9.17,19.63,19.74.51,11-7,21.65-18.31,22.95-12.66,1.45-25.54.94-38.33,1.26-2.09.06-4.18,0-6.28,0Z"/><path class="cls-16" d="M136.55,120.47V178.9H124.8V1.28h11.33V59.91H331V1.33h11.63V179H331.43V120.47Z"/><rect class="cls-17" x="629.68" width="3.69" height="179.03"/><rect class="cls-18" x="629.68" width="3.69" height="179.03" transform="translate(-6.23 99.89) rotate(-9)"/><rect class="cls-19" x="629.68" width="3.69" height="179.03" transform="translate(3.25 199.53) rotate(-18)"/><rect class="cls-20" x="629.68" width="3.69" height="179.03" transform="translate(28.19 296.46) rotate(-27)"/><rect class="cls-21" x="629.68" width="3.69" height="179.03" transform="translate(67.99 388.3) rotate(-36)"/><rect class="cls-22" x="629.68" width="3.69" height="179.03" transform="translate(121.67 472.77) rotate(-45)"/><rect class="cls-23" x="629.68" width="3.69" height="179.03" transform="translate(187.9 547.81) rotate(-54)"/><rect class="cls-24" x="629.68" width="3.69" height="179.03" transform="translate(265.06 611.57) rotate(-63)"/><rect class="cls-25" x="629.68" width="3.69" height="179.03" transform="translate(351.24 662.47) rotate(-72)"/><rect class="cls-26" x="629.68" width="3.69" height="179.03" transform="translate(444.32 699.26) rotate(-81)"/><rect class="cls-17" x="542.01" y="87.67" width="179.03" height="3.69"/><rect class="cls-27" x="542.01" y="87.67" width="179.03" height="3.69" transform="matrix(0.99, -0.16, 0.16, 0.99, -6.23, 99.92)"/><rect class="cls-28" x="542.01" y="87.67" width="179.03" height="3.69" transform="translate(3.25 199.55) rotate(-18)"/><rect class="cls-29" x="542.01" y="87.67" width="179.03" height="3.69" transform="translate(28.2 296.49) rotate(-27)"/><rect class="cls-30" x="542.01" y="87.67" width="179.03" height="3.69" transform="translate(68.01 388.32) rotate(-36)"/><rect class="cls-31" x="542.01" y="87.67" width="179.03" height="3.69" transform="translate(121.67 472.77) rotate(-45)"/><rect class="cls-32" x="542.01" y="87.67" width="179.03" height="3.69" transform="translate(187.88 547.79) rotate(-54)"/><rect class="cls-33" x="542.01" y="87.67" width="179.03" height="3.69" transform="translate(265.03 611.55) rotate(-63)"/><rect class="cls-34" x="542.01" y="87.67" width="179.03" height="3.69" transform="translate(351.22 662.46) rotate(-72)"/><rect class="cls-35" x="542.01" y="87.67" width="179.03" height="3.69" transform="translate(444.29 699.26) rotate(-81)"/><path class="cls-36" d="M661.73,551.12l11.66-2.68V422.67H684.2V600.2H673.74V575.84L663,574.7c-.36-7.82-.74-15.77-1.11-23.72Z"/><path class="cls-37" d="M630.15,472.82l-11.77.88V600.13H607.73V422.57h10.54v24.51l11.66,1.28V473Z"/><path class="cls-38" d="M629.93,473h10.34v25.08l10.64.72c.5,8,1,15.88,1.48,23.77l.11-.07-12.15,2.17V499.27L629,498.06c.38-8.36.76-16.79,1.16-25.23C630.15,472.82,629.93,473,629.93,473Z"/><path class="cls-39" d="M661.87,551l-10.68-2.3c.41-8.5.84-17.3,1.29-26.12l-.09.05c2.93.67,5.85,1.35,9.38,2.19,0,8.4,0,17.34,0,26.3Z"/><path class="cls-40" d="M693.77,559.59c18-22.86,59.57-9.7,79.43-.93,15.24,6.93,24.93,10.16,33.94,10.16,26.78,0,33.48-35.55,5.31-44.33-18.7-5.77-45.26,2.54-60.26,7.85-35.33,12.93-58.65-2.77-58.42-41.79.23-31.4,25.17-63.95,60.26-63.95,17.55,0,38.1,6.46,54.72,6.46,10.63.23,20.09-2.31,26.33-10.39l12,41.1c-9,11.54-23.78,13.85-39,12.47-19.16-1.85-44.1-20.09-64.88-13.86-17.78,5.32-32.09,27.71-30.94,45.26.47,8.54,7.39,10.39,18.24,6,21-8.08,51-25.17,75-27.24,30.71-3,41.79,26.09,41.56,52.64-.69,41.33-24.47,57.72-65.34,57.72-17.55,0-33-6.7-49.64-6.7-10.62,0-20.09,2.31-26.32,10.39Z"/><path class="cls-41" d="M161.31,516a186.19,186.19,0,0,1,4.88-48c1.37-5.8,3.22-12.39,6.59-17.21a15.89,15.89,0,0,1,7.47-6,9,9,0,0,1,2-.39c4.2-.22,9.17,3.87,11.1,9.16,2.72,7.41.87,16.43-1.18,22.68a75.8,75.8,0,0,1-30,39.18C161.91,515.62,161.6,515.81,161.31,516ZM49.92,516a186.7,186.7,0,0,1,4.88-48c1.38-5.8,3.24-12.39,6.6-17.21a15.84,15.84,0,0,1,7.48-6,7,7,0,0,1,2-.39c4.19-.24,9.17,3.87,11.11,9.14,2.71,7.43.86,16.43-1.19,22.68a75.76,75.76,0,0,1-30,39.2Zm197.7,10.13c-.79,4.86-7.68,26.09-27,41-10.9,8.41-28.3,12.73-40.46,4.7-7.59-5-12.94-14.53-15.92-28.36a103.18,103.18,0,0,0,11.91-6.68,100.5,100.5,0,0,0,40.23-52.61c4.79-14.66,5.08-27.9.89-39.37-5.88-16.06-20.87-26.69-36.44-25.84-11,.6-21.84,7.06-29,17.27-5.85,8.35-8.6,17.82-10.53,26A211.71,211.71,0,0,0,136.28,526h0c-.57,3.47-4.21,15.23-13.21,27.08A75.43,75.43,0,0,1,109.29,567C98.4,575.47,81,579.79,68.84,571.76c-7.6-5-12.94-14.55-15.93-28.38a98.74,98.74,0,0,0,11.91-6.68,100.35,100.35,0,0,0,40.24-52.61c4.79-14.66,5.08-27.89.88-39.35-5.88-16.08-20.87-26.71-36.43-25.85-11,.59-21.85,7.05-29,17.26C34.66,444.5,31.9,454,30,462.16A211.61,211.61,0,0,0,24.9,526a73.86,73.86,0,0,1-22,1.24L.51,552.62a99.85,99.85,0,0,0,28.06-1.31C33.24,570.61,42,584.61,54.79,593c14,9.25,32.42,10.8,49.59,5.11a69.23,69.23,0,0,0,20.5-10.92,101,101,0,0,0,20.05-20.71c5,11.66,12.1,20.55,21.23,26.58,14,9.24,32.44,10.78,49.6,5.11a68.67,68.67,0,0,0,20.49-10.94c31-24,36.5-56.89,36.57-57.22Z"/><path class="cls-42" d="M175.61,516a186.19,186.19,0,0,1,4.88-48c1.37-5.8,3.22-12.39,6.59-17.21a15.76,15.76,0,0,1,7.47-6,8.46,8.46,0,0,1,2-.39c4.2-.26,9.17,3.87,11.1,9.16,2.72,7.41.87,16.43-1.18,22.68a75,75,0,0,1-30,39.18C176.21,515.62,175.9,515.81,175.61,516ZM64.22,516a186.7,186.7,0,0,1,4.88-48c1.38-5.8,3.24-12.39,6.6-17.21a16,16,0,0,1,7.47-6,7.5,7.5,0,0,1,2-.39c4.19-.21,9.17,3.87,11.11,9.14,2.71,7.43.86,16.43-1.19,22.68a76.26,76.26,0,0,1-30,39.2Zm197.7,10.13c-.79,4.86-7.68,26.09-27,41-10.9,8.41-28.3,12.73-40.46,4.7-7.59-5-12.94-14.53-15.92-28.36a102.22,102.22,0,0,0,11.9-6.68,100.46,100.46,0,0,0,40.24-52.61c4.79-14.66,5.08-27.9.89-39.37-5.88-16.06-20.87-26.69-36.44-25.84-11,.6-21.84,7.06-29,17.27-5.86,8.35-8.6,17.82-10.53,26A211.71,211.71,0,0,0,150.58,526h0c-.57,3.47-4.21,15.23-13.21,27.08A75.43,75.43,0,0,1,123.59,567c-10.89,8.43-28.29,12.75-40.45,4.72-7.6-5-12.94-14.55-15.93-28.38a98.74,98.74,0,0,0,11.91-6.68,100.35,100.35,0,0,0,40.24-52.61c4.79-14.66,5.08-27.89.88-39.35-5.88-16.08-20.87-26.71-36.43-25.85-11,.59-21.85,7.05-29,17.26C49,444.5,46.2,454,44.29,462.16A211.61,211.61,0,0,0,39.2,526a73.86,73.86,0,0,1-22,1.24l-2.42,25.39a99.85,99.85,0,0,0,28.06-1.31c4.67,19.3,13.46,33.3,26.22,41.72,14,9.25,32.42,10.8,49.59,5.11a69.23,69.23,0,0,0,20.5-10.92,101,101,0,0,0,20-20.71c5,11.66,12.1,20.55,21.23,26.58,14,9.24,32.44,10.78,49.59,5.11a68.6,68.6,0,0,0,20.5-10.94c31-24,36.5-56.89,36.57-57.22Z"/><path class="cls-43" d="M189.91,516a186.19,186.19,0,0,1,4.88-48c1.37-5.8,3.22-12.39,6.59-17.21a15.76,15.76,0,0,1,7.47-6,8.46,8.46,0,0,1,2-.39c4.2-.26,9.17,3.87,11.1,9.16,2.72,7.41.87,16.43-1.18,22.68a75,75,0,0,1-30,39.18C190.51,515.62,190.2,515.81,189.91,516ZM78.52,516a186.7,186.7,0,0,1,4.88-48c1.38-5.8,3.23-12.39,6.6-17.21a16,16,0,0,1,7.47-6,7.5,7.5,0,0,1,2-.39c4.19-.21,9.17,3.87,11.11,9.14,2.71,7.43.86,16.43-1.19,22.68a76.26,76.26,0,0,1-30,39.2Zm197.69,10.13c-.78,4.86-7.67,26.09-26.94,41-10.9,8.41-28.3,12.73-40.46,4.7-7.59-5-12.94-14.53-15.93-28.36a101.54,101.54,0,0,0,11.91-6.68A100.46,100.46,0,0,0,245,484.15c4.79-14.66,5.08-27.9.89-39.37-5.88-16.06-20.87-26.69-36.44-25.84-11,.6-21.84,7.06-29,17.27-5.86,8.35-8.6,17.82-10.53,26A212,212,0,0,0,164.87,526h0c-.57,3.47-4.21,15.23-13.21,27.08A75.43,75.43,0,0,1,137.89,567c-10.89,8.43-28.29,12.75-40.45,4.72-7.6-5-12.94-14.55-15.93-28.38a98.74,98.74,0,0,0,11.91-6.68,100.35,100.35,0,0,0,40.24-52.61c4.79-14.66,5.08-27.89.88-39.35-5.88-16.08-20.87-26.71-36.43-25.85-11,.59-21.85,7.05-29,17.26-5.86,8.35-8.62,17.82-10.53,26A211.61,211.61,0,0,0,53.5,526a73.86,73.86,0,0,1-22,1.24l-2.42,25.39a99.85,99.85,0,0,0,28.06-1.31c4.67,19.3,13.46,33.3,26.22,41.72,14,9.25,32.42,10.8,49.59,5.11a69.23,69.23,0,0,0,20.5-10.92,101,101,0,0,0,20.05-20.71c5,11.66,12.1,20.55,21.23,26.58,14,9.24,32.44,10.78,49.59,5.11a68.6,68.6,0,0,0,20.5-10.94c31-24,36.5-56.89,36.57-57.22Z"/><path class="cls-44" d="M204.21,516a185.75,185.75,0,0,1,4.88-48c1.37-5.8,3.22-12.39,6.59-17.21a15.76,15.76,0,0,1,7.47-6,8.46,8.46,0,0,1,2-.39c4.2-.26,9.17,3.87,11.1,9.16,2.72,7.41.87,16.43-1.18,22.68a75,75,0,0,1-30,39.18ZM92.82,516a186.7,186.7,0,0,1,4.88-48c1.38-5.8,3.23-12.39,6.6-17.21a16,16,0,0,1,7.47-6,7.5,7.5,0,0,1,2-.39c4.19-.21,9.17,3.87,11.11,9.14,2.71,7.43.86,16.43-1.19,22.68a76.26,76.26,0,0,1-30,39.2Zm197.69,10.13c-.78,4.86-7.67,26.09-26.95,41-10.89,8.41-28.29,12.73-40.45,4.7-7.59-5-12.94-14.53-15.93-28.36a101.54,101.54,0,0,0,11.91-6.68,100.46,100.46,0,0,0,40.24-52.61c4.79-14.66,5.08-27.9.88-39.37-5.88-16.06-20.86-26.69-36.43-25.84-11,.6-21.84,7.06-29,17.27-5.86,8.35-8.6,17.82-10.53,26A212,212,0,0,0,179.17,526h0c-.57,3.47-4.21,15.23-13.22,27.08A75,75,0,0,1,152.19,567c-10.89,8.43-28.29,12.75-40.45,4.72-7.6-5-12.94-14.55-15.93-28.38a98.74,98.74,0,0,0,11.91-6.68A100.35,100.35,0,0,0,148,484.09c4.78-14.66,5.08-27.89.88-39.35C143,428.66,128,418,112.4,418.89c-11,.59-21.84,7.05-29,17.26-5.86,8.35-8.62,17.82-10.53,26A211.61,211.61,0,0,0,67.8,526a73.86,73.86,0,0,1-22,1.24l-2.42,25.39a99.85,99.85,0,0,0,28.06-1.31c4.67,19.3,13.46,33.3,26.22,41.72,14,9.25,32.42,10.8,49.59,5.11a69.23,69.23,0,0,0,20.5-10.92,101,101,0,0,0,20.05-20.71c5,11.66,12.1,20.55,21.23,26.58,14,9.24,32.44,10.78,49.59,5.11a68.6,68.6,0,0,0,20.5-10.94c31-24,36.5-56.89,36.56-57.22Z"/><path class="cls-45" d="M218.51,516a185.75,185.75,0,0,1,4.88-48c1.37-5.8,3.22-12.39,6.59-17.21a15.76,15.76,0,0,1,7.47-6,8.46,8.46,0,0,1,2-.39c4.2-.26,9.17,3.87,11.1,9.16,2.71,7.41.87,16.43-1.18,22.68a75.06,75.06,0,0,1-30,39.18Zm-111.4,0A187.16,187.16,0,0,1,112,468c1.38-5.8,3.23-12.39,6.6-17.21a16,16,0,0,1,7.47-6,7.5,7.5,0,0,1,2-.39c4.19-.21,9.17,3.87,11.11,9.14,2.71,7.43.86,16.43-1.19,22.68a76.26,76.26,0,0,1-30,39.2Zm197.7,10.13c-.79,4.86-7.67,26.09-26.95,41-10.89,8.41-28.29,12.73-40.45,4.7-7.59-5-12.94-14.53-15.93-28.36a101.54,101.54,0,0,0,11.91-6.68,100.46,100.46,0,0,0,40.24-52.61c4.79-14.66,5.08-27.9.88-39.37-5.88-16.06-20.86-26.69-36.43-25.84-11,.6-21.84,7.06-29,17.27-5.86,8.35-8.6,17.82-10.53,26A211.71,211.71,0,0,0,193.47,526h0c-.57,3.47-4.21,15.23-13.22,27.08A75,75,0,0,1,166.49,567c-10.9,8.43-28.3,12.75-40.45,4.72-7.6-5-12.94-14.55-15.93-28.38A98.74,98.74,0,0,0,122,536.7a100.35,100.35,0,0,0,40.24-52.61c4.78-14.66,5.08-27.89.88-39.35-5.88-16.08-20.87-26.71-36.44-25.85-11,.59-21.84,7.05-29,17.26-5.86,8.35-8.62,17.82-10.53,26A211.61,211.61,0,0,0,82.1,526a73.86,73.86,0,0,1-22,1.24l-2.42,25.39a99.85,99.85,0,0,0,28.06-1.31c4.67,19.3,13.46,33.3,26.21,41.72,14,9.25,32.43,10.8,49.6,5.11a69.23,69.23,0,0,0,20.5-10.92,101,101,0,0,0,20-20.71c5,11.66,12.1,20.55,21.23,26.58,14,9.24,32.44,10.78,49.59,5.11a68.6,68.6,0,0,0,20.5-10.94c31-24,36.5-56.89,36.56-57.22Z"/><path class="cls-46" d="M232.81,516a185.75,185.75,0,0,1,4.88-48c1.37-5.8,3.22-12.39,6.59-17.21a15.76,15.76,0,0,1,7.47-6,8.37,8.37,0,0,1,2-.39c4.2-.26,9.16,3.87,11.1,9.16,2.71,7.41.87,16.43-1.18,22.68a75.06,75.06,0,0,1-30,39.18Zm-111.4,0a187.16,187.16,0,0,1,4.89-48c1.38-5.8,3.23-12.39,6.6-17.21a16,16,0,0,1,7.47-6,7.5,7.5,0,0,1,2-.39c4.19-.21,9.17,3.87,11.11,9.14,2.71,7.43.86,16.43-1.19,22.68a76.26,76.26,0,0,1-30,39.2Zm197.7,10.13c-.79,4.86-7.67,26.09-26.95,41-10.89,8.41-28.29,12.73-40.45,4.7-7.59-5-12.94-14.53-15.93-28.36a101.54,101.54,0,0,0,11.91-6.68,100.46,100.46,0,0,0,40.24-52.61c4.79-14.66,5.08-27.9.88-39.37-5.88-16.06-20.86-26.69-36.43-25.84-11,.6-21.84,7.06-29,17.27-5.86,8.35-8.6,17.82-10.53,26A211.71,211.71,0,0,0,207.77,526h0c-.57,3.47-4.21,15.23-13.22,27.08A75,75,0,0,1,180.79,567c-10.9,8.43-28.3,12.75-40.46,4.72-7.59-5-12.93-14.55-15.92-28.38a98.74,98.74,0,0,0,11.91-6.68,100.28,100.28,0,0,0,40.23-52.61c4.79-14.66,5.09-27.89.89-39.35C171.56,428.66,156.57,418,141,418.89c-11,.59-21.84,7.05-29,17.26-5.86,8.35-8.62,17.82-10.53,26A211.29,211.29,0,0,0,96.4,526a73.86,73.86,0,0,1-22,1.24L72,552.62a99.85,99.85,0,0,0,28.06-1.31c4.67,19.3,13.46,33.3,26.21,41.72,14,9.25,32.43,10.8,49.6,5.11a69.23,69.23,0,0,0,20.5-10.92,101,101,0,0,0,20.05-20.71c5,11.66,12.1,20.55,21.23,26.58,14,9.24,32.44,10.78,49.59,5.11a68.6,68.6,0,0,0,20.5-10.94c31-24,36.5-56.89,36.56-57.22Z"/><path class="cls-47" d="M247.11,516A185.75,185.75,0,0,1,252,468c1.37-5.8,3.22-12.39,6.59-17.21a15.76,15.76,0,0,1,7.47-6,8.37,8.37,0,0,1,2-.39c4.2-.26,9.16,3.87,11.1,9.16C281.88,461,280,470,278,476.24a75.06,75.06,0,0,1-30,39.18Zm-111.4,0a187.16,187.16,0,0,1,4.89-48c1.38-5.8,3.23-12.39,6.6-17.21a16,16,0,0,1,7.47-6,7.43,7.43,0,0,1,2-.39c4.19-.21,9.17,3.87,11.11,9.14,2.71,7.43.86,16.43-1.19,22.68a76.26,76.26,0,0,1-30,39.2Zm197.7,10.13c-.79,4.86-7.67,26.09-27,41-10.89,8.41-28.29,12.73-40.45,4.7-7.59-5-12.94-14.53-15.93-28.36A101.54,101.54,0,0,0,262,536.76a100.46,100.46,0,0,0,40.24-52.61c4.79-14.66,5.08-27.9.88-39.37-5.88-16.06-20.86-26.69-36.43-25.84-11,.6-21.84,7.06-29,17.27-5.86,8.35-8.6,17.82-10.53,26A211.71,211.71,0,0,0,222.07,526h0c-.57,3.47-4.21,15.23-13.22,27.08A75,75,0,0,1,195.09,567c-10.9,8.43-28.3,12.75-40.46,4.72-7.59-5-12.93-14.55-15.92-28.38a98.74,98.74,0,0,0,11.91-6.68,100.28,100.28,0,0,0,40.23-52.61c4.79-14.66,5.09-27.89.89-39.35-5.88-16.08-20.87-26.71-36.44-25.85-11,.59-21.84,7.05-29,17.26-5.86,8.35-8.62,17.82-10.53,26A211.29,211.29,0,0,0,110.7,526a73.86,73.86,0,0,1-22,1.24l-2.42,25.39a99.85,99.85,0,0,0,28.06-1.31c4.67,19.3,13.46,33.3,26.21,41.72,14,9.25,32.43,10.8,49.6,5.11a69.23,69.23,0,0,0,20.5-10.92,101,101,0,0,0,20-20.71c5,11.66,12.1,20.55,21.23,26.58,14,9.24,32.44,10.78,49.59,5.11a68.6,68.6,0,0,0,20.5-10.94c31-24,36.5-56.89,36.56-57.22Z"/><path class="cls-48" d="M261.41,516a185.75,185.75,0,0,1,4.88-48c1.36-5.8,3.22-12.39,6.59-17.21a15.76,15.76,0,0,1,7.47-6,8.37,8.37,0,0,1,2-.39c4.2-.26,9.16,3.87,11.1,9.16,2.71,7.41.86,16.43-1.18,22.68a75.06,75.06,0,0,1-30,39.18ZM150,516a187.16,187.16,0,0,1,4.89-48c1.38-5.8,3.23-12.39,6.6-17.21a16,16,0,0,1,7.47-6,7.43,7.43,0,0,1,2-.39c4.19-.21,9.17,3.87,11.1,9.14,2.72,7.43.87,16.43-1.18,22.68a76.26,76.26,0,0,1-30,39.2Zm197.7,10.13c-.79,4.86-7.67,26.09-26.95,41-10.89,8.41-28.29,12.73-40.45,4.7-7.59-5-12.94-14.53-15.93-28.36a101.54,101.54,0,0,0,11.91-6.68,100.46,100.46,0,0,0,40.24-52.61c4.79-14.66,5.08-27.9.88-39.37-5.88-16.06-20.86-26.69-36.43-25.84-11,.6-21.84,7.06-29,17.27-5.86,8.35-8.6,17.82-10.53,26A211.71,211.71,0,0,0,236.37,526h0c-.57,3.47-4.21,15.23-13.22,27.08A75,75,0,0,1,209.39,567c-10.9,8.43-28.3,12.75-40.46,4.72-7.59-5-12.93-14.55-15.92-28.38a98.74,98.74,0,0,0,11.91-6.68,100.28,100.28,0,0,0,40.23-52.61c4.79-14.66,5.09-27.89.89-39.35-5.88-16.08-20.87-26.71-36.44-25.85-11,.59-21.84,7.05-29,17.26-5.86,8.35-8.62,17.82-10.53,26A211.29,211.29,0,0,0,125,526a73.86,73.86,0,0,1-22,1.24l-2.42,25.39a99.87,99.87,0,0,0,28.06-1.31c4.67,19.3,13.46,33.3,26.21,41.72,14,9.25,32.43,10.8,49.6,5.11A69.23,69.23,0,0,0,225,587.22,101,101,0,0,0,245,566.51c5,11.66,12.09,20.55,21.23,26.58,14,9.24,32.44,10.78,49.59,5.11a68.6,68.6,0,0,0,20.5-10.94c31-24,36.5-56.89,36.56-57.22Z"/><path class="cls-49" d="M275.7,516a186.2,186.2,0,0,1,4.89-48c1.36-5.8,3.22-12.39,6.59-17.21a15.76,15.76,0,0,1,7.47-6,8.28,8.28,0,0,1,2-.39c4.2-.26,9.16,3.87,11.1,9.16,2.71,7.41.86,16.43-1.18,22.68a75.06,75.06,0,0,1-30,39.18Zm-111.39,0a186.71,186.71,0,0,1,4.89-48c1.38-5.8,3.23-12.39,6.6-17.21a16,16,0,0,1,7.47-6,7.43,7.43,0,0,1,2-.39c4.19-.21,9.17,3.87,11.1,9.14,2.72,7.43.87,16.43-1.18,22.68a76.26,76.26,0,0,1-30,39.2ZM362,526.09c-.79,4.86-7.67,26.09-26.95,41-10.89,8.41-28.29,12.73-40.45,4.7-7.6-5-12.94-14.53-15.93-28.36a101.54,101.54,0,0,0,11.91-6.68,100.46,100.46,0,0,0,40.24-52.61c4.79-14.66,5.08-27.9.88-39.37-5.88-16.06-20.87-26.69-36.43-25.84-11,.6-21.84,7.06-29,17.27-5.86,8.35-8.6,17.82-10.53,26A211.71,211.71,0,0,0,250.67,526h0c-.57,3.47-4.21,15.23-13.22,27.08A75,75,0,0,1,223.69,567c-10.9,8.43-28.3,12.75-40.46,4.72-7.59-5-12.93-14.55-15.92-28.38a98.74,98.74,0,0,0,11.91-6.68,100.28,100.28,0,0,0,40.23-52.61c4.79-14.66,5.09-27.89.89-39.35-5.88-16.08-20.87-26.71-36.44-25.85-11,.59-21.84,7.05-29,17.26-5.86,8.35-8.62,17.82-10.54,26A211.61,211.61,0,0,0,139.3,526a73.86,73.86,0,0,1-22,1.24l-2.42,25.39A99.87,99.87,0,0,0,143,551.31c4.67,19.3,13.46,33.3,26.21,41.72,14,9.25,32.43,10.8,49.6,5.11a69.23,69.23,0,0,0,20.5-10.92,101,101,0,0,0,20-20.71c5,11.66,12.09,20.55,21.23,26.58,14,9.24,32.44,10.78,49.59,5.11a68.6,68.6,0,0,0,20.5-10.94c31-24,36.5-56.89,36.56-57.22Z"/><path class="cls-50" d="M290,516a186.2,186.2,0,0,1,4.89-48c1.36-5.8,3.22-12.39,6.58-17.21a15.83,15.83,0,0,1,7.48-6,8.29,8.29,0,0,1,2-.39c4.21-.26,9.17,3.87,11.11,9.16,2.71,7.41.86,16.43-1.18,22.68a75.06,75.06,0,0,1-30,39.18Zm-111.39,0a186.71,186.71,0,0,1,4.89-48c1.38-5.8,3.23-12.39,6.6-17.21a16,16,0,0,1,7.47-6,7.43,7.43,0,0,1,2-.39c4.19-.21,9.17,3.87,11.1,9.14,2.72,7.43.87,16.43-1.18,22.68a76.26,76.26,0,0,1-30,39.2Zm197.7,10.13c-.79,4.86-7.67,26.09-26.95,41-10.89,8.41-28.29,12.73-40.45,4.7-7.6-5-12.94-14.53-15.93-28.36a101.54,101.54,0,0,0,11.91-6.68,100.46,100.46,0,0,0,40.24-52.61c4.79-14.66,5.08-27.9.88-39.37-5.88-16.06-20.87-26.69-36.43-25.84-11,.6-21.85,7.06-29,17.27-5.86,8.35-8.6,17.82-10.53,26A211.71,211.71,0,0,0,265,526h0c-.57,3.47-4.21,15.23-13.22,27.08A75,75,0,0,1,238,567c-10.9,8.43-28.3,12.75-40.46,4.72-7.59-5-12.93-14.55-15.92-28.38a99.77,99.77,0,0,0,52.14-59.29c4.79-14.66,5.09-27.89.89-39.35-5.88-16.08-20.87-26.71-36.44-25.85-11,.59-21.84,7.05-29,17.26-5.86,8.35-8.62,17.82-10.54,26A211.61,211.61,0,0,0,153.6,526a73.86,73.86,0,0,1-22,1.24l-2.42,25.39a99.87,99.87,0,0,0,28.06-1.31c4.67,19.3,13.46,33.3,26.21,41.72,14,9.25,32.43,10.8,49.6,5.11a69.23,69.23,0,0,0,20.5-10.92,101,101,0,0,0,20-20.71c5,11.66,12.09,20.55,21.23,26.58,14,9.24,32.44,10.78,49.59,5.11A68.6,68.6,0,0,0,365,587.26c31-24,36.5-56.89,36.56-57.22Z"/><path class="cls-51" d="M304.3,516a185.76,185.76,0,0,1,4.89-48c1.36-5.8,3.22-12.39,6.58-17.21a15.83,15.83,0,0,1,7.48-6,8.29,8.29,0,0,1,2-.39c4.21-.26,9.17,3.87,11.11,9.16,2.71,7.41.86,16.43-1.19,22.68a75,75,0,0,1-30,39.18C304.91,515.62,304.59,515.81,304.3,516Zm-111.39,0a186.71,186.71,0,0,1,4.89-48c1.38-5.8,3.23-12.39,6.6-17.21a16,16,0,0,1,7.47-6,7.43,7.43,0,0,1,2-.39c4.19-.21,9.17,3.87,11.1,9.14,2.72,7.43.87,16.43-1.18,22.68a76.26,76.26,0,0,1-30,39.2Zm197.7,10.13c-.79,4.86-7.67,26.09-26.95,41-10.89,8.41-28.29,12.73-40.45,4.7-7.6-5-12.94-14.53-15.93-28.36a101.54,101.54,0,0,0,11.91-6.68,100.46,100.46,0,0,0,40.24-52.61c4.79-14.66,5.08-27.9.88-39.37-5.88-16.06-20.87-26.69-36.43-25.84-11,.6-21.85,7.06-29,17.27-5.86,8.35-8.6,17.82-10.53,26A211.71,211.71,0,0,0,279.27,526h0c-.57,3.47-4.21,15.23-13.22,27.08A75,75,0,0,1,252.29,567c-10.9,8.43-28.3,12.75-40.46,4.72-7.59-5-12.93-14.55-15.92-28.38a99.77,99.77,0,0,0,52.14-59.29c4.79-14.66,5.09-27.89.89-39.35-5.88-16.08-20.87-26.71-36.44-25.85-11,.59-21.84,7.05-29,17.26-5.86,8.35-8.62,17.82-10.54,26A211.61,211.61,0,0,0,167.9,526a73.86,73.86,0,0,1-22,1.24l-2.42,25.39a99.87,99.87,0,0,0,28.06-1.31c4.67,19.3,13.46,33.3,26.21,41.72,14,9.25,32.43,10.8,49.6,5.11a69.23,69.23,0,0,0,20.5-10.92,101,101,0,0,0,20.05-20.71c5,11.66,12.09,20.55,21.23,26.58,14,9.24,32.44,10.78,49.59,5.11a68.6,68.6,0,0,0,20.5-10.94c31-24,36.5-56.89,36.56-57.22Z"/><path class="cls-52" d="M318.6,516a185.76,185.76,0,0,1,4.89-48c1.36-5.8,3.22-12.39,6.58-17.21a15.81,15.81,0,0,1,7.47-6,8.46,8.46,0,0,1,2-.39c4.21-.26,9.17,3.87,11.11,9.16,2.71,7.41.86,16.43-1.19,22.68a75,75,0,0,1-30,39.18C319.2,515.62,318.89,515.81,318.6,516Zm-111.39,0a186.71,186.71,0,0,1,4.89-48c1.38-5.8,3.23-12.39,6.6-17.21a16,16,0,0,1,7.47-6,7.43,7.43,0,0,1,2-.39c4.19-.21,9.17,3.87,11.1,9.14,2.72,7.43.87,16.43-1.18,22.68a76.26,76.26,0,0,1-30,39.2Zm197.7,10.13c-.79,4.86-7.67,26.09-27,41-10.89,8.41-28.29,12.73-40.45,4.7-7.6-5-12.94-14.53-15.93-28.36a101.54,101.54,0,0,0,11.91-6.68,100.46,100.46,0,0,0,40.24-52.61c4.79-14.66,5.08-27.9.88-39.37-5.88-16.06-20.87-26.69-36.43-25.84-11,.6-21.85,7.06-29,17.27-5.86,8.35-8.6,17.82-10.53,26A211.71,211.71,0,0,0,293.57,526h0c-.57,3.47-4.21,15.23-13.22,27.08A75,75,0,0,1,266.59,567c-10.9,8.43-28.3,12.75-40.46,4.72-7.59-5-12.93-14.55-15.92-28.38a99.77,99.77,0,0,0,52.14-59.29c4.79-14.66,5.08-27.89.89-39.35-5.88-16.08-20.87-26.71-36.44-25.85-11,.59-21.84,7.05-29,17.26-5.86,8.35-8.62,17.82-10.54,26A211.61,211.61,0,0,0,182.2,526a73.88,73.88,0,0,1-22,1.24l-2.42,25.39a99.87,99.87,0,0,0,28.06-1.31c4.67,19.3,13.46,33.3,26.21,41.72,14,9.25,32.43,10.8,49.6,5.11a69.23,69.23,0,0,0,20.5-10.92,101,101,0,0,0,20.05-20.71c5,11.66,12.09,20.55,21.23,26.58,14,9.24,32.44,10.78,49.59,5.11a68.6,68.6,0,0,0,20.5-10.94c31-24,36.5-56.89,36.56-57.22Z"/><path class="cls-53" d="M332.9,516a185.76,185.76,0,0,1,4.89-48c1.36-5.8,3.21-12.39,6.58-17.21a15.81,15.81,0,0,1,7.47-6,8.46,8.46,0,0,1,2-.39c4.21-.26,9.17,3.87,11.11,9.16,2.71,7.41.86,16.43-1.19,22.68a75,75,0,0,1-30,39.18C333.5,515.62,333.19,515.81,332.9,516Zm-111.39,0a186.71,186.71,0,0,1,4.89-48c1.38-5.8,3.23-12.39,6.6-17.21a16,16,0,0,1,7.47-6,7.43,7.43,0,0,1,2-.39c4.19-.21,9.17,3.87,11.1,9.14,2.72,7.43.87,16.43-1.18,22.68a76.26,76.26,0,0,1-30,39.2Zm197.7,10.13c-.79,4.86-7.67,26.09-26.95,41-10.89,8.41-28.29,12.73-40.45,4.7-7.6-5-12.94-14.53-15.93-28.36a101.54,101.54,0,0,0,11.91-6.68A100.46,100.46,0,0,0,388,484.15c4.79-14.66,5.08-27.9.88-39.37C383,428.72,368,418.09,352.48,418.94c-11,.6-21.85,7.06-29,17.27-5.86,8.35-8.6,17.82-10.53,26A211.71,211.71,0,0,0,307.87,526h0c-.57,3.47-4.21,15.23-13.22,27.08A75,75,0,0,1,280.89,567c-10.9,8.43-28.3,12.75-40.46,4.72-7.59-5-12.94-14.55-15.92-28.38a99.77,99.77,0,0,0,52.14-59.29c4.79-14.66,5.08-27.89.89-39.35-5.88-16.08-20.87-26.71-36.44-25.85-11,.59-21.84,7.05-29,17.26-5.85,8.35-8.61,17.82-10.53,26A211.61,211.61,0,0,0,196.5,526a73.88,73.88,0,0,1-22,1.24l-2.42,25.39a99.87,99.87,0,0,0,28.06-1.31c4.67,19.3,13.46,33.3,26.21,41.72,14,9.25,32.43,10.8,49.6,5.11a69.23,69.23,0,0,0,20.5-10.92,101,101,0,0,0,20-20.71c5,11.66,12.09,20.55,21.23,26.58,14,9.24,32.44,10.78,49.59,5.11a68.6,68.6,0,0,0,20.5-10.94c31-24,36.5-56.89,36.56-57.22Z"/><path class="cls-54" d="M347.2,516a185.76,185.76,0,0,1,4.89-48c1.36-5.8,3.21-12.39,6.58-17.21a15.81,15.81,0,0,1,7.47-6,8.46,8.46,0,0,1,2-.39c4.2-.26,9.17,3.87,11.11,9.16,2.71,7.41.86,16.43-1.19,22.68a75,75,0,0,1-30,39.18C347.8,515.62,347.49,515.81,347.2,516Zm-111.39,0a186.71,186.71,0,0,1,4.89-48c1.38-5.8,3.23-12.39,6.6-17.21a15.94,15.94,0,0,1,7.47-6,7.43,7.43,0,0,1,2-.39c4.19-.21,9.17,3.87,11.1,9.14,2.72,7.43.87,16.43-1.18,22.68a76.26,76.26,0,0,1-30,39.2Zm197.7,10.13c-.79,4.86-7.67,26.09-26.95,41-10.9,8.41-28.3,12.73-40.45,4.7-7.6-5-12.94-14.53-15.93-28.36a101.54,101.54,0,0,0,11.91-6.68,100.46,100.46,0,0,0,40.24-52.61c4.78-14.66,5.08-27.9.88-39.37-5.88-16.06-20.87-26.69-36.44-25.84-11,.6-21.84,7.06-29,17.27-5.86,8.35-8.6,17.82-10.53,26A211.39,211.39,0,0,0,322.17,526h0c-.57,3.47-4.21,15.23-13.22,27.08A75,75,0,0,1,295.19,567c-10.9,8.43-28.3,12.75-40.46,4.72-7.59-5-12.94-14.55-15.92-28.38A99.77,99.77,0,0,0,291,484.09c4.79-14.66,5.08-27.89.89-39.35C286,428.66,271,418,255.4,418.89c-11,.59-21.84,7.05-29,17.26-5.85,8.35-8.61,17.82-10.53,26A211.61,211.61,0,0,0,210.8,526a73.88,73.88,0,0,1-22,1.24l-2.42,25.39a99.87,99.87,0,0,0,28.06-1.31c4.67,19.3,13.46,33.3,26.21,41.72,14,9.25,32.42,10.8,49.6,5.11a69.36,69.36,0,0,0,20.5-10.92,100.71,100.71,0,0,0,20-20.71c5,11.66,12.1,20.55,21.24,26.58,14,9.24,32.44,10.78,49.59,5.11a68.6,68.6,0,0,0,20.5-10.94c31-24,36.5-56.89,36.56-57.22Z"/><path class="cls-55" d="M361.5,516a185.76,185.76,0,0,1,4.89-48c1.36-5.8,3.21-12.39,6.58-17.21a15.81,15.81,0,0,1,7.47-6,8.46,8.46,0,0,1,2-.39c4.2-.26,9.17,3.87,11.11,9.16,2.71,7.41.86,16.43-1.19,22.68a75,75,0,0,1-30,39.18C362.1,515.62,361.79,515.81,361.5,516Zm-111.39,0A186.71,186.71,0,0,1,255,468c1.38-5.8,3.23-12.39,6.6-17.21a15.94,15.94,0,0,1,7.47-6,7.43,7.43,0,0,1,2-.39c4.19-.21,9.17,3.87,11.1,9.14,2.72,7.43.87,16.43-1.18,22.68a76.26,76.26,0,0,1-30,39.2Zm197.7,10.13c-.79,4.86-7.67,26.09-26.95,41-10.9,8.41-28.3,12.73-40.46,4.7-7.59-5-12.93-14.53-15.92-28.36a101.54,101.54,0,0,0,11.91-6.68,100.46,100.46,0,0,0,40.24-52.61c4.78-14.66,5.08-27.9.88-39.37-5.88-16.06-20.87-26.69-36.44-25.84-11,.6-21.84,7.06-29,17.27-5.86,8.35-8.6,17.82-10.53,26A211.39,211.39,0,0,0,336.47,526h0c-.56,3.47-4.2,15.23-13.21,27.08A75.36,75.36,0,0,1,309.49,567c-10.9,8.43-28.3,12.75-40.46,4.72-7.59-5-12.94-14.55-15.92-28.38a99.88,99.88,0,0,0,52.14-59.29c4.79-14.66,5.08-27.89.89-39.35-5.88-16.08-20.87-26.71-36.44-25.85-11,.59-21.84,7.05-29,17.26-5.85,8.35-8.61,17.82-10.53,26A211.61,211.61,0,0,0,225.1,526a73.88,73.88,0,0,1-22,1.24l-2.42,25.39a99.87,99.87,0,0,0,28.06-1.31c4.67,19.3,13.46,33.3,26.21,41.72,14,9.25,32.42,10.8,49.59,5.11a69.11,69.11,0,0,0,20.5-10.92,100.52,100.52,0,0,0,20.05-20.71c5,11.66,12.1,20.55,21.23,26.58,14,9.24,32.45,10.78,49.6,5.11a68.6,68.6,0,0,0,20.5-10.94c31-24,36.5-56.89,36.56-57.22Z"/><path class="cls-56" d="M375.8,516a185.76,185.76,0,0,1,4.89-48c1.36-5.8,3.21-12.39,6.58-17.21a15.81,15.81,0,0,1,7.47-6,8.46,8.46,0,0,1,2-.39c4.2-.26,9.17,3.87,11.11,9.16,2.71,7.41.86,16.43-1.19,22.68a75,75,0,0,1-30,39.18C376.4,515.62,376.09,515.81,375.8,516Zm-111.39,0a186.71,186.71,0,0,1,4.89-48c1.38-5.8,3.23-12.39,6.6-17.21a15.94,15.94,0,0,1,7.47-6,7.43,7.43,0,0,1,2-.39c4.19-.21,9.17,3.87,11.1,9.14,2.72,7.43.87,16.43-1.18,22.68a76.26,76.26,0,0,1-30,39.2Zm197.7,10.13c-.79,4.86-7.67,26.09-26.95,41-10.9,8.41-28.3,12.73-40.46,4.7-7.59-5-12.93-14.53-15.92-28.36a101.54,101.54,0,0,0,11.91-6.68,100.4,100.4,0,0,0,40.23-52.61c4.79-14.66,5.09-27.9.89-39.37-5.88-16.06-20.87-26.69-36.44-25.84-11,.6-21.84,7.06-29,17.27-5.86,8.35-8.6,17.82-10.53,26A211.39,211.39,0,0,0,350.77,526h0c-.56,3.47-4.2,15.23-13.21,27.08A75.36,75.36,0,0,1,323.79,567c-10.9,8.43-28.3,12.75-40.46,4.72-7.59-5-12.94-14.55-15.93-28.38a98.74,98.74,0,0,0,11.91-6.68,100.35,100.35,0,0,0,40.24-52.61c4.79-14.66,5.08-27.89.89-39.35C314.56,428.66,299.57,418,284,418.89c-11,.59-21.84,7.05-29,17.26-5.85,8.35-8.61,17.82-10.53,26A211.61,211.61,0,0,0,239.4,526a73.88,73.88,0,0,1-22,1.24L215,552.62a99.87,99.87,0,0,0,28.06-1.31c4.66,19.3,13.46,33.3,26.21,41.72,14,9.25,32.42,10.8,49.59,5.11a69.11,69.11,0,0,0,20.5-10.92,100.52,100.52,0,0,0,20.05-20.71c5,11.66,12.1,20.55,21.23,26.58,14,9.24,32.44,10.78,49.6,5.11a68.6,68.6,0,0,0,20.5-10.94c31-24,36.5-56.89,36.56-57.22Z"/><path class="cls-57" d="M390.1,516A185.76,185.76,0,0,1,395,468c1.36-5.8,3.21-12.39,6.58-17.21a15.81,15.81,0,0,1,7.47-6,8.46,8.46,0,0,1,2-.39c4.2-.26,9.17,3.87,11.11,9.16C424.88,461,423,470,421,476.24a75,75,0,0,1-30,39.18C390.7,515.62,390.39,515.81,390.1,516Zm-111.39,0a186.27,186.27,0,0,1,4.89-48c1.38-5.8,3.23-12.39,6.6-17.21a15.94,15.94,0,0,1,7.47-6,7.43,7.43,0,0,1,2-.39c4.19-.21,9.17,3.87,11.1,9.14,2.72,7.43.87,16.43-1.18,22.68a76.26,76.26,0,0,1-30,39.2Zm197.7,10.13c-.79,4.86-7.67,26.09-27,41-10.9,8.41-28.3,12.73-40.46,4.7-7.59-5-12.93-14.53-15.92-28.36A101.54,101.54,0,0,0,405,536.76a100.4,100.4,0,0,0,40.23-52.61c4.79-14.66,5.09-27.9.89-39.37-5.88-16.06-20.87-26.69-36.44-25.84-11,.6-21.84,7.06-29,17.27-5.86,8.35-8.6,17.82-10.53,26A211.39,211.39,0,0,0,365.07,526h0c-.56,3.47-4.2,15.23-13.21,27.08A75.11,75.11,0,0,1,338.08,567c-10.89,8.43-28.29,12.75-40.45,4.72-7.59-5-12.94-14.55-15.93-28.38a98.74,98.74,0,0,0,11.91-6.68,100.35,100.35,0,0,0,40.24-52.61c4.79-14.66,5.08-27.89.89-39.35-5.89-16.08-20.87-26.71-36.44-25.85-11,.59-21.84,7.05-29,17.26-5.86,8.35-8.61,17.82-10.53,26A211.93,211.93,0,0,0,253.69,526a73.79,73.79,0,0,1-22,1.24l-2.42,25.39a99.87,99.87,0,0,0,28.06-1.31c4.66,19.3,13.46,33.3,26.21,41.72,14,9.25,32.42,10.8,49.59,5.11a69.23,69.23,0,0,0,20.5-10.92,100.52,100.52,0,0,0,20.05-20.71c5,11.66,12.1,20.55,21.23,26.58,14,9.24,32.44,10.78,49.6,5.11a68.6,68.6,0,0,0,20.5-10.94c31-24,36.49-56.89,36.56-57.22Z"/><path class="cls-58" d="M404.4,516a185.76,185.76,0,0,1,4.89-48c1.36-5.8,3.21-12.39,6.58-17.21a15.81,15.81,0,0,1,7.47-6,8.46,8.46,0,0,1,2-.39c4.2-.26,9.17,3.87,11.1,9.16,2.72,7.41.87,16.43-1.18,22.68a75,75,0,0,1-30,39.18C405,515.62,404.69,515.81,404.4,516ZM293,516a186.27,186.27,0,0,1,4.89-48c1.38-5.8,3.23-12.39,6.6-17.21a15.94,15.94,0,0,1,7.47-6,7.43,7.43,0,0,1,2-.39c4.19-.21,9.17,3.87,11.1,9.14,2.71,7.43.87,16.43-1.18,22.68a76.26,76.26,0,0,1-30,39.2Zm197.7,10.13c-.79,4.86-7.68,26.09-26.95,41-10.9,8.41-28.3,12.73-40.46,4.7-7.59-5-12.93-14.53-15.92-28.36a101.54,101.54,0,0,0,11.91-6.68,100.4,100.4,0,0,0,40.23-52.61c4.79-14.66,5.09-27.9.89-39.37-5.88-16.06-20.87-26.69-36.44-25.84-11,.6-21.84,7.06-29,17.27-5.86,8.35-8.6,17.82-10.53,26A211.39,211.39,0,0,0,379.37,526h0c-.56,3.47-4.2,15.23-13.21,27.08A75.43,75.43,0,0,1,352.38,567c-10.89,8.43-28.29,12.75-40.45,4.72-7.59-5-12.94-14.55-15.93-28.38a98.74,98.74,0,0,0,11.91-6.68,100.35,100.35,0,0,0,40.24-52.61c4.79-14.66,5.08-27.89.88-39.35-5.88-16.08-20.86-26.71-36.43-25.85-11,.59-21.84,7.05-29,17.26-5.86,8.35-8.62,17.82-10.53,26A211.61,211.61,0,0,0,268,526a73.79,73.79,0,0,1-22,1.24l-2.42,25.39a99.87,99.87,0,0,0,28.06-1.31c4.66,19.3,13.45,33.3,26.21,41.72,14,9.25,32.42,10.8,49.59,5.11A69.23,69.23,0,0,0,368,587.22a100.52,100.52,0,0,0,20-20.71c5,11.66,12.1,20.55,21.23,26.58,14,9.24,32.44,10.78,49.6,5.11a68.6,68.6,0,0,0,20.5-10.94c31-24,36.49-56.89,36.56-57.22Z"/><path class="cls-59" d="M418.7,516a185.76,185.76,0,0,1,4.89-48c1.36-5.8,3.21-12.39,6.58-17.21a15.81,15.81,0,0,1,7.47-6,8.46,8.46,0,0,1,2-.39c4.2-.26,9.17,3.87,11.1,9.16,2.72,7.41.87,16.43-1.18,22.68a75,75,0,0,1-30,39.18C419.3,515.62,419,515.81,418.7,516Zm-111.39,0a186.27,186.27,0,0,1,4.89-48c1.38-5.8,3.23-12.39,6.6-17.21a15.94,15.94,0,0,1,7.47-6,7.43,7.43,0,0,1,2-.39c4.19-.21,9.16,3.87,11.1,9.14,2.71,7.43.87,16.43-1.18,22.68a76.26,76.26,0,0,1-30,39.2ZM505,526.09c-.79,4.86-7.68,26.09-26.95,41-10.9,8.41-28.3,12.73-40.46,4.7-7.59-5-12.93-14.53-15.92-28.36a102.35,102.35,0,0,0,11.91-6.68,100.5,100.5,0,0,0,40.23-52.61c4.79-14.66,5.09-27.9.89-39.37-5.88-16.06-20.87-26.69-36.44-25.84-11,.6-21.84,7.06-29,17.27-5.86,8.35-8.6,17.82-10.54,26A211.71,211.71,0,0,0,393.67,526h0c-.56,3.47-4.21,15.23-13.21,27.08A75.43,75.43,0,0,1,366.68,567c-10.89,8.43-28.29,12.75-40.45,4.72-7.59-5-12.94-14.55-15.93-28.38a98.74,98.74,0,0,0,11.91-6.68,100.35,100.35,0,0,0,40.24-52.61c4.79-14.66,5.08-27.89.88-39.35-5.88-16.08-20.86-26.71-36.43-25.85-11,.59-21.84,7.05-29,17.26-5.86,8.35-8.62,17.82-10.53,26A211.61,211.61,0,0,0,282.29,526a73.79,73.79,0,0,1-22,1.24l-2.43,25.39A99.92,99.92,0,0,0,286,551.31c4.66,19.3,13.45,33.3,26.21,41.72,14,9.25,32.42,10.8,49.59,5.11a69.23,69.23,0,0,0,20.5-10.92,100.78,100.78,0,0,0,20.05-20.71c5,11.66,12.1,20.55,21.23,26.58,14,9.24,32.44,10.78,49.6,5.11a68.6,68.6,0,0,0,20.5-10.94c31-24,36.49-56.89,36.56-57.22Z"/><path class="cls-60" d="M433,516a185.76,185.76,0,0,1,4.89-48c1.36-5.8,3.21-12.39,6.58-17.21a15.81,15.81,0,0,1,7.47-6,8.46,8.46,0,0,1,2-.39c4.2-.26,9.17,3.87,11.1,9.16,2.72,7.41.87,16.43-1.18,22.68a75,75,0,0,1-30,39.18C433.6,515.62,433.29,515.81,433,516Zm-111.39,0a186.27,186.27,0,0,1,4.89-48c1.38-5.8,3.23-12.39,6.6-17.21a15.94,15.94,0,0,1,7.47-6,7.43,7.43,0,0,1,2-.39c4.18-.21,9.16,3.87,11.1,9.14,2.71,7.43.87,16.43-1.18,22.68a76.31,76.31,0,0,1-30,39.2Zm197.7,10.13c-.79,4.86-7.68,26.09-26.95,41-10.9,8.41-28.3,12.73-40.46,4.7-7.59-5-12.93-14.53-15.92-28.36a102.35,102.35,0,0,0,11.91-6.68,100.5,100.5,0,0,0,40.23-52.61c4.79-14.66,5.09-27.9.89-39.37-5.88-16.06-20.87-26.69-36.44-25.84-11,.6-21.84,7.06-29,17.27-5.86,8.35-8.6,17.82-10.54,26A211.71,211.71,0,0,0,408,526h0c-.57,3.47-4.21,15.23-13.21,27.08A75.43,75.43,0,0,1,381,567c-10.89,8.43-28.29,12.75-40.45,4.72-7.59-5-12.94-14.55-15.93-28.38a98.74,98.74,0,0,0,11.91-6.68,100.35,100.35,0,0,0,40.24-52.61c4.79-14.66,5.08-27.89.88-39.35-5.88-16.08-20.86-26.71-36.43-25.85-11,.59-21.84,7.05-29,17.26-5.86,8.35-8.62,17.82-10.53,26A211.61,211.61,0,0,0,296.59,526a73.79,73.79,0,0,1-22,1.24l-2.43,25.39a99.94,99.94,0,0,0,28.07-1.31c4.66,19.3,13.45,33.3,26.21,41.72,14,9.25,32.42,10.8,49.59,5.11a69.23,69.23,0,0,0,20.5-10.92,100.78,100.78,0,0,0,20.05-20.71c5,11.66,12.1,20.55,21.23,26.58,14,9.24,32.44,10.78,49.6,5.11A68.72,68.72,0,0,0,508,587.26c31-24,36.49-56.89,36.56-57.22Z"/><path class="cls-61" d="M447.3,516a185.76,185.76,0,0,1,4.89-48c1.36-5.8,3.21-12.39,6.58-17.21a15.81,15.81,0,0,1,7.47-6,8.46,8.46,0,0,1,2-.39c4.2-.26,9.17,3.87,11.1,9.16,2.72,7.41.87,16.43-1.18,22.68a75,75,0,0,1-30,39.18C447.9,515.62,447.59,515.81,447.3,516Zm-111.39,0a186.7,186.7,0,0,1,4.88-48c1.38-5.8,3.24-12.39,6.61-17.21a15.94,15.94,0,0,1,7.47-6,7.43,7.43,0,0,1,2-.39c4.18-.21,9.16,3.87,11.1,9.14,2.71,7.43.86,16.43-1.18,22.68a76.37,76.37,0,0,1-30,39.2Zm197.7,10.13c-.79,4.86-7.68,26.09-26.95,41-10.9,8.41-28.3,12.73-40.46,4.7-7.59-5-12.93-14.53-15.92-28.36a102.35,102.35,0,0,0,11.91-6.68,100.5,100.5,0,0,0,40.23-52.61c4.79-14.66,5.08-27.9.89-39.37-5.88-16.06-20.87-26.69-36.44-25.84-11,.6-21.84,7.06-29,17.27-5.85,8.35-8.6,17.82-10.53,26A211.71,211.71,0,0,0,422.27,526h0c-.57,3.47-4.21,15.23-13.21,27.08A75.43,75.43,0,0,1,395.28,567c-10.89,8.43-28.29,12.75-40.45,4.72-7.59-5-12.94-14.55-15.93-28.38a98.74,98.74,0,0,0,11.91-6.68,100.35,100.35,0,0,0,40.24-52.61c4.79-14.66,5.08-27.89.88-39.35-5.88-16.08-20.86-26.71-36.43-25.85-11,.59-21.84,7.05-29,17.26-5.86,8.35-8.62,17.82-10.53,26A211.61,211.61,0,0,0,310.89,526a73.79,73.79,0,0,1-22,1.24l-2.43,25.39a99.85,99.85,0,0,0,28.06-1.31c4.67,19.3,13.46,33.3,26.22,41.72,14,9.25,32.42,10.8,49.59,5.11a69.23,69.23,0,0,0,20.5-10.92,100.78,100.78,0,0,0,20.05-20.71c5,11.66,12.1,20.55,21.23,26.58,14,9.24,32.44,10.78,49.6,5.11a68.72,68.72,0,0,0,20.5-10.94c31-24,36.49-56.89,36.56-57.22Z"/><path class="cls-62" d="M461.6,516a185.76,185.76,0,0,1,4.89-48c1.36-5.8,3.21-12.39,6.58-17.21a15.81,15.81,0,0,1,7.47-6,8.46,8.46,0,0,1,2-.39c4.2-.26,9.17,3.87,11.1,9.16,2.72,7.41.87,16.43-1.18,22.68a75,75,0,0,1-30,39.18C462.2,515.62,461.89,515.81,461.6,516Zm-111.39,0a186.7,186.7,0,0,1,4.88-48c1.38-5.8,3.24-12.39,6.61-17.21a15.94,15.94,0,0,1,7.47-6,7.43,7.43,0,0,1,2-.39c4.18-.21,9.16,3.87,11.1,9.14,2.71,7.43.86,16.43-1.18,22.68a76.37,76.37,0,0,1-30,39.2Zm197.7,10.13c-.79,4.86-7.68,26.09-26.95,41-10.9,8.41-28.3,12.73-40.46,4.7-7.59-5-12.93-14.53-15.92-28.36a103.18,103.18,0,0,0,11.91-6.68,100.5,100.5,0,0,0,40.23-52.61c4.79-14.66,5.08-27.9.89-39.37-5.88-16.06-20.87-26.69-36.44-25.84-11,.6-21.84,7.06-29,17.27-5.85,8.35-8.6,17.82-10.53,26A211.71,211.71,0,0,0,436.57,526h0c-.57,3.47-4.21,15.23-13.21,27.08A75.43,75.43,0,0,1,409.58,567c-10.89,8.43-28.29,12.75-40.45,4.72-7.6-5-12.94-14.55-15.93-28.38a98.74,98.74,0,0,0,11.91-6.68,100.35,100.35,0,0,0,40.24-52.61c4.79-14.66,5.08-27.89.88-39.35-5.88-16.08-20.87-26.71-36.43-25.85-11,.59-21.84,7.05-29,17.26-5.86,8.35-8.62,17.82-10.53,26A211.61,211.61,0,0,0,325.19,526a73.79,73.79,0,0,1-22,1.24l-2.43,25.39a99.85,99.85,0,0,0,28.06-1.31c4.67,19.3,13.46,33.3,26.22,41.72,14,9.25,32.42,10.8,49.59,5.11a69.23,69.23,0,0,0,20.5-10.92,100.78,100.78,0,0,0,20.05-20.71c5,11.66,12.1,20.55,21.23,26.58,14,9.24,32.44,10.78,49.6,5.11a68.55,68.55,0,0,0,20.49-10.94c31-24,36.5-56.89,36.57-57.22Z"/><path class="cls-63" d="M475.9,516a185.76,185.76,0,0,1,4.89-48c1.36-5.8,3.21-12.39,6.58-17.21a15.81,15.81,0,0,1,7.47-6,8.46,8.46,0,0,1,2-.39c4.2-.26,9.17,3.87,11.1,9.16,2.72,7.41.87,16.43-1.18,22.68a75,75,0,0,1-30,39.18C476.5,515.62,476.19,515.81,475.9,516Zm-111.39,0a186.7,186.7,0,0,1,4.88-48c1.38-5.8,3.24-12.39,6.6-17.21a16,16,0,0,1,7.48-6,7.43,7.43,0,0,1,2-.39c4.18-.21,9.16,3.87,11.1,9.14,2.71,7.43.86,16.43-1.18,22.68a76.37,76.37,0,0,1-30,39.2Zm197.7,10.13c-.79,4.86-7.68,26.09-27,41-10.9,8.41-28.3,12.73-40.46,4.7-7.59-5-12.94-14.53-15.92-28.36a103.18,103.18,0,0,0,11.91-6.68A100.5,100.5,0,0,0,531,484.15c4.79-14.66,5.08-27.9.89-39.37C526,428.72,511,418.09,495.47,418.94c-11,.6-21.84,7.06-29,17.27-5.85,8.35-8.6,17.82-10.53,26A211.71,211.71,0,0,0,450.87,526h0c-.57,3.47-4.21,15.23-13.21,27.08A75.43,75.43,0,0,1,423.88,567c-10.89,8.43-28.29,12.75-40.45,4.72-7.6-5-12.94-14.55-15.93-28.38a98.74,98.74,0,0,0,11.91-6.68,100.35,100.35,0,0,0,40.24-52.61c4.79-14.66,5.08-27.89.88-39.35-5.88-16.08-20.87-26.71-36.43-25.85-11,.59-21.85,7.05-29,17.26-5.86,8.35-8.62,17.82-10.53,26A211.61,211.61,0,0,0,339.49,526a73.86,73.86,0,0,1-22,1.24l-2.42,25.39a99.85,99.85,0,0,0,28.06-1.31c4.67,19.3,13.46,33.3,26.22,41.72,14,9.25,32.42,10.8,49.59,5.11a69.23,69.23,0,0,0,20.5-10.92,100.78,100.78,0,0,0,20-20.71c5,11.66,12.1,20.55,21.23,26.58,14,9.24,32.44,10.78,49.6,5.11a68.55,68.55,0,0,0,20.49-10.94c31-24,36.5-56.89,36.57-57.22Z"/><path class="cls-64" d="M490.2,516a186.19,186.19,0,0,1,4.88-48c1.37-5.8,3.22-12.39,6.59-17.21a15.89,15.89,0,0,1,7.47-6,9,9,0,0,1,2-.39c4.2-.22,9.17,3.87,11.1,9.16,2.72,7.41.87,16.43-1.18,22.68a75.8,75.8,0,0,1-30,39.18C490.8,515.62,490.49,515.81,490.2,516Zm-111.39,0a186.7,186.7,0,0,1,4.88-48c1.38-5.8,3.24-12.39,6.6-17.21a15.84,15.84,0,0,1,7.48-6,7,7,0,0,1,2-.39c4.19-.24,9.17,3.87,11.11,9.14,2.71,7.43.86,16.43-1.19,22.68a75.76,75.76,0,0,1-30,39.2Zm197.7,10.13c-.79,4.86-7.68,26.09-27,41-10.9,8.41-28.3,12.73-40.46,4.7-7.59-5-12.94-14.53-15.92-28.36a103.18,103.18,0,0,0,11.91-6.68,100.5,100.5,0,0,0,40.23-52.61c4.79-14.66,5.08-27.9.89-39.37-5.88-16.06-20.87-26.69-36.44-25.84-11,.6-21.84,7.06-29,17.27-5.85,8.35-8.6,17.82-10.53,26A211.71,211.71,0,0,0,465.17,526h0c-.57,3.47-4.21,15.23-13.21,27.08A75.43,75.43,0,0,1,438.18,567c-10.89,8.43-28.29,12.75-40.45,4.72-7.6-5-12.94-14.55-15.93-28.38a98.74,98.74,0,0,0,11.91-6.68A100.35,100.35,0,0,0,434,484.09c4.79-14.66,5.08-27.89.88-39.35C429,428.66,414,418,398.4,418.89c-11,.59-21.85,7.05-29,17.26-5.86,8.35-8.62,17.82-10.53,26A211.61,211.61,0,0,0,353.79,526a73.86,73.86,0,0,1-22,1.24l-2.42,25.39a99.85,99.85,0,0,0,28.06-1.31c4.67,19.3,13.46,33.3,26.22,41.72,14,9.25,32.42,10.8,49.59,5.11a69.23,69.23,0,0,0,20.5-10.92,101,101,0,0,0,20.05-20.71c5,11.66,12.1,20.55,21.23,26.58,14,9.24,32.44,10.78,49.6,5.11a68.67,68.67,0,0,0,20.49-10.94c31-24,36.5-56.89,36.57-57.22Z"/><path class="cls-65" d="M576.51,526.09c-.79,4.86-7.68,26.09-27,41-10.9,8.41-28.3,12.73-40.46,4.7-7.59-5-12.94-14.53-15.92-28.36a103.18,103.18,0,0,0,11.91-6.68,100.5,100.5,0,0,0,40.23-52.61c4.79-14.66,5.08-27.9.89-39.37-5.88-16.06-20.87-26.69-36.44-25.84-11,.6-21.84,7.06-29,17.27-5.85,8.35-8.6,17.82-10.53,26A211.71,211.71,0,0,0,465.17,526h0c-.57,3.47-4.21,15.23-13.21,27.08A75.43,75.43,0,0,1,438.18,567c-10.89,8.43-28.29,12.75-40.45,4.72-7.6-5-12.94-14.55-15.93-28.38a98.74,98.74,0,0,0,11.91-6.68A100.35,100.35,0,0,0,434,484.09c4.79-14.66,5.08-27.89.88-39.35C429,428.66,414,418,398.4,418.89c-11,.59-21.85,7.05-29,17.26-5.86,8.35-8.62,17.82-10.53,26A211.61,211.61,0,0,0,353.79,526a73.86,73.86,0,0,1-22,1.24l-2.42,25.39a99.85,99.85,0,0,0,28.06-1.31c4.67,19.3,13.46,33.3,26.22,41.72,14,9.25,32.42,10.8,49.59,5.11a69.23,69.23,0,0,0,20.5-10.92,101,101,0,0,0,20.05-20.71c5,11.66,12.1,20.55,21.23,26.58,14,9.24,32.44,10.78,49.6,5.11a68.67,68.67,0,0,0,20.49-10.94c31-24,36.5-56.89,36.57-57.22ZM378.81,516a186.7,186.7,0,0,1,4.88-48c1.38-5.8,3.24-12.39,6.6-17.21a15.84,15.84,0,0,1,7.48-6,7,7,0,0,1,2-.39c4.19-.24,9.17,3.87,11.11,9.14,2.71,7.43.86,16.43-1.19,22.68a75.76,75.76,0,0,1-30,39.2Zm111.39,0a186.19,186.19,0,0,1,4.88-48c1.37-5.8,3.22-12.39,6.59-17.21a15.89,15.89,0,0,1,7.47-6,9,9,0,0,1,2-.39c4.2-.22,9.17,3.87,11.1,9.16,2.72,7.41.87,16.43-1.18,22.68a75.8,75.8,0,0,1-30,39.18C490.8,515.62,490.49,515.81,490.2,516Z"/></g></g></svg>