<?xml version="1.0" encoding="UTF-8"?>
<svg id="Layer_2" xmlns="http://www.w3.org/2000/svg" viewBox="0 0 834.54 43.8">
  <defs>
    <style>
      .cls-1 {
        fill: #fff;
      }
    </style>
  </defs>
  <g id="Layer_1-2" data-name="Layer_1">
    <g>
      <path class="cls-1" d="M13.87,2.35c1.58,0,3.65.39,6.21,1.17.31.09.55.14.74.14.15,0,.61-.14,1.38-.41.25-.09.51-.14.78-.14,1.03,0,2.11.81,3.25,2.44,1.14,1.62,1.71,3.17,1.71,4.65,0,.86-.26,1.58-.77,2.17-.51.59-1.14.89-1.87.89-.61,0-1.11-.12-1.5-.37-.38-.25-1.23-.97-2.53-2.18-1.84-1.72-3.65-2.58-5.43-2.58-.86,0-1.54.21-2.06.62s-.77.96-.77,1.63c0,1.33,1.17,2.34,3.52,3.01,3.17.94,5.21,1.62,6.09,2.05,3.91,1.9,5.87,4.7,5.87,8.39,0,3.27-1.33,5.93-4,8-2.73,2.12-6.29,3.17-10.69,3.17-1.96,0-4.03-.23-6.21-.7-2.18-.47-3.75-1.02-4.71-1.64-.74-.49-1.4-1.56-1.99-3.21-.59-1.65-.88-3.25-.88-4.82,0-.75.15-1.32.46-1.7.38-.49.87-.74,1.45-.74s1.14.3,1.68.9c.32.34,1.08,1.42,2.28,3.24.57.86,1.47,1.57,2.7,2.14s2.51.85,3.83.85c1.13,0,2.05-.21,2.76-.63.71-.42,1.06-.96,1.06-1.62,0-.61-.28-1.14-.83-1.59-.55-.44-1.45-.86-2.69-1.24-2.19-.69-3.86-1.32-5.01-1.9-1.15-.57-2.22-1.3-3.22-2.17-2.42-2.15-3.63-4.58-3.63-7.31,0-1.35.31-2.66.94-3.94s1.52-2.39,2.67-3.32c2.58-2.16,5.72-3.24,9.43-3.24Z"/>
      <path class="cls-1" d="M42.36,2.35c1.58,0,3.65.39,6.21,1.17.31.09.55.14.74.14.15,0,.61-.14,1.38-.41.25-.09.51-.14.78-.14,1.03,0,2.11.81,3.25,2.44,1.14,1.62,1.71,3.17,1.71,4.65,0,.86-.26,1.58-.77,2.17-.51.59-1.14.89-1.87.89-.61,0-1.11-.12-1.5-.37-.38-.25-1.23-.97-2.53-2.18-1.84-1.72-3.65-2.58-5.43-2.58-.86,0-1.54.21-2.06.62s-.77.96-.77,1.63c0,1.33,1.17,2.34,3.52,3.01,3.17.94,5.21,1.62,6.09,2.05,3.91,1.9,5.87,4.7,5.87,8.39,0,3.27-1.33,5.93-4,8-2.73,2.12-6.29,3.17-10.69,3.17-1.96,0-4.03-.23-6.21-.7-2.18-.47-3.75-1.02-4.71-1.64-.74-.49-1.4-1.56-1.99-3.21-.59-1.65-.88-3.25-.88-4.82,0-.75.15-1.32.46-1.7.38-.49.87-.74,1.45-.74s1.14.3,1.68.9c.32.34,1.08,1.42,2.28,3.24.57.86,1.47,1.57,2.7,2.14s2.51.85,3.83.85c1.13,0,2.05-.21,2.76-.63.71-.42,1.06-.96,1.06-1.62,0-.61-.28-1.14-.83-1.59-.55-.44-1.45-.86-2.69-1.24-2.19-.69-3.86-1.32-5.01-1.9-1.15-.57-2.22-1.3-3.22-2.17-2.42-2.15-3.63-4.58-3.63-7.31,0-1.35.31-2.66.94-3.94s1.52-2.39,2.67-3.32c2.58-2.16,5.72-3.24,9.43-3.24Z"/>
      <path class="cls-1" d="M73.83,7.73c-1.06,0-1.71.27-1.95.8-.18.4-.36,1.18-.52,2.35-.16,1.17-.24,2.22-.24,3.17,0,.57.18.96.55,1.17.37.22,1.06.32,2.07.32.67,0,1.17-.12,1.5-.37.32-.25.54-.66.67-1.24.35-1.67,1.07-2.51,2.16-2.51,1.87,0,2.81,2.24,2.81,6.71,0,2.84-.41,4.92-1.22,6.26-.49.81-1.17,1.22-2.02,1.22-.9,0-1.43-.61-1.56-1.82-.08-.78-.17-1.33-.29-1.66-.11-.32-.33-.63-.66-.92-.51-.47-1.24-.71-2.21-.71-.69,0-1.16.12-1.4.37s-.35.71-.32,1.4c0,.12,0,.84-.02,2.14,0,2.65.28,4.27.83,4.85.18.23.37.38.56.45.19.07.69.17,1.51.29.4.06.74.27,1.01.62.28.35.41.76.41,1.22,0,1.18-.69,1.94-2.07,2.28-1.99.47-4.79.71-8.39.71-3.16,0-5.34-.18-6.53-.55-.54-.17-.97-.48-1.31-.92-.34-.44-.51-.94-.51-1.47,0-.67.25-1.22.74-1.63.12-.09.54-.28,1.27-.57.86-.34,1.37-1.12,1.54-2.35.28-1.89.41-6.19.41-12.9,0-2.9-.1-4.78-.3-5.63s-.68-1.46-1.45-1.79c-.77-.34-1.27-.63-1.51-.89s-.36-.62-.36-1.09c0-.67.33-1.24.99-1.69s1.47-.68,2.44-.68c.61,0,1.51.05,2.69.14,2.5.2,5.49.3,8.97.3,5.57,0,9.31-.15,11.25-.46.26-.03.46-.05.6-.05.54,0,1.05.31,1.54.92,1.35,1.72,2.02,3.62,2.02,5.7,0,.95-.22,1.71-.67,2.28-.45.57-1.03.85-1.75.85-.54,0-.94-.11-1.22-.32s-.98-.97-2.12-2.25c-.69-.8-1.52-1.32-2.5-1.56s-2.79-.41-5.44-.48Z"/>
      <path class="cls-1" d="M130.05,1.41v32.97h-5.42V10.88l-10.03,16.58h-.66s-10.03-16.63-10.03-16.63v23.55h-5.42V1.41h5.84l9.95,16.48L124.25,1.41h5.8Z"/>
      <path class="cls-1" d="M153.08,10.83h5.09v23.55h-5.09v-3.39c-1.92,2.67-4.66,4-8.24,4-3.23,0-6-1.2-8.29-3.6-2.29-2.4-3.44-5.33-3.44-8.78s1.15-6.42,3.44-8.81c2.29-2.39,5.06-3.58,8.29-3.58,3.58,0,6.33,1.32,8.24,3.96v-3.34ZM140.32,28c1.41,1.43,3.19,2.14,5.32,2.14s3.91-.71,5.32-2.14,2.12-3.23,2.12-5.39-.71-3.96-2.12-5.39-3.19-2.14-5.32-2.14-3.91.71-5.32,2.14c-1.41,1.43-2.12,3.23-2.12,5.39s.71,3.96,2.12,5.39Z"/>
      <path class="cls-1" d="M162.22,34.38V0h5.09v34.38h-5.09Z"/>
      <path class="cls-1" d="M189.96,10.83h5.09v23.55h-5.09v-3.39c-1.92,2.67-4.66,4-8.24,4-3.23,0-6-1.2-8.29-3.6-2.29-2.4-3.44-5.33-3.44-8.78s1.15-6.42,3.44-8.81c2.29-2.39,5.06-3.58,8.29-3.58,3.58,0,6.33,1.32,8.24,3.96v-3.34ZM177.2,28c1.41,1.43,3.19,2.14,5.32,2.14s3.91-.71,5.32-2.14,2.12-3.23,2.12-5.39-.71-3.96-2.12-5.39-3.19-2.14-5.32-2.14-3.91.71-5.32,2.14c-1.41,1.43-2.12,3.23-2.12,5.39s.71,3.96,2.12,5.39Z"/>
      <path class="cls-1" d="M212.43,10.22c3.23,0,6,1.2,8.29,3.6,2.29,2.4,3.44,5.33,3.44,8.78s-1.15,6.42-3.44,8.81c-2.29,2.39-5.06,3.58-8.29,3.58-3.58,0-6.33-1.32-8.24-3.96v12.76h-5.09V10.83h5.09v3.39c1.91-2.67,4.66-4,8.24-4ZM206.31,28c1.41,1.43,3.19,2.14,5.32,2.14s3.91-.71,5.32-2.14,2.12-3.23,2.12-5.39-.71-3.96-2.12-5.39-3.19-2.14-5.32-2.14-3.91.71-5.32,2.14-2.12,3.23-2.12,5.39.71,3.96,2.12,5.39Z"/>
      <path class="cls-1" d="M240.22,10.22c3.23,0,6,1.2,8.29,3.6,2.29,2.4,3.44,5.33,3.44,8.78s-1.15,6.42-3.44,8.81c-2.29,2.39-5.06,3.58-8.29,3.58-3.58,0-6.33-1.32-8.24-3.96v12.76h-5.09V10.83h5.09v3.39c1.91-2.67,4.66-4,8.24-4ZM234.1,28c1.41,1.43,3.19,2.14,5.32,2.14s3.91-.71,5.32-2.14,2.12-3.23,2.12-5.39-.71-3.96-2.12-5.39-3.19-2.14-5.32-2.14-3.91.71-5.32,2.14-2.12,3.23-2.12,5.39.71,3.96,2.12,5.39Z"/>
      <path class="cls-1" d="M270.55,10.83h5.09v23.55h-5.09v-3.01c-1.54,2.42-3.97,3.63-7.3,3.63-2.7,0-4.88-.86-6.55-2.59-1.67-1.73-2.5-4.1-2.5-7.11v-14.46h5.09v13.94c0,1.76.47,3.11,1.41,4.05.94.94,2.23,1.41,3.86,1.41,1.79,0,3.23-.56,4.33-1.67,1.1-1.11,1.65-2.82,1.65-5.11v-12.62Z"/>
      <path class="cls-1" d="M284.78,14.79c1.29-2.92,3.7-4.38,7.25-4.38v5.51c-1.95-.12-3.64.34-5.09,1.39-1.44,1.05-2.17,2.79-2.17,5.21v11.87h-5.09V10.83h5.09v3.96Z"/>
      <path class="cls-1" d="M311.48,10.83h5.09v23.55h-5.09v-3.39c-1.92,2.67-4.66,4-8.24,4-3.23,0-6-1.2-8.29-3.6-2.29-2.4-3.44-5.33-3.44-8.78s1.15-6.42,3.44-8.81c2.29-2.39,5.06-3.58,8.29-3.58,3.58,0,6.33,1.32,8.24,3.96v-3.34ZM298.72,28c1.41,1.43,3.19,2.14,5.32,2.14s3.91-.71,5.32-2.14,2.12-3.23,2.12-5.39-.71-3.96-2.12-5.39-3.19-2.14-5.32-2.14-3.91.71-5.32,2.14c-1.41,1.43-2.12,3.23-2.12,5.39s.71,3.96,2.12,5.39Z"/>
      <path class="cls-1" d="M346.34,10.22c2.67,0,4.82.86,6.45,2.59,1.63,1.73,2.45,4.05,2.45,6.97v14.6h-5.09v-14.27c0-1.63-.41-2.9-1.22-3.79-.82-.89-1.93-1.34-3.34-1.34-1.57,0-2.82.52-3.74,1.55-.93,1.04-1.39,2.59-1.39,4.66v13.19h-5.09v-14.27c0-1.63-.38-2.9-1.15-3.79-.77-.89-1.86-1.34-3.27-1.34-1.54,0-2.79.53-3.77,1.58-.97,1.05-1.46,2.6-1.46,4.64v13.19h-5.09V10.83h5.09v2.83c1.51-2.29,3.75-3.44,6.74-3.44s5.24,1.24,6.69,3.72c1.57-2.48,3.97-3.72,7.21-3.72Z"/>
      <path class="cls-1" d="M374.46,29.2h14.6v5.18h-20.02V1.41h19.78v5.18h-14.37v8.57h13.19v5.13h-13.19v8.9Z"/>
      <path class="cls-1" d="M409.97,10.83h5.09v23.55h-5.09v-3.39c-1.92,2.67-4.66,4-8.24,4-3.23,0-6-1.2-8.29-3.6-2.29-2.4-3.44-5.33-3.44-8.78s1.15-6.42,3.44-8.81c2.29-2.39,5.06-3.58,8.29-3.58,3.58,0,6.33,1.32,8.24,3.96v-3.34ZM397.21,28c1.41,1.43,3.19,2.14,5.32,2.14s3.91-.71,5.32-2.14,2.12-3.23,2.12-5.39-.71-3.96-2.12-5.39-3.19-2.14-5.32-2.14-3.91.71-5.32,2.14c-1.41,1.43-2.12,3.23-2.12,5.39s.71,3.96,2.12,5.39Z"/>
      <path class="cls-1" d="M423.54,17.3c0,.78.43,1.39,1.3,1.84s1.91.86,3.13,1.24c1.22.38,2.47.76,3.74,1.15,1.28.39,2.35,1.12,3.2,2.19.86,1.06,1.29,2.41,1.29,4.03,0,2.26-.87,4.04-2.61,5.32-1.74,1.29-3.93,1.93-6.57,1.93-2.32,0-4.32-.49-5.98-1.46-1.67-.97-2.87-2.32-3.63-4.05l4.38-2.54c.82,2.26,2.56,3.39,5.23,3.39s4-.88,4-2.64c0-.75-.43-1.37-1.3-1.84-.86-.47-1.9-.89-3.12-1.27-1.22-.38-2.47-.76-3.75-1.15s-2.35-1.1-3.21-2.12c-.86-1.02-1.29-2.32-1.29-3.89,0-2.17.82-3.91,2.47-5.23,1.65-1.32,3.7-1.98,6.15-1.98,1.95,0,3.68.43,5.2,1.3s2.69,2.06,3.51,3.6l-4.29,2.4c-.82-1.79-2.29-2.68-4.43-2.68-.97,0-1.79.21-2.45.63-.66.42-.99,1.03-.99,1.84Z"/>
      <path class="cls-1" d="M451,15.73h-5.84v11.3c0,.97.22,1.67.66,2.1.44.42,1.09.66,1.95.71.86.05,1.94.04,3.23-.02v4.57c-3.89.47-6.69.13-8.38-1.01s-2.54-3.26-2.54-6.33v-11.3h-4.33v-4.9h4.33v-5.09l5.09-1.51v6.59h5.84v4.9Z"/>
      <path class="cls-1" d="M477.14,1.41c4.52,0,8.28,1.59,11.28,4.76,3,3.17,4.5,7.08,4.5,11.73s-1.5,8.52-4.5,11.71c-3,3.19-6.76,4.78-11.28,4.78h-12.95V1.41h12.95ZM477.14,29.2c3.11,0,5.64-1.07,7.61-3.2,1.96-2.13,2.94-4.83,2.94-8.1s-.98-6-2.94-8.12c-1.96-2.12-4.5-3.18-7.61-3.18h-7.54v22.61h7.54Z"/>
      <path class="cls-1" d="M500.48,6.33c-.64.64-1.41.97-2.28.97s-1.64-.32-2.28-.97c-.64-.64-.97-1.4-.97-2.28s.31-1.64.94-2.28c.63-.64,1.4-.97,2.31-.97s1.68.32,2.31.97.94,1.41.94,2.28-.32,1.64-.97,2.28ZM495.65,34.38V10.83h5.09v23.55h-5.09Z"/>
      <path class="cls-1" d="M509.17,17.3c0,.78.43,1.39,1.3,1.84s1.91.86,3.13,1.24c1.22.38,2.47.76,3.74,1.15,1.28.39,2.35,1.12,3.2,2.19.86,1.06,1.29,2.41,1.29,4.03,0,2.26-.87,4.04-2.61,5.32-1.74,1.29-3.93,1.93-6.57,1.93-2.32,0-4.32-.49-5.98-1.46-1.67-.97-2.87-2.32-3.63-4.05l4.38-2.54c.82,2.26,2.56,3.39,5.23,3.39s4-.88,4-2.64c0-.75-.43-1.37-1.3-1.84-.86-.47-1.9-.89-3.12-1.27-1.22-.38-2.47-.76-3.75-1.15s-2.35-1.1-3.21-2.12c-.86-1.02-1.29-2.32-1.29-3.89,0-2.17.82-3.91,2.47-5.23,1.65-1.32,3.7-1.98,6.15-1.98,1.95,0,3.68.43,5.2,1.3s2.69,2.06,3.51,3.6l-4.29,2.4c-.82-1.79-2.29-2.68-4.43-2.68-.97,0-1.79.21-2.45.63-.66.42-.99,1.03-.99,1.84Z"/>
      <path class="cls-1" d="M536.63,15.73h-5.84v11.3c0,.97.22,1.67.66,2.1.44.42,1.09.66,1.95.71.86.05,1.94.04,3.23-.02v4.57c-3.89.47-6.69.13-8.38-1.01s-2.54-3.26-2.54-6.33v-11.3h-4.33v-4.9h4.33v-5.09l5.09-1.51v6.59h5.84v4.9Z"/>
      <path class="cls-1" d="M544.68,14.79c1.29-2.92,3.7-4.38,7.25-4.38v5.51c-1.95-.12-3.64.34-5.09,1.39-1.44,1.05-2.17,2.79-2.17,5.21v11.87h-5.09V10.83h5.09v3.96Z"/>
      <path class="cls-1" d="M558.65,6.33c-.64.64-1.41.97-2.28.97s-1.64-.32-2.28-.97c-.64-.64-.97-1.4-.97-2.28s.31-1.64.94-2.28c.63-.64,1.4-.97,2.31-.97s1.68.32,2.31.97.94,1.41.94,2.28-.32,1.64-.97,2.28ZM553.82,34.38V10.83h5.09v23.55h-5.09Z"/>
      <path class="cls-1" d="M574.02,35c-3.55,0-6.51-1.19-8.88-3.58-2.37-2.39-3.56-5.32-3.56-8.81s1.18-6.46,3.56-8.83c2.37-2.37,5.33-3.56,8.88-3.56,2.29,0,4.38.55,6.26,1.65,1.88,1.1,3.3,2.58,4.24,4.43l-4.38,2.54c-.53-1.13-1.34-2.02-2.43-2.66-1.08-.64-2.33-.97-3.74-.97-2.07,0-3.81.71-5.21,2.12s-2.1,3.17-2.1,5.28.7,3.86,2.1,5.28,3.13,2.12,5.21,2.12c1.38,0,2.63-.33,3.74-.99,1.11-.66,1.96-1.54,2.52-2.64l4.38,2.5c-1,1.88-2.45,3.38-4.33,4.47s-3.97,1.65-6.26,1.65Z"/>
      <path class="cls-1" d="M599.55,15.73h-5.84v11.3c0,.97.22,1.67.66,2.1.44.42,1.09.66,1.95.71.86.05,1.94.04,3.23-.02v4.57c-3.89.47-6.69.13-8.38-1.01s-2.54-3.26-2.54-6.33v-11.3h-4.33v-4.9h4.33v-5.09l5.09-1.51v6.59h5.84v4.9Z"/>
      <path class="cls-1" d="M628.33,35c-4.96,0-9.08-1.64-12.34-4.92s-4.9-7.34-4.9-12.18,1.63-8.89,4.9-12.18c3.27-3.28,7.38-4.92,12.34-4.92,2.98,0,5.74.71,8.27,2.12,2.53,1.41,4.5,3.33,5.91,5.75l-4.71,2.73c-.88-1.63-2.16-2.93-3.84-3.89-1.68-.96-3.56-1.44-5.63-1.44-3.52,0-6.37,1.12-8.55,3.34-2.18,2.23-3.27,5.06-3.27,8.48s1.09,6.25,3.27,8.48c2.18,2.23,5.03,3.34,8.55,3.34,2.07,0,3.96-.48,5.65-1.44,1.7-.96,2.97-2.25,3.82-3.89l4.71,2.68c-1.38,2.42-3.34,4.34-5.86,5.77-2.53,1.43-5.3,2.14-8.31,2.14Z"/>
      <path class="cls-1" d="M655.84,35c-3.45,0-6.39-1.19-8.81-3.58-2.42-2.39-3.63-5.32-3.63-8.81s1.21-6.42,3.63-8.81c2.42-2.39,5.35-3.58,8.81-3.58s6.43,1.19,8.83,3.58c2.4,2.39,3.6,5.32,3.6,8.81s-1.2,6.42-3.6,8.81c-2.4,2.39-5.35,3.58-8.83,3.58ZM650.61,27.93c1.41,1.41,3.16,2.12,5.23,2.12s3.82-.71,5.23-2.12,2.12-3.19,2.12-5.32-.71-3.91-2.12-5.32-3.16-2.12-5.23-2.12-3.82.71-5.23,2.12c-1.41,1.41-2.12,3.19-2.12,5.32s.71,3.91,2.12,5.32Z"/>
      <path class="cls-1" d="M696.72,10.22c2.67,0,4.82.86,6.45,2.59,1.63,1.73,2.45,4.05,2.45,6.97v14.6h-5.09v-14.27c0-1.63-.41-2.9-1.22-3.79-.82-.89-1.93-1.34-3.34-1.34-1.57,0-2.82.52-3.74,1.55-.93,1.04-1.39,2.59-1.39,4.66v13.19h-5.09v-14.27c0-1.63-.38-2.9-1.15-3.79-.77-.89-1.86-1.34-3.27-1.34-1.54,0-2.79.53-3.77,1.58-.97,1.05-1.46,2.6-1.46,4.64v13.19h-5.09V10.83h5.09v2.83c1.51-2.29,3.75-3.44,6.74-3.44s5.24,1.24,6.69,3.72c1.57-2.48,3.97-3.72,7.21-3.72Z"/>
      <path class="cls-1" d="M734.92,10.22c2.67,0,4.82.86,6.45,2.59,1.63,1.73,2.45,4.05,2.45,6.97v14.6h-5.09v-14.27c0-1.63-.41-2.9-1.22-3.79-.82-.89-1.93-1.34-3.34-1.34-1.57,0-2.82.52-3.74,1.55-.93,1.04-1.39,2.59-1.39,4.66v13.19h-5.09v-14.27c0-1.63-.38-2.9-1.15-3.79-.77-.89-1.86-1.34-3.27-1.34-1.54,0-2.79.53-3.77,1.58-.97,1.05-1.46,2.6-1.46,4.64v13.19h-5.09V10.83h5.09v2.83c1.51-2.29,3.75-3.44,6.74-3.44s5.24,1.24,6.69,3.72c1.57-2.48,3.97-3.72,7.21-3.72Z"/>
      <path class="cls-1" d="M752.23,6.33c-.64.64-1.41.97-2.28.97s-1.64-.32-2.28-.97c-.64-.64-.97-1.4-.97-2.28s.31-1.64.94-2.28c.63-.64,1.4-.97,2.31-.97s1.68.32,2.31.97.94,1.41.94,2.28-.32,1.64-.97,2.28ZM747.4,34.38V10.83h5.09v23.55h-5.09Z"/>
      <path class="cls-1" d="M769.63,15.73h-5.84v11.3c0,.97.22,1.67.66,2.1.44.42,1.09.66,1.95.71.86.05,1.94.04,3.23-.02v4.57c-3.89.47-6.69.13-8.38-1.01s-2.54-3.26-2.54-6.33v-11.3h-4.33v-4.9h4.33v-5.09l5.09-1.51v6.59h5.84v4.9Z"/>
      <path class="cls-1" d="M784.42,15.73h-5.84v11.3c0,.97.22,1.67.66,2.1.44.42,1.09.66,1.95.71.86.05,1.94.04,3.23-.02v4.57c-3.89.47-6.69.13-8.38-1.01s-2.54-3.26-2.54-6.33v-11.3h-4.33v-4.9h4.33v-5.09l5.09-1.51v6.59h5.84v4.9Z"/>
      <path class="cls-1" d="M790.22,24.78c.38,1.79,1.24,3.16,2.59,4.12,1.35.96,3,1.44,4.95,1.44,2.7,0,4.73-.97,6.08-2.92l4.19,2.45c-2.32,3.42-5.76,5.13-10.32,5.13-3.83,0-6.92-1.17-9.28-3.51-2.35-2.34-3.53-5.3-3.53-8.88s1.16-6.46,3.49-8.83c2.32-2.37,5.31-3.56,8.95-3.56,3.45,0,6.29,1.21,8.5,3.63,2.21,2.42,3.32,5.35,3.32,8.81,0,.54-.06,1.24-.19,2.12h-18.75ZM790.17,20.63h13.85c-.35-1.91-1.14-3.36-2.38-4.33-1.24-.97-2.69-1.46-4.36-1.46-1.88,0-3.46.52-4.71,1.55-1.26,1.04-2.06,2.45-2.4,4.24Z"/>
      <path class="cls-1" d="M815.61,24.78c.38,1.79,1.24,3.16,2.59,4.12,1.35.96,3,1.44,4.95,1.44,2.7,0,4.73-.97,6.08-2.92l4.19,2.45c-2.32,3.42-5.76,5.13-10.32,5.13-3.83,0-6.92-1.17-9.28-3.51-2.35-2.34-3.53-5.3-3.53-8.88s1.16-6.46,3.49-8.83c2.32-2.37,5.31-3.56,8.95-3.56,3.45,0,6.29,1.21,8.5,3.63,2.21,2.42,3.32,5.35,3.32,8.81,0,.54-.06,1.24-.19,2.12h-18.75ZM815.56,20.63h13.85c-.35-1.91-1.14-3.36-2.38-4.33-1.24-.97-2.69-1.46-4.36-1.46-1.88,0-3.46.52-4.71,1.55-1.26,1.04-2.06,2.45-2.4,4.24Z"/>
    </g>
  </g>
</svg>