<svg id="Layer_2" data-name="Layer 2" xmlns="http://www.w3.org/2000/svg" xmlns:xlink="http://www.w3.org/1999/xlink" viewBox="0 0 1098.56 171"><defs><style>.cls-1{fill:none;}.cls-2{clip-path:url(#clip-path);}.cls-3{fill:#0e0e0e;}.cls-4{fill:url(#linear-gradient);}</style><clipPath id="clip-path"><rect class="cls-1" width="1098.56" height="320.52"/></clipPath><linearGradient id="linear-gradient" x1="-33.76" y1="250.87" x2="1124.64" y2="250.87" gradientTransform="matrix(1, 0, 0, -1, 0, 322)" gradientUnits="userSpaceOnUse"><stop offset="0" stop-color="#700696"/><stop offset="0.51" stop-color="#209fe3"/><stop offset="0.99" stop-color="#2fa"/></linearGradient></defs><title>RibbonNoBG</title><g class="cls-2"><path class="cls-3" d="M1098.56,55.06v48.07l-889,39.14-87.83-15L8.13,83.38,6.34,68.74,2.67,59l0,0-.39-1S70.34,33.15,107.79,35.7c0,0,83.4-6.63,128.34,8.34s43.23,10.22,43.23,10.22l13.45-.68,4.25,1.19L305.13,59l.08,0,7.68,4.05,28,.17L358.07,59l.16,0,61.51-15.15,38.69-9.63L498.52,36,603.11,58.53l2,.51L662,73.29l22.13,1.92,50.06,1.7L779.11,65l9-5.93.11-.07,28.34-18.55,28.6,7.83L882.6,49l57.53-13.22,67.74-11.29,38.81,2.38,25.53,8.91Z"/><path class="cls-3" d="M1098.56,59V171H0V59H319a93.77,93.77,0,0,0,27.05.24c.61-.08,1.22-.15,1.83-.24H605.11L662,73.29l22.13,1.92,50.06,1.7L779.11,65l9-5.93.11,0Z"/><path class="cls-4" d="M1124.48,116.25c-4.59-15.4-13.94-28.18-25.92-38.06A105.77,105.77,0,0,0,1062.46,59c-2.29-.72-4.6-1.35-6.92-1.91-24.82-6-50.14-3.56-74.94,1.91-16.28,3.58-32.33,8.48-47.87,13.18C911.47,78.65,890,85.08,867.89,87.94a167.75,167.75,0,0,1-64.52-4.45c-12.6-3.27-25.21-7.45-37.92-11.22A141.6,141.6,0,0,0,796.53,59q4.62-2.64,9-5.65a145.51,145.51,0,0,0,12.16-9.27c9.65,5,21.8,6.94,31.66,7.72,27.09,2.14,54.1-3.34,80.35-9.44,44.33-10.31,93.58-23.92,137.73-5.11A86.22,86.22,0,0,1,1094.07,55a3.15,3.15,0,0,0,4.48,0,3.12,3.12,0,0,0,.22-4.74c-27.44-26.85-67.62-31.49-104.2-27.65-46.75,4.92-91.45,24.65-139,22.87-10.82-.4-22.8-1.42-32.79-6.11,9.57-9.51,16.94-21.46,10.07-32.61C828.68,0,820-1.43,813,1.29,805,4.35,800.59,12,801.06,20.4a26.06,26.06,0,0,0,10.66,19.94c-16.87,14.49-37.36,23.51-59,28.37-20.17-5.28-40.61-8.44-61.59-4.24a139.35,139.35,0,0,0-19.94,5.75C631,64.26,592,51,552.5,41.72,529,36.22,505.08,32,480.94,31.31A212.75,212.75,0,0,0,412,41c-21.2,6.5-42.13,15-64.17,18-.61.09-1.22.16-1.83.24A93.77,93.77,0,0,1,319,59a51.06,51.06,0,0,1-14.36-4.57c.59-.23,1.17-.46,1.74-.71,13.33-5.84,22.4-23.3,17.31-37.47a19.29,19.29,0,0,0-16-12.75c-7.76-.79-14.9,3.67-19.57,9.56-9.7,12.24-8,27,1.19,37.63a83.82,83.82,0,0,1-20.32-2.44c-11.26-2.52-22.32-5.85-33.6-8.29A436.69,436.69,0,0,0,28.47,45.56C17.53,48.54,6.73,52-3.94,55.82c-4,1.44-2.27,7.86,1.77,6.41L0,61.46l3.17-1.1c1.29-.45,2.58-.89,3.88-1.32A431.19,431.19,0,0,1,154,37a425.09,425.09,0,0,1,78.45,9.22c19.63,4.2,42.67,14.15,63.42,10.62l.32.23c1,.7,2.05,1.36,3.1,2,16.86,9.85,38.41,8.81,56.9,5.31A215.55,215.55,0,0,0,377.51,59c17.41-5.17,34.42-11.76,52.07-16,27.47-6.67,56-6.23,83.87-2.13,26.95,4,53.2,11.08,79.47,18.17C614.86,65,636.8,70.86,659.16,74.87c-24.8,10.12-49,22-76.77,16.43C546,84.06,515.25,59.14,476.68,62.19,437,65.32,402.26,88.51,363.28,95.26c-43.74,7.58-88.48.13-131.48-8.45C161.13,72.7,82.11,52.89,13.4,85.42l-1.6.76q-6.06,3-11.8,6.48-1.51.93-3,1.89l-2.51-2a129,129,0,0,1-21.9-23.72c-2.47-3.45-8.24-.13-5.74,3.36A137.58,137.58,0,0,0-8.65,98.36c-.72.51-1.44,1-2.15,1.54-3.42,2.5-.11,8.27,3.35,5.74q2.12-1.55,4.26-3c1,.79,2.12,1.56,3.19,2.32a137,137,0,0,0,71.91,24.8,82.9,82.9,0,0,0,19.83-1.32c13.44,10.46,32.26,11.23,49.18,11.21,17.4,0,34.8,0,52.21-.19,35.18-.31,70.35-1.19,105.45-3.56,51.42-3.46,102.8-10.23,152.68-23.42,12.56-3.31,26.83-8.88,39.85-4.93a26,26,0,0,1,9.44,5.77,48.23,48.23,0,0,0-5.36,2.37c-4.57,2.37-13.53,8.51-14.41,14.64a6.15,6.15,0,0,0,0,2.14c1.2,6.18,7.53,9.51,13.33,9.77,9.95.46,16.59-5.59,18.34-13.31a19.67,19.67,0,0,0-1-11.49c15.89-2.32,30.81,3.65,45.59,9.53a186.34,186.34,0,0,0,21.22,7.47c21.28,5.54,43.43,4.38,64.86.43,18.94-3.49,37.55-9,56.22-14.17,26.52-7.27,53.15-13.67,81-12,14.58.85,28.93,3.48,43.19,6.57,11.09,2.39,22.15,5.07,33.23,7.43,24.28,5.15,48.56,8.2,73.37,5.53,47.53-5.13,96-25.47,143.87-11.56A87.56,87.56,0,0,1,1098.56,128c1.58,1.06,3.13,2.18,4.65,3.34,3.38,2.61,6.69-3.16,3.35-5.74a88.09,88.09,0,0,0-8-5.49c-16.46-10-35-14-54-14.62a198.7,198.7,0,0,0-28,1.23c-12.82,1.38-25.51,3.71-37.63,6.17-25.85,5.26-51.82,11-78.37,9.53-17.5-1-34.65-4.47-51.72-8.32-7.58-1.71-15.15-3.49-22.73-5.13-23.46-5.09-47.25-8.81-71.3-6.52-22.58,2.14-44.51,8.21-66.29,14.28-6.36,1.77-12.74,3.57-19.15,5.27-15.85,4.22-31.87,7.87-48.21,9.12a128.21,128.21,0,0,1-33.82-1.51,109,109,0,0,1-13.15-3.42c-7.44-2.37-14.69-5.33-22-8.14-14.1-5.39-29.52-9.57-44.27-6.78-13.93-17.93-38.74-10.46-57.41-5.49-96.14,25.59-196.4,27.11-295.32,27.19h-15.3c-12.07,0-24.75,0-36-4.92a36,36,0,0,1-3.91-2,36.73,36.73,0,0,0,8-4.12,26.94,26.94,0,0,0,10.85-14.81c4.51-15.07-6.19-32.61-23.3-27.39C81.32,84.1,75.89,98.2,79.41,110.92a28.92,28.92,0,0,0,4.34,9.14c.77,1.08,1.58,2.1,2.41,3.07C74.24,124.48,61,122.47,52,120.56A132.8,132.8,0,0,1,2.68,98.85a149.26,149.26,0,0,1,19.5-10C78.67,64.75,146,76,204.62,88c41.12,8.45,82.77,17.64,125,16.92a214.31,214.31,0,0,0,60.6-9.39c18.48-5.79,36.15-13.87,54.58-19.81,18.8-6,38.41-9.47,58-5.23,17.59,3.8,33.81,11.87,50.41,18.53,16.4,6.59,33.71,11.81,51.59,10.23s34.3-8.67,50.6-15.52c5.59-2.36,11.2-4.67,16.88-6.73,1,.14,2,.3,3.08.43,25.36,3.39,52.08,3.48,77.37-1.94,4.69,1.27,9.34,2.64,13.95,4,18.77,5.68,37.45,12.07,56.92,14.92,20.1,2.94,40.33,1.42,60.2-2.44C927,83.57,968,64.34,1012.17,60.88c30.43-2.39,63.86,4.4,86.39,25.81a79,79,0,0,1,8.55,9.54,68,68,0,0,1,11,21.75C1119.29,122.1,1125.71,120.36,1124.48,116.25Zm-618.36,13a10.59,10.59,0,0,1-1.63,2.5v0a12.65,12.65,0,0,1-9.28,3.91c-2.2,0-8-1-7.87-4.39a2.82,2.82,0,0,1,.47-1.25c1.6-2.59,6.79-6.27,8.8-7.48a36.56,36.56,0,0,1,8.44-3.66C507,122.18,507.71,125.81,506.12,129.21ZM84.61,102.79c.11-9,8.84-18.4,18.31-17.24,10.64,1.3,12.12,14.28,8.62,22.3a22.73,22.73,0,0,1-10.88,11.28,34.67,34.67,0,0,1-6.7,2.56,31.21,31.21,0,0,1-6.23-7.56A22,22,0,0,1,84.61,102.79ZM809.2,12.65c4.42-8,19.29-8.61,19.39,2.66.06,8-5.84,14.92-11.75,20.47C809.92,30.28,804.57,21.07,809.2,12.65ZM710,69.11a129.1,129.1,0,0,1,26.16,2.53,212.12,212.12,0,0,1-39.11,1.28c-3.13-.18-6.25-.41-9.38-.7A97.34,97.34,0,0,1,710,69.11Zm-418.82-49c3.87-6.55,11.66-12.43,19.48-8.89,15.91,7.21,4.77,31.22-6.9,36.45a35.06,35.06,0,0,1-6.41,2.09,33.6,33.6,0,0,1-4.51-4.65C286.84,37.58,286.3,28.34,291.18,20.1Z"/></g></svg>