<svg xmlns="http://www.w3.org/2000/svg" xmlns:xlink="http://www.w3.org/1999/xlink" viewBox="0 0 2003.05 1343.7"><defs><style>.cls-1{opacity:0.96;fill:url(#linear-gradient);}</style><linearGradient id="linear-gradient" x1="251.01" y1="1293.7" x2="1614.39" y2="188.65" gradientUnits="userSpaceOnUse"><stop offset="0" stop-color="#700696"/><stop offset="0.51" stop-color="#209fe3"/><stop offset="0.99" stop-color="#2fa"/></linearGradient></defs><title>Favicon</title><g id="Layer_2" data-name="Layer 2"><g id="Layer_1-2" data-name="Layer 1"><path class="cls-1" d="M1182.81,714.72a1366.22,1366.22,0,0,1,35.94-352.82c10-42.7,23.65-91.18,48.43-126.59,15.2-21.76,35.58-38,55-44.42A64.38,64.38,0,0,1,1337,188c30.92-1.64,67.44,28.48,81.68,67.35,20,54.58,6.36,120.89-8.7,166.84-37.91,116.11-118.26,221.3-220.49,288.24C1187.22,711.85,1185,713.29,1182.81,714.72Zm634.87,74.16c-5.81,35.75-56.45,191.92-198.24,301.64-80.15,61.89-208.14,93.71-297.59,34.63-55.85-36.82-95.16-106.88-117.14-208.67a738.38,738.38,0,0,0,87.6-49.14c139.16-91.34,244.35-228.76,296-387,35.23-107.79,37.38-205.24,6.51-289.57C1551.54,72.65,1441.29-5.59,1326.78.68c-80.93,4.46-160.67,52-213.23,127-43.09,61.43-63.26,131.15-77.46,191.23a1556.82,1556.82,0,0,0-37.42,469.51h-.26c-4.18,25.54-31,112-97.21,199.19-27,35.32-60.13,70.86-101,102.45-80.14,62-208.14,93.83-297.58,34.75-55.85-36.94-95.16-107-117.15-208.79a720.47,720.47,0,0,0,87.61-49.14,737.83,737.83,0,0,0,296-387c35.23-107.79,37.39-205.12,6.52-289.45C732.28,72.21,622-6,507.51.36,426.59,4.7,346.85,52.18,294.29,127.26c-43.09,61.43-63.39,131.16-77.47,191.36a1556.76,1556.76,0,0,0-37.42,469.5A543.58,543.58,0,0,1,17.82,797.3L0,984a732.76,732.76,0,0,0,206.42-9.63c34.33,142,99,245,192.82,306.94,103,68,238.5,79.39,364.81,37.54a510,510,0,0,0,150.8-80.32,741.34,741.34,0,0,0,147.48-152.35c36.76,85.76,89,151.16,156.17,195.57,103,67.91,238.63,79.27,364.82,37.54a505.72,505.72,0,0,0,150.78-80.45c228.12-176.29,268.48-418.51,269-420.94ZM363.41,714.41a1373.37,1373.37,0,0,1,35.95-352.95c10.15-42.7,23.78-91.18,48.56-126.59,15.19-21.76,35.57-37.88,54.95-44.3a52.66,52.66,0,0,1,14.86-2.9c30.79-1.77,67.44,28.48,81.67,67.22,20,54.7,6.37,120.89-8.7,166.84C552.81,538,472.45,643,370.1,710.1,368,711.54,365.68,713,363.41,714.41Z"/></g></g></svg>