<?xml version="1.0" encoding="UTF-8"?>
<svg id="Layer_2" xmlns="http://www.w3.org/2000/svg" viewBox="0 0 513.11 300.39">
  <defs>
    <style>
      .cls-1 {
        fill: #d8c46f;
      }

      .cls-2 {
        fill: #69b295;
      }

      .cls-3 {
        fill: #444;
      }

      .cls-4 {
        fill: #d35f59;
      }

      .cls-5 {
        fill: #bf9966;
      }
    </style>
  </defs>
  <g id="Layer_1-2" data-name="Layer_1">
    <g>
      <g>
        <path class="cls-4" d="M110.68,94.8h-16.35l-10.81,10.8v66.59l-6.43,6.13h-32.7l-6.43-6.13v-66.59l-10.81-10.8H10.81L0,105.6v183.99l10.81,10.81h16.35l10.81-10.81v-66.88l6.43-6.13h32.7l6.43,6.13v66.88l10.81,10.81h16.35l11.1-10.81V105.6l-11.1-10.8Z"/>
        <path class="cls-1" d="M223.12,95.67h-63.95l-28.62,28.33v147.77l28.62,28.62h63.95l28.62-28.62V124l-28.62-28.33ZM213.78,193.8l-.15-.15v53.74l.15.15v8.47l-6.43,6.43h-32.41l-6.43-6.43v-6.6h0v-104.84h0v-4.79l6.43-6.13h32.41l6.43,6.13v54.03Z"/>
        <path class="cls-2" d="M353.07,95.38h-81.77l-10.8,10.81v183.4l10.8,10.81h16.36l10.81-10.81v-72.72h54.6l28.62-28.62v-64.24l-28.62-28.62ZM343.73,172.48l-6.42,6.43h-32.42l-6.42-6.43v-32.7l6.42-6.43h32.42l6.42,6.43v32.7Z"/>
        <path class="cls-5" d="M435.43,134.22h66.88l10.81-10.81v-16.35l-10.81-10.81h-100.75l-11.1,10.81v182.52l11.1,10.81h100.75l10.81-10.81v-16.06l-10.81-10.81h-66.88l-6.42-6.43v-32.7l6.42-6.43h27.46l11.1-10.81v-16.06l-11.1-10.81h-27.46l-6.42-6.13v-33l6.42-6.13Z"/>
      </g>
      <g>
        <path class="cls-3" d="M38.95.61H3.86L0,4.37v63.58l3.86,3.76h5.7l3.86-3.76v-22.99l2.24-2.23h9.56l3.86-3.77v-5.59l-3.86-3.77h-9.56l-2.24-2.14v-11.49l2.24-2.14h23.29l3.77-3.76v-5.7l-3.77-3.76Z"/>
        <path class="cls-3" d="M67.53,13.83h23.29l3.77-3.76v-5.7l-3.77-3.76h-35.09l-3.86,3.76v63.58l3.86,3.76h35.09l3.77-3.76v-5.6l-3.77-3.77h-23.29l-2.24-2.23v-11.4l2.24-2.23h9.56l3.86-3.77v-5.59l-3.86-3.77h-9.56l-2.24-2.14v-11.49l2.24-2.14Z"/>
        <path class="cls-3" d="M136.39,23.9h5.7l3.77-3.76v-9.67l-9.98-9.86h-22.27l-9.86,9.86v22.38l9.86,9.86h16.88l2.14,2.23v11.4l-2.14,2.13h-11.39l-2.14-2.13v-4.28l-3.76-3.76h-5.7l-3.76,3.76v9.77l9.86,9.86h22.27l9.98-9.86v-22.38l-9.98-9.97h-16.78l-2.14-2.14v-11.39l2.14-2.23h11.39l2.14,2.23v4.17l3.76,3.76Z"/>
        <path class="cls-3" d="M193.35.51h-34.58l-3.77,3.77v5.59l3.77,3.77h10.67v54.32l3.77,3.76h5.69l3.77-3.76V13.73h10.68l3.76-3.77v-5.69l-3.76-3.77Z"/>
        <path class="cls-3" d="M244.81,13.32l3.86-3.76V3.86l-3.86-3.76h-34.79l-3.76,3.76v5.7l3.76,3.76h10.79v45.16h-10.79l-3.76,3.77v5.7l3.76,3.76h34.79l3.86-3.76v-5.7l-3.86-3.77h-10.79V13.32h10.79Z"/>
        <path class="cls-3" d="M289.77.61h-5.7l-3.76,3.76v43.54l-7.84,7.83-7.83-7.83V4.37l-3.76-3.76h-5.7l-3.77,3.76v48.93l18.42,18.41h5.28l18.41-18.41V4.37l-3.76-3.76Z"/>
        <path class="cls-3" d="M335.33.61h-22.58l-10.07,9.97v57.37l3.86,3.76h5.7l3.86-3.76v-22.99l2.24-2.23h11.49l2.23,2.23v22.99l3.77,3.76h5.79l3.77-3.76V10.58l-10.07-9.97ZM332.07,27.46l-2.23,2.14h-11.49l-2.24-2.14v-11.49l2.24-2.14h11.49l2.23,2.14v11.49Z"/>
        <path class="cls-3" d="M394.93,48.92h-5.7l-3.76,3.77-.1,3.56-2.24,2.23h-11.39l-2.24-2.23.1-52.39-3.76-3.86h-5.7l-3.86,3.86v57.88l9.97,9.97h22.37l9.97-9.97.1-9.05-3.76-3.77Z"/>
        <path class="cls-3" d="M451.28.41h-22.28l-9.97,9.87v51.46l9.97,9.97h22.28l9.97-9.97V10.28l-9.97-9.87ZM448.03,34.58l-.13-.13v18.72l.13.13v2.95l-2.24,2.23h-11.29l-2.23-2.23v-2.19h-.07V16.9h.07v-1.13l2.23-2.14h11.29l2.24,2.14v18.81Z"/>
        <path class="cls-3" d="M509.35.61h-35.09l-3.86,3.76v63.58l3.86,3.76h5.7l3.86-3.76v-22.99l2.23-2.23h9.56l3.87-3.77v-5.59l-3.87-3.77h-9.56l-2.23-2.14v-11.49l2.23-2.14h23.3l3.76-3.76v-5.7l-3.76-3.76Z"/>
      </g>
    </g>
  </g>
</svg>