<?xml version="1.0" encoding="UTF-8"?>
<svg id="Layer_2" xmlns="http://www.w3.org/2000/svg" viewBox="0 0 980.16 66.22">
  <defs>
    <style>
      .cls-1 {
        fill: #3d3d3d;
      }
    </style>
  </defs>
  <g id="Layer_1-2" data-name="Layer_1">
    <g>
      <rect class="cls-1" x="25" y="1.95" width="9.4" height="9.4" transform="translate(4 22.95) rotate(-45)"/>
      <polygon class="cls-1" points="30.63 44.61 61.26 13.98 57.73 10.45 50.44 3.17 39.64 13.98 30.63 22.99 21.62 13.98 10.8 3.17 0 13.98 19.82 33.81 30.63 44.61"/>
      <rect class="cls-1" x="86.26" y="1.95" width="9.4" height="9.4" transform="translate(21.94 66.27) rotate(-45)"/>
      <rect class="cls-1" x="147.52" y="1.95" width="9.4" height="9.4" transform="translate(39.88 109.58) rotate(-45)"/>
      <rect class="cls-1" x="208.78" y="1.95" width="9.4" height="9.4" transform="translate(57.82 152.9) rotate(-45)"/>
      <rect class="cls-1" x="270.04" y="1.95" width="9.4" height="9.4" transform="translate(75.77 196.23) rotate(-45)"/>
      <rect class="cls-1" x="331.3" y="1.95" width="9.4" height="9.4" transform="translate(93.71 239.54) rotate(-45)"/>
      <rect class="cls-1" x="392.56" y="1.95" width="9.4" height="9.4" transform="translate(111.65 282.85) rotate(-45)"/>
      <rect class="cls-1" x="453.82" y="1.95" width="9.4" height="9.4" transform="translate(129.6 326.17) rotate(-45)"/>
      <rect class="cls-1" x="515.08" y="1.95" width="9.4" height="9.4" transform="translate(147.55 369.5) rotate(-45)"/>
      <rect class="cls-1" x="576.34" y="1.95" width="9.4" height="9.4" transform="translate(165.48 412.81) rotate(-45)"/>
      <rect class="cls-1" x="637.6" y="1.95" width="9.4" height="9.4" transform="translate(183.42 456.12) rotate(-45)"/>
      <polygon class="cls-1" points="632.42 33.81 643.24 44.61 670.32 17.52 673.86 13.98 663.05 3.17 652.25 13.98 643.24 22.99 634.23 13.98 623.41 3.17 616.14 10.45 612.6 13.98 616.13 17.52 632.42 33.81"/>
      <rect class="cls-1" x="698.86" y="1.95" width="9.4" height="9.4" transform="translate(201.37 499.44) rotate(-45)"/>
      <rect class="cls-1" x="760.12" y="1.95" width="9.4" height="9.4" transform="translate(219.33 542.78) rotate(-45)"/>
      <polygon class="cls-1" points="754.94 33.81 765.76 44.61 792.84 17.52 796.38 13.98 792.85 10.45 785.57 3.17 774.77 13.98 765.76 22.99 756.75 13.98 745.93 3.17 738.66 10.45 735.12 13.98 738.65 17.52 754.94 33.81"/>
      <rect class="cls-1" x="821.38" y="1.95" width="9.4" height="9.4" transform="translate(237.25 586.07) rotate(-45)"/>
      <polygon class="cls-1" points="816.2 33.81 827.02 44.61 854.1 17.52 857.64 13.98 854.11 10.45 846.83 3.17 836.03 13.98 827.02 22.99 818.01 13.98 807.19 3.17 799.92 10.45 796.38 13.98 799.91 17.52 816.2 33.81"/>
      <rect class="cls-1" x="882.64" y="1.95" width="9.4" height="9.4" transform="translate(255.19 629.39) rotate(-45)"/>
      <polygon class="cls-1" points="877.46 33.81 888.28 44.61 915.36 17.52 918.9 13.98 915.37 10.45 908.09 3.17 897.29 13.98 888.28 22.99 879.27 13.98 868.45 3.17 861.18 10.45 857.64 13.98 861.17 17.52 877.46 33.81"/>
      <rect class="cls-1" x="943.9" y="1.95" width="9.4" height="9.4" transform="translate(273.14 672.71) rotate(-45)"/>
      <polygon class="cls-1" points="938.72 33.81 949.54 44.61 980.16 13.98 969.35 3.17 958.55 13.98 949.54 22.99 940.53 13.98 929.71 3.17 922.44 10.45 918.9 13.98 922.43 17.52 938.72 33.81"/>
      <polygon class="cls-1" points="81.08 33.81 91.89 44.61 118.98 17.52 122.52 13.98 118.99 10.45 111.7 3.17 100.9 13.98 91.89 22.99 82.88 13.98 72.06 3.17 64.79 10.44 61.26 13.98 64.79 17.52 81.08 33.81"/>
      <polygon class="cls-1" points="142.34 33.81 153.15 44.61 180.24 17.52 183.78 13.98 180.25 10.45 172.97 3.17 162.16 13.98 153.15 22.99 144.14 13.98 133.32 3.17 126.05 10.44 122.52 13.98 126.05 17.52 142.34 33.81"/>
      <polygon class="cls-1" points="203.6 33.81 214.41 44.61 241.5 17.52 241.5 17.52 245.04 13.98 234.23 3.17 214.41 22.99 205.4 13.98 194.58 3.17 187.31 10.44 183.78 13.98 187.31 17.52 203.6 33.81"/>
      <polygon class="cls-1" points="264.86 33.81 275.67 44.61 302.76 17.52 306.3 13.98 302.77 10.45 302.77 10.45 295.49 3.17 275.67 22.99 266.66 13.98 255.84 3.17 248.57 10.44 245.04 13.98 248.57 17.52 264.86 33.81"/>
      <polygon class="cls-1" points="326.12 33.81 336.93 44.61 364.02 17.52 367.56 13.98 356.75 3.17 345.94 13.98 345.94 13.98 336.93 22.99 327.92 13.98 317.1 3.17 309.83 10.44 306.3 13.98 309.83 17.52 326.12 33.81"/>
      <polygon class="cls-1" points="387.38 33.81 398.19 44.61 425.28 17.52 428.82 13.98 425.29 10.45 418.01 3.17 407.2 13.98 407.2 13.98 398.19 22.99 389.18 13.98 378.36 3.17 371.09 10.44 367.56 13.98 371.09 17.52 387.38 33.81"/>
      <polygon class="cls-1" points="448.64 33.81 459.45 44.61 486.54 17.52 490.08 13.98 486.55 10.45 479.27 3.17 459.45 22.99 450.44 13.98 439.62 3.17 432.35 10.44 428.82 13.98 432.35 17.52 448.64 33.81"/>
      <polygon class="cls-1" points="509.9 33.81 520.71 44.61 547.8 17.52 551.34 13.98 547.81 10.45 540.53 3.17 520.71 22.99 500.89 3.17 493.62 10.45 490.08 13.98 493.61 17.52 509.9 33.81"/>
      <polygon class="cls-1" points="571.16 33.81 581.98 44.61 609.06 17.52 612.6 13.98 601.79 3.17 590.99 13.98 581.98 22.99 572.97 13.98 562.15 3.17 554.88 10.45 551.34 13.98 554.87 17.52 571.16 33.81"/>
      <polygon class="cls-1" points="693.68 33.81 704.5 44.61 731.58 17.52 735.12 13.98 724.31 3.17 713.51 13.98 704.5 22.99 695.49 13.98 684.67 3.17 677.4 10.45 673.86 13.98 677.39 17.52 693.68 33.81"/>
      <polygon class="cls-1" points="980.16 21.05 980.16 66.22 0 66.22 0 21.06 16.28 37.34 30.63 51.68 61.26 21.06 77.54 37.34 91.89 51.68 122.52 21.05 153.15 51.68 183.78 21.06 200.06 37.34 214.41 51.68 245.04 21.05 261.33 37.34 275.67 51.68 306.3 21.05 322.59 37.34 336.93 51.68 367.56 21.05 398.19 51.68 428.82 21.05 445.11 37.34 459.46 51.68 490.08 21.05 506.37 37.34 520.72 51.68 551.34 21.05 567.63 37.34 581.98 51.68 612.6 21.05 628.89 37.34 643.24 51.68 673.86 21.05 690.15 37.34 704.5 51.68 735.12 21.05 751.41 37.34 765.76 51.68 796.38 21.05 812.67 37.34 827.02 51.68 857.64 21.05 873.93 37.34 888.28 51.68 918.9 21.05 935.19 37.34 949.54 51.68 980.16 21.05"/>
    </g>
  </g>
</svg>