<svg xmlns="http://www.w3.org/2000/svg" viewBox="0 0 2147.25 34.32"><defs><style>.cls-1,.cls-10,.cls-11,.cls-12,.cls-13,.cls-14,.cls-15,.cls-16,.cls-17,.cls-18,.cls-19,.cls-2,.cls-20,.cls-21,.cls-22,.cls-23,.cls-24,.cls-25,.cls-26,.cls-27,.cls-3,.cls-4,.cls-5,.cls-6,.cls-7,.cls-8,.cls-9{fill:none;stroke-miterlimit:10;stroke-width:1.29px;}.cls-1{stroke:#aa21db;}.cls-2{stroke:#a029db;}.cls-3{stroke:#9632db;}.cls-4{stroke:#8d3ada;}.cls-5{stroke:#8343da;}.cls-6{stroke:#794bda;}.cls-7{stroke:#6f53da;}.cls-8{stroke:#665cd9;}.cls-9{stroke:#5c64d9;}.cls-10{stroke:#526cd9;}.cls-11{stroke:#4875d9;}.cls-12{stroke:#3f7dd8;}.cls-13{stroke:#3586d8;}.cls-14{stroke:#2b8ed8;}.cls-15{stroke:#a129da;}.cls-16{stroke:#9730da;}.cls-17{stroke:#8e38d9;}.cls-18{stroke:#843fd9;}.cls-19{stroke:#7b47d8;}.cls-20{stroke:#724fd7;}.cls-21{stroke:#6856d7;}.cls-22{stroke:#5f5ed6;}.cls-23{stroke:#5666d5;}.cls-24{stroke:#4c6dd5;}.cls-25{stroke:#4375d4;}.cls-26{stroke:#397cd4;}.cls-27{stroke:#3084d3;}</style></defs><title>Footer_Ribbon</title><g id="Layer_2" data-name="Layer 2"><g id="Layer_1-2" data-name="Layer 1"><circle class="cls-1" cx="17.16" cy="17.16" r="16.51"/><circle class="cls-2" cx="26.12" cy="17.16" r="16.51"/><circle class="cls-3" cx="35.08" cy="17.16" r="16.51"/><circle class="cls-4" cx="44.04" cy="17.16" r="16.51"/><circle class="cls-5" cx="53" cy="17.16" r="16.51"/><circle class="cls-6" cx="61.96" cy="17.16" r="16.51"/><circle class="cls-7" cx="70.91" cy="17.16" r="16.51"/><circle class="cls-8" cx="79.87" cy="17.16" r="16.51"/><circle class="cls-9" cx="88.83" cy="17.16" r="16.51"/><circle class="cls-10" cx="97.79" cy="17.16" r="16.51"/><circle class="cls-11" cx="106.75" cy="17.16" r="16.51"/><circle class="cls-12" cx="115.71" cy="17.16" r="16.51"/><circle class="cls-13" cx="124.67" cy="17.16" r="16.51"/><circle class="cls-14" cx="133.63" cy="17.16" r="16.51"/><circle class="cls-13" cx="151.55" cy="17.16" r="16.51"/><circle class="cls-12" cx="169.46" cy="17.16" r="16.51"/><circle class="cls-11" cx="187.38" cy="17.16" r="16.51"/><circle class="cls-10" cx="205.3" cy="17.16" r="16.51"/><circle class="cls-9" cx="223.22" cy="17.16" r="16.51"/><circle class="cls-8" cx="241.14" cy="17.16" r="16.51"/><circle class="cls-7" cx="259.05" cy="17.16" r="16.51"/><circle class="cls-6" cx="276.97" cy="17.16" r="16.51"/><circle class="cls-5" cx="294.89" cy="17.16" r="16.51"/><circle class="cls-4" cx="312.81" cy="17.16" r="16.51"/><circle class="cls-3" cx="330.73" cy="17.16" r="16.51"/><circle class="cls-2" cx="348.64" cy="17.16" r="16.51"/><circle class="cls-1" cx="366.56" cy="17.16" r="16.51"/><circle class="cls-15" cx="375.52" cy="17.16" r="16.51"/><circle class="cls-16" cx="384.48" cy="17.16" r="16.51"/><circle class="cls-17" cx="393.44" cy="17.16" r="16.51"/><circle class="cls-18" cx="402.4" cy="17.16" r="16.51"/><circle class="cls-19" cx="411.36" cy="17.16" r="16.51"/><circle class="cls-20" cx="420.32" cy="17.16" r="16.51"/><circle class="cls-21" cx="429.28" cy="17.16" r="16.51"/><circle class="cls-22" cx="438.23" cy="17.16" r="16.51"/><circle class="cls-23" cx="447.19" cy="17.16" r="16.51"/><circle class="cls-24" cx="456.15" cy="17.16" r="16.51"/><circle class="cls-25" cx="465.11" cy="17.16" r="16.51"/><circle class="cls-26" cx="474.07" cy="17.16" r="16.51"/><circle class="cls-27" cx="483.03" cy="17.16" r="16.51"/><circle class="cls-26" cx="500.95" cy="17.16" r="16.51"/><circle class="cls-25" cx="518.87" cy="17.16" r="16.51"/><circle class="cls-24" cx="536.78" cy="17.16" r="16.51"/><circle class="cls-23" cx="554.7" cy="17.16" r="16.51"/><circle class="cls-22" cx="572.62" cy="17.16" r="16.51"/><circle class="cls-21" cx="590.54" cy="17.16" r="16.51"/><circle class="cls-20" cx="608.46" cy="17.16" r="16.51"/><circle class="cls-19" cx="626.37" cy="17.16" r="16.51"/><circle class="cls-18" cx="644.29" cy="17.16" r="16.51"/><circle class="cls-17" cx="662.21" cy="17.16" r="16.51"/><circle class="cls-16" cx="680.13" cy="17.16" r="16.51"/><circle class="cls-15" cx="698.05" cy="17.16" r="16.51"/><circle class="cls-1" cx="715.96" cy="17.16" r="16.51"/><circle class="cls-15" cx="724.92" cy="17.16" r="16.51"/><circle class="cls-16" cx="733.88" cy="17.16" r="16.51"/><circle class="cls-17" cx="742.84" cy="17.16" r="16.51"/><circle class="cls-18" cx="751.8" cy="17.16" r="16.51"/><circle class="cls-19" cx="760.76" cy="17.16" r="16.51"/><circle class="cls-20" cx="769.72" cy="17.16" r="16.51"/><circle class="cls-21" cx="778.68" cy="17.16" r="16.51"/><circle class="cls-22" cx="787.64" cy="17.16" r="16.51"/><circle class="cls-23" cx="796.6" cy="17.16" r="16.51"/><circle class="cls-24" cx="805.56" cy="17.16" r="16.51"/><circle class="cls-25" cx="814.51" cy="17.16" r="16.51"/><circle class="cls-26" cx="823.47" cy="17.16" r="16.51"/><circle class="cls-27" cx="832.43" cy="17.16" r="16.51"/><circle class="cls-26" cx="850.35" cy="17.16" r="16.51"/><circle class="cls-25" cx="868.27" cy="17.16" r="16.51"/><circle class="cls-24" cx="886.19" cy="17.16" r="16.51"/><circle class="cls-23" cx="904.1" cy="17.16" r="16.51"/><circle class="cls-22" cx="922.02" cy="17.16" r="16.51"/><circle class="cls-21" cx="939.94" cy="17.16" r="16.51"/><circle class="cls-20" cx="957.86" cy="17.16" r="16.51"/><circle class="cls-19" cx="975.78" cy="17.16" r="16.51"/><circle class="cls-18" cx="993.69" cy="17.16" r="16.51"/><circle class="cls-17" cx="1011.61" cy="17.16" r="16.51"/><circle class="cls-16" cx="1029.53" cy="17.16" r="16.51"/><circle class="cls-15" cx="1047.45" cy="17.16" r="16.51"/><circle class="cls-1" cx="1065.37" cy="17.16" r="16.51"/><circle class="cls-1" cx="1081.88" cy="17.16" r="16.51"/><circle class="cls-2" cx="1090.84" cy="17.16" r="16.51"/><circle class="cls-3" cx="1099.8" cy="17.16" r="16.51"/><circle class="cls-4" cx="1108.76" cy="17.16" r="16.51"/><circle class="cls-5" cx="1117.72" cy="17.16" r="16.51"/><circle class="cls-6" cx="1126.68" cy="17.16" r="16.51"/><circle class="cls-7" cx="1135.63" cy="17.16" r="16.51"/><circle class="cls-8" cx="1144.59" cy="17.16" r="16.51"/><circle class="cls-9" cx="1153.55" cy="17.16" r="16.51"/><circle class="cls-10" cx="1162.51" cy="17.16" r="16.51"/><circle class="cls-11" cx="1171.47" cy="17.16" r="16.51"/><circle class="cls-12" cx="1180.43" cy="17.16" r="16.51"/><circle class="cls-13" cx="1189.39" cy="17.16" r="16.51"/><circle class="cls-14" cx="1198.35" cy="17.16" r="16.51"/><circle class="cls-13" cx="1216.27" cy="17.16" r="16.51"/><circle class="cls-12" cx="1234.18" cy="17.16" r="16.51"/><circle class="cls-11" cx="1252.1" cy="17.16" r="16.51"/><circle class="cls-10" cx="1270.02" cy="17.16" r="16.51"/><circle class="cls-9" cx="1287.94" cy="17.16" r="16.51"/><circle class="cls-8" cx="1305.86" cy="17.16" r="16.51"/><circle class="cls-7" cx="1323.77" cy="17.16" r="16.51"/><circle class="cls-6" cx="1341.69" cy="17.16" r="16.51"/><circle class="cls-5" cx="1359.61" cy="17.16" r="16.51"/><circle class="cls-4" cx="1377.53" cy="17.16" r="16.51"/><circle class="cls-3" cx="1395.45" cy="17.16" r="16.51"/><circle class="cls-2" cx="1413.36" cy="17.16" r="16.51"/><circle class="cls-1" cx="1431.28" cy="17.16" r="16.51"/><circle class="cls-15" cx="1440.24" cy="17.16" r="16.51"/><circle class="cls-16" cx="1449.2" cy="17.16" r="16.51"/><circle class="cls-17" cx="1458.16" cy="17.16" r="16.51"/><circle class="cls-18" cx="1467.12" cy="17.16" r="16.51"/><circle class="cls-19" cx="1476.08" cy="17.16" r="16.51"/><circle class="cls-20" cx="1485.04" cy="17.16" r="16.51"/><circle class="cls-21" cx="1494" cy="17.16" r="16.51"/><circle class="cls-22" cx="1502.95" cy="17.16" r="16.51"/><circle class="cls-23" cx="1511.91" cy="17.16" r="16.51"/><circle class="cls-24" cx="1520.87" cy="17.16" r="16.51"/><circle class="cls-25" cx="1529.83" cy="17.16" r="16.51"/><circle class="cls-26" cx="1538.79" cy="17.16" r="16.51"/><circle class="cls-27" cx="1547.75" cy="17.16" r="16.51"/><circle class="cls-26" cx="1565.67" cy="17.16" r="16.51"/><circle class="cls-25" cx="1583.59" cy="17.16" r="16.51"/><circle class="cls-24" cx="1601.5" cy="17.16" r="16.51"/><circle class="cls-23" cx="1619.42" cy="17.16" r="16.51"/><circle class="cls-22" cx="1637.34" cy="17.16" r="16.51"/><circle class="cls-21" cx="1655.26" cy="17.16" r="16.51"/><circle class="cls-20" cx="1673.18" cy="17.16" r="16.51"/><circle class="cls-19" cx="1691.09" cy="17.16" r="16.51"/><circle class="cls-18" cx="1709.01" cy="17.16" r="16.51"/><circle class="cls-17" cx="1726.93" cy="17.16" r="16.51"/><circle class="cls-16" cx="1744.85" cy="17.16" r="16.51"/><circle class="cls-15" cx="1762.77" cy="17.16" r="16.51"/><circle class="cls-1" cx="1780.68" cy="17.16" r="16.51"/><circle class="cls-15" cx="1789.64" cy="17.16" r="16.51"/><circle class="cls-16" cx="1798.6" cy="17.16" r="16.51"/><circle class="cls-17" cx="1807.56" cy="17.16" r="16.51"/><circle class="cls-18" cx="1816.52" cy="17.16" r="16.51"/><circle class="cls-19" cx="1825.48" cy="17.16" r="16.51"/><circle class="cls-20" cx="1834.44" cy="17.16" r="16.51"/><circle class="cls-21" cx="1843.4" cy="17.16" r="16.51"/><circle class="cls-22" cx="1852.36" cy="17.16" r="16.51"/><circle class="cls-23" cx="1861.32" cy="17.16" r="16.51"/><circle class="cls-24" cx="1870.27" cy="17.16" r="16.51"/><circle class="cls-25" cx="1879.23" cy="17.16" r="16.51"/><circle class="cls-26" cx="1888.19" cy="17.16" r="16.51"/><circle class="cls-27" cx="1897.15" cy="17.16" r="16.51"/><circle class="cls-26" cx="1915.07" cy="17.16" r="16.51"/><circle class="cls-25" cx="1932.99" cy="17.16" r="16.51"/><circle class="cls-24" cx="1950.91" cy="17.16" r="16.51"/><circle class="cls-23" cx="1968.82" cy="17.16" r="16.51"/><circle class="cls-22" cx="1986.74" cy="17.16" r="16.51"/><circle class="cls-21" cx="2004.66" cy="17.16" r="16.51"/><circle class="cls-20" cx="2022.58" cy="17.16" r="16.51"/><circle class="cls-19" cx="2040.5" cy="17.16" r="16.51"/><circle class="cls-18" cx="2058.41" cy="17.16" r="16.51"/><circle class="cls-17" cx="2076.33" cy="17.16" r="16.51"/><circle class="cls-16" cx="2094.25" cy="17.16" r="16.51"/><circle class="cls-15" cx="2112.17" cy="17.16" r="16.51"/><circle class="cls-1" cx="2130.09" cy="17.16" r="16.51"/></g></g></svg>