<svg id="Layer_1" data-name="Layer 1" xmlns="http://www.w3.org/2000/svg" xmlns:xlink="http://www.w3.org/1999/xlink" viewBox="0 0 1865.32 210.14"><defs><style>.cls-1{fill:url(#linear-gradient);}.cls-2{fill:url(#linear-gradient-2);}.cls-3{fill:url(#linear-gradient-3);}.cls-4{fill:url(#linear-gradient-4);}.cls-5{fill:url(#linear-gradient-5);}.cls-6{fill:url(#linear-gradient-6);}.cls-7{fill:url(#linear-gradient-7);}.cls-8{fill:url(#linear-gradient-8);}.cls-9{fill:url(#linear-gradient-9);}.cls-10{fill:url(#linear-gradient-10);}.cls-11{fill:url(#linear-gradient-11);}.cls-12{fill:url(#linear-gradient-12);}.cls-13{fill:url(#linear-gradient-13);}.cls-14{fill:url(#linear-gradient-14);}</style><linearGradient id="linear-gradient" x1="50.26" y1="541.64" x2="1937.13" y2="400.27" gradientUnits="userSpaceOnUse"><stop offset="0" stop-color="#700696"/><stop offset="0.51" stop-color="#209fe3"/><stop offset="0.99" stop-color="#2fa"/></linearGradient><linearGradient id="linear-gradient-2" x1="51.22" y1="554.42" x2="1938.09" y2="413.04" xlink:href="#linear-gradient"/><linearGradient id="linear-gradient-3" x1="54.09" y1="592.75" x2="1940.96" y2="451.38" xlink:href="#linear-gradient"/><linearGradient id="linear-gradient-4" x1="52.76" y1="575.06" x2="1939.64" y2="433.68" xlink:href="#linear-gradient"/><linearGradient id="linear-gradient-5" x1="55.41" y1="610.38" x2="1942.28" y2="469.01" xlink:href="#linear-gradient"/><linearGradient id="linear-gradient-6" x1="56.46" y1="624.4" x2="1943.33" y2="483.03" xlink:href="#linear-gradient"/><linearGradient id="linear-gradient-7" x1="55.18" y1="607.27" x2="1942.05" y2="465.9" xlink:href="#linear-gradient"/><linearGradient id="linear-gradient-8" x1="57.65" y1="640.21" x2="1944.52" y2="498.84" xlink:href="#linear-gradient"/><linearGradient id="linear-gradient-9" x1="56.67" y1="627.14" x2="1943.54" y2="485.77" xlink:href="#linear-gradient"/><linearGradient id="linear-gradient-10" x1="59.29" y1="662.12" x2="1946.16" y2="520.75" xlink:href="#linear-gradient"/><linearGradient id="linear-gradient-11" x1="59.85" y1="669.63" x2="1946.72" y2="528.26" xlink:href="#linear-gradient"/><linearGradient id="linear-gradient-12" x1="60.65" y1="680.24" x2="1947.52" y2="538.87" xlink:href="#linear-gradient"/><linearGradient id="linear-gradient-13" x1="61.8" y1="695.68" x2="1948.67" y2="554.31" xlink:href="#linear-gradient"/><linearGradient id="linear-gradient-14" x1="62.22" y1="701.3" x2="1949.09" y2="559.93" xlink:href="#linear-gradient"/></defs><title>navbrand</title><path class="cls-1" d="M85.47,641.1V468H27.76v-28.9H172V468h-57.7V641.1Z" transform="translate(-27.76 -434.59)"/><path class="cls-2" d="M183.27,641.1h-22.6L212.1,467.84q2.6-8.82-.65-13t-16-4.16l1.56-5.45a120.86,120.86,0,0,0,25.71-3,92.92,92.92,0,0,0,21-7.67Zm7.27-38.44q9.87-27.27,18.83-46.24t17.8-30.52q8.82-11.55,18.18-16.75a39.54,39.54,0,0,1,19.48-5.2q12.21,0,16.76,5.84t4,14.94A71,71,0,0,1,282,543.17L256.78,619A33.69,33.69,0,0,0,255,630.45c.17,3.12,2.17,4.68,6,4.68q4.92,0,9.74-5.46t10.26-21l3.38-9.61h4.93l-6.49,19q-3.64,10.92-9,16.63a30.06,30.06,0,0,1-11.17,7.92,32,32,0,0,1-11.3,2.21q-10.4,0-14.55-4.68t-3.51-13a82,82,0,0,1,4-18.7L262,534.08a76.86,76.86,0,0,0,2.33-9.09,16.19,16.19,0,0,0-.39-9q-1.43-3.76-7.66-3.77-6.49,0-13.9,5.85t-15.19,16.75a186.93,186.93,0,0,0-15.33,26.24,349,349,0,0,0-14.41,34.15q-6.88,18.84-12.86,40.66Z" transform="translate(-27.76 -434.59)"/><path class="cls-3" d="M335.05,641.1V626.7h-14.4V612.3h-14.4V525.69h14.4v-14.4h14.4V496.88h72.21v14.41h14.4v14.4h14.41v50.5h-101V597.9h14.41v14.4h43.3V597.9h43.31v14.4H421.66v14.4h-14.4v14.4Zm72.21-86.51v-14.5h-14.5v-14.4h-43.3v14.4H335.05v14.5Z" transform="translate(-27.76 -434.59)"/><path class="cls-4" d="M505.06,641.1v-202h28.8v202Z" transform="translate(-27.76 -434.59)"/><path class="cls-5" d="M546.5,641.1V496.88h28.81v14.41h14.4V496.88h50.51v14.41h14.5v14.4h14.4V641.1h-28.9v-101H625.81v-14.4h-36.1v14.4h-14.4v101Z" transform="translate(-27.76 -434.59)"/><path class="cls-6" d="M687.87,583.7v-19h76.89v19Z" transform="translate(-27.76 -434.59)"/><path class="cls-7" d="M882.16,457.45q24.68,0,36.76,9.09A28.78,28.78,0,0,1,931,490.7a39,39,0,0,1-7.79,23.77,69.13,69.13,0,0,1-20,17.92A115.6,115.6,0,0,1,877.75,544q23.89,3.9,33.25,15.46a41.52,41.52,0,0,1,9.35,26.88q0,14-6.76,24.29a55.37,55.37,0,0,1-17.92,17,88.18,88.18,0,0,1-24.94,10.13,115.81,115.81,0,0,1-27.79,3.38q-9.87,0-20.52-.39t-24.16-.39q-6,0-12,.13l-11,.26q-5.06.13-8.7.39l1-5.19a59.53,59.53,0,0,0,13.77-2.08,13.85,13.85,0,0,0,7.79-6.24q2.85-4.67,5.19-14l34.29-128.84a76.36,76.36,0,0,0,2.08-12.6,7.6,7.6,0,0,0-3.51-7.27q-3.76-2.48-13.89-2.47l1.3-5.2q3.63.27,8.57.39t10.78.26c3.89.09,7.75.13,11.56.13q9.09,0,18.05-.26T882.16,457.45Zm-49.35,90.4,1-4.42h20.26q15.84,0,27.27-7.14a49.22,49.22,0,0,0,17.67-18.83,52.32,52.32,0,0,0,6.23-24.94q0-15.33-6.62-22.73t-21.43-7.4q-11.44,0-16.11,3.51t-7.53,14.93L818.52,613.57a57.37,57.37,0,0,0-2.21,12.6c-.09,3.2,1,5.5,3.25,6.88s6.32,2.08,12.21,2.08q22.86,0,36.5-6.24t19.87-18q6.23-11.82,6.23-28.44,0-10.92-3.89-18.58A26.75,26.75,0,0,0,878.4,552q-8.19-4.14-21.17-4.15Z" transform="translate(-27.76 -434.59)"/><path class="cls-8" d="M972.12,641.1V626.7h-14.4V612.3h-14.4V525.69h14.4v-14.4h14.4V496.88h72.21v14.41h14.4v14.4h14.41v50.5h-101V597.9h14.4v14.4h43.31V597.9h43.31v14.4h-14.41v14.4h-14.4v14.4Zm72.21-86.51v-14.5h-14.5v-14.4H986.52v14.4h-14.4v14.5Z" transform="translate(-27.76 -434.59)"/><path class="cls-9" d="M1107.37,641.1V626.7H1093V518.49h-21.61V496.88H1093v-43.3h28.9v43.3h28.8v21.61h-28.8V612.3h28.8v28.8Z" transform="translate(-27.76 -434.59)"/><path class="cls-10" d="M1234.61,623.18a80.73,80.73,0,0,1-19.09,15.45,44.08,44.08,0,0,1-22.47,6.11q-12,0-19-4.16a24.31,24.31,0,0,1-10.13-11,34.48,34.48,0,0,1-3.12-14.41q0-12.74,7.27-26.24A144.23,144.23,0,0,1,1187.2,562a277.9,277.9,0,0,1,25.85-25.59q14-12.21,27.28-21.82l4.15-.78a58.51,58.51,0,0,0-8.83,4.29q-4.68,2.71-9.09,5.45a87,87,0,0,1-8.57,4.68,18.45,18.45,0,0,1-7.8,1.94,12,12,0,0,1-8.44-3.24,11.39,11.39,0,0,0-7.92-3.25,8.71,8.71,0,0,0-7,3.51q-2.86,3.51-5.72,12.6l-3.12,9.61h-4.93l6-19q5.19-15.33,11.3-20.91t12.86-5.59a13.8,13.8,0,0,1,8.44,2.6q3.51,2.59,7,5.06a14.29,14.29,0,0,0,8.45,2.47,30.22,30.22,0,0,0,11.17-2,32.74,32.74,0,0,0,9.61-6.1l3.64-4.94,5.45,2.6q-13.52,11.18-26.11,23.9a222.18,222.18,0,0,0-22.59,26.62,135.31,135.31,0,0,0-16,28.84,81.38,81.38,0,0,0-6,30.52q0,13,3.9,18.18a12.33,12.33,0,0,0,10.39,5.2q7.8,0,16.37-4.81a64.93,64.93,0,0,0,16.62-13.9Zm28.83,14a35.44,35.44,0,0,0,22.21-7.28,58,58,0,0,0,15.72-18.83,104.29,104.29,0,0,0,9.48-24.94,133.34,133.34,0,0,0,3.77-25.71q.51-12.35-1.82-20.91a47.55,47.55,0,0,1-10.65-3.77,30.05,30.05,0,0,1-9.87-7.53,17.4,17.4,0,0,1-4.16-11.82q0-6.75,3.64-9.61A11.71,11.71,0,0,1,1299,504a10.83,10.83,0,0,1,6.88,2.34,21.5,21.5,0,0,1,5.33,6.49,54.5,54.5,0,0,1,4.16,9.74,81,81,0,0,1,2.85,12.08,104,104,0,0,1,2.08,26.24,132,132,0,0,1-4.42,29.22,98.42,98.42,0,0,1-11.68,27.14,62.76,62.76,0,0,1-19.62,20q-11.82,7.53-28.18,7.53a37.32,37.32,0,0,1-15.33-3.12,24.1,24.1,0,0,1-11.3-10.91q-4.27-7.79-4.28-21.56a67.8,67.8,0,0,1,3.77-22.34,83.29,83.29,0,0,1,9.74-19.74,62.91,62.91,0,0,1,12.47-14c4.32-3.46,8.31-5.19,11.94-5.19a6.6,6.6,0,0,1,5.85,2.86,17.09,17.09,0,0,1,2.6,7.14,55,55,0,0,1,.65,8.18q0,14-7.67,28.58t-23.77,26.75l-1.29-4.68a72.57,72.57,0,0,0,19.48-23.37q7.26-13.77,7.27-27.54a31.19,31.19,0,0,0-1-8.7q-1-3.51-3.89-3.51c-2.78,0-5.89,2.21-9.36,6.63a61.63,61.63,0,0,0-9,16.88,62.46,62.46,0,0,0-3.76,21.69,74.67,74.67,0,0,0,2.2,18.18,32.3,32.3,0,0,0,7.54,14.55Q1254.6,637.2,1263.44,637.21Z" transform="translate(-27.76 -434.59)"/><path class="cls-11" d="M1366.91,641.1V626.7h-14.4V612.3h-14.4V525.69h14.4v-14.4h14.4V496.88h72.21v14.41h14.4v14.4h14.41v50.5h-101V597.9h14.41v14.4h43.3V597.9h43.31v14.4h-14.41v14.4h-14.4v14.4Zm72.21-86.51v-14.5h-14.5v-14.4h-43.3v14.4h-14.41v14.5Z" transform="translate(-27.76 -434.59)"/><path class="cls-12" d="M1509.36,641.1V626.7H1495V612.3h-14.41V525.69H1495v-14.4h14.4V496.88h72.21v14.41H1596v14.4h14.4v50.5h-101V597.9h14.4v14.4h43.31V597.9h43.3v14.4H1596v14.4h-14.4v14.4Zm72.21-86.51v-14.5h-14.5v-14.4h-43.31v14.4h-14.4v14.5Z" transform="translate(-27.76 -434.59)"/><path class="cls-13" d="M1640.29,641.1h-22.6l31.17-111.43a47.26,47.26,0,0,0,1.69-6.89,12.31,12.31,0,0,0-.39-6.49c-.69-1.82-2.43-2.73-5.19-2.73-3.82,0-7.19,1.86-10.14,5.59s-6.23,10.69-9.87,20.91l-3.37,9.61h-4.94l6.5-19q5.7-16.37,14.15-21.56t16.76-5.2q7.79,0,11.3,3.38a13,13,0,0,1,3.89,8.7,46.21,46.21,0,0,1-.78,11.69q-1.17,6.36-2.72,12.6Zm12-54a352,352,0,0,1,17.66-39.22q8.58-15.84,16.89-25.59t17-14a40.35,40.35,0,0,1,18-4.29q12.21,0,16.76,5.84t4,14.81a74.12,74.12,0,0,1-3.63,18.57L1713.8,619q-2.34,7-2,11.56t6.11,4.55q4.92,0,9.74-5.46t10.26-21l3.38-9.61h4.93l-6.49,19q-3.65,10.92-9,16.63a30.06,30.06,0,0,1-11.17,7.92,32,32,0,0,1-11.3,2.21,22.34,22.34,0,0,1-10.26-2.08,15.09,15.09,0,0,1-6.11-5.45q-2.87-4.68-1.82-12.21a89.46,89.46,0,0,1,4.16-16.63L1719,534.08a54.88,54.88,0,0,0,2.2-8.7,18.52,18.52,0,0,0-.39-9.09c-.86-2.68-3.37-4-7.53-4s-8.57,1.82-13.25,5.46a82.09,82.09,0,0,0-14.54,15.45,173.42,173.42,0,0,0-14.81,23.9,320.78,320.78,0,0,0-13.9,30.65q-6.62,16.75-12.07,35.72Z" transform="translate(-27.76 -434.59)"/><path class="cls-14" d="M1792.07,641.1V626.7h-14.4V612.3h-14.4V597.9h43.2v14.4H1857V583.39h-50.51V569h-28.8v-14.4h-14.4v-28.9h14.4v-14.4h14.4V496.88h72.21v14.41h14.4v14.4h14.41v14.4h-43.31v-14.4h-50.51v28.9h50.51V569h28.9v14.4h14.41V612.3h-14.41v14.4h-14.4v14.4Z" transform="translate(-27.76 -434.59)"/></svg>