<?xml version="1.0" encoding="UTF-8"?>
<svg id="Layer_2" xmlns="http://www.w3.org/2000/svg" viewBox="0 0 270.19 557.12">
  <defs>
    <style>
      .cls-1 {
        fill: #d8c46f;
      }

      .cls-2 {
        fill: #69b295;
      }

      .cls-3 {
        fill: #444;
      }

      .cls-4 {
        fill: #d35f59;
      }

      .cls-5 {
        fill: #bf9966;
      }
    </style>
  </defs>
  <g id="Layer_1-2" data-name="Layer_1">
    <path class="cls-1" d="M217.73,287.46H54.11V93.75l40.65-40.65h82.31l40.65,40.65v193.7ZM74.3,267.27h123.25V102.12l-28.83-28.83h-65.59l-28.83,28.83v165.15Z"/>
    <g>
      <g>
        <path class="cls-4" d="M58.28,448.86h-8.61l-5.69,5.69v35.06l-3.39,3.23h-17.22l-3.39-3.23v-35.06l-5.69-5.69H5.69l-5.69,5.69v96.88l5.69,5.69h8.61l5.69-5.69v-35.21l3.39-3.23h17.22l3.39,3.23v35.21l5.69,5.69h8.61l5.84-5.69v-96.88l-5.84-5.69Z"/>
        <path class="cls-1" d="M117.49,449.32h-33.68l-15.07,14.92v77.81l15.07,15.07h33.68l15.07-15.07v-77.81l-15.07-14.92ZM112.57,500.99l-.08-.08v28.3l.08.08v4.46l-3.39,3.39h-17.07l-3.39-3.39v-3.47h0v-55.21h0v-2.52l3.39-3.23h17.07l3.39,3.23v28.45Z"/>
        <path class="cls-2" d="M185.92,449.17h-43.06l-5.69,5.69v96.57l5.69,5.69h8.61l5.69-5.69v-38.29h28.75l15.07-15.07v-33.83l-15.07-15.07ZM181,489.76l-3.38,3.39h-17.07l-3.38-3.39v-17.22l3.38-3.39h17.07l3.38,3.39v17.22Z"/>
        <path class="cls-5" d="M229.28,469.62h35.21l5.69-5.69v-8.61l-5.69-5.69h-53.05l-5.84,5.69v96.11l5.84,5.69h53.05l5.69-5.69v-8.46l-5.69-5.69h-35.21l-3.38-3.39v-17.22l3.38-3.39h14.46l5.84-5.69v-8.46l-5.84-5.69h-14.46l-3.38-3.23v-17.38l3.38-3.23Z"/>
      </g>
      <g>
        <path class="cls-3" d="M20.51,399.26H2.03l-2.03,1.98v33.48l2.03,1.98h3l2.03-1.98v-12.11l1.18-1.18h5.03l2.03-1.98v-2.94l-2.03-1.98h-5.03l-1.18-1.13v-6.05l1.18-1.13h12.26l1.98-1.98v-3l-1.98-1.98Z"/>
        <path class="cls-3" d="M35.56,406.22h12.26l1.98-1.98v-3l-1.98-1.98h-18.48l-2.03,1.98v33.48l2.03,1.98h18.48l1.98-1.98v-2.95l-1.98-1.98h-12.26l-1.18-1.18v-6l1.18-1.18h5.03l2.03-1.98v-2.94l-2.03-1.98h-5.03l-1.18-1.13v-6.05l1.18-1.13Z"/>
        <path class="cls-3" d="M71.82,411.53h3l1.98-1.98v-5.09l-5.25-5.19h-11.73l-5.19,5.19v11.79l5.19,5.19h8.89l1.13,1.18v6l-1.13,1.12h-6l-1.13-1.12v-2.25l-1.98-1.98h-3l-1.98,1.98v5.14l5.19,5.19h11.73l5.25-5.19v-11.79l-5.25-5.25h-8.83l-1.13-1.13v-6l1.13-1.18h6l1.13,1.18v2.2l1.98,1.98Z"/>
        <path class="cls-3" d="M101.81,399.21h-18.21l-1.98,1.98v2.94l1.98,1.98h5.62v28.6l1.98,1.98h3l1.98-1.98v-28.55h5.63l1.98-1.98v-3l-1.98-1.98Z"/>
        <path class="cls-3" d="M128.91,405.95l2.03-1.98v-3l-2.03-1.98h-18.32l-1.98,1.98v3l1.98,1.98h5.68v23.78h-5.68l-1.98,1.98v3l1.98,1.98h18.32l2.03-1.98v-3l-2.03-1.98h-5.68v-23.78h5.68Z"/>
        <path class="cls-3" d="M152.58,399.26h-3l-1.98,1.98v22.93l-4.13,4.12-4.12-4.12v-22.93l-1.98-1.98h-3l-1.98,1.98v25.76l9.7,9.69h2.78l9.69-9.69v-25.76l-1.98-1.98Z"/>
        <path class="cls-3" d="M176.58,399.26h-11.89l-5.3,5.25v30.21l2.03,1.98h3l2.03-1.98v-12.11l1.18-1.18h6.05l1.18,1.18v12.11l1.98,1.98h3.05l1.98-1.98v-30.21l-5.3-5.25ZM174.86,413.4l-1.18,1.13h-6.05l-1.18-1.13v-6.05l1.18-1.13h6.05l1.18,1.13v6.05Z"/>
        <path class="cls-3" d="M207.96,424.7h-3l-1.98,1.98-.05,1.88-1.18,1.18h-6l-1.18-1.18.05-27.58-1.98-2.03h-3l-2.03,2.03v30.48l5.25,5.25h11.78l5.25-5.25.05-4.77-1.98-1.98Z"/>
        <path class="cls-3" d="M237.63,399.15h-11.73l-5.25,5.2v27.1l5.25,5.25h11.73l5.25-5.25v-27.1l-5.25-5.2ZM235.92,417.15l-.07-.07v9.86l.07.07v1.55l-1.18,1.18h-5.95l-1.18-1.18v-1.15h-.03v-19.57h.03v-.6l1.18-1.13h5.95l1.18,1.13v9.91Z"/>
        <path class="cls-3" d="M268.21,399.26h-18.48l-2.03,1.98v33.48l2.03,1.98h3l2.03-1.98v-12.11l1.18-1.18h5.03l2.04-1.98v-2.94l-2.04-1.98h-5.03l-1.18-1.13v-6.05l1.18-1.13h12.27l1.98-1.98v-3l-1.98-1.98Z"/>
      </g>
    </g>
    <rect class="cls-4" x="130.65" y="182.99" width="10.53" height="183.32"/>
    <path class="cls-4" d="M267.7,378.62H4.14V65.38L69.51,0h132.81l65.38,65.38v313.24ZM34.42,348.34h203.01V77.92l-47.64-47.64h-107.73l-47.64,47.64v270.42Z"/>
    <rect class="cls-4" x="107.76" y="170.28" width="38.09" height="13.44" transform="translate(162.3 -37.82) rotate(45)"/>
    <rect class="cls-4" x="125.98" y="170.28" width="38.09" height="13.44" transform="translate(-82.68 154.39) rotate(-45)"/>
    <rect class="cls-4" x="129.83" y="213.49" width="38.09" height="13.44" transform="translate(-112.11 169.77) rotate(-45)"/>
    <rect class="cls-4" x="131" y="148.79" width="9.84" height="9.84" transform="translate(-68.88 141.13) rotate(-45)"/>
  </g>
</svg>