<?xml version="1.0" encoding="UTF-8"?>
<svg id="Layer_2" xmlns="http://www.w3.org/2000/svg" viewBox="0 0 828.28 378.62">
  <defs>
    <style>
      .cls-1 {
        fill: #d8c46f;
      }

      .cls-2 {
        fill: #fff;
      }

      .cls-3 {
        fill: #69b295;
      }

      .cls-4 {
        fill: #d35f59;
      }

      .cls-5 {
        fill: #bf9966;
      }
    </style>
  </defs>
  <g id="Layer_1-2" data-name="Layer_1">
    <g>
      <path class="cls-1" d="M213.59,287.46H49.97V93.75l40.65-40.65h82.31l40.65,40.65v193.7ZM70.16,267.27h123.25V102.12l-28.83-28.83h-65.59l-28.83,28.83v165.15Z"/>
      <rect class="cls-4" x="126.52" y="182.99" width="10.53" height="183.32"/>
      <path class="cls-4" d="M263.57,378.62H0V65.38L65.38,0h132.81l65.38,65.38v313.24ZM30.28,348.34h203.01V77.92l-47.64-47.64h-107.73l-47.64,47.64v270.42Z"/>
      <rect class="cls-4" x="103.63" y="170.28" width="38.09" height="13.44" transform="translate(161.09 -34.9) rotate(45)"/>
      <rect class="cls-4" x="121.85" y="170.28" width="38.09" height="13.44" transform="translate(-83.89 151.47) rotate(-45)"/>
      <rect class="cls-4" x="125.69" y="213.49" width="38.09" height="13.44" transform="translate(-113.32 166.84) rotate(-45)"/>
      <rect class="cls-4" x="126.87" y="148.79" width="9.84" height="9.84" transform="translate(-70.09 138.2) rotate(-45)"/>
    </g>
    <g>
      <g>
        <path class="cls-4" d="M425.85,133.91h-16.35l-10.81,10.8v66.59l-6.43,6.13h-32.7l-6.43-6.13v-66.59l-10.81-10.8h-16.35l-10.81,10.8v183.99l10.81,10.81h16.35l10.81-10.81v-66.88l6.43-6.13h32.7l6.43,6.13v66.88l10.81,10.81h16.35l11.1-10.81v-183.99l-11.1-10.8Z"/>
        <path class="cls-1" d="M538.28,134.78h-63.95l-28.62,28.33v147.77l28.62,28.62h63.95l28.62-28.62v-147.77l-28.62-28.33ZM528.94,232.91l-.15-.15v53.74l.15.15v8.47l-6.43,6.43h-32.41l-6.43-6.43v-6.6h0v-104.84h0v-4.79l6.43-6.13h32.41l6.43,6.13v54.03Z"/>
        <path class="cls-3" d="M668.24,134.49h-81.77l-10.8,10.81v183.4l10.8,10.81h16.36l10.81-10.81v-72.72h54.6l28.62-28.62v-64.24l-28.62-28.62ZM658.89,211.59l-6.42,6.43h-32.42l-6.42-6.43v-32.7l6.42-6.43h32.42l6.42,6.43v32.7Z"/>
        <path class="cls-5" d="M750.59,173.33h66.88l10.81-10.81v-16.35l-10.81-10.81h-100.75l-11.1,10.81v182.52l11.1,10.81h100.75l10.81-10.81v-16.06l-10.81-10.81h-66.88l-6.42-6.43v-32.7l6.42-6.43h27.46l11.1-10.81v-16.06l-11.1-10.81h-27.46l-6.42-6.13v-33l6.42-6.13Z"/>
      </g>
      <g>
        <path class="cls-2" d="M354.12,39.72h-35.09l-3.86,3.76v63.58l3.86,3.76h5.7l3.86-3.76v-22.99l2.24-2.23h9.56l3.86-3.77v-5.59l-3.86-3.77h-9.56l-2.24-2.14v-11.49l2.24-2.14h23.29l3.77-3.76v-5.7l-3.77-3.76Z"/>
        <path class="cls-2" d="M382.7,52.94h23.29l3.77-3.76v-5.7l-3.77-3.76h-35.09l-3.86,3.76v63.58l3.86,3.76h35.09l3.77-3.76v-5.6l-3.77-3.77h-23.29l-2.24-2.23v-11.4l2.24-2.23h9.56l3.86-3.77v-5.59l-3.86-3.77h-9.56l-2.24-2.14v-11.49l2.24-2.14Z"/>
        <path class="cls-2" d="M451.55,63.01h5.7l3.77-3.76v-9.67l-9.98-9.86h-22.27l-9.86,9.86v22.38l9.86,9.86h16.88l2.14,2.23v11.4l-2.14,2.13h-11.39l-2.14-2.13v-4.28l-3.76-3.76h-5.7l-3.76,3.76v9.77l9.86,9.86h22.27l9.98-9.86v-22.38l-9.98-9.97h-16.78l-2.14-2.14v-11.39l2.14-2.23h11.39l2.14,2.23v4.17l3.76,3.76Z"/>
        <path class="cls-2" d="M508.52,39.62h-34.58l-3.77,3.77v5.59l3.77,3.77h10.67v54.32l3.77,3.76h5.69l3.77-3.76v-54.21h10.68l3.76-3.77v-5.69l-3.76-3.77Z"/>
        <path class="cls-2" d="M559.98,52.43l3.86-3.76v-5.7l-3.86-3.76h-34.79l-3.76,3.76v5.7l3.76,3.76h10.79v45.16h-10.79l-3.76,3.77v5.7l3.76,3.76h34.79l3.86-3.76v-5.7l-3.86-3.77h-10.79v-45.16h10.79Z"/>
        <path class="cls-2" d="M604.93,39.72h-5.7l-3.76,3.76v43.54l-7.84,7.83-7.83-7.83v-43.54l-3.76-3.76h-5.7l-3.77,3.76v48.93l18.42,18.41h5.28l18.41-18.41v-48.93l-3.76-3.76Z"/>
        <path class="cls-2" d="M650.5,39.72h-22.58l-10.07,9.97v57.37l3.86,3.76h5.7l3.86-3.76v-22.99l2.24-2.23h11.49l2.23,2.23v22.99l3.77,3.76h5.79l3.77-3.76v-57.37l-10.07-9.97ZM647.24,66.57l-2.23,2.14h-11.49l-2.24-2.14v-11.49l2.24-2.14h11.49l2.23,2.14v11.49Z"/>
        <path class="cls-2" d="M710.1,88.03h-5.7l-3.76,3.77-.1,3.56-2.24,2.23h-11.39l-2.24-2.23.1-52.39-3.76-3.86h-5.7l-3.86,3.86v57.88l9.97,9.97h22.37l9.97-9.97.1-9.05-3.76-3.77Z"/>
        <path class="cls-2" d="M766.44,39.52h-22.28l-9.97,9.87v51.46l9.97,9.97h22.28l9.97-9.97v-51.46l-9.97-9.87ZM763.19,73.69l-.13-.13v18.72l.13.13v2.95l-2.24,2.23h-11.29l-2.23-2.23v-2.19h-.07v-37.16h.07v-1.13l2.23-2.14h11.29l2.24,2.14v18.81Z"/>
        <path class="cls-2" d="M824.52,39.72h-35.09l-3.86,3.76v63.58l3.86,3.76h5.7l3.86-3.76v-22.99l2.23-2.23h9.56l3.87-3.77v-5.59l-3.87-3.77h-9.56l-2.23-2.14v-11.49l2.23-2.14h23.3l3.76-3.76v-5.7l-3.76-3.76Z"/>
      </g>
    </g>
  </g>
</svg>