<?xml version="1.0" encoding="UTF-8"?>
<svg id="Layer_2" xmlns="http://www.w3.org/2000/svg" xmlns:xlink="http://www.w3.org/1999/xlink" viewBox="0 0 1098.56 301.63">
  <defs>
    <style>
      .cls-1 {
        fill: #c1b06c;
      }

      .cls-2 {
        fill: #fff;
      }

      .cls-3 {
        fill: #424242;
      }

      .cls-4 {
        fill: #e8d587;
      }

      .cls-5 {
        fill: none;
      }

      .cls-6 {
        fill: #231f20;
      }

      .cls-7 {
        fill: #69b295;
      }

      .cls-8 {
        fill: #e7d488;
        stroke: #e7d488;
        stroke-miterlimit: 10;
        stroke-width: 2px;
      }

      .cls-9 {
        fill: #c45180;
      }

      .cls-10 {
        fill: #812f8a;
      }

      .cls-11 {
        fill: #d35f59;
      }

      .cls-12 {
        clip-path: url(#clippath);
      }
    </style>
    <clipPath id="clippath">
      <path class="cls-5" d="M1098.56,115.57C735.34,255.61,363.22-24.46,0,115.57,0,91.15,0,66.73,0,42.3c363.22-140.04,735.33,140.04,1098.56,0,0,24.42,0,48.85,0,73.27Z"/>
    </clipPath>
  </defs>
  <g id="Layer_1-2" data-name="Layer_1">
    <polygon class="cls-2" points="1098.56 87.16 1098.56 301.63 0 301.63 0 87.16 49.24 87.16 61.43 63.93 228.41 47.08 384.66 50.91 526.37 86.14 527.77 87.16 1098.56 87.16"/>
    <g class="cls-12">
      <g>
        <g>
          <path class="cls-11" d="M146.43,78.32c-24.74,3.27-48.99,7.74-73.26,13.56V18.62c24.27-5.82,48.52-10.29,73.26-13.56v73.26Z"/>
          <path class="cls-9" d="M366.19,83.01c-24.38-3.15-48.75-5.71-73.26-7.56,0-24.42,0-48.84,0-73.26,24.51,1.84,48.88,4.41,73.26,7.56,0,24.42,0,48.84,0,73.26Z"/>
          <path class="cls-7" d="M73.26,91.86C48.29,98.4,24.07,106.25,0,115.58,0,91.16,0,66.74,0,42.32c24.07-9.33,48.29-17.17,73.26-23.71v73.26Z"/>
          <path class="cls-10" d="M292.94,75.45c-24.44-1.55-48.77-2.29-73.26-2.08,0-24.42,0-48.84,0-73.26,24.49-.21,48.82.54,73.26,2.08,0,24.42,0,48.84,0,73.26Z"/>
          <g>
            <path class="cls-2" d="M37.15,88.13c-1.8.58-2.7.87-4.5,1.47v-30.34c1.8-.6,2.7-.89,4.5-1.47v30.34Z"/>
            <path class="cls-2" d="M46.57,47.23c-4.6,5.99-6.9,9.02-11.5,15.12-.07-.05-.1-.07-.17-.11-.07.09-.1.13-.17.22-4.6-3.1-6.91-4.62-11.51-7.61,1.62-2.19,2.44-3.29,4.06-5.47,3.05,2,4.57,3.02,7.62,5.07,3.05-4.04,4.57-6.05,7.62-10.04,1.62,1.12,2.43,1.68,4.05,2.82Z"/>
            <path class="cls-2" d="M48.22,66.53c-4.6,5.98-6.9,9-11.5,15.08-1.62-1.1-2.44-1.65-4.06-2.73,4.6-6.12,6.9-9.16,11.5-15.18,1.62,1.12,2.44,1.69,4.06,2.83Z"/>
            <path class="cls-2" d="M37.87,45.05c-1.19,1.57-1.78,2.35-2.97,3.93-1.19-.8-1.78-1.2-2.97-1.99,1.19-1.58,1.78-2.37,2.97-3.95,1.19.8,1.78,1.2,2.97,2.01Z"/>
          </g>
          <path class="cls-8" d="M125.86,67.44c-10.76,1.79-21.41,3.75-32.11,5.92v-38.16c3.19-3.86,4.78-5.78,7.96-9.6,6.47-1.28,9.71-1.88,16.18-2.98,3.19,2.64,4.78,3.98,7.96,6.66v38.16ZM97.44,68.9c9.89-2.04,14.84-2.95,24.73-4.56V31.4c-2.32-1.94-3.48-2.91-5.8-4.83-5.25.91-7.87,1.39-13.12,2.42-2.32,2.78-3.48,4.17-5.8,6.97v32.94Z"/>
          <g>
            <g>
              <path class="cls-4" d="M243.29,31.68c-.59,0-.89-.01-1.48-.02-.39.39-.59.58-.98.97v6.05c-.23.22-.35.33-.58.55-1.19-.01-1.78-.02-2.97-.02-.23-.22-.35-.34-.58-.56v-6.05c-.39-.39-.59-.59-.98-.99-.59,0-.89,0-1.48,0-.39.39-.59.59-.98.98v16.71c.39.39.59.59.98.98.59,0,.89,0,1.48,0,.39-.39.59-.59.98-.98v-6.07c.23-.22.35-.33.58-.55,1.19,0,1.78.01,2.97.02.23.23.35.34.58.56v6.07c.39.4.59.6.98.99.59,0,.89.01,1.48.02.4-.39.6-.58,1.01-.97v-16.71c-.4-.4-.6-.6-1.01-1Z"/>
              <path class="cls-4" d="M253.5,31.97c-2.32-.06-3.48-.09-5.81-.13-1.04,1.01-1.56,1.51-2.6,2.53v13.42c1.04,1.06,1.56,1.59,2.6,2.65,2.32.04,3.48.07,5.81.13,1.04-1.01,1.56-1.52,2.6-2.53v-13.42c-1.04-1.06-1.56-1.59-2.6-2.64ZM252.65,40.86s0,0-.01-.01v4.88s0,0,.01.01v.77c-.23.23-.35.34-.58.57-1.18-.03-1.77-.04-2.94-.07-.23-.24-.35-.36-.58-.6v-.6h0v-9.52h0v-.43c.23-.22.35-.33.58-.54,1.18.02,1.77.04,2.94.07.23.23.35.34.58.57v4.91Z"/>
              <path class="cls-4" d="M265.3,32.33c-2.97-.12-4.46-.17-7.43-.26-.39.38-.59.57-.98.95v16.66c.39.4.59.61.98,1.01.59.02.89.03,1.49.05.39-.38.59-.57.98-.95v-6.6c1.98.07,2.98.1,4.96.18,1.04-1,1.56-1.5,2.6-2.49v-5.83c-1.04-1.08-1.56-1.63-2.6-2.71ZM264.46,39.3c-.23.22-.35.34-.58.56-1.18-.04-1.77-.07-2.94-.11-.23-.24-.35-.36-.58-.6v-2.97c.23-.23.35-.34.58-.56,1.18.04,1.77.06,2.94.11.23.24.35.36.58.61v2.97Z"/>
              <path class="cls-4" d="M272.78,36.18c2.43.12,3.64.18,6.07.31.39-.37.59-.56.98-.93v-1.49c-.39-.41-.59-.62-.98-1.04-3.66-.2-5.49-.29-9.15-.45-.4.37-.6.56-1.01.94v16.58c.4.41.6.62,1.01,1.03,3.66.16,5.49.25,9.15.45.39-.37.59-.56.98-.93v-1.46c-.39-.41-.59-.62-.98-1.04-2.43-.13-3.64-.2-6.07-.31-.23-.24-.35-.37-.58-.61v-2.97c.23-.22.35-.33.58-.56,1,.05,1.5.07,2.49.12.4-.37.6-.56,1.01-.93v-1.46c-.4-.41-.6-.62-1.01-1.03-1-.05-1.5-.08-2.49-.12-.23-.23-.35-.35-.58-.58v-3c.23-.21.35-.32.58-.53Z"/>
            </g>
            <g>
              <path class="cls-4" d="M236.54,23.07c-1.27,0-1.91,0-3.19-.01-.14.14-.21.2-.35.34v5.77c.14.14.21.21.35.34.21,0,.31,0,.52,0,.14-.14.21-.2.35-.34v-2.09c.08-.08.12-.12.2-.2.35,0,.52,0,.87,0,.14-.14.21-.2.35-.34v-.51c-.14-.14-.21-.21-.35-.34-.35,0-.52,0-.87,0-.08-.08-.12-.12-.2-.19v-1.04c.08-.08.12-.12.2-.19.85,0,1.27,0,2.11,0,.14-.14.21-.2.34-.34v-.52c-.14-.14-.21-.21-.34-.34Z"/>
              <path class="cls-4" d="M239.14,24.28c.85,0,1.27.01,2.11.02.14-.14.21-.2.34-.34v-.52c-.14-.14-.21-.21-.34-.35-1.27-.01-1.91-.02-3.19-.03-.14.14-.21.2-.35.34v5.77c.14.14.21.21.35.34,1.27,0,1.91.02,3.19.03.14-.13.21-.2.34-.34v-.51c-.14-.14-.21-.21-.34-.35-.85,0-1.27-.01-2.11-.02-.08-.08-.12-.12-.2-.2v-1.04c.08-.08.12-.12.2-.2.35,0,.52,0,.87,0,.14-.14.21-.2.35-.34v-.51c-.14-.14-.21-.21-.35-.35-.35,0-.52,0-.87,0-.08-.08-.12-.12-.2-.2v-1.04c.08-.08.12-.12.2-.19Z"/>
              <path class="cls-4" d="M245.39,25.28h.52c.14-.13.21-.19.34-.33v-.88c-.36-.36-.54-.55-.91-.91-.81-.01-1.21-.02-2.02-.03-.36.35-.54.53-.9.88v2.03c.36.36.54.54.9.91.61,0,.92.01,1.53.02.08.08.12.12.19.21v1.04c-.08.08-.12.11-.19.19-.41,0-.62,0-1.03-.02-.08-.08-.12-.12-.19-.2v-.39c-.14-.14-.2-.21-.34-.35-.21,0-.31,0-.52,0-.14.13-.2.2-.34.34v.89c.36.36.54.54.9.91.81.01,1.21.02,2.02.03.36-.35.54-.53.91-.88v-2.03c-.36-.37-.54-.55-.91-.92-.61-.01-.91-.01-1.52-.02-.08-.08-.12-.12-.19-.2v-1.03c.08-.08.12-.12.19-.2.41,0,.62,0,1.03.02.08.08.12.12.19.21v.38c.14.14.2.21.34.35Z"/>
              <path class="cls-4" d="M250.57,23.25c-1.26-.03-1.88-.04-3.14-.06-.14.13-.21.2-.34.34v.51c.14.14.21.21.34.35.39,0,.58.01.97.02v4.93c.14.14.21.21.34.35.21,0,.31,0,.52.01.14-.13.21-.2.34-.33v-4.92c.39,0,.58.01.97.02.14-.13.2-.2.34-.33v-.52c-.14-.14-.2-.21-.34-.35Z"/>
              <path class="cls-4" d="M255.24,24.54c.14-.13.21-.2.35-.33v-.52c-.14-.14-.21-.21-.35-.35-1.26-.04-1.9-.05-3.16-.08-.14.13-.2.2-.34.33v.52c.14.14.2.21.34.35.39,0,.59.01.98.02v4.1c-.39-.01-.59-.01-.98-.02-.14.13-.2.2-.34.33v.52c.14.14.2.21.34.35,1.26.03,1.9.05,3.16.08.14-.13.21-.2.35-.33v-.52c-.14-.14-.21-.21-.35-.35-.39-.01-.59-.02-.98-.03v-4.1c.39.01.59.02.98.03Z"/>
              <path class="cls-4" d="M259.32,23.51c-.21,0-.31-.01-.52-.02-.14.13-.2.2-.34.33v3.95c-.28.28-.43.41-.71.69-.28-.29-.43-.44-.71-.73v-3.95c-.14-.14-.2-.21-.34-.35-.21,0-.31,0-.52-.02-.14.13-.21.2-.34.33v4.44c.67.69,1,1.03,1.67,1.72.19,0,.29,0,.48.01.67-.65,1-.97,1.67-1.62v-4.44c-.14-.14-.2-.21-.34-.35Z"/>
              <path class="cls-4" d="M263.46,23.65c-.82-.03-1.23-.05-2.05-.07-.37.35-.55.52-.91.87v5.21c.14.14.21.21.35.35.21,0,.31.01.52.02.14-.13.21-.2.35-.33v-2.09c.08-.08.12-.12.2-.2.42.01.63.02,1.04.04.08.08.12.13.2.21v2.09c.14.14.21.21.34.35.21,0,.32.01.53.02.14-.13.21-.2.34-.33v-5.21c-.37-.38-.55-.56-.91-.94ZM263.17,26.08c-.08.07-.12.11-.2.19-.42-.02-.63-.02-1.04-.04-.08-.08-.12-.12-.2-.2v-1.04c.08-.07.12-.11.2-.19.42.01.63.02,1.04.04.08.08.12.12.2.2v1.04Z"/>
              <path class="cls-4" d="M268.87,28.26c-.21,0-.31-.01-.52-.02-.14.13-.2.2-.34.33,0,.13,0,.19,0,.32-.08.08-.12.12-.2.19-.41-.02-.62-.03-1.03-.04-.08-.08-.12-.13-.2-.21,0-1.9,0-2.85,0-4.76-.14-.15-.2-.22-.34-.36-.21,0-.31-.01-.52-.02-.14.13-.21.2-.35.34v5.26c.36.38.54.56.91.94.81.03,1.22.05,2.03.09.36-.35.54-.52.91-.87,0-.33,0-.49,0-.82-.14-.14-.2-.21-.34-.36Z"/>
              <path class="cls-4" d="M273.99,24.09c-.81-.04-1.21-.06-2.02-.1-.36.34-.54.51-.9.85v4.67c.36.38.54.57.9.95.81.04,1.21.06,2.02.1.36-.34.54-.52.91-.86v-4.67c-.36-.38-.54-.57-.91-.94ZM273.7,27.18s0,0-.01-.01v1.7s0,0,.01.01v.27c-.08.08-.12.12-.2.19-.41-.02-.62-.03-1.03-.05-.08-.08-.12-.13-.2-.21v-.2s0,0,0,0v-3.38s0,0,0,0v-.1c.08-.07.12-.11.2-.18.41.02.62.03,1.03.05.08.08.12.12.2.2v1.71Z"/>
              <path class="cls-4" d="M279.27,24.38c-1.27-.07-1.91-.1-3.19-.17-.14.13-.21.19-.35.32v5.77c.14.14.21.22.35.36l.52.03c.14-.13.21-.19.35-.32v-2.09c.08-.08.12-.12.2-.19.35.02.52.03.87.05.14-.13.21-.19.35-.32v-.51c-.14-.14-.21-.22-.35-.36-.35-.02-.52-.03-.87-.05-.08-.08-.12-.12-.2-.2v-1.04c.08-.07.12-.11.2-.18.85.04,1.27.07,2.12.11.14-.13.2-.19.34-.32v-.52c-.14-.14-.2-.22-.34-.36Z"/>
            </g>
          </g>
          <g>
            <path class="cls-1" d="M219.68,73.37c-24.56.59-48.85,2.19-73.26,4.96V5.07C170.83,2.3,195.13.69,219.68.11c0,24.42,0,48.84,0,73.26Z"/>
            <g>
              <path class="cls-2" d="M182.94,59.29c-6.24-5.82-9.36-8.7-15.6-14.37,1.31-1.43,1.96-2.14,3.27-3.56,6.24,5.71,9.36,8.6,15.6,14.45-1.31,1.39-1.96,2.09-3.27,3.48Z"/>
              <g>
                <path class="cls-2" d="M186.46,41.43c-1.36,1.45-2.05,2.17-3.41,3.63-1.36-1.27-2.05-1.91-3.41-3.17,1.36-1.46,2.05-2.19,3.41-3.65,1.36,1.27,2.05,1.91,3.41,3.19Z"/>
                <path class="cls-2" d="M179.82,56.35c6.24-6.68,9.36-9.99,15.6-16.53,1.31,1.24,1.96,1.87,3.27,3.12-6.24,6.52-9.36,9.81-15.6,16.46-1.31-1.22-1.96-1.83-3.27-3.04Z"/>
                <path class="cls-2" d="M179.64,35.07c1.36-1.46,2.05-2.19,3.41-3.65,1.36,1.27,2.05,1.91,3.41,3.19-1.36,1.45-2.05,2.17-3.41,3.63-1.36-1.27-2.05-1.91-3.41-3.17Z"/>
                <path class="cls-2" d="M183.16,17.19c6.24,5.82,9.36,8.77,15.6,14.73-1.31,1.37-1.96,2.05-3.27,3.42-6.24-5.93-9.36-8.87-15.6-14.66,1.31-1.4,1.96-2.1,3.27-3.5Z"/>
                <path class="cls-2" d="M186.28,20.15c-6.24,6.63-9.36,9.97-15.6,16.74-1.31-1.2-1.96-1.79-3.27-2.98,6.24-6.8,9.36-10.16,15.6-16.82,1.31,1.22,1.96,1.83,3.27,3.06Z"/>
              </g>
            </g>
          </g>
          <g>
            <path class="cls-2" d="M329.8,21.61c.89.8.9,5.03-.04,5.34-1.35.44-1.15-5.29-.44-5.39.12-.02.32.03.48.05Z"/>
            <path class="cls-2" d="M349.99,44.55c-.44.81-5.65.41-5.35-.99.23-1.09,5.15-.26,5.35.52.03.12,0,.32,0,.48Z"/>
            <path class="cls-2" d="M312.61,51c-3.01-.87,3.49-3.94,3.9-2.74.48,1.39-2.78,2-3.9,2.74Z"/>
            <path class="cls-2" d="M337.63,29.94c-2.36.02,1.23-5.47,2.14-4.52,1.06,1.11-1.31,3.74-2.14,4.52Z"/>
            <path class="cls-2" d="M312.67,29.77c1.08.95,4.32,2.1,3.84,3.42-.41,1.14-7.01-3.21-3.84-3.42Z"/>
            <path class="cls-2" d="M343.36,36.4c-3.04-.93,3.45-3.85,3.88-2.64.5,1.41-2.77,1.93-3.88,2.64Z"/>
            <path class="cls-2" d="M311.8,39.51c.85.2,2.8,0,2.69,1.04-.14,1.34-3.58.55-4.47.4-1.89-.3.39-1.91,1.79-1.44Z"/>
            <path class="cls-2" d="M343.39,50.67c1.1.97,4.34,2.23,3.87,3.53-.4,1.11-6.97-3.36-3.87-3.53Z"/>
            <path class="cls-2" d="M328.76,59.67c.12-.84-.22-2.82.81-2.59,1.39.31.87,3.64.78,4.57-.17,1.71-1.93-.55-1.59-1.98Z"/>
            <path class="cls-2" d="M322.42,55.1c-.83,1.03-1.73,4.2-3.09,3.59-1.18-.53,2.51-6.69,3.09-3.59Z"/>
            <path class="cls-2" d="M337.64,55.81c.83.99,3.18,4.11,2.15,4.99-.9.77-4.52-5.52-2.15-4.99Z"/>
            <path class="cls-2" d="M322.42,27.47c-.55,3.03-4.24-3.9-3.06-4.18,1.35-.32,2.23,2.99,3.06,4.18Z"/>
          </g>
        </g>
        <g>
          <path class="cls-11" d="M512.62,108.27c-24.39-4.79-48.79-9.44-73.26-13.81,0-24.42,0-48.84,0-73.26,24.47,4.37,48.87,9.02,73.26,13.81,0,24.42,0,48.84,0,73.26Z"/>
          <path class="cls-9" d="M732.37,148.14c-24.5-3.37-48.89-7.24-73.26-11.47V63.41c24.37,4.23,48.76,8.1,73.26,11.47,0,24.42,0,48.84,0,73.26Z"/>
          <path class="cls-7" d="M439.45,94.48c-24.37-4.23-48.76-8.1-73.26-11.47,0-24.42,0-48.84,0-73.26,24.5,3.37,48.89,7.24,73.26,11.47,0,24.42,0,48.84,0,73.26Z"/>
          <path class="cls-10" d="M659.12,136.67c-24.47-4.37-48.87-9.02-73.26-13.81V49.6c24.39,4.79,48.79,9.44,73.26,13.81v73.26Z"/>
          <g>
            <path class="cls-2" d="M403.33,74.38c-1.8-.28-2.7-.42-4.5-.7v-30.34c1.8.28,2.7.42,4.5.7v30.34Z"/>
            <path class="cls-2" d="M412.76,37.93c-4.6,3.85-6.9,5.78-11.5,9.67-.07-.08-.1-.12-.17-.19-.07.06-.1.08-.17.14-4.6-5.32-6.91-7.97-11.51-13.26,1.62-1.38,2.44-2.07,4.06-3.45,3.05,3.51,4.57,5.27,7.62,8.79,3.05-2.57,4.57-3.85,7.62-6.41,1.62,1.89,2.43,2.83,4.05,4.72Z"/>
            <path class="cls-2" d="M414.4,57.99c-4.6,3.85-6.9,5.78-11.5,9.66-1.62-1.88-2.44-2.82-4.06-4.7,4.6-3.89,6.9-5.82,11.5-9.68,1.62,1.89,2.44,2.83,4.06,4.72Z"/>
            <path class="cls-2" d="M404.06,31.64c-1.19,1-1.78,1.5-2.97,2.5-1.19-1.37-1.78-2.06-2.97-3.43,1.19-1,1.78-1.51,2.97-2.51,1.19,1.37,1.78,2.06,2.97,3.44Z"/>
          </g>
          <path class="cls-8" d="M492.04,90.49c-10.7-2.06-21.4-4.08-32.11-6.08v-38.16c3.19-2.6,4.78-3.9,7.96-6.49,6.47,1.21,9.71,1.82,16.18,3.06,3.19,3.8,4.78,5.7,7.96,9.5,0,12.72,0,25.44,0,38.16ZM463.62,81.4c9.89,1.83,14.84,2.78,24.73,4.68v-32.94c-2.32-2.77-3.48-4.15-5.8-6.92-5.25-1-7.87-1.5-13.12-2.49-2.32,1.89-3.48,2.83-5.8,4.72v32.94Z"/>
          <g>
            <g>
              <path class="cls-4" d="M609.48,85.81c-.59-.11-.89-.17-1.48-.29-.39.32-.59.47-.98.79v6.05c-.23.18-.35.27-.58.44-1.19-.23-1.78-.34-2.97-.58-.23-.27-.35-.4-.58-.67v-6.05c-.39-.47-.59-.7-.98-1.17-.59-.12-.89-.17-1.48-.29-.39.32-.59.47-.98.79v16.71c.39.47.59.7.98,1.17.59.12.89.17,1.48.29.39-.32.59-.47.98-.79v-6.07c.23-.18.35-.27.58-.44,1.19.23,1.78.35,2.97.58.23.27.35.4.58.67v6.07c.39.47.59.7.98,1.17.59.11.89.17,1.48.29.4-.31.6-.47,1.01-.79v-16.71c-.4-.47-.6-.71-1.01-1.18Z"/>
              <path class="cls-4" d="M619.69,87.85c-2.32-.44-3.49-.66-5.81-1.11-1.04.83-1.56,1.24-2.6,2.07v13.42c1.04,1.24,1.56,1.86,2.6,3.1,2.32.45,3.49.67,5.81,1.11,1.04-.84,1.56-1.26,2.6-2.11v-13.42c-1.04-1.23-1.56-1.84-2.6-3.07ZM618.84,96.6s0-.01-.01-.02v4.88s0,.01.01.02v.77c-.23.19-.35.28-.58.47-1.18-.22-1.77-.34-2.94-.56-.23-.28-.35-.42-.58-.7v-.6h0v-9.52h0v-.43c.23-.18.35-.27.58-.45,1.18.23,1.77.34,2.94.56.23.27.35.4.58.67v4.91Z"/>
              <path class="cls-4" d="M631.49,90.05c-2.97-.55-4.46-.83-7.43-1.39-.39.32-.59.48-.98.8v16.66c.39.47.59.7.98,1.17.59.11.89.17,1.49.28.39-.32.59-.48.98-.8v-6.6c1.98.37,2.98.56,4.96.93,1.04-.85,1.56-1.27,2.6-2.12v-5.83c-1.04-1.23-1.56-1.85-2.6-3.08ZM630.64,96.89c-.23.19-.35.28-.58.47-1.18-.22-1.77-.33-2.94-.55-.23-.28-.35-.42-.58-.69v-2.97c.23-.19.35-.28.58-.47,1.18.22,1.77.33,2.94.55.23.28.35.42.58.69v2.97Z"/>
              <path class="cls-4" d="M638.97,94.96c2.43.45,3.64.67,6.07,1.11l.98-.8v-1.49l-.98-1.16c-3.66-.67-5.49-1-9.15-1.68-.4.32-.6.48-1.01.79v16.58c.4.47.6.7,1.01,1.17,3.66.68,5.49,1.01,9.15,1.68l.98-.8v-1.46l-.98-1.16c-2.43-.44-3.64-.66-6.07-1.11-.23-.28-.35-.41-.58-.69v-2.97c.23-.19.35-.29.58-.48,1,.18,1.5.28,2.49.46.4-.32.6-.48,1.01-.8v-1.46c-.4-.47-.6-.7-1.01-1.17-1-.18-1.5-.27-2.49-.46-.23-.27-.35-.4-.58-.66v-3c.23-.18.35-.27.58-.45Z"/>
            </g>
            <g>
              <path class="cls-4" d="M602.73,75.95c-1.27-.25-1.91-.37-3.19-.62-.14.11-.21.16-.35.27v5.77c.14.16.21.25.35.41.21.04.31.06.52.1.14-.11.21-.16.35-.27v-2.09c.08-.07.12-.1.2-.16.35.07.52.1.87.17.14-.11.21-.16.35-.27v-.51c-.14-.16-.21-.25-.35-.41-.35-.07-.52-.1-.87-.17-.08-.09-.12-.14-.2-.23v-1.04c.08-.06.12-.09.2-.15.85.16,1.27.25,2.11.41.14-.11.21-.16.34-.27v-.52c-.14-.16-.21-.24-.34-.41Z"/>
              <path class="cls-4" d="M605.33,77.66c.85.16,1.27.25,2.11.41.14-.11.21-.17.34-.27v-.52c-.14-.16-.21-.24-.34-.41-1.27-.25-1.91-.37-3.19-.62-.14.11-.21.16-.35.27v5.77c.14.16.21.25.35.41,1.27.25,1.91.37,3.19.62.14-.11.21-.17.34-.27v-.51c-.14-.16-.21-.25-.34-.41-.85-.16-1.27-.25-2.11-.41-.08-.1-.12-.15-.2-.24v-1.04c.08-.07.12-.1.2-.16.35.07.52.1.87.17.14-.11.21-.16.35-.27v-.51c-.14-.16-.21-.25-.35-.41-.35-.07-.52-.1-.87-.17-.08-.09-.12-.14-.2-.23v-1.04c.08-.06.12-.09.2-.16Z"/>
              <path class="cls-4" d="M611.58,79.78c.21.04.31.06.52.1.14-.11.21-.17.34-.28v-.88c-.36-.43-.54-.64-.91-1.07-.81-.16-1.21-.23-2.02-.39-.36.29-.54.43-.9.72v2.03c.36.43.54.64.9,1.07.61.12.92.18,1.53.3.08.1.12.14.19.24v1.04c-.08.06-.12.09-.19.16-.41-.08-.62-.12-1.03-.2-.08-.09-.12-.14-.19-.23v-.39c-.14-.16-.2-.24-.34-.41-.21-.04-.31-.06-.52-.1-.14.11-.2.17-.34.28v.89c.36.43.54.64.9,1.07.81.16,1.21.23,2.02.39.36-.29.54-.43.91-.72v-2.03l-.91-1.08c-.61-.12-.91-.18-1.52-.29-.08-.09-.12-.14-.19-.23v-1.03c.08-.07.12-.1.19-.17.41.08.62.12,1.03.2.08.1.12.14.19.24v.38c.14.16.2.24.34.41Z"/>
              <path class="cls-4" d="M616.75,78.65c-1.26-.24-1.88-.36-3.14-.6-.14.11-.21.17-.34.28v.51c.14.16.21.24.34.41.39.07.58.11.97.19v4.93c.14.16.21.24.34.41.21.04.31.06.52.1.14-.11.21-.17.34-.28v-4.92c.39.07.58.11.97.19.14-.11.2-.17.34-.28v-.52c-.14-.16-.2-.24-.34-.41Z"/>
              <path class="cls-4" d="M621.43,80.7c.14-.11.21-.16.35-.27v-.52c-.14-.16-.21-.24-.35-.41-1.26-.24-1.9-.36-3.16-.6-.14.11-.21.17-.34.28v.52l.34.41c.39.07.59.11.98.19v4.1c-.39-.07-.59-.11-.98-.19l-.34.28v.52l.34.41c1.26.24,1.9.36,3.16.6.14-.11.21-.16.35-.27v-.52c-.14-.16-.21-.25-.35-.41-.39-.07-.59-.11-.98-.19v-4.1c.39.07.59.11.98.19Z"/>
              <path class="cls-4" d="M625.51,80.32l-.52-.1c-.14.11-.2.17-.34.28v3.95c-.28.23-.43.35-.71.58-.28-.34-.43-.51-.71-.85v-3.95c-.14-.16-.2-.24-.34-.41-.21-.04-.31-.06-.52-.1-.14.11-.21.17-.34.28v4.44c.67.8,1,1.19,1.67,1.99.19.04.29.05.48.09.67-.54,1-.81,1.67-1.36v-4.44c-.14-.16-.2-.24-.34-.41Z"/>
              <path class="cls-4" d="M629.65,81.09c-.82-.15-1.23-.23-2.05-.38-.37.29-.55.44-.91.73v5.21c.14.16.21.24.35.41.21.04.31.06.52.1.14-.11.21-.17.35-.28v-2.09c.08-.07.12-.1.2-.16.42.08.63.12,1.04.2.08.1.12.14.2.24v2.09c.14.16.21.24.34.41.21.04.32.06.53.1.14-.11.21-.17.34-.28v-5.21c-.37-.43-.55-.65-.91-1.08ZM629.35,83.48c-.08.06-.12.09-.2.16-.42-.08-.63-.12-1.04-.2-.08-.09-.12-.14-.2-.23v-1.04c.08-.06.12-.09.2-.16.42.08.63.12,1.04.2.08.09.12.14.2.23v1.04Z"/>
              <path class="cls-4" d="M635.06,86.49c-.21-.04-.31-.06-.52-.1-.14.11-.2.17-.34.28,0,.13,0,.19,0,.32-.08.07-.12.1-.2.16-.41-.08-.62-.12-1.03-.19-.08-.1-.12-.14-.2-.24,0-1.9,0-2.85,0-4.76-.14-.17-.2-.25-.34-.41l-.52-.1c-.14.11-.21.17-.35.29v5.26c.36.43.54.64.91,1.07.81.15,1.22.23,2.03.38.36-.29.54-.44.91-.74,0-.33,0-.49,0-.82-.14-.16-.2-.24-.34-.41Z"/>
              <path class="cls-4" d="M640.18,83.03c-.81-.15-1.21-.22-2.02-.37-.36.29-.54.44-.91.73v4.67c.36.43.54.64.91,1.07.81.15,1.21.22,2.02.37.36-.3.54-.44.91-.74v-4.67c-.36-.43-.54-.64-.91-1.06ZM639.88,86.08s0,0-.01-.01v1.7s0,0,.01.01v.27c-.08.07-.12.1-.2.17-.41-.08-.62-.11-1.03-.19-.08-.1-.12-.14-.2-.24v-.2s0,0,0,0v-3.38s0,0,0,0v-.1c.08-.06.12-.09.2-.16.41.08.62.11,1.03.19.08.09.12.14.2.23v1.71Z"/>
              <path class="cls-4" d="M645.45,84.01c-1.27-.23-1.91-.35-3.19-.58-.14.11-.21.17-.35.28v5.77c.14.16.21.24.35.41.21.04.31.06.52.09.14-.11.21-.17.35-.28v-2.09c.08-.07.12-.1.2-.17.35.06.52.09.87.16l.35-.28v-.51c-.14-.16-.21-.24-.35-.41-.35-.06-.52-.09-.87-.16-.08-.09-.12-.14-.2-.23v-1.04c.08-.06.12-.09.2-.16.85.15,1.27.23,2.12.39.14-.11.2-.17.34-.28v-.52c-.14-.16-.2-.24-.34-.4Z"/>
            </g>
          </g>
          <g>
            <path class="cls-1" d="M585.87,122.86c-24.43-4.84-48.84-9.75-73.26-14.59,0-24.42,0-48.84,0-73.26,24.42,4.84,48.84,9.75,73.26,14.59v73.26Z"/>
            <g>
              <path class="cls-2" d="M549.12,99.96c-6.24-7.49-9.36-11.23-15.6-18.71,1.31-1.05,1.96-1.57,3.27-2.62,6.24,7.48,9.36,11.23,15.6,18.72-1.31,1.05-1.96,1.57-3.27,2.62Z"/>
              <g>
                <path class="cls-2" d="M552.65,83.03c-1.36,1.09-2.05,1.64-3.41,2.73-1.36-1.64-2.05-2.46-3.41-4.09,1.36-1.09,2.05-1.64,3.41-2.73,1.36,1.64,2.05,2.46,3.41,4.09Z"/>
                <path class="cls-2" d="M546.01,96.17c6.24-4.99,9.36-7.48,15.6-12.48,1.31,1.57,1.96,2.35,3.27,3.92-6.24,4.99-9.36,7.49-15.6,12.48-1.31-1.57-1.96-2.36-3.27-3.93Z"/>
                <path class="cls-2" d="M545.83,74.84c1.36-1.09,2.05-1.64,3.41-2.73,1.36,1.64,2.05,2.46,3.41,4.09-1.36,1.09-2.05,1.64-3.41,2.73-1.36-1.64-2.05-2.46-3.41-4.09Z"/>
                <path class="cls-2" d="M549.35,57.91c6.24,7.49,9.36,11.23,15.6,18.71-1.31,1.05-1.96,1.57-3.27,2.62-6.24-7.48-9.36-11.23-15.6-18.72,1.31-1.05,1.96-1.57,3.27-2.62Z"/>
                <path class="cls-2" d="M552.47,61.7c-6.24,4.99-9.36,7.48-15.6,12.48-1.31-1.57-1.96-2.35-3.27-3.92,6.24-4.99,9.36-7.49,15.6-12.48,1.31,1.57,1.96,2.36,3.27,3.93Z"/>
              </g>
            </g>
          </g>
          <g>
            <path class="cls-2" d="M695.98,85.77c.89.85.89,5.08-.04,5.33-1.35.37-1.13-5.35-.44-5.41.12-.01.32.05.48.08Z"/>
            <path class="cls-2" d="M716.18,109.49c-.44.79-5.65.26-5.35-1.14.23-1.09,5.15-.12,5.35.66.03.12,0,.32,0,.48Z"/>
            <path class="cls-2" d="M678.79,114.04c-3.01-1.11,3.48-3.7,3.9-2.44.48,1.43-2.78,1.79-3.9,2.44Z"/>
            <path class="cls-2" d="M703.82,94.48c-2.36-.08,1.23-5.42,2.14-4.43,1.07,1.15-1.31,3.69-2.14,4.43Z"/>
            <path class="cls-2" d="M678.85,92.82c1.08,1.03,4.32,2.43,3.84,3.71-.41,1.09-7.01-3.75-3.84-3.71Z"/>
            <path class="cls-2" d="M709.55,101.15c-3.04-1.03,3.45-3.75,3.88-2.52.5,1.42-2.77,1.85-3.88,2.52Z"/>
            <path class="cls-2" d="M677.98,102.48c.85.26,2.8.21,2.69,1.24-.14,1.31-3.59.26-4.47.05-1.95-.46.39-1.88,1.79-1.29Z"/>
            <path class="cls-2" d="M709.57,115.42c1.1,1.01,4.34,2.36,3.87,3.65-.4,1.09-6.97-3.58-3.87-3.65Z"/>
            <path class="cls-2" d="M694.94,123.78c.12-.83-.22-2.82.81-2.54,1.41.39.88,3.68.78,4.61-.17,1.67-1.93-.66-1.59-2.07Z"/>
            <path class="cls-2" d="M688.61,118.84c-.83.97-1.73,4.09-3.09,3.39-1.2-.62,2.51-6.52,3.09-3.39Z"/>
            <path class="cls-2" d="M703.82,120.35c.83,1.02,3.18,4.23,2.15,5.08-.9.74-4.52-5.71-2.15-5.08Z"/>
            <path class="cls-2" d="M688.61,91.21c-.55,2.99-4.22-4.19-3.06-4.38,1.36-.23,2.23,3.13,3.06,4.38Z"/>
          </g>
        </g>
        <g>
          <path class="cls-11" d="M878.8,157.78c-24.49.2-48.82-.54-73.26-2.09v-73.26c24.44,1.55,48.77,2.29,73.26,2.09v73.26Z"/>
          <path class="cls-9" d="M1098.56,115.57c-24.07,9.33-48.29,17.17-73.26,23.71,0-24.42,0-48.84,0-73.26,24.97-6.54,49.19-14.39,73.26-23.71,0,24.42,0,48.84,0,73.26Z"/>
          <path class="cls-7" d="M805.63,155.7c-24.51-1.84-48.88-4.41-73.26-7.56,0-24.42,0-48.84,0-73.26,24.38,3.15,48.75,5.71,73.26,7.56v73.26Z"/>
          <path class="cls-10" d="M1025.31,139.28c-24.27,5.82-48.52,10.28-73.26,13.55,0-24.42,0-48.84,0-73.26,24.74-3.27,48.99-7.73,73.26-13.55,0,24.42,0,48.84,0,73.26Z"/>
          <g>
            <path class="cls-2" d="M769.52,138.5c-1.8-.19-2.7-.28-4.5-.47v-30.34c1.8.19,2.7.29,4.5.47v30.34Z"/>
            <path class="cls-2" d="M778.94,101.49c-4.6,4.16-6.9,6.23-11.5,10.35-.07-.07-.1-.11-.17-.18-.07.06-.1.09-.17.15-4.6-5.09-6.91-7.64-11.51-12.78,1.62-1.44,2.44-2.16,4.06-3.6,3.05,3.39,4.57,5.08,7.62,8.44,3.05-2.72,4.57-4.09,7.62-6.84,1.62,1.78,2.43,2.68,4.05,4.45Z"/>
            <path class="cls-2" d="M780.59,121.43c-4.6,4.17-6.9,6.24-11.5,10.37-1.62-1.79-2.44-2.69-4.06-4.49,4.6-4.11,6.9-6.17,11.5-10.33,1.62,1.78,2.44,2.67,4.06,4.45Z"/>
            <path class="cls-2" d="M770.24,95.73c-1.19,1.07-1.78,1.6-2.97,2.66-1.19-1.31-1.78-1.97-2.97-3.29,1.19-1.06,1.78-1.59,2.97-2.65,1.19,1.31,1.78,1.97,2.97,3.28Z"/>
          </g>
          <path class="cls-8" d="M858.23,144.08c-10.7-.09-21.42-.41-32.11-.94v-38.16c3.19-3.03,4.78-4.56,7.96-7.62,6.47.25,9.71.35,16.18.48,3.19,3.25,4.78,4.87,7.96,8.08v38.16ZM829.81,139.62c9.89.43,14.84.58,24.73.72v-32.94c-2.32-2.36-3.48-3.54-5.8-5.91-5.25-.11-7.87-.19-13.12-.39-2.32,2.24-3.48,3.35-5.8,5.57v32.94Z"/>
          <g>
            <g>
              <path class="cls-4" d="M975.66,107.82c-.59.1-.89.14-1.48.24-.39.45-.59.68-.98,1.14v6.05c-.23.26-.35.39-.58.65-1.19.19-1.78.28-2.97.46-.23-.19-.35-.28-.58-.47v-6.05c-.39-.33-.59-.5-.98-.83-.59.09-.89.13-1.48.22-.39.45-.59.67-.98,1.12v16.71c.39.34.59.5.98.84.59-.09.89-.13,1.48-.22.39-.45.59-.68.98-1.13v-6.07c.23-.26.35-.39.58-.65,1.19-.18,1.78-.27,2.97-.46.23.19.35.28.58.47v6.07c.39.33.59.5.98.83.59-.09.89-.14,1.48-.24.4-.46.6-.69,1.01-1.15v-16.71c-.4-.33-.6-.49-1.01-.82Z"/>
              <path class="cls-4" d="M985.87,106.16c-2.32.42-3.48.62-5.81,1.01-1.04,1.21-1.56,1.81-2.6,3.01v13.42c1.04.87,1.56,1.3,2.6,2.17,2.32-.39,3.48-.59,5.81-1.01,1.04-1.23,1.56-1.84,2.6-3.07v-13.42c-1.04-.84-1.56-1.26-2.6-2.1ZM985.03,115.22s0,0-.01-.01v4.88s0,0,.01.01v.77c-.23.28-.35.41-.58.69-1.18.21-1.77.31-2.94.51-.23-.19-.35-.29-.58-.48v-.6h0v-9.52h0v-.44c.23-.26.35-.39.58-.66,1.18-.2,1.77-.3,2.94-.51.23.18.35.27.58.45v4.91Z"/>
              <path class="cls-4" d="M997.68,103.9c-2.97.59-4.46.88-7.43,1.44-.39.47-.59.7-.98,1.16v16.66c.39.32.59.48.98.8.59-.11.89-.17,1.49-.28.39-.47.59-.7.98-1.17v-6.6c1.98-.38,2.98-.57,4.96-.97,1.04-1.25,1.56-1.87,2.6-3.12v-5.83c-1.04-.83-1.56-1.24-2.6-2.07ZM996.83,111.07c-.23.28-.35.42-.58.7-1.18.23-1.77.35-2.94.57-.23-.19-.35-.28-.58-.47v-2.97l.58-.7c1.18-.23,1.77-.34,2.94-.57.23.19.35.28.58.47v2.97Z"/>
              <path class="cls-4" d="M1005.16,105.88c2.43-.52,3.64-.78,6.07-1.33.39-.48.59-.72.98-1.2v-1.49c-.39-.3-.59-.46-.98-.76-3.66.82-5.49,1.22-9.15,1.98-.4.48-.6.71-1.01,1.19,0,6.63,0,9.95,0,16.58.4.31.6.46,1.01.77,3.66-.76,5.49-1.16,9.15-1.98.39-.48.59-.72.98-1.2v-1.46c-.39-.3-.59-.46-.98-.76-2.43.55-3.64.81-6.07,1.33-.23-.18-.35-.28-.58-.46v-2.97c.23-.28.35-.42.58-.71,1-.21,1.5-.32,2.49-.54.4-.48.6-.72,1.01-1.2v-1.46c-.4-.3-.6-.46-1.01-.76-1,.22-1.5.32-2.49.54-.23-.17-.35-.26-.58-.43v-3c.23-.27.35-.41.58-.68Z"/>
            </g>
            <g>
              <path class="cls-4" d="M968.92,100.32c-1.27.19-1.91.29-3.19.47-.14.16-.21.24-.35.39v5.77c.14.12.21.17.35.29.21-.03.31-.05.52-.08.14-.16.21-.24.35-.39v-2.09c.08-.09.12-.14.2-.23.35-.05.52-.08.87-.13.14-.16.21-.24.35-.39v-.51c-.14-.12-.21-.17-.35-.29-.35.05-.52.08-.87.13-.08-.07-.12-.1-.2-.16v-1.04c.08-.09.12-.13.2-.22.85-.12,1.27-.19,2.11-.31.14-.16.21-.24.34-.39v-.52c-.14-.12-.21-.17-.34-.29Z"/>
              <path class="cls-4" d="M971.51,101.12c.85-.13,1.27-.2,2.11-.33.14-.16.21-.24.34-.4v-.52c-.14-.11-.21-.17-.34-.29-1.27.2-1.91.3-3.19.5-.14.16-.21.24-.35.39v5.77c.14.12.21.17.35.29,1.27-.19,1.91-.29,3.19-.5.14-.16.21-.24.34-.4v-.51c-.14-.12-.21-.17-.34-.29-.85.13-1.27.2-2.11.33-.08-.07-.12-.1-.2-.17v-1.04c.08-.09.12-.14.2-.23.35-.05.52-.08.87-.14.14-.16.21-.24.35-.4v-.51c-.14-.11-.21-.17-.35-.29-.35.05-.52.08-.87.14-.08-.06-.12-.1-.2-.16v-1.04c.08-.09.12-.14.2-.23Z"/>
              <path class="cls-4" d="M977.76,101.04c.21-.03.31-.05.52-.09.14-.16.21-.24.34-.4v-.88c-.36-.3-.54-.45-.91-.75-.81.13-1.21.2-2.02.33-.36.42-.54.62-.9,1.04v2.03c.36.3.54.45.9.75.61-.1.92-.15,1.53-.25.08.07.12.1.19.17v1.04c-.08.09-.12.14-.19.23-.41.07-.62.1-1.03.17-.08-.06-.12-.1-.19-.16v-.39c-.14-.11-.21-.17-.34-.29-.21.03-.31.05-.52.08-.14.16-.2.24-.34.4v.89c.36.3.54.45.9.75.81-.13,1.21-.2,2.02-.33.36-.42.54-.63.91-1.05v-2.03c-.36-.3-.54-.45-.91-.75-.61.1-.91.15-1.52.25-.08-.06-.12-.1-.19-.16v-1.03c.08-.09.12-.14.19-.23.41-.07.62-.1,1.03-.17.08.07.12.1.19.17v.38c.14.11.2.17.34.29Z"/>
              <path class="cls-4" d="M982.94,98.03c-1.26.22-1.88.33-3.14.54-.14.16-.21.24-.34.4v.51c.14.11.21.17.34.28.39-.07.58-.1.97-.16v4.93c.14.11.21.17.34.28.21-.04.31-.05.52-.09.14-.16.21-.24.34-.4v-4.92c.39-.07.58-.1.97-.17.14-.16.21-.24.34-.4v-.52c-.14-.11-.21-.17-.34-.28Z"/>
              <path class="cls-4" d="M987.61,98.36c.14-.16.21-.24.35-.41v-.52c-.14-.11-.21-.17-.35-.28-1.26.23-1.9.34-3.16.57-.14.16-.2.24-.34.4v.52c.14.11.2.17.34.28.39-.07.59-.1.98-.17v4.1c-.39.07-.59.1-.98.17-.14.16-.2.24-.34.4v.52c.14.11.2.17.34.28,1.26-.22,1.9-.34,3.16-.57.14-.16.21-.24.35-.41v-.52c-.14-.11-.21-.17-.35-.28-.39.07-.59.11-.98.18v-4.1c.39-.07.59-.11.98-.18Z"/>
              <path class="cls-4" d="M991.69,96.45c-.21.04-.31.06-.52.1-.14.16-.2.24-.34.41v3.95c-.28.34-.43.51-.71.84-.28-.23-.43-.35-.71-.58v-3.95c-.14-.11-.21-.17-.34-.28l-.52.1c-.14.16-.21.24-.34.4v4.44c.67.55,1,.82,1.67,1.36.19-.04.29-.05.48-.09.67-.79,1-1.19,1.67-1.99v-4.44c-.14-.11-.21-.17-.34-.28Z"/>
              <path class="cls-4" d="M995.83,95.65c-.82.16-1.23.24-2.05.4-.37.43-.55.65-.91,1.08v5.21c.14.11.21.16.35.27.21-.04.31-.06.52-.1.14-.16.21-.25.35-.41v-2.09c.08-.1.12-.15.2-.24.42-.08.63-.12,1.04-.2.08.07.12.1.2.16v2.09c.14.11.21.16.34.27.21-.04.32-.06.53-.1.14-.16.21-.25.34-.41v-5.21c-.37-.29-.55-.43-.91-.72ZM995.54,98.15c-.08.09-.12.14-.2.23-.42.08-.63.12-1.04.2-.08-.06-.12-.09-.2-.15v-1.04c.08-.09.12-.14.2-.23.42-.08.63-.12,1.04-.2.08.06.12.09.2.15v1.04Z"/>
              <path class="cls-4" d="M1001.25,98.95c-.21.04-.31.06-.52.11-.14.17-.2.25-.34.41,0,.13,0,.2,0,.33-.08.1-.12.15-.2.24-.41.08-.62.13-1.03.21-.08-.06-.12-.1-.2-.16v-4.76c-.13-.11-.19-.17-.33-.28-.21.04-.31.06-.52.1-.14.17-.21.25-.35.42v5.26c.36.29.54.43.91.72.81-.16,1.22-.25,2.03-.41.36-.44.54-.65.91-1.09,0-.33,0-.49,0-.82-.14-.11-.2-.16-.34-.27Z"/>
              <path class="cls-4" d="M1006.36,93.46c-.81.17-1.21.26-2.02.43-.36.44-.54.65-.91,1.09v4.67c.36.29.54.43.91.71.81-.17,1.21-.26,2.02-.43.36-.44.54-.66.91-1.1v-4.67c-.36-.28-.54-.42-.91-.7ZM1006.07,96.63s0,0-.01,0v1.7s0,0,.01,0v.27c-.08.1-.12.15-.2.25-.41.09-.62.13-1.03.22-.08-.06-.12-.1-.2-.16v-.2s0,0,0,0v-3.38s0,0,0,0v-.1c.08-.09.12-.14.2-.24.41-.09.62-.13,1.03-.22.08.06.12.09.2.15v1.71Z"/>
              <path class="cls-4" d="M1011.64,92.32c-1.27.29-1.91.43-3.19.71-.14.17-.21.25-.35.42v5.77c.14.11.21.16.35.26.21-.05.31-.07.52-.11.14-.17.21-.25.35-.42,0-.84,0-1.25,0-2.09.08-.1.12-.15.2-.25.35-.08.52-.12.87-.19.14-.17.21-.25.35-.42v-.51l-.35-.26c-.35.08-.52.12-.87.19-.08-.06-.12-.09-.2-.15v-1.04c.08-.1.12-.14.2-.24.85-.19,1.27-.28,2.12-.47.14-.17.2-.25.34-.42v-.52c-.14-.11-.2-.16-.34-.26Z"/>
            </g>
          </g>
          <g>
            <path class="cls-1" d="M952.05,152.83c-24.41,2.77-48.71,4.36-73.26,4.95v-73.26c24.56-.58,48.85-2.18,73.26-4.95,0,24.42,0,48.84,0,73.26Z"/>
            <g>
              <path class="cls-2" d="M915.31,140.71c-6.24-5.82-9.36-8.77-15.6-14.73,1.31-1.37,1.96-2.05,3.27-3.42,6.24,5.93,9.36,8.87,15.6,14.66-1.31,1.4-1.96,2.1-3.27,3.5Z"/>
              <g>
                <path class="cls-2" d="M918.83,122.83c-1.36,1.46-2.05,2.19-3.41,3.65-1.36-1.27-2.05-1.91-3.41-3.19,1.36-1.45,2.05-2.17,3.41-3.63,1.36,1.27,2.05,1.91,3.41,3.17Z"/>
                <path class="cls-2" d="M912.19,137.75c6.24-6.62,9.36-9.97,15.6-16.74,1.31,1.2,1.96,1.79,3.27,2.98-6.24,6.8-9.36,10.16-15.6,16.82-1.31-1.22-1.96-1.83-3.27-3.06Z"/>
                <path class="cls-2" d="M912.01,116.46c1.36-1.45,2.05-2.17,3.41-3.63,1.36,1.27,2.05,1.91,3.41,3.17-1.36,1.46-2.05,2.19-3.41,3.65-1.36-1.27-2.05-1.91-3.41-3.19Z"/>
                <path class="cls-2" d="M915.54,98.6c6.24,5.82,9.36,8.7,15.6,14.37-1.31,1.43-1.96,2.14-3.27,3.56-6.24-5.71-9.36-8.6-15.6-14.45,1.31-1.39,1.96-2.09,3.27-3.48Z"/>
                <path class="cls-2" d="M918.66,101.55c-6.24,6.68-9.36,9.99-15.6,16.53-1.31-1.24-1.96-1.87-3.27-3.12,6.24-6.52,9.36-9.81,15.6-16.46,1.31,1.22,1.96,1.83,3.27,3.05Z"/>
              </g>
            </g>
          </g>
          <g>
            <path class="cls-2" d="M1062.17,71.66c.89.42.95,4.61-.04,5.35-1.36,1.02-1.24-4.77-.44-5.2.12-.06.32-.1.48-.15Z"/>
            <path class="cls-2" d="M1082.36,85.38c-.44,1.02-5.65,3.11-5.35,1.57.23-1.21,5.17-2.59,5.35-2.05.04.1,0,.32,0,.48Z"/>
            <path class="cls-2" d="M1044.98,107.97c-3.01.27,3.51-5.18,3.9-4.23.49,1.21-2.78,3.07-3.9,4.23Z"/>
            <path class="cls-2" d="M1070,76.56c-2.36,1.08,1.25-6.01,2.14-5.49,1.03.6-1.31,4.34-2.14,5.49Z"/>
            <path class="cls-2" d="M1045.04,86.72c1.08.54,4.31.46,3.84,1.95-.44,1.39-7.01-.54-3.84-1.95Z"/>
            <path class="cls-2" d="M1075.74,80.38c-3.04.49,3.49-5.37,3.88-4.47.52,1.16-2.77,3.25-3.88,4.47Z"/>
            <path class="cls-2" d="M1044.17,96.79c.85-.12,2.78-1.01,2.69.02-.14,1.5-3.47,1.91-4.47,2.09-1.7.3.39-2.05,1.79-2.1Z"/>
            <path class="cls-2" d="M1075.76,94.64c1.1.46,4.32.19,3.87,1.7-.43,1.43-6.97-.08-3.87-1.7Z"/>
            <path class="cls-2" d="M1061.13,110.17c.12-.89-.29-2.72.81-2.93,1.3-.25.83,3.37.78,4.23-.11,2.05-1.93.27-1.59-1.3Z"/>
            <path class="cls-2" d="M1054.79,108.23c-.83,1.36-1.7,4.91-3.09,4.83-1.09-.07,2.51-7.69,3.09-4.83Z"/>
            <path class="cls-2" d="M1070.01,102.43c.83.62,3.2,2.63,2.15,4.02-.92,1.21-4.51-3.48-2.15-4.02Z"/>
            <path class="cls-2" d="M1054.79,80.6c-.55,3.25-4.33-2.16-3.06-2.95,1.36-.85,2.23,2.09,3.06,2.95Z"/>
          </g>
        </g>
      </g>
    </g>
    <g>
      <g>
        <path class="cls-3" d="M380.71,174.12v14.02h-1.4v-11.9l-4.91,8.21h-.2l-4.91-8.21v11.9h-1.4v-14.02h1.72l4.69,7.85,4.69-7.85h1.72Z"/>
        <path class="cls-3" d="M391.53,178.13h1.32v10.02h-1.32v-1.96c-.92,1.47-2.27,2.2-4.05,2.2-1.43,0-2.65-.51-3.66-1.52-1.01-1.01-1.51-2.26-1.51-3.73s.5-2.71,1.51-3.73c1.01-1.01,2.23-1.52,3.66-1.52,1.78,0,3.12.74,4.05,2.2v-1.96ZM384.78,185.95c.76.77,1.7,1.15,2.8,1.15s2.04-.38,2.8-1.15c.76-.77,1.14-1.71,1.14-2.82s-.38-2.05-1.14-2.81c-.76-.77-1.7-1.15-2.8-1.15s-2.04.38-2.8,1.15c-.76.77-1.14,1.71-1.14,2.81s.38,2.05,1.14,2.82Z"/>
        <path class="cls-3" d="M394.85,188.14v-14.62h1.32v14.62h-1.32Z"/>
        <path class="cls-3" d="M406.8,178.13h1.32v10.02h-1.32v-1.96c-.92,1.47-2.27,2.2-4.05,2.2-1.43,0-2.65-.51-3.66-1.52-1.01-1.01-1.51-2.26-1.51-3.73s.5-2.71,1.51-3.73c1.01-1.01,2.23-1.52,3.66-1.52,1.78,0,3.12.74,4.05,2.2v-1.96ZM400.04,185.95c.76.77,1.7,1.15,2.8,1.15s2.04-.38,2.8-1.15c.76-.77,1.14-1.71,1.14-2.82s-.38-2.05-1.14-2.81c-.76-.77-1.7-1.15-2.8-1.15s-2.04.38-2.8,1.15c-.76.77-1.14,1.71-1.14,2.81s.38,2.05,1.14,2.82Z"/>
        <path class="cls-3" d="M415.49,177.89c1.43,0,2.65.51,3.66,1.52,1.01,1.02,1.51,2.26,1.51,3.73s-.5,2.71-1.51,3.73c-1.01,1.02-2.23,1.52-3.66,1.52-1.78,0-3.12-.73-4.05-2.2v5.97h-1.32v-14.02h1.32v1.96c.92-1.47,2.27-2.2,4.05-2.2ZM412.59,185.95c.76.77,1.7,1.15,2.8,1.15s2.04-.38,2.8-1.15c.76-.77,1.14-1.71,1.14-2.82s-.38-2.05-1.14-2.81c-.76-.77-1.7-1.15-2.8-1.15s-2.04.38-2.8,1.15c-.76.77-1.14,1.71-1.14,2.81s.38,2.05,1.14,2.82Z"/>
        <path class="cls-3" d="M427.43,177.89c1.43,0,2.65.51,3.66,1.52,1.01,1.02,1.51,2.26,1.51,3.73s-.5,2.71-1.51,3.73c-1.01,1.02-2.23,1.52-3.66,1.52-1.78,0-3.12-.73-4.05-2.2v5.97h-1.32v-14.02h1.32v1.96c.92-1.47,2.27-2.2,4.05-2.2ZM424.53,185.95c.76.77,1.7,1.15,2.8,1.15s2.04-.38,2.8-1.15c.76-.77,1.14-1.71,1.14-2.82s-.38-2.05-1.14-2.81c-.76-.77-1.7-1.15-2.8-1.15s-2.04.38-2.8,1.15c-.76.77-1.14,1.71-1.14,2.81s.38,2.05,1.14,2.82Z"/>
        <path class="cls-3" d="M441.05,178.13h1.32v10.02h-1.32v-1.56c-.75,1.2-1.87,1.8-3.37,1.8-1.22,0-2.17-.37-2.88-1.11s-1.05-1.74-1.05-3v-6.15h1.32v6.15c0,.89.24,1.59.71,2.08.47.5,1.15.74,2.01.74.96,0,1.74-.3,2.34-.91.6-.61.9-1.55.9-2.81v-5.25Z"/>
        <path class="cls-3" d="M445.7,179.79c.61-1.21,1.67-1.82,3.17-1.82v1.28c-.91,0-1.66.27-2.27.8-.6.53-.9,1.38-.9,2.52v5.57h-1.32v-10.02h1.32v1.66Z"/>
        <path class="cls-3" d="M457.89,178.13h1.32v10.02h-1.32v-1.96c-.92,1.47-2.27,2.2-4.05,2.2-1.43,0-2.65-.51-3.66-1.52-1.01-1.01-1.51-2.26-1.51-3.73s.5-2.71,1.51-3.73c1.01-1.01,2.23-1.52,3.66-1.52,1.78,0,3.12.74,4.05,2.2v-1.96ZM451.13,185.95c.76.77,1.7,1.15,2.8,1.15s2.04-.38,2.8-1.15c.76-.77,1.14-1.71,1.14-2.82s-.38-2.05-1.14-2.81c-.76-.77-1.7-1.15-2.8-1.15s-2.04.38-2.8,1.15c-.76.77-1.14,1.71-1.14,2.81s.38,2.05,1.14,2.82Z"/>
        <path class="cls-3" d="M471.89,177.89c1.12,0,2.03.36,2.71,1.08.69.72,1.03,1.7,1.03,2.92v6.25h-1.32v-6.25c0-.87-.22-1.54-.67-2.01-.45-.47-1.04-.71-1.77-.71-.83,0-1.5.28-2.01.83-.52.55-.77,1.42-.77,2.59v5.55h-1.32v-6.25c0-.88-.21-1.56-.63-2.02-.42-.47-.99-.7-1.71-.7-.8,0-1.48.28-2.04.84-.56.56-.84,1.42-.84,2.58v5.55h-1.32v-10.02h1.32v1.46c.72-1.13,1.74-1.7,3.07-1.7,1.44,0,2.46.61,3.04,1.82.72-1.21,1.8-1.82,3.25-1.82Z"/>
        <path class="cls-3" d="M483.21,186.82h6.81v1.32h-8.21v-14.02h8.12v1.32h-6.71v4.97h6.21v1.32h-6.21v5.09Z"/>
        <path class="cls-3" d="M499.84,178.13h1.32v10.02h-1.32v-1.96c-.92,1.47-2.27,2.2-4.05,2.2-1.43,0-2.65-.51-3.66-1.52-1.01-1.01-1.51-2.26-1.51-3.73s.5-2.71,1.51-3.73c1.01-1.01,2.23-1.52,3.66-1.52,1.78,0,3.12.74,4.05,2.2v-1.96ZM493.08,185.95c.76.77,1.7,1.15,2.8,1.15s2.04-.38,2.8-1.15c.76-.77,1.14-1.71,1.14-2.82s-.38-2.05-1.14-2.81c-.76-.77-1.7-1.15-2.8-1.15s-2.04.38-2.8,1.15c-.76.77-1.14,1.71-1.14,2.81s.38,2.05,1.14,2.82Z"/>
        <path class="cls-3" d="M504.21,180.73c0,.45.2.8.61,1.06.4.26.89.48,1.47.64l1.72.49c.57.16,1.06.46,1.45.89.4.43.59.99.59,1.69,0,.86-.34,1.55-1.01,2.08s-1.55.8-2.62.8c-.96,0-1.78-.21-2.45-.64-.68-.43-1.15-.98-1.41-1.66l1.12-.66c.19.52.52.93,1.01,1.23s1.06.45,1.73.45,1.2-.13,1.64-.39c.44-.26.66-.66.66-1.21,0-.45-.2-.81-.6-1.08-.4-.27-.89-.48-1.46-.65l-1.72-.49c-.57-.16-1.06-.46-1.46-.88-.4-.42-.6-.97-.6-1.65,0-.81.32-1.5.97-2.04.65-.55,1.47-.82,2.46-.82.81,0,1.53.18,2.14.55.62.37,1.07.87,1.36,1.49l-1.1.64c-.39-.93-1.19-1.4-2.4-1.4-.57,0-1.07.13-1.48.4-.41.27-.62.65-.62,1.15Z"/>
        <path class="cls-3" d="M516.37,179.41h-2.88v6.07c0,.55.11.94.32,1.17s.54.35.96.36c.43,0,.96,0,1.6-.03v1.16c-1.4.21-2.45.11-3.15-.3-.7-.41-1.05-1.2-1.05-2.36v-6.07h-2.1v-1.28h2.1v-2.4l1.32-.4v2.8h2.88v1.28Z"/>
        <path class="cls-3" d="M527.58,174.12c1.91,0,3.49.68,4.74,2.03,1.25,1.36,1.88,3.01,1.88,4.98s-.62,3.62-1.88,4.98c-1.25,1.36-2.83,2.03-4.74,2.03h-5.41v-14.02h5.41ZM527.58,186.82c1.54,0,2.79-.55,3.78-1.64.98-1.09,1.47-2.44,1.47-4.05s-.49-2.95-1.47-4.05c-.98-1.1-2.24-1.64-3.78-1.64h-4.01v11.38h4.01Z"/>
        <path class="cls-3" d="M536.94,175.72c-.19.19-.41.28-.68.28s-.49-.09-.68-.28c-.19-.19-.28-.41-.28-.68s.09-.49.28-.68c.19-.19.41-.28.68-.28s.49.09.68.28c.19.19.28.42.28.68s-.09.49-.28.68ZM535.6,188.14v-10.02h1.32v10.02h-1.32Z"/>
        <path class="cls-3" d="M539.97,180.73c0,.45.2.8.61,1.06.4.26.89.48,1.47.64l1.72.49c.57.16,1.06.46,1.45.89.4.43.59.99.59,1.69,0,.86-.34,1.55-1.01,2.08s-1.55.8-2.62.8c-.96,0-1.78-.21-2.45-.64-.68-.43-1.15-.98-1.41-1.66l1.12-.66c.19.52.52.93,1.01,1.23s1.06.45,1.73.45,1.2-.13,1.64-.39c.44-.26.66-.66.66-1.21,0-.45-.2-.81-.6-1.08-.4-.27-.89-.48-1.46-.65l-1.72-.49c-.57-.16-1.06-.46-1.46-.88-.4-.42-.6-.97-.6-1.65,0-.81.32-1.5.97-2.04.65-.55,1.47-.82,2.46-.82.81,0,1.53.18,2.14.55.62.37,1.07.87,1.36,1.49l-1.1.64c-.39-.93-1.19-1.4-2.4-1.4-.57,0-1.07.13-1.48.4-.41.27-.62.65-.62,1.15Z"/>
        <path class="cls-3" d="M552.13,179.41h-2.88v6.07c0,.55.11.94.32,1.17s.54.35.96.36c.43,0,.96,0,1.6-.03v1.16c-1.4.21-2.45.11-3.15-.3-.7-.41-1.05-1.2-1.05-2.36v-6.07h-2.1v-1.28h2.1v-2.4l1.32-.4v2.8h2.88v1.28Z"/>
        <path class="cls-3" d="M554.85,179.79c.62-1.21,1.67-1.82,3.17-1.82v1.28c-.91,0-1.66.27-2.26.8s-.9,1.38-.9,2.52v5.57h-1.32v-10.02h1.32v1.66Z"/>
        <path class="cls-3" d="M560.36,175.72c-.19.19-.41.28-.68.28s-.49-.09-.68-.28c-.19-.19-.28-.41-.28-.68s.09-.49.28-.68c.19-.19.41-.28.68-.28s.49.09.68.28c.19.19.28.42.28.68s-.09.49-.28.68ZM559.02,188.14v-10.02h1.32v10.02h-1.32Z"/>
        <path class="cls-3" d="M567.01,188.38c-1.51,0-2.77-.5-3.77-1.51-1-1.01-1.5-2.25-1.5-3.74s.5-2.73,1.5-3.74c1-1.01,2.26-1.51,3.77-1.51.99,0,1.88.24,2.66.71.79.47,1.36,1.11,1.72,1.91l-1.08.62c-.27-.6-.7-1.08-1.29-1.43-.6-.35-1.27-.53-2.01-.53-1.11,0-2.04.38-2.8,1.15-.76.77-1.14,1.71-1.14,2.81s.38,2.05,1.14,2.82c.76.77,1.7,1.15,2.8,1.15.75,0,1.42-.18,2-.53.59-.35,1.05-.83,1.38-1.43l1.1.64c-.41.8-1.02,1.44-1.82,1.9-.8.47-1.69.7-2.66.7Z"/>
        <path class="cls-3" d="M577.91,179.41h-2.88v6.07c0,.55.11.94.32,1.17s.54.35.96.36c.43,0,.96,0,1.6-.03v1.16c-1.4.21-2.45.11-3.15-.3-.7-.41-1.05-1.2-1.05-2.36v-6.07h-2.1v-1.28h2.1v-2.4l1.32-.4v2.8h2.88v1.28Z"/>
      </g>
      <g>
        <path class="cls-6" d="M703.25,222.4c1.28-.89,2.74-1.33,4.39-1.33,1.42,0,2.56.32,3.41.97.85.64,1.27,1.54,1.27,2.7,0,.55-.1,1.07-.31,1.55-.21.48-.52.93-.93,1.33-.41.4-.81.74-1.19,1.02-.38.28-.86.58-1.44.92-.07.04-.27.16-.62.36s-.56.33-.64.38c-.09.05-.28.17-.56.35s-.48.31-.56.39c-.09.08-.24.21-.44.38s-.35.32-.42.44c-.07.12-.17.27-.28.45s-.19.36-.23.53c-.04.17-.06.36-.06.56l7.8-.02v1.61h-9.65v-.81c0-.75.12-1.43.36-2.05.24-.61.59-1.14,1.04-1.57s.9-.81,1.34-1.11c.44-.3.96-.63,1.55-.98.13-.07.23-.12.3-.16,1.22-.71,2.02-1.26,2.4-1.63.58-.59.87-1.26.87-2,0-.67-.27-1.19-.82-1.54-.54-.36-1.31-.53-2.31-.53-1.45,0-2.87.48-4.25,1.45v-1.69Z"/>
        <path class="cls-6" d="M715.2,233.3c-1.02-1.3-1.53-3.02-1.53-5.14s.51-3.84,1.53-5.14c1.02-1.3,2.53-1.96,4.51-1.96s3.51.65,4.54,1.95c1.02,1.3,1.53,3.01,1.53,5.15s-.51,3.85-1.53,5.15c-1.02,1.3-2.53,1.95-4.54,1.95s-3.49-.65-4.51-1.96ZM722.99,232.22c.72-.95,1.08-2.3,1.08-4.06s-.36-3.11-1.08-4.06-1.81-1.42-3.28-1.42-2.55.47-3.26,1.42-1.07,2.3-1.07,4.06.36,3.11,1.07,4.06,1.8,1.42,3.26,1.42,2.56-.47,3.28-1.42Z"/>
        <path class="cls-6" d="M727.38,222.4c1.28-.89,2.74-1.33,4.39-1.33,1.42,0,2.56.32,3.41.97.85.64,1.27,1.54,1.27,2.7,0,.55-.1,1.07-.31,1.55-.21.48-.52.93-.93,1.33-.41.4-.81.74-1.19,1.02-.38.28-.86.58-1.44.92-.07.04-.27.16-.62.36s-.56.33-.64.38c-.09.05-.28.17-.56.35s-.48.31-.56.39c-.09.08-.24.21-.44.38s-.35.32-.42.44c-.07.12-.17.27-.28.45s-.19.36-.23.53c-.04.17-.06.36-.06.56l7.8-.02v1.61h-9.65v-.81c0-.75.12-1.43.36-2.05.24-.61.59-1.14,1.04-1.57s.9-.81,1.34-1.11c.44-.3.96-.63,1.55-.98.13-.07.23-.12.3-.16,1.22-.71,2.02-1.26,2.4-1.63.58-.59.87-1.26.87-2,0-.67-.27-1.19-.82-1.54-.54-.36-1.31-.53-2.31-.53-1.45,0-2.87.48-4.25,1.45v-1.69Z"/>
        <path class="cls-6" d="M744.75,221.31h1.83v9.09h2.58v1.57h-2.58v3.04h-1.67v-3.04h-7.64v-1.51l7.48-9.15ZM744.91,230.4v-6.81l-5.56,6.81h5.56Z"/>
        <path class="cls-11" d="M755.73,235.01h-2.44l5.96-14.11h2.52l5.95,14.11h-2.42l-1.25-3.04h-7.07l-1.25,3.04ZM760.24,223.93l-2.48,6.03h5.48l-2.48-6.03c-.11-.3-.2-.56-.26-.79-.07.23-.16.49-.26.79Z"/>
        <path class="cls-11" d="M775.16,225.34h2.16v9.67h-1.91v-1.33c-.89,1.06-2.01,1.59-3.37,1.59-1.25,0-2.23-.36-2.93-1.09s-1.06-1.68-1.06-2.86v-5.99h2.16v5.7c0,1.54.75,2.32,2.26,2.32,1.06,0,1.96-.54,2.7-1.61v-6.41Z"/>
        <path class="cls-11" d="M779.93,233.79c-.89-.99-1.33-2.19-1.33-3.62s.44-2.63,1.33-3.62,2.04-1.48,3.47-1.48c1.52,0,2.75.59,3.71,1.77v-1.51h1.93v9.55c0,1.63-.52,2.83-1.56,3.63-1.04.79-2.33,1.19-3.86,1.19s-2.81-.3-3.99-.91v-1.98c1.13.66,2.36.99,3.71.99,2.36,0,3.55-.96,3.55-2.86v-1.23c-.87,1.04-2.04,1.55-3.49,1.55s-2.58-.49-3.47-1.48ZM786.87,228.99c-.26-.56-.66-1.04-1.2-1.43-.54-.39-1.17-.58-1.88-.58-.87,0-1.59.3-2.16.9-.56.6-.85,1.37-.85,2.31s.28,1.71.85,2.31,1.28.9,2.16.9c.71,0,1.34-.18,1.88-.54.54-.36.94-.81,1.2-1.35v-2.5Z"/>
        <path class="cls-11" d="M796.06,233.31c-1.04-1.31-1.55-3.03-1.55-5.15s.52-3.84,1.55-5.15c1.03-1.31,2.57-1.96,4.59-1.96s3.56.65,4.59,1.96c1.03,1.31,1.55,3.03,1.55,5.15s-.52,3.84-1.55,5.15c-1.04,1.31-2.57,1.96-4.59,1.96s-3.56-.65-4.59-1.96ZM800.65,233.18c2.55,0,3.83-1.67,3.83-5.02s-1.28-5.02-3.83-5.02-3.83,1.67-3.83,5.02,1.28,5.02,3.83,5.02Z"/>
        <path class="cls-11" d="M811.33,221.31h1.69v11.63h2.44v2.08h-7.46v-2.08h2.74v-9.27l-2.74,1.03v-2.12l3.33-1.27Z"/>
        <path class="cls-11" d="M815.85,229.09h7.33v1.93h-7.33v-1.93Z"/>
        <path class="cls-11" d="M826.09,233.31c-1.04-1.31-1.55-3.03-1.55-5.15s.52-3.84,1.55-5.15c1.03-1.31,2.57-1.96,4.59-1.96s3.56.65,4.59,1.96c1.03,1.31,1.55,3.03,1.55,5.15s-.52,3.84-1.55,5.15c-1.04,1.31-2.57,1.96-4.59,1.96s-3.56-.65-4.59-1.96ZM830.68,233.18c2.55,0,3.83-1.67,3.83-5.02s-1.28-5.02-3.83-5.02-3.83,1.67-3.83,5.02,1.28,5.02,3.83,5.02Z"/>
        <path class="cls-11" d="M844.77,221.31h2.36v8.91h2.36v2h-2.36v2.8h-2.22v-2.8h-7.44v-1.95l7.3-8.95ZM844.91,230.22v-5.99l-4.88,5.99h4.88Z"/>
        <path class="cls-11" d="M703.73,238.94h10.48v2.26h-8v4.15h7.35v2.26h-7.35v4.28h8.13v2.26h-10.61v-15.22Z"/>
        <path class="cls-11" d="M723.95,238.94h2.33v15.22h-2.09v-1.65c-1.01,1.29-2.35,1.93-4,1.93-1.54,0-2.78-.53-3.74-1.6-.96-1.07-1.43-2.37-1.43-3.9s.48-2.84,1.43-3.9c.96-1.07,2.2-1.6,3.74-1.6s2.82.54,3.76,1.63v-6.13ZM723.93,247.66c-.28-.61-.71-1.12-1.29-1.54-.59-.42-1.26-.63-2.03-.63-.94,0-1.72.32-2.33.97-.61.64-.91,1.47-.91,2.49s.3,1.84.91,2.49c.61.64,1.38.97,2.33.97.77,0,1.45-.21,2.03-.63.59-.42,1.02-.94,1.29-1.57v-2.54Z"/>
        <path class="cls-11" d="M737.22,251.75c0,.51.25.76.76.76.17,0,.41-.04.7-.13v1.67c-.43.17-.93.26-1.48.26-1.04,0-1.74-.41-2.09-1.22-1.12.9-2.43,1.35-3.94,1.35-1.02,0-1.88-.28-2.59-.84s-1.07-1.34-1.07-2.36c0-1.22.46-2.11,1.37-2.66s2.01-.84,3.28-.84c.84,0,1.75.1,2.72.3v-.37c0-.67-.24-1.2-.72-1.61-.48-.41-1.15-.61-2.02-.61-1.29,0-2.54.27-3.76.8v-2.13c1.36-.46,2.7-.7,4-.7,1.52,0,2.71.38,3.55,1.13s1.27,1.9,1.27,3.44v3.74ZM732.63,249.38c-.77,0-1.41.14-1.93.41-.52.28-.78.71-.78,1.3,0,.49.19.87.57,1.14.38.27.84.4,1.39.4,1.19,0,2.2-.41,3.02-1.24v-1.76c-.84-.17-1.59-.26-2.26-.26Z"/>
        <path class="cls-11" d="M746.52,243.72h2.54l-4.48,10.44h-2.46l-4.46-10.44h2.52l3.17,7.92,3.15-7.92Z"/>
        <path class="cls-11" d="M758.44,251.75c0,.51.25.76.76.76.17,0,.41-.04.7-.13v1.67c-.43.17-.93.26-1.48.26-1.04,0-1.74-.41-2.09-1.22-1.12.9-2.43,1.35-3.94,1.35-1.02,0-1.88-.28-2.59-.84s-1.07-1.34-1.07-2.36c0-1.22.46-2.11,1.37-2.66s2.01-.84,3.28-.84c.84,0,1.75.1,2.72.3v-.37c0-.67-.24-1.2-.72-1.61-.48-.41-1.15-.61-2.02-.61-1.29,0-2.54.27-3.76.8v-2.13c1.36-.46,2.7-.7,4-.7,1.52,0,2.71.38,3.55,1.13s1.27,1.9,1.27,3.44v3.74ZM753.85,249.38c-.77,0-1.41.14-1.93.41-.52.28-.78.71-.78,1.3,0,.49.19.87.57,1.14.38.27.84.4,1.39.4,1.19,0,2.2-.41,3.02-1.24v-1.76c-.84-.17-1.59-.26-2.26-.26Z"/>
        <path class="cls-11" d="M762.7,245.16c.96-1.14,2.17-1.72,3.63-1.72,1.3,0,2.35.4,3.13,1.18.78.79,1.17,1.82,1.17,3.08v6.46h-2.33v-6.15c0-.81-.23-1.43-.67-1.86s-1.04-.64-1.76-.64c-1.15,0-2.12.58-2.91,1.74v6.92h-2.33v-10.44h2.07v1.44Z"/>
        <path class="cls-11" d="M774.62,245.16c.96-1.14,2.17-1.72,3.63-1.72,1.3,0,2.35.4,3.13,1.18.78.79,1.17,1.82,1.17,3.08v6.46h-2.33v-6.15c0-.81-.23-1.43-.67-1.86s-1.04-.64-1.76-.64c-1.15,0-2.12.58-2.91,1.74v6.92h-2.33v-10.44h2.07v1.44Z"/>
        <path class="cls-11" d="M793.36,251.75c0,.51.25.76.76.76.17,0,.41-.04.7-.13v1.67c-.43.17-.93.26-1.48.26-1.04,0-1.74-.41-2.09-1.22-1.12.9-2.43,1.35-3.94,1.35-1.02,0-1.88-.28-2.59-.84s-1.07-1.34-1.07-2.36c0-1.22.46-2.11,1.37-2.66s2.01-.84,3.28-.84c.84,0,1.75.1,2.72.3v-.37c0-.67-.24-1.2-.72-1.61-.48-.41-1.15-.61-2.02-.61-1.29,0-2.54.27-3.76.8v-2.13c1.36-.46,2.7-.7,4-.7,1.52,0,2.71.38,3.55,1.13s1.27,1.9,1.27,3.44v3.74ZM788.77,249.38c-.77,0-1.41.14-1.93.41-.52.28-.78.71-.78,1.3,0,.49.19.87.57,1.14.38.27.84.4,1.39.4,1.19,0,2.2-.41,3.02-1.24v-1.76c-.84-.17-1.59-.26-2.26-.26Z"/>
        <path class="cls-11" d="M797.62,245.35c1.06-1.28,2.4-1.91,4.02-1.91,1.54,0,2.78.53,3.74,1.6.96,1.07,1.43,2.37,1.43,3.9s-.48,2.84-1.43,3.9-2.2,1.6-3.74,1.6-2.82-.54-3.76-1.63v6.13h-2.33v-15.22h2.07v1.63ZM803.53,251.43c.61-.65.91-1.48.91-2.49s-.3-1.84-.91-2.49c-.61-.65-1.38-.97-2.33-.97-.77,0-1.45.21-2.03.63-.59.42-1.02.93-1.29,1.54v2.54c.28.62.71,1.14,1.29,1.57.59.42,1.26.63,2.03.63.94,0,1.72-.32,2.33-.97Z"/>
        <path class="cls-11" d="M810.28,245.35c1.06-1.28,2.4-1.91,4.02-1.91,1.54,0,2.78.53,3.74,1.6.96,1.07,1.43,2.37,1.43,3.9s-.48,2.84-1.43,3.9-2.2,1.6-3.74,1.6-2.82-.54-3.76-1.63v6.13h-2.33v-15.22h2.07v1.63ZM816.19,251.43c.61-.65.91-1.48.91-2.49s-.3-1.84-.91-2.49c-.61-.65-1.38-.97-2.33-.97-.77,0-1.45.21-2.03.63-.59.42-1.02.93-1.29,1.54v2.54c.28.62.71,1.14,1.29,1.57.59.42,1.26.63,2.03.63.94,0,1.72-.32,2.33-.97Z"/>
        <path class="cls-11" d="M829.76,251.75c0,.51.25.76.76.76.17,0,.41-.04.7-.13v1.67c-.43.17-.93.26-1.48.26-1.04,0-1.74-.41-2.09-1.22-1.12.9-2.43,1.35-3.94,1.35-1.02,0-1.88-.28-2.59-.84s-1.07-1.34-1.07-2.36c0-1.22.46-2.11,1.37-2.66s2.01-.84,3.28-.84c.84,0,1.75.1,2.72.3v-.37c0-.67-.24-1.2-.72-1.61-.48-.41-1.15-.61-2.02-.61-1.29,0-2.54.27-3.76.8v-2.13c1.36-.46,2.7-.7,4-.7,1.52,0,2.71.38,3.55,1.13s1.27,1.9,1.27,3.44v3.74ZM825.17,249.38c-.77,0-1.41.14-1.93.41-.52.28-.78.71-.78,1.3,0,.49.19.87.57,1.14.38.27.84.4,1.39.4,1.19,0,2.2-.41,3.02-1.24v-1.76c-.84-.17-1.59-.26-2.26-.26Z"/>
        <path class="cls-11" d="M834.02,245.44c.41-.65,1.01-1.16,1.8-1.52s1.66-.5,2.59-.41v2.28c-.93-.13-1.77,0-2.52.37s-1.29.94-1.61,1.67v6.33h-2.33v-10.44h2.07v1.72Z"/>
        <path class="cls-11" d="M848.09,251.75c0,.51.25.76.76.76.17,0,.41-.04.7-.13v1.67c-.43.17-.93.26-1.48.26-1.04,0-1.74-.41-2.09-1.22-1.12.9-2.43,1.35-3.94,1.35-1.02,0-1.88-.28-2.59-.84s-1.07-1.34-1.07-2.36c0-1.22.46-2.11,1.37-2.66s2.01-.84,3.28-.84c.84,0,1.75.1,2.72.3v-.37c0-.67-.24-1.2-.72-1.61-.48-.41-1.15-.61-2.02-.61-1.29,0-2.54.27-3.76.8v-2.13c1.36-.46,2.7-.7,4-.7,1.52,0,2.71.38,3.55,1.13s1.27,1.9,1.27,3.44v3.74ZM843.5,249.38c-.77,0-1.41.14-1.93.41-.52.28-.78.71-.78,1.3,0,.49.19.87.57,1.14.38.27.84.4,1.39.4,1.19,0,2.2-.41,3.02-1.24v-1.76c-.84-.17-1.59-.26-2.26-.26Z"/>
      </g>
    </g>
    <g>
      <path class="cls-11" d="M291.54,235.54c-1.87-1.99-4.08-3.55-6.4-4.94-3.03-1.81-6.11-3.52-9.18-5.25-3.12-1.76-6-3.84-8.43-6.49-2.03-2.21-3.65-4.66-4.5-7.57-.5-1.76-.69-3.53-.18-5.32.59-2.04,1.87-3.48,3.82-4.3,1.33-.56,2.74-.77,4.18-.78.84,0,1.63.18,2.39.55.82.39,1.43.99,1.8,1.79.45.96.67,1.99.49,3.07-.17,1.07-.35,2.15-.76,3.17-.28.7-.45,1.42-.57,2.17-.4,2.73.26,5.18,2.13,7.19,3.01,3.24,6.77,4.26,10.98,3,3.68-1.1,5.9-3.73,6.69-7.49.3-1.4.2-2.84-.01-4.26-.06-.41-.16-.81-.28-1.2-.73-2.35-2.02-4.34-3.8-6.02-2.49-2.34-5.46-3.8-8.71-4.75-1.77-.52-3.57-.84-5.4-1.06-3.76-.44-7.49-.35-11.18.58-1.19.3-2.4.59-3.51,1.17l.03-.02c-.18.07-.36.14-.54.21h.02l-.07.06c-.71.33-1.44.63-2.12,1.01-2.93,1.63-5.42,3.76-7.35,6.5-1.46,2.08-2.51,4.36-2.96,6.86-.79,4.31-.03,8.36,2.24,12.11,1.19,1.97,2.65,3.72,4.38,5.25,1.75,1.54,3.61,2.92,5.57,4.17.99.83,2.1,1.48,3.19,2.17.62.39,1.18.88,1.89,1.12.17.12.34.23.52.35l.2.1c.08.05.16.09.23.14.07.03.14.06.2.09l.24.18c.1.14.23.24.39.28h-.02c.13.07.25.15.38.22.02.06.06.09.13.09.36.27.71.55,1.09.8,1.98,1.29,3.95,2.6,5.8,4.07,1.11.89,2.19,1.82,3.12,2.91.61.73,1.1,1.52,1.44,2.4.59,1.55.54,3.06-.19,4.57-.63,1.29-1.6,2.27-2.72,3.1-1.34,1-2.83,1.68-4.46,2.07-2.34.57-4.67.64-6.98-.19-2.28-.81-3.9-2.34-4.88-4.53-.6-1.35-.92-2.77-.99-4.25-.04-.7,0-1.43-.36-2.08.02-.32.04-.64-.23-.89h0c-.12-.07-.19-.17-.16-.31,0-.06-.02-.1-.06-.14-.18-.09-.25-.24-.23-.44-.76-1.27-1.89-2.01-3.34-2.22-2.49-.35-4.89,1.38-5.25,4.11-.22,1.64.07,3.21.68,4.73,1.53,3.82,4.12,6.75,7.63,8.88.22.13.45.27.72.28,0,0,0,0,0,0,.07.07.16.13.24.2.13.2.31.27.54.24l.41.22h.04c.12.06.25.13.38.19,0,0,.03.05.03.05l.06-.02c.11.06.23.12.35.18.04.07.08.09.15.05l.73.3c.15.17.34.22.56.16.1.04.21.08.31.12.42.26.9.37,1.37.5,1.67.47,3.37.74,5.09.91,2.71.27,5.41.14,8.08-.28,2.78-.44,5.49-1.22,8.06-2.42,3.21-1.5,6.04-3.48,8.19-6.33,1.47-1.95,2.46-4.11,2.88-6.52.36-2.09.31-4.18-.02-6.27-.51-3.22-1.99-5.95-4.2-8.3Z"/>
      <path class="cls-11" d="M473.84,196.04c0-.22.03-.46-.24-.73-.59-.25-1.34-.34-2.08-.45-1.79-.27-3.59-.31-5.36.18-2.27.62-3.81,2-4.5,4.3-.25.84-.31,1.69-.31,2.56,0,6.24.02,12.47,0,18.7-.01,2.56-.21,5.1-.83,7.59-.43,1.69-1.04,3.29-1.95,4.77-.69,1.13-1.54,2.13-2.7,2.81-1.57.92-3.12.94-4.66-.09-.66-.45-1.19-1.02-1.65-1.67-1.04-1.45-1.67-3.1-2.13-4.81-.79-2.95-1.06-5.98-1.08-9.03-.04-3.72,0-7.44-.02-11.15,0-.4.1-.82-.11-1.2-1.27-.44-2.07-.58-3.31-.58-.45-.04-.9-.1-1.34-.1-1.55,0-3.06.2-4.49.88-1.47.7-2.42,1.83-2.99,3.34-.44,1.15-.53,2.35-.53,3.54,0,3.11-.08,6.23.07,9.34.17,3.41.82,6.7,2.32,9.79,1.43,2.93,3.42,5.36,6.29,6.99.19.13.35.28.55.38,1.51.8,3.12,1.29,4.82,1.43,3.83.32,7.16-.87,9.98-3.49,1.41-1.32,2.54-2.85,3.38-4.59.06-.12.1-.28.29-.26.04.02.1.03.1.04.02.34.05.67.05,1.01,0,5.18.01,10.36-.01,15.53,0,1.31-.08,2.63-.2,3.93-.13,1.42-.38,2.83-.76,4.2-.29,1.05-.71,2.06-1.32,2.97-.91,1.35-2.14,2.17-3.79,2.32-1.52.14-2.71-.6-3.27-2.02-.42-1.09-.47-2.2-.24-3.31.15-.73.35-1.46.56-2.17.3-1.03.34-2.09.12-3.12-.76-3.55-4.17-5.89-7.51-5.68-.76.05-1.58.06-2.24.59-2.18.67-3.52,2.2-4.15,4.31-.48,1.61-.32,3.26.24,4.85.7,1.99,1.94,3.6,3.62,4.86.6.56,1.24,1.07,2.03,1.34l.07.04c.14.07.28.14.42.2h0c.22.14.44.29.67.4,1.78.84,3.67,1.33,5.61,1.6,2.62.36,5.24.28,7.84-.28,3.65-.78,6.85-2.41,9.5-5.06,1.59-1.58,2.77-3.45,3.61-5.52,1.16-2.86,1.63-5.83,1.63-8.91-.02-16.56,0-33.12,0-49.68,0-.3,0-.6,0-.9Z"/>
      <path class="cls-11" d="M619.83,240.81c-.88-.95-1.3-2.09-1.37-3.37-.03-.49-.04-.98-.04-1.46,0-6.49.01-12.98,0-19.48-.01-2.83-.45-5.6-1.51-8.25-1.43-3.57-3.81-6.33-7.05-8.37-3.25-2.04-6.83-3.05-10.62-3.35-3.75-.29-7.41.19-10.94,1.56-.24.1-.5.16-.67.38-.17.07-.35.14-.52.22l-.07-.03v.07c-.73.24-1.35.67-1.97,1.09-2.08,1.39-3.69,3.17-4.42,5.63-.41,1.36-.48,2.75-.11,4.11.86,3.16,3.77,5.23,7.09,5.11.66.15,1.25-.11,1.86-.3,3.44-1.08,6.18-4.77,4.71-8.99-.17-.49-.26-1.02-.3-1.54-.32-3.68,3.33-5.7,5.72-5.17,1.95.42,3.46,1.42,4.47,3.12,1.64,2.76,1.77,5.67.65,8.65-.5,1.33-1.28,2.46-2.47,3.26-1,.68-2.08,1.17-3.26,1.5-2.49.71-5.05,1.09-7.58,1.6-1.06.22-2.14.35-3.12.86-.16.05-.34.09-.51.13-.02-.01-.06-.04-.07-.03-.04.03-.07.06-.1.1-.7.25-1.42.47-2.1.78-2.07.95-3.87,2.28-5.2,4.17-2.15,3.05-3.14,6.44-2.85,10.17.1,1.27.39,2.52.96,3.68.97,1.99,2.34,3.65,4.13,4.96,1.81,1.33,3.79,2.26,5.97,2.78.4.16.79.3,1.22.13.1.27.33.22.55.22.27.16.58.18.87.2,2.03.11,4.04.14,6.04-.37,3.36-.85,6.14-2.55,8.16-5.4.17-.24.29-.53.66-.6.06.13.14.25.18.39.81,2.48,2.54,4.01,4.97,4.79,1.86.59,3.77.61,5.69.4.82-.09,1.64-.24,2.4-.56.35-.14.7-.29,1.01-.5.43-.28.5-.57.35-1.07-.14-.49-.45-.86-.78-1.22ZM605.68,215.82c0,3.98,0,7.96,0,11.94,0,2.44-.52,4.77-1.56,6.97-.92,1.93-2.18,3.59-3.97,4.79-.95.64-1.97,1.08-3.12,1.19-2.38.23-4.26-.66-5.7-2.51-1.69-2.17-2.19-4.63-1.79-7.32.33-2.28,1.4-4.16,2.95-5.81,1.45-1.54,3.17-2.75,4.9-3.94,1.48-1.01,2.98-2.01,4.43-3.08,1.43-1.05,2.7-2.26,3.58-3.84.03-.05.11-.08.29-.2v1.81Z"/>
      <path class="cls-11" d="M341.56,245.51c-.18-.24-.39-.46-.58-.69-.57-.71-.99-1.5-1.09-2.43-.1-.93-.21-1.86-.21-2.8.02-6.42,0-12.84.01-19.26,0-3.08-.56-6.05-1.88-8.84-1.72-3.65-4.46-6.35-8.04-8.21-2.01-1.05-4.15-1.75-6.37-2.15-1.7-.31-3.42-.5-5.15-.47-2.14.05-4.26.34-6.34.88-.75.2-1.53.37-2.19.82l-.31.1c-.02.1-.07.13-.16.08-1.56.57-2.95,1.44-4.22,2.51-1.42,1.21-2.5,2.67-3.04,4.49-.48,1.62-.55,3.23.04,4.85,1.21,3.28,4.88,5.18,8.17,4.3.22-.03.46-.02.66-.09,2.24-.82,3.86-2.28,4.68-4.54.34-.93.43-1.88.32-2.88-.1-.87-.43-1.67-.6-2.51-.33-1.59.07-2.98,1.15-4.16,1.73-1.89,4.23-2.17,6.58-.86,1.36.75,2.3,1.91,2.93,3.32.92,2.06,1.08,4.18.55,6.37-.63,2.63-2.08,4.52-4.64,5.53-1.19.47-2.4.85-3.66,1.09-1.69.33-3.4.62-5.09.96-.62.12-1.23.32-1.85.48-.13.05-.25.09-.38.14-.5-.01-.97.13-1.42.35-1.54.37-2.96,1.05-4.31,1.87-1.69,1.03-3.05,2.41-4.09,4.09-1.29,2.11-2.04,4.4-2.28,6.86-.34,3.56.68,6.67,3.08,9.3,2.19,2.39,4.92,3.87,8.06,4.61.1.05.2.13.3.15,2.41.49,4.82.65,7.27.23,2.1-.36,4.05-1.11,5.81-2.3,1.35-.91,2.5-2.03,3.44-3.37.13-.19.19-.5.53-.52.27.23.31.58.44.89.77,1.87,2.1,3.16,3.96,3.94,2.37.99,4.82,1.06,7.3.6.85-.15,1.68-.42,2.45-.81.49-.25.62-.57.53-1.12-.05-.31-.19-.57-.37-.81ZM326.98,232.53c-.06,3.14-1,6.07-2.88,8.62-1.1,1.51-2.46,2.7-4.24,3.4-2.5.98-5.12.24-6.87-1.71-1.95-2.18-2.57-4.78-2.18-7.65.36-2.56,1.61-4.65,3.45-6.42,1.38-1.33,2.94-2.45,4.52-3.52,1.52-1.03,3.08-2.01,4.52-3.15,1.33-1.05,2.58-2.19,3.38-3.72.05-.1.11-.19.17-.28l.15.11c0,4.77.06,9.54-.02,14.31Z"/>
      <path class="cls-11" d="M518.13,211.88c-1.6-3.01-3.73-5.61-6.48-7.67-2.96-2.21-6.28-3.49-9.95-3.81-2.77-.24-5.45.2-8.03,1.26h.01c-.11.05-.23.09-.34.13-.08.04-.16.08-.24.12-.41.06-.75.28-1.07.53-.11.05-.21.11-.32.17h-.08s-.04.06-.04.06c-.1.05-.19.11-.29.16h-.08s-.05.06-.05.06c-.22.14-.44.27-.66.41-.14.06-.27.11-.41.17h.02c-.06,0-.08.03-.09.09-.08.06-.17.12-.24.18-.11-.01-.18.02-.2.14-.73.47-1.39,1.01-2.04,1.58-2.07,1.83-3.73,3.99-5.05,6.42-1.69,3.1-2.67,6.42-3.1,9.91-.16,1.31-.16,2.62-.15,3.93.02,2.42.43,4.77,1.1,7.09.88,3.05,2.27,5.86,4.23,8.38,1.36,1.75,2.92,3.32,4.8,4.52.63.57,1.36.97,2.12,1.31h-.03c.16.07.31.13.47.19.29.24.65.32,1,.42l.06.07.09-.02c.09.05.19.1.28.15.09.03.17.05.25.08.02.06.06.08.12.06.16.06.32.12.48.17h-.04c.4.24.84.39,1.32.36.09.09.19.12.31.08.17.18.4.2.62.23.82.1,1.64.22,2.46.28,3.33.23,6.5-.37,9.48-1.88,2.09-1.05,3.93-2.45,5.58-4.11,2.81-2.83,4.75-6.18,5.94-9.94,1.14-3.6,1.57-7.31,1.21-11.1-.35-3.59-1.28-7-2.97-10.19ZM508.57,230.09c-.17,3.04-.55,6.06-1.64,8.93-.48,1.27-1.02,2.5-1.86,3.57-.21.26-.43.51-.67.76-1.52,1.58-3.82,1.82-5.69.29-.84-.69-1.57-1.5-2.17-2.42-1.05-1.61-1.82-3.35-2.46-5.17-.89-2.52-1.4-5.13-1.79-7.77-.3-2.09-.37-4.18-.39-6.73-.04-1.02.01-2.49.17-3.95.36-3.21.93-6.39,2.5-9.28.46-.83,1.04-1.55,1.71-2.22,1.42-1.4,3.57-1.37,4.97-.42.65.45,1.24.96,1.77,1.56,1.33,1.52,2.24,3.29,2.96,5.14,1.27,3.24,2.03,6.59,2.37,10.05.25,2.55.36,5.1.21,7.65Z"/>
      <path class="cls-11" d="M666.47,208.09c-.35-2.01-.88-3.95-1.85-5.76-.96-1.79-2.39-2.96-4.37-3.42-.29-.07-.59-.13-.88-.17-1.96-.27-3.73.21-5.29,1.41-1.48,1.12-2.29,2.66-2.57,4.48-.49,3.15,1.1,7.02,5.2,7.94.58.13,1.13.36,1.66.67,1.36.81,2.18,2.04,2.7,3.48.58,1.6.84,3.27.92,4.96.15,3.48-.35,6.89-1.08,10.27-.61,2.83-1.47,5.59-2.51,8.29-.92,2.39-1.99,4.69-3.38,6.85-.65,1.02-1.39,1.96-2.26,2.79-.64.6-1.35,1.09-2.23,1.22-1.25.19-2.29-.26-3.15-1.15-.68-.71-1.21-1.52-1.64-2.41-1-2.07-1.63-4.27-2.19-6.49-.56-2.22-1.06-4.45-1.47-6.7-.73-3.94-1.56-7.87-2.33-11.81-.64-3.31-1.23-6.64-1.88-9.95-.31-1.6-.99-3.07-2.06-4.32-.31-.37-.59-.78-1.08-.95-.08-.06-.16-.13-.24-.19-.12,0-.2-.06-.23-.18-.98-.73-2.09-1.15-3.27-1.43-2.35-.56-4.69-.35-7.03.1-.32.06-.67.11-.95.4,0,.12-.02.27,0,.41.34,1.84.69,3.68,1.05,5.52.45,2.32.92,4.63,1.36,6.94.52,2.69,1,5.38,1.52,8.06.54,2.79,1.12,5.58,1.63,8.38.55,3.03,1.3,6,2.33,8.9.8,2.26,1.8,4.44,3.16,6.43.12.38.4.66.65.96v-.04c0,.07.03.13.1.16.02.07.06.12.13.15v.06s.07,0,.07,0c.06.06.11.13.16.2.82,1.21,1.88,2.17,3.08,2.99h-.03c.12.07.25.14.37.21.01.06.05.08.1.08.11.1.21.22.33.29,1.5.9,3.1,1.54,4.83,1.78,1.49.2,3,.26,4.49-.08,1.67-.39,3.14-1.21,4.49-2.26,2.77-2.17,4.74-5.01,6.4-8.05,1.57-2.86,2.82-5.88,3.84-8.98,1.2-3.64,2.13-7.34,2.81-11.12.61-3.4,1-6.83,1.07-10.29.07-2.89.02-5.78-.48-8.64Z"/>
      <path class="cls-11" d="M388.29,231.77c0-1.73-.11-3.45-.39-5.16-.53-3.27-1.61-6.31-3.57-9.01-1.23-1.69-2.7-3.11-4.46-4.23-1.79-1.15-3.73-1.92-5.82-2.32-3.3-.63-6.51-.33-9.58,1.06-1.64.75-3.17,1.7-4.3,3.17-.07.03-.12.08-.14.15-.16.07-.27.19-.33.35h0c-.3.17-.37.65-.88.69v-1.26c0-8.78,0-17.56.01-26.34,0-.9-.07-1.8-.26-2.68-.47-2.25-1.64-3.99-3.78-4.98-.04-.05-.08-.08-.15-.08-.13.04-.23,0-.29-.12-.06-.04-.13-.07-.21-.07-.11.04-.2,0-.24-.11-.2-.08-.4-.16-.6-.24-.07-.08-.16-.11-.27-.06-2.53-.76-5.04-.61-7.55.08-.43.12-.84.33-1.23.55-.49.29-.57.61-.41,1.15.13.46.43.78.73,1.12.93,1.05,1.42,2.28,1.47,3.68.02.49.05.98.05,1.46,0,7.24,0,14.49,0,21.73,0,13.62,0,27.25,0,40.87,0,1.13.1,2.25.43,3.33.43,1.38,1.25,2.46,2.51,3.2,1.79,1.04,3.73,1.29,5.75,1.12,1.18.06,3.15-.28,3.95-.67.16-.43.08-.88.08-1.33,0-9.16,0-18.32,0-27.49,0-1.47.11-2.92.48-4.35.44-1.65,1.1-3.19,2.14-4.55.79-1.02,1.73-1.87,2.88-2.46,1.4-.71,2.85-.94,4.36-.44,1.01.33,1.9.89,2.65,1.65.83.83,1.46,1.81,1.97,2.85,1.13,2.29,1.66,4.73,2.01,7.23.22,1.57.25,3.14.25,4.72,0,5.71,0,11.41,0,17.12,0,.94.1,1.87.31,2.79.59,2.49,2.2,3.94,4.6,4.6,2.47.67,4.91.38,7.35-.17.14-.03.26-.14.37-.2.18-.44.1-.85.1-1.26,0-8.37,0-16.75,0-25.12Z"/>
      <path class="cls-11" d="M544.75,250.66c-1.12-.26-2.11-.74-2.98-1.51-1.19-1.05-1.91-2.4-2.41-3.87-.5-1.47-.68-2.99-.68-4.54,0-6.12,0-12.24,0-18.36,0-4.95,0-9.91,0-14.86,0-.4-.06-.82.06-1.16.31-.19.58-.13.83-.14.33-.01.67.01,1.01-.02.86-.07,1.52-.7,1.52-1.51,0-.68-.32-1.44-1.43-1.59-.29-.04-.6-.01-.9-.03-.33-.02-.67.05-.94-.07-.21-.28-.15-.55-.15-.81,0-1.01-.01-2.03,0-3.04,0-.98-.06-1.95-.24-2.91-.38-1.94-1.18-3.63-2.85-4.81-1.29-.92-2.75-1.35-4.32-1.39-.15,0-.28.08-.46.29.05,1.82-.13,3.72-.48,5.6-.02.07-.03.14-.04.21-.15.23-.2.5-.17.77-.15.4-.29.81-.44,1.21l-1.36,2.23c-.05.06-.1.13-.15.19h-.06s-.01.08-.01.08c-.07.03-.12.08-.14.15-.06.05-.12.1-.18.14h.02c-.11.11-.21.22-.32.33-1.12.85-2.32,1.51-3.76,1.66-.22.02-.44.1-.65.19-.72.31-1.09.96-.99,1.71.11.79.7,1.34,1.52,1.4.34.03.68,0,1.01.01.4.02.82-.1,1.23.12.15.44.08.89.08,1.33,0,7.96.01,15.92,0,23.87,0,1.62.03,3.23.18,4.84.17,1.95.59,3.85,1.35,5.66,0,.07,0,.16.02.22,1.35,3.37,3.49,6.09,6.54,8.09,2.99,1.96,6.31,2.91,9.81,3.33.26.03.53.04.79.02.73-.07,1.24-.58,1.33-1.31.11-.89-.31-1.57-1.18-1.77Z"/>
      <polygon class="cls-11" points="551.33 231.23 551.32 231.23 551.32 231.22 551.33 231.23"/>
      <path class="cls-11" d="M574.02,235.11c-.81-1.92-2.14-3.43-3.75-4.7-1.71-1.35-3.62-2.4-5.52-3.47-1.96-1.11-3.96-2.14-5.76-3.51-1.76-1.32-3.26-2.88-4.4-4.77-.77-1.27-1.3-2.63-1.37-4.12-.08-1.77.47-3.27,2.05-4.22,1.2-.72,2.54-.94,3.91-.73,1.42.21,2.24,1.16,2.35,2.6.04.41.01.83-.05,1.23-.08.48-.18.97-.36,1.42-.24.56-.34,1.15-.42,1.74-.22,1.57.14,3,1.14,4.22,1.48,1.8,3.4,2.63,5.74,2.55,2.41-.07,5.49-1.93,5.99-5.46.33-2.35-.38-4.46-1.89-6.28-.97-1.17-2.16-2.08-3.51-2.78-2.03-1.06-4.21-1.63-6.45-1.87-3.32-.34-6.6-.14-9.72,1.23-.44.19-.9.35-1.27.69-2.06,1.02-3.73,2.5-5.03,4.38-1.13,1.63-1.84,3.43-2,5.42-.25,3.15.75,5.9,2.72,8.33,1.39,1.71,3.08,3.04,4.92,4.22.07.05.14.09.22.14,0,.08.05.1.13.08l.32.21c.12.09.25.19.37.28h-.03c1.76,1.15,3.52,2.27,5.27,3.43,1.5.99,2.99,2,4.33,3.21.58.53,1.11,1.11,1.54,1.78.94,1.47.87,3.13-.2,4.5-.34.45-.74.84-1.2,1.17-1.95,1.4-4.12,1.92-6.49,1.51-1.92-.33-3.26-1.41-4.08-3.16-.41-.86-.6-1.76-.67-2.7-.05-.7-.02-1.42-.44-2.05l-.02-.05c-.12-.05-.17-.14-.15-.27-.14-.45-.48-.75-.84-1.02-1.56-1.17-3.71-.61-4.54,1.15-.19.42-.28.85-.31,1.3-.09,1.28.32,2.44.88,3.56,1.01,2.03,2.44,3.66,4.45,4.75.47.43,1.04.7,1.63.9l-.04-.02c2.21,1.04,4.57,1.43,6.98,1.52,2.23.08,4.42-.28,6.55-.91,2.06-.61,3.98-1.54,5.68-2.9,3.18-2.53,4.48-5.84,4.03-9.83-.1-.92-.31-1.84-.68-2.72Z"/>
      <path class="cls-11" d="M432.27,253.39c-1.33-.28-2.43-.95-3.33-1.96-.83-.94-1.43-2.02-1.82-3.21-.57-1.69-.77-3.44-.77-5.21,0-10.85,0-21.7,0-32.55,0-.22,0-.45,0-.67.01-.22-.03-.46.18-.65.3-.15.64-.07.97-.09.3-.02.6.01.9-.04.85-.13,1.44-.82,1.41-1.62-.02-.77-.6-1.39-1.42-1.5-.41-.05-.83-.02-1.24-.04-.25-.01-.53.05-.73-.2-.13-.36-.07-.73-.08-1.1,0-1.13,0-2.25,0-3.38,0-1.17-.16-2.31-.53-3.43-.52-1.55-1.41-2.82-2.8-3.69-1.32-.84-2.75-1.33-4.36-1.15-.21.55-.07,1.08-.13,1.6-.13.4-.1.8-.06,1.2-.01.14,0,.29-.03.44-.07.72-.19,1.45-.29,2.17l-.06.09v.11c-.04.23-.08.46-.13.69-.4.97-.81,1.94-1.2,2.91-.05.09-.1.19-.16.28-.33.24-.49.61-.7.95-.09.08-.17.14-.25.22-1.07,1.12-2.37,1.82-3.9,2.09-.3.05-.59.11-.87.2-.64.21-1.09.77-1.13,1.4-.06.88.5,1.62,1.39,1.75.52.07,1.05.02,1.58.05.28.02.6-.09.89.24,0,.39.03.83.03,1.28,0,8.71.01,17.42,0,26.12,0,2.08.26,4.12.82,6.11.35,1.26.7,2.53,1.41,3.65.03.11.03.22.08.32,1.11,2.17,2.62,4.01,4.53,5.52,3.68,2.9,7.99,4.02,12.56,4.36.18.01.38.03.51-.14.16-1.18.14-2.13-.06-2.87-.4-.09-.81-.17-1.21-.25Z"/>
      <path class="cls-11" d="M407.23,253.96c-.8-.8-1.25-1.78-1.44-2.87-.08-.51-.08-1.04-.08-1.57,0-9.42,0-18.85,0-28.27,0-.6-.03-1.2-.03-1.8.01-.88-.18-1.72-.46-2.54-.54-1.58-1.5-2.84-2.99-3.66-2-1.12-4.16-1.45-6.41-1.15-1.03-.07-2.01.23-2.98.52-.39.12-.74.36-1.08.59-.27.18-.34.47-.26.8.11.46.38.8.68,1.14.77.86,1.25,1.85,1.4,3.01.07.56.1,1.12.1,1.68,0,9.45,0,18.91,0,28.36,0,.75,0,1.51.08,2.25.17,1.43.52,2.8,1.59,3.87.1.15.19.33.31.46.89.97,2.01,1.57,3.24,1.94,2.48.74,4.97.66,7.44-.06.4-.11.77-.31,1.13-.51.44-.25.55-.55.44-1.04-.1-.46-.38-.81-.69-1.14Z"/>
      <path class="cls-11" d="M396.05,207.51v.06s.06.03.06.03v.02c1.86,1.37,3.84,1.47,5.96.68,1.99-.74,4.22-3.36,3.5-6.69-.53-2.44-2.08-4.05-4.5-4.65-1.82-.46-3.56-.18-5.02,1.15-2.97,1.93-3.25,7.15,0,9.4Z"/>
    </g>
  </g>
</svg>