<svg id="Layer_2" data-name="Layer 2" xmlns="http://www.w3.org/2000/svg" xmlns:xlink="http://www.w3.org/1999/xlink" viewBox="0 0 1098.56 320.52"><defs><style>.cls-1{fill:none;}.cls-2{clip-path:url(#clip-path);}.cls-3{fill:#0e0e0e;}.cls-4{fill:url(#linear-gradient);}.cls-5{fill:#2fa;}.cls-6{fill:url(#linear-gradient-2);}.cls-7{fill:url(#linear-gradient-3);}.cls-8{fill:url(#linear-gradient-4);}.cls-9{fill:url(#linear-gradient-5);}.cls-10{fill:url(#linear-gradient-6);}.cls-11{fill:url(#linear-gradient-7);}.cls-12{fill:url(#linear-gradient-8);}.cls-13{fill:url(#linear-gradient-9);}.cls-14{fill:url(#linear-gradient-10);}.cls-15{fill:url(#linear-gradient-11);}.cls-16{fill:url(#linear-gradient-12);}.cls-17{fill:url(#linear-gradient-13);}.cls-18{fill:#fff;}</style><clipPath id="clip-path"><rect class="cls-1" width="1098.56" height="320.52"/></clipPath><linearGradient id="linear-gradient" x1="-33.77" y1="71.13" x2="1124.64" y2="71.13" gradientUnits="userSpaceOnUse"><stop offset="0" stop-color="#700696"/><stop offset="0.51" stop-color="#209fe3"/><stop offset="0.99" stop-color="#2fa"/></linearGradient><linearGradient id="linear-gradient-2" x1="264.49" y1="231.32" x2="711.48" y2="203.28" xlink:href="#linear-gradient"/><linearGradient id="linear-gradient-3" x1="265.16" y1="242.12" x2="712.15" y2="214.08" xlink:href="#linear-gradient"/><linearGradient id="linear-gradient-4" x1="265.09" y1="240.94" x2="712.08" y2="212.9" xlink:href="#linear-gradient"/><linearGradient id="linear-gradient-5" x1="264.29" y1="228.27" x2="711.28" y2="200.22" xlink:href="#linear-gradient"/><linearGradient id="linear-gradient-6" x1="264.95" y1="238.79" x2="711.94" y2="210.74" xlink:href="#linear-gradient"/><linearGradient id="linear-gradient-7" x1="265.73" y1="251.18" x2="712.72" y2="223.14" xlink:href="#linear-gradient"/><linearGradient id="linear-gradient-8" x1="264.13" y1="225.72" x2="711.12" y2="197.68" xlink:href="#linear-gradient"/><linearGradient id="linear-gradient-9" x1="264.92" y1="238.33" x2="711.92" y2="210.28" xlink:href="#linear-gradient"/><linearGradient id="linear-gradient-10" x1="265.44" y1="246.52" x2="712.43" y2="218.48" xlink:href="#linear-gradient"/><linearGradient id="linear-gradient-11" x1="264.68" y1="234.37" x2="711.67" y2="206.32" xlink:href="#linear-gradient"/><linearGradient id="linear-gradient-12" x1="265.17" y1="242.19" x2="712.16" y2="214.15" xlink:href="#linear-gradient"/><linearGradient id="linear-gradient-13" x1="263.26" y1="211.75" x2="710.25" y2="183.7" xlink:href="#linear-gradient"/></defs><title>RibbonWithBG</title><g class="cls-2"><path class="cls-3" d="M1098.56,55.06v48.07l-889,39.14-87.83-15L8.13,83.38,6.34,68.74,2.65,59l-.39-1s68.08-24.85,105.53-22.3c0,0,83.4-6.63,128.34,8.34s43.23,10.22,43.23,10.22l13.45-.68,4.25,1.19L305.13,59l7.76,4.09,28,.17L358.23,59l61.51-15.15,38.69-9.63,40.09,1.8L603.11,58.53l2,.51L662,73.29l22.13,1.92,50.06,1.7L779.11,65l9.1-6,28.34-18.55,28.6,7.83L882.6,49l57.53-13.22,67.74-11.29,38.81,2.38,25.53,8.91Z"/><polygon class="cls-3" points="1098.56 59.04 1098.56 320.52 0 320.52 0 59.04 605.14 59.04 662 73.29 684.13 75.21 734.19 76.91 779.11 65 788.21 59.04 1098.56 59.04"/><path class="cls-4" d="M1124.48,116.25c-9.31-31.25-38.27-51.73-68.94-59.12-41.12-9.91-83.6,3.24-122.81,15.09C911.47,78.65,890,85.08,867.89,87.94a167.75,167.75,0,0,1-64.52-4.45c-12.6-3.27-25.21-7.45-37.92-11.22a142,142,0,0,0,40.12-18.88,144.26,144.26,0,0,0,12.16-9.27c9.65,5,21.8,6.94,31.66,7.72,27.09,2.14,54.1-3.34,80.35-9.44,44.33-10.31,93.58-23.92,137.73-5.11A86.22,86.22,0,0,1,1094.07,55c3.06,3,7.76-1.7,4.7-4.69-27.44-26.85-67.62-31.49-104.2-27.65-46.75,4.92-91.45,24.65-139,22.87-10.82-.4-22.8-1.42-32.79-6.11,9.57-9.51,16.94-21.46,10.07-32.61C828.68,0,820-1.43,813,1.29,805,4.35,800.59,12,801.06,20.4a26.05,26.05,0,0,0,10.66,19.94c-16.87,14.49-37.36,23.51-59,28.37-20.17-5.28-40.61-8.44-61.59-4.24a139.55,139.55,0,0,0-19.94,5.75C631,64.26,592,51,552.5,41.72,529,36.22,505.08,32,480.94,31.31A212.78,212.78,0,0,0,412,41c-21.78,6.68-43.28,15.48-66,18.28-13.06,1.61-29,1.47-41.41-4.81.59-.23,1.17-.46,1.74-.71,13.33-5.84,22.4-23.3,17.31-37.47a19.28,19.28,0,0,0-16-12.75c-7.76-.79-14.9,3.67-19.57,9.56-9.7,12.24-8,27,1.19,37.63a84.15,84.15,0,0,1-20.32-2.44c-11.26-2.52-22.32-5.85-33.6-8.29A436.73,436.73,0,0,0,28.47,45.56C17.53,48.54,6.73,52-3.94,55.82c-4,1.44-2.27,7.86,1.77,6.41A431.32,431.32,0,0,1,154,37a425,425,0,0,1,78.45,9.22c19.63,4.2,42.67,14.15,63.42,10.62l.32.23c17.26,11.94,40.36,11,60,7.28C381.32,59.57,404.82,49,429.58,43c27.47-6.67,56-6.23,83.87-2.13,49.46,7.27,96.6,25.18,145.71,34-24.8,10.12-49,22-76.77,16.43C546,84.06,515.25,59.14,476.68,62.19,437,65.32,402.26,88.51,363.28,95.26c-43.74,7.58-88.48.13-131.48-8.45-71.22-14.22-150.92-34.23-220-.63A142.88,142.88,0,0,0-3,94.55c-.85-.67-1.69-1.35-2.51-2A128.67,128.67,0,0,1-27.41,68.83c-2.47-3.45-8.24-.13-5.74,3.36A137.36,137.36,0,0,0-8.65,98.36c-.72.51-1.44,1-2.15,1.54-3.42,2.5-.11,8.27,3.35,5.74q2.12-1.55,4.26-3a136.9,136.9,0,0,0,75.1,27.12,83,83,0,0,0,19.83-1.32c13.44,10.46,32.26,11.23,49.18,11.21,52.57,0,105.2-.21,157.66-3.75,51.42-3.46,102.8-10.23,152.68-23.42,12.56-3.31,26.83-8.88,39.85-4.93a26,26,0,0,1,9.44,5.77,47.59,47.59,0,0,0-5.36,2.37c-5.1,2.65-15.69,10-14.38,16.78,1.2,6.18,7.53,9.51,13.33,9.77,14.62.67,22.11-12.7,17.39-24.8,23.49-3.43,44.86,11.25,66.81,17,21.28,5.54,43.43,4.38,64.86.43,45.84-8.44,89.77-29,137.22-26.2,25.94,1.52,51.11,8.63,76.42,14,24.28,5.15,48.56,8.2,73.37,5.53,47.53-5.13,96-25.47,143.87-11.56a87.54,87.54,0,0,1,29.13,14.72c3.38,2.61,6.69-3.16,3.35-5.74C1070,97.46,1021,104.38,979,112.91c-25.85,5.26-51.82,11-78.37,9.53-25.28-1.37-49.83-8.11-74.45-13.45-23.46-5.09-47.25-8.81-71.3-6.52-22.58,2.14-44.51,8.21-66.29,14.28-22.08,6.15-44.41,12.63-67.36,14.39a128.17,128.17,0,0,1-33.82-1.51c-12.23-2.32-23.6-7.13-35.17-11.56-14.1-5.39-29.52-9.57-44.27-6.78-13.93-17.93-38.74-10.46-57.41-5.49C349.46,132.71,243.8,133,139.94,133c-12.07,0-24.75,0-36-4.92a36,36,0,0,1-3.91-2c8.67-3.3,15.87-9.13,18.8-18.93,4.51-15.07-6.19-32.61-23.3-27.39-17.78,5.43-21.82,26.14-11.78,40.3.77,1.08,1.58,2.1,2.41,3.07C74.24,124.48,61,122.47,52,120.56A132.89,132.89,0,0,1,2.68,98.85c60-36.74,136.39-24.3,201.94-10.83,41.12,8.45,82.77,17.64,125,16.92a214.2,214.2,0,0,0,60.6-9.39c18.48-5.79,36.15-13.87,54.58-19.81,18.8-6,38.41-9.47,58-5.23,17.59,3.8,33.81,11.87,50.41,18.53,16.4,6.59,33.71,11.81,51.59,10.23s34.3-8.67,50.6-15.52c5.59-2.36,11.2-4.67,16.88-6.73,1,.14,2,.3,3.08.43,25.36,3.39,52.08,3.48,77.37-1.94,4.69,1.27,9.34,2.64,13.95,4,18.77,5.68,37.45,12.07,56.92,14.92,20.1,2.94,40.33,1.42,60.2-2.44,43.22-8.42,84.15-27.65,128.37-31.11,34.56-2.71,73,6.41,94.94,35.35a67.92,67.92,0,0,1,11,21.75C1119.29,122.1,1125.71,120.36,1124.48,116.25ZM809.2,12.65c4.42-8,19.29-8.61,19.39,2.66.06,8-5.84,14.92-11.75,20.47C809.92,30.28,804.57,21.07,809.2,12.65ZM297.35,49.75a33.13,33.13,0,0,1-4.51-4.65c-6-7.52-6.54-16.76-1.66-25,3.87-6.55,11.66-12.43,19.48-8.89,15.91,7.21,4.77,31.22-6.9,36.45A34.4,34.4,0,0,1,297.35,49.75Zm207.14,82a12.66,12.66,0,0,1-9.28,3.91c-2.2,0-8-1.05-7.87-4.39.13-2.46,6.9-7.3,9.27-8.73a36.13,36.13,0,0,1,8.44-3.66C507.45,123,508,127.65,504.49,131.71ZM84.61,102.79c.11-9,8.84-18.4,18.31-17.24,10.64,1.3,12.12,14.28,8.62,22.3-3.27,7.5-9.78,11.7-17.58,13.84C88.49,116.78,84.52,110.2,84.61,102.79ZM697.05,72.92q-4.69-.27-9.38-.7A97,97,0,0,1,710,69.11a128.9,128.9,0,0,1,26.16,2.53A211.83,211.83,0,0,1,697.05,72.92Z"/><path class="cls-5" d="M705.67,221.79V220.7a3.57,3.57,0,0,1,.43-1.87,3.09,3.09,0,0,1,1.19-1.1,11.15,11.15,0,0,1,1.81-.73l.79-.25a7.24,7.24,0,0,0,1.37-.57,2.59,2.59,0,0,0,.92-.88,2.47,2.47,0,0,0,.34-1.36v-.06a2.25,2.25,0,0,0-.8-1.82,3.08,3.08,0,0,0-2-.66,3.22,3.22,0,0,0-2.15.7,2.63,2.63,0,0,0-.84,2.14v.2h-1v-.2a3.8,3.8,0,0,1,.51-2,3.23,3.23,0,0,1,1.4-1.26,4.94,4.94,0,0,1,4,0,3.13,3.13,0,0,1,1.81,2.91V214a3.35,3.35,0,0,1-.42,1.76,3.18,3.18,0,0,1-1.18,1.12,9.34,9.34,0,0,1-1.79.77l-.79.23a11.17,11.17,0,0,0-1.44.56,2.27,2.27,0,0,0-.91.78,2.42,2.42,0,0,0-.32,1.33v.37h6.75v.88Z"/><path class="cls-5" d="M719.37,222a3.85,3.85,0,0,1-2.94-1.13,4.63,4.63,0,0,1-1.09-3.35V215a4.64,4.64,0,0,1,1.09-3.36,4.4,4.4,0,0,1,5.89,0A4.68,4.68,0,0,1,723.4,215v2.53a4.67,4.67,0,0,1-1.08,3.35A3.86,3.86,0,0,1,719.37,222Zm0-.88a2.82,2.82,0,0,0,2.29-.94,4,4,0,0,0,.76-2.6v-2.66a4,4,0,0,0-.76-2.59,2.79,2.79,0,0,0-2.29-.94,2.76,2.76,0,0,0-2.28.94,4,4,0,0,0-.77,2.59v2.66a4,4,0,0,0,.77,2.6A2.79,2.79,0,0,0,719.37,221.13Z"/><path class="cls-5" d="M725.33,221.79V220.7a3.48,3.48,0,0,1,.43-1.87,3.09,3.09,0,0,1,1.19-1.1,10.79,10.79,0,0,1,1.81-.73l.79-.25a7.13,7.13,0,0,0,1.36-.57,2.36,2.36,0,0,0,1.26-2.24v-.06a2.25,2.25,0,0,0-.8-1.82,3.08,3.08,0,0,0-2-.66,3.23,3.23,0,0,0-2.15.7,2.66,2.66,0,0,0-.83,2.14v.2h-1v-.2a3.89,3.89,0,0,1,.5-2,3.28,3.28,0,0,1,1.4-1.26,4.59,4.59,0,0,1,2-.44,4.5,4.5,0,0,1,2,.42,3.19,3.19,0,0,1,1.34,1.17,3.24,3.24,0,0,1,.47,1.74V214a3.35,3.35,0,0,1-.42,1.76,3.18,3.18,0,0,1-1.18,1.12,9.24,9.24,0,0,1-1.78.77l-.79.23a11.36,11.36,0,0,0-1.45.56,2.3,2.3,0,0,0-.9.78,2.34,2.34,0,0,0-.32,1.33v.37h6.75v.88Z"/><path class="cls-5" d="M738.74,222a4.26,4.26,0,0,1-2-.46,3.51,3.51,0,0,1-1.35-1.3,3.75,3.75,0,0,1-.48-1.92v-.2h1v.15a2.71,2.71,0,0,0,.81,2.14,3,3,0,0,0,2.07.71,2.84,2.84,0,0,0,2.12-.78,2.91,2.91,0,0,0,.77-2.14v-.13a2.93,2.93,0,0,0-.74-2.09,2.87,2.87,0,0,0-3.08-.54,2.08,2.08,0,0,0-.72.55,3.44,3.44,0,0,0-.42.63H735.2v-5.9h7.15v.89h-6.17v4.28h.19a2.94,2.94,0,0,1,.51-.71,2.71,2.71,0,0,1,.89-.59,3.6,3.6,0,0,1,1.4-.23,3.42,3.42,0,0,1,1.74.45,3.3,3.3,0,0,1,1.23,1.28,4,4,0,0,1,.46,2v.16a4,4,0,0,1-.47,2,3.3,3.3,0,0,1-1.33,1.34A4.05,4.05,0,0,1,738.74,222Z"/><path class="cls-5" d="M747.73,221.79l3.62-11.06h1.8l3.62,11.06h-1.06l-1-2.94h-5l-1,2.94Zm2.29-3.85h4.46l-2.13-6.61h-.19Z"/><path class="cls-5" d="M761.56,222a3.44,3.44,0,0,1-1.53-.35,2.63,2.63,0,0,1-1.12-1,3.37,3.37,0,0,1-.42-1.76v-4.68h1v4.62a2.32,2.32,0,0,0,.63,1.81,2.48,2.48,0,0,0,1.69.56,2.68,2.68,0,0,0,2-.79,3.2,3.2,0,0,0,.79-2.36v-3.84h1v7.68h-.92v-1.42h-.19a2.9,2.9,0,0,1-.93,1.1A3.12,3.12,0,0,1,761.56,222Z"/><path class="cls-5" d="M767.88,218v-.19a4,4,0,0,1,.5-2.08,3.43,3.43,0,0,1,1.33-1.34,3.69,3.69,0,0,1,1.87-.48,3.36,3.36,0,0,1,2,.5,3.25,3.25,0,0,1,1,1.13h.19v-1.41h.88v9.64a1.24,1.24,0,0,1-.3.89,1.2,1.2,0,0,1-.92.31h-5.24v-.85h5.06a.42.42,0,0,0,.48-.48v-3.3h-.18a3,3,0,0,1-.58.74,2.71,2.71,0,0,1-1,.6,4,4,0,0,1-1.43.23,3.76,3.76,0,0,1-1.88-.48,3.33,3.33,0,0,1-1.33-1.35A4.16,4.16,0,0,1,767.88,218ZM771.8,221a2.84,2.84,0,0,0,2.12-.82,3.08,3.08,0,0,0,.81-2.26v-.12a3.07,3.07,0,0,0-.81-2.27,3.18,3.18,0,0,0-4.24,0,3,3,0,0,0-.82,2.27V218a3,3,0,0,0,.82,2.26A2.86,2.86,0,0,0,771.8,221Z"/><path class="cls-5" d="M786.19,222a4.2,4.2,0,0,1-3.07-1.1,4.34,4.34,0,0,1-1.15-3.3v-2.69a4.39,4.39,0,0,1,1.15-3.29,4.17,4.17,0,0,1,3.07-1.12,4.22,4.22,0,0,1,3.09,1.12,4.43,4.43,0,0,1,1.14,3.29v2.69a4.38,4.38,0,0,1-1.14,3.3A4.25,4.25,0,0,1,786.19,222Zm0-1.48a2.4,2.4,0,0,0,1.94-.75,3.2,3.2,0,0,0,.64-2.11v-2.85a3,3,0,0,0-.68-2.09,2.47,2.47,0,0,0-1.9-.73,2.42,2.42,0,0,0-1.9.75,3,3,0,0,0-.66,2.07v2.85a3.11,3.11,0,0,0,.64,2.12A2.42,2.42,0,0,0,786.19,220.53Z"/><path class="cls-5" d="M795.35,221.79V211.9h-.25l-1.82,3.73h-1.75l2.45-4.9h3v11.06Z"/><path class="cls-5" d="M799.34,218.49V217H804v1.49Z"/><path class="cls-5" d="M810.25,222a4.22,4.22,0,0,1-3.07-1.1,4.38,4.38,0,0,1-1.15-3.3v-2.69a4.43,4.43,0,0,1,1.15-3.29,4.79,4.79,0,0,1,6.16,0,4.39,4.39,0,0,1,1.15,3.29v2.69a4.34,4.34,0,0,1-1.15,3.3A4.23,4.23,0,0,1,810.25,222Zm0-1.48a2.42,2.42,0,0,0,2-.75,3.2,3.2,0,0,0,.63-2.11v-2.85a3,3,0,0,0-.68-2.09,2.46,2.46,0,0,0-1.9-.73,2.38,2.38,0,0,0-1.89.75,3,3,0,0,0-.67,2.07v2.85a3.16,3.16,0,0,0,.64,2.12A2.42,2.42,0,0,0,810.25,220.53Z"/><path class="cls-5" d="M820.16,222a5,5,0,0,1-2.17-.44,3.34,3.34,0,0,1-1.47-1.28,3.59,3.59,0,0,1-.53-2V218h1.66v.25a2.13,2.13,0,0,0,.68,1.65,2.65,2.65,0,0,0,1.83.61,2.55,2.55,0,0,0,1.77-.57,1.86,1.86,0,0,0,.63-1.44v-.14a1.59,1.59,0,0,0-.3-1,1.77,1.77,0,0,0-.81-.56,3.31,3.31,0,0,0-1.13-.18h-2v-1.91l3.89-2.29v-.22h-5.94v-1.49H824V213l-3.71,2.21v.22H821a4,4,0,0,1,1.58.31,2.89,2.89,0,0,1,1.21,1,2.74,2.74,0,0,1,.47,1.64v.19a3.28,3.28,0,0,1-.51,1.84,3.34,3.34,0,0,1-1.42,1.22A4.91,4.91,0,0,1,820.16,222Z"/><path class="cls-5" d="M706.3,241.81V227.06h2.27v6.13h.34l5.5-6.13h3l-6.66,7.27,6.89,7.48h-3.06l-5.64-6.26h-.34v6.26Z"/><path class="cls-5" d="M723.89,242.1a5.78,5.78,0,0,1-2.77-.64,4.72,4.72,0,0,1-1.91-1.85,5.59,5.59,0,0,1-.7-2.84v-.32a5.55,5.55,0,0,1,.7-2.83,4.76,4.76,0,0,1,1.91-1.84,5.67,5.67,0,0,1,2.77-.66,5.77,5.77,0,0,1,2.78.66,4.76,4.76,0,0,1,1.91,1.84,5.45,5.45,0,0,1,.7,2.83v.32a5.49,5.49,0,0,1-.7,2.84,4.72,4.72,0,0,1-1.91,1.85A5.87,5.87,0,0,1,723.89,242.1Zm0-1.94a3.09,3.09,0,0,0,2.32-.91,3.49,3.49,0,0,0,.9-2.54v-.19a3.55,3.55,0,0,0-.88-2.54,3.4,3.4,0,0,0-4.65,0,3.47,3.47,0,0,0-.9,2.54v.19a3.49,3.49,0,0,0,.9,2.54A3.1,3.1,0,0,0,723.89,240.16Z"/><path class="cls-5" d="M732,241.81V231.42h2.12V233h.34a3.18,3.18,0,0,1,1-1.18,3.83,3.83,0,0,1,2.26-.55,4.14,4.14,0,0,1,2.09.53,3.75,3.75,0,0,1,1.45,1.48,4.75,4.75,0,0,1,.52,2.31v6.24h-2.17v-6.07a2.63,2.63,0,0,0-.67-2,2.58,2.58,0,0,0-1.85-.65A2.79,2.79,0,0,0,735,234a3.69,3.69,0,0,0-.81,2.57v5.25Z"/><path class="cls-5" d="M749.23,242.1a4.65,4.65,0,0,1-4.14-2.45,5.89,5.89,0,0,1-.66-2.88v-.32a5.84,5.84,0,0,1,.65-2.86,4.55,4.55,0,0,1,1.75-1.83,4.64,4.64,0,0,1,2.4-.64,4.94,4.94,0,0,1,1.7.26,3.54,3.54,0,0,1,1.12.64,3.12,3.12,0,0,1,.68.81h.33v-5.77h2.17v14.75H753.1v-1.48h-.33a3.89,3.89,0,0,1-1.21,1.22A4.12,4.12,0,0,1,749.23,242.1Zm.61-1.9a3.19,3.19,0,0,0,2.33-.9,3.5,3.5,0,0,0,.91-2.59v-.19a3.48,3.48,0,0,0-.9-2.57,3.43,3.43,0,0,0-4.65,0,3.45,3.45,0,0,0-.91,2.57v.19a3.5,3.5,0,0,0,.91,2.59A3.16,3.16,0,0,0,749.84,240.2Z"/><path class="cls-5" d="M763.3,242.1a5.81,5.81,0,0,1-2.77-.64,4.79,4.79,0,0,1-1.91-1.85,5.58,5.58,0,0,1-.69-2.84v-.32a5.55,5.55,0,0,1,.69-2.83,4.83,4.83,0,0,1,1.91-1.84,6.16,6.16,0,0,1,5.55,0,4.73,4.73,0,0,1,1.92,1.84,5.55,5.55,0,0,1,.69,2.83v.32a5.58,5.58,0,0,1-.69,2.84,4.69,4.69,0,0,1-1.92,1.85A5.85,5.85,0,0,1,763.3,242.1Zm0-1.94a3.11,3.11,0,0,0,2.33-.91,3.48,3.48,0,0,0,.89-2.54v-.19a3.5,3.5,0,0,0-.88-2.54,3.4,3.4,0,0,0-4.65,0,3.51,3.51,0,0,0-.89,2.54v.19a3.52,3.52,0,0,0,.89,2.54A3.1,3.1,0,0,0,763.3,240.16Z"/><path class="cls-5" d="M775.29,241.81a2,2,0,0,1-1.51-.57,2.09,2.09,0,0,1-.56-1.52v-6.47h-2.86v-1.83h2.86V228h2.17v3.44h2.45v1.83h-2.45v6.09c0,.42.2.63.59.63h2.17v1.84Zm6.82,0a2,2,0,0,1-1.51-.57,2.06,2.06,0,0,1-.57-1.52v-6.47h-2.19v-1.83H780V228h2.17v3.44h3.12v1.83H782.2v6.09c0,.42.2.63.61.63H785v1.84Z"/><path class="cls-5" d="M789.07,246v-1.9h5.79c.39,0,.59-.21.59-.63v-3.2h-.34a2.65,2.65,0,0,1-.58.81,3,3,0,0,1-1,.64,4.56,4.56,0,0,1-1.64.25,4.21,4.21,0,0,1-2.11-.52,3.68,3.68,0,0,1-1.45-1.5,4.61,4.61,0,0,1-.53-2.29v-6.26h2.17v6.09a2.31,2.31,0,0,0,2.55,2.63,2.77,2.77,0,0,0,2.14-.88,3.69,3.69,0,0,0,.81-2.57v-5.27h2.17v12.51a2.09,2.09,0,0,1-.56,1.52,2,2,0,0,1-1.53.57Z"/><path class="cls-6" d="M309.69,259.68a20.23,20.23,0,0,0,7.86-6.08,14.45,14.45,0,0,0,2.77-6.26,18.37,18.37,0,0,0,0-6,15,15,0,0,0-4-8,27.92,27.92,0,0,0-6.14-4.74c-2.9-1.73-5.86-3.38-8.81-5a32.08,32.08,0,0,1-8.09-6.23,18.24,18.24,0,0,1-4.32-7.26,9.16,9.16,0,0,1-.17-5.11,6.15,6.15,0,0,1,3.67-4.13,10.59,10.59,0,0,1,4-.76,5.27,5.27,0,0,1,2.3.53,3.53,3.53,0,0,1,1.73,1.72,5,5,0,0,1,.47,2.94,14.48,14.48,0,0,1-.73,3,9.63,9.63,0,0,0-.54,2.08,8,8,0,0,0,2,6.9,9.73,9.73,0,0,0,10.53,2.88,8.93,8.93,0,0,0,6.43-7.18,11.71,11.71,0,0,0,0-4.09,7.4,7.4,0,0,0-.27-1.15,13.25,13.25,0,0,0-3.65-5.78,20,20,0,0,0-8.35-4.56,32.6,32.6,0,0,0-5.19-1,29.09,29.09,0,0,0-10.72.56,15.33,15.33,0,0,0-3.37,1.12l0,0-.51.21h0l-.07.05c-.68.32-1.38.61-2,1a20.92,20.92,0,0,0-7,6.24,16.7,16.7,0,0,0-2.84,6.59,16.13,16.13,0,0,0,2.15,11.62,21.59,21.59,0,0,0,4.2,5,43.3,43.3,0,0,0,5.35,4,28.89,28.89,0,0,0,3.06,2.08A10.07,10.07,0,0,0,291.2,236c.17.11.34.22.5.34l.19.09.22.14.2.08.23.17a.67.67,0,0,0,.38.28h0l.36.21a.12.12,0,0,0,.12.08c.35.26.68.53,1,.77,1.9,1.24,3.79,2.49,5.57,3.9a20.84,20.84,0,0,1,3,2.8,7.94,7.94,0,0,1,1.39,2.3,5.34,5.34,0,0,1-.19,4.39,8.19,8.19,0,0,1-2.6,3,11.65,11.65,0,0,1-4.28,2,11.5,11.5,0,0,1-6.7-.18,7.85,7.85,0,0,1-4.69-4.34,11.26,11.26,0,0,1-1-4.08,4.6,4.6,0,0,0-.35-2,.94.94,0,0,0-.22-.85h0a.28.28,0,0,1-.16-.3.15.15,0,0,0-.06-.13.39.39,0,0,1-.22-.43,4.33,4.33,0,0,0-3.21-2.13,4.49,4.49,0,0,0-5,3.95,9,9,0,0,0,.66,4.54,17.27,17.27,0,0,0,7.32,8.52,1.43,1.43,0,0,0,.69.27h0l.23.2a.49.49,0,0,0,.51.23l.4.21h0l.36.19,0,.05.06,0,.33.17c0,.07.08.08.15,0l.7.29a.5.5,0,0,0,.54.15l.29.12a5.73,5.73,0,0,0,1.31.48,27.83,27.83,0,0,0,4.89.87A30.47,30.47,0,0,0,302,262a28.73,28.73,0,0,0,7.73-2.32"/><path class="cls-7" d="M477.07,262.7a17.94,17.94,0,0,0,9.11-4.85,15.72,15.72,0,0,0,3.47-5.3,22.69,22.69,0,0,0,1.56-8.55q0-23.83,0-47.67v-.87a.85.85,0,0,0-.23-.7,9,9,0,0,0-2-.43,12.2,12.2,0,0,0-5.14.17,5.79,5.79,0,0,0-4.32,4.13,8.43,8.43,0,0,0-.29,2.45c0,6,0,12,0,17.95a29.77,29.77,0,0,1-.8,7.28,16.36,16.36,0,0,1-1.87,4.58,7.64,7.64,0,0,1-2.6,2.7,3.9,3.9,0,0,1-4.47-.09,6.32,6.32,0,0,1-1.58-1.6,13.53,13.53,0,0,1-2-4.61,34.7,34.7,0,0,1-1.05-8.67c0-3.56,0-7.13,0-10.7a2.36,2.36,0,0,0-.1-1.15,8.37,8.37,0,0,0-3.18-.55c-.43,0-.86-.1-1.29-.1a9.53,9.53,0,0,0-4.3.84,5.55,5.55,0,0,0-2.87,3.2,9.66,9.66,0,0,0-.52,3.4c0,3-.07,6,.07,9a24,24,0,0,0,2.23,9.4,14.85,14.85,0,0,0,6,6.7,4.6,4.6,0,0,0,.53.37,11.72,11.72,0,0,0,4.62,1.37,12.06,12.06,0,0,0,9.58-3.34,14.81,14.81,0,0,0,3.24-4.41c.06-.12.1-.27.29-.25,0,0,.09,0,.09,0,0,.32,0,.65,0,1,0,5,0,9.94,0,14.91,0,1.25-.07,2.52-.19,3.77a22.14,22.14,0,0,1-.73,4,9.69,9.69,0,0,1-1.26,2.85,4.73,4.73,0,0,1-3.64,2.23,2.91,2.91,0,0,1-3.13-1.94,5.49,5.49,0,0,1-.23-3.18c.14-.7.34-1.4.54-2.09a6.07,6.07,0,0,0,.12-3,7.07,7.07,0,0,0-7.21-5.46,3.59,3.59,0,0,0-2.15.57,5.79,5.79,0,0,0-4,4.14,7.56,7.56,0,0,0,.23,4.65,9.84,9.84,0,0,0,3.48,4.66,5.54,5.54,0,0,0,1.95,1.29l.06,0,.41.2h0c.22.13.42.27.65.38a18.42,18.42,0,0,0,5.38,1.54,21.62,21.62,0,0,0,7.52-.27"/><path class="cls-8" d="M600.39,197.8l-.5.21-.06,0v.07a7.84,7.84,0,0,0-1.88,1,9.88,9.88,0,0,0-4.25,5.4,7.08,7.08,0,0,0-.1,3.95,6.69,6.69,0,0,0,6.8,4.9,3.4,3.4,0,0,0,1.78-.28,6.72,6.72,0,0,0,4.52-8.63,6.69,6.69,0,0,1-.29-1.48,4.73,4.73,0,0,1,5.49-5,6.3,6.3,0,0,1,4.29,3,9.19,9.19,0,0,1,.63,8.3,6.32,6.32,0,0,1-2.37,3.13,10.86,10.86,0,0,1-3.13,1.44c-2.39.68-4.84,1-7.27,1.54a11.13,11.13,0,0,0-3,.82l-.49.13s-.06,0-.07,0l-.09.09c-.68.25-1.37.45-2,.75a12.19,12.19,0,0,0-5,4,14.49,14.49,0,0,0-2.74,9.76,9.72,9.72,0,0,0,.92,3.53,12.58,12.58,0,0,0,4,4.75,15.85,15.85,0,0,0,5.73,2.68,1.53,1.53,0,0,0,1.17.12c.1.25.32.21.52.21a1.74,1.74,0,0,0,.84.18,18.78,18.78,0,0,0,5.79-.35,13.14,13.14,0,0,0,7.83-5.18c.16-.24.28-.51.63-.58a3.35,3.35,0,0,1,.18.38,6.9,6.9,0,0,0,4.77,4.59,13.07,13.07,0,0,0,5.46.38,8.19,8.19,0,0,0,2.3-.53,6.25,6.25,0,0,0,1-.48.76.76,0,0,0,.33-1,3,3,0,0,0-.74-1.18,5,5,0,0,1-1.32-3.23c0-.46,0-.93,0-1.4,0-6.23,0-12.46,0-18.69a21.2,21.2,0,0,0-1.44-7.91,16.65,16.65,0,0,0-6.77-8,22,22,0,0,0-10.2-3.21,23.68,23.68,0,0,0-10.5,1.5,1.32,1.32,0,0,0-.64.36m17.32,16.64c0,3.82,0,7.64,0,11.46a15.49,15.49,0,0,1-1.5,6.69,11.09,11.09,0,0,1-3.82,4.6,6.33,6.33,0,0,1-3,1.14,5.83,5.83,0,0,1-5.47-2.41,8.89,8.89,0,0,1-1.72-7,10.15,10.15,0,0,1,2.84-5.58,27.62,27.62,0,0,1,4.7-3.78c1.42-1,2.86-1.93,4.25-3a11.64,11.64,0,0,0,3.44-3.68s.1-.07.27-.19Z"/><path class="cls-9" d="M349.27,205.94a9.31,9.31,0,0,1,.53,6.11,7.1,7.1,0,0,1-4.45,5.31,19.11,19.11,0,0,1-3.51,1c-1.63.32-3.26.6-4.89.92-.59.12-1.18.31-1.77.47l-.37.13a3,3,0,0,0-1.36.34,14.74,14.74,0,0,0-4.13,1.79A11.69,11.69,0,0,0,325.4,226a15.42,15.42,0,0,0-2.19,6.58,11.1,11.1,0,0,0,3,8.93,14.8,14.8,0,0,0,7.73,4.42,1.28,1.28,0,0,0,.29.14,18.57,18.57,0,0,0,7,.22,14.23,14.23,0,0,0,5.58-2.2,12.36,12.36,0,0,0,3.29-3.24c.13-.18.19-.47.51-.49.26.22.3.56.43.85a6.68,6.68,0,0,0,3.79,3.78,12.17,12.17,0,0,0,7,.58,8.33,8.33,0,0,0,2.35-.78.87.87,0,0,0,.51-1.07,1.8,1.8,0,0,0-.36-.78c-.17-.23-.38-.43-.56-.66a4.48,4.48,0,0,1-1-2.33,21.83,21.83,0,0,1-.19-2.69q0-9.24,0-18.48a19.47,19.47,0,0,0-1.79-8.48,16.9,16.9,0,0,0-7.72-7.88,21.09,21.09,0,0,0-6.11-2.06,24.16,24.16,0,0,0-4.94-.45,26.14,26.14,0,0,0-6.09.84,6.69,6.69,0,0,0-2.1.79l-.29.09c0,.1-.07.13-.16.08a13.26,13.26,0,0,0-4,2.41,8.88,8.88,0,0,0-2.92,4.3,7.16,7.16,0,0,0,0,4.66,6.68,6.68,0,0,0,7.83,4.12,2.67,2.67,0,0,0,.64-.09,7.09,7.09,0,0,0,4.49-4.35,6,6,0,0,0,.3-2.76c-.09-.84-.41-1.61-.57-2.41a4.29,4.29,0,0,1,1.1-4,4.91,4.91,0,0,1,6.31-.83,6.64,6.64,0,0,1,2.82,3.19m1,10.81c0,4.57.06,9.15,0,13.73a14.2,14.2,0,0,1-2.76,8.27,9.17,9.17,0,0,1-4.08,3.27,5.81,5.81,0,0,1-6.58-1.65,8.72,8.72,0,0,1-2.09-7.34,10.37,10.37,0,0,1,3.31-6.16,32.29,32.29,0,0,1,4.34-3.37c1.46-1,3-1.93,4.34-3A11.42,11.42,0,0,0,350,216.9l.16-.26Z"/><path class="cls-10" d="M512,245.81a.27.27,0,0,0,.3.08,1,1,0,0,0,.6.22c.79.09,1.57.21,2.36.26a17,17,0,0,0,9.09-1.8,20.54,20.54,0,0,0,5.36-3.95,23.13,23.13,0,0,0,5.7-9.54,26.46,26.46,0,0,0,1.16-10.65,25.82,25.82,0,0,0-2.85-9.77,21.71,21.71,0,0,0-6.21-7.36,18.3,18.3,0,0,0-9.55-3.65,16.15,16.15,0,0,0-7.7,1.21h0l-.33.12-.23.11a2.27,2.27,0,0,0-1,.51l-.31.16h-.08l0,.07L508,202h-.08l-.05.07-.63.39-.39.16h0c-.05,0-.08,0-.08.07l-.24.18c-.1,0-.17,0-.19.13a15.21,15.21,0,0,0-1.95,1.52,22.48,22.48,0,0,0-4.85,6.16,26.33,26.33,0,0,0-3,9.51,29.63,29.63,0,0,0-.14,3.77,24.86,24.86,0,0,0,1.05,6.8,23.65,23.65,0,0,0,4.06,8,18.79,18.79,0,0,0,4.6,4.34,7.71,7.71,0,0,0,2,1.26h0l.45.18a2.55,2.55,0,0,0,1,.4l.06.07.08,0,.27.14.24.08q0,.09.12.06l.46.16h0a2.2,2.2,0,0,0,1.27.35m5.54-41.09a8.91,8.91,0,0,1,1.69,1.5,16.21,16.21,0,0,1,2.84,4.93,35.94,35.94,0,0,1,2.28,9.64,47.42,47.42,0,0,1,.2,7.34A28.47,28.47,0,0,1,523,236.7a12.81,12.81,0,0,1-1.79,3.44,8.67,8.67,0,0,1-.64.72,3.88,3.88,0,0,1-5.46.28,10.23,10.23,0,0,1-2.08-2.32,23.26,23.26,0,0,1-2.36-5,40.46,40.46,0,0,1-1.72-7.45,47.39,47.39,0,0,1-.37-6.46,29.54,29.54,0,0,1,.17-3.79,23.86,23.86,0,0,1,2.4-8.91,9.45,9.45,0,0,1,1.64-2.13,3.83,3.83,0,0,1,4.78-.4"/><path class="cls-11" d="M661.69,203.7a6.6,6.6,0,0,0,5,7.62,5.26,5.26,0,0,1,1.6.64,6,6,0,0,1,2.59,3.34,15.77,15.77,0,0,1,.88,4.76,38.44,38.44,0,0,1-1,9.86,53.93,53.93,0,0,1-2.41,8,35.89,35.89,0,0,1-3.24,6.58,14.3,14.3,0,0,1-2.18,2.67,4.1,4.1,0,0,1-2.14,1.18,3.33,3.33,0,0,1-3-1.11,8.57,8.57,0,0,1-1.57-2.31,31.85,31.85,0,0,1-2.1-6.22c-.54-2.13-1-4.27-1.41-6.44-.71-3.78-1.51-7.55-2.24-11.32-.62-3.18-1.18-6.38-1.81-9.55a8.89,8.89,0,0,0-2-4.15,2.57,2.57,0,0,0-1-.91l-.22-.18a.21.21,0,0,1-.22-.18,8.41,8.41,0,0,0-3.14-1.37,16,16,0,0,0-6.74.09,1.61,1.61,0,0,0-.91.38,2.67,2.67,0,0,0,0,.4c.33,1.77.66,3.53,1,5.3.43,2.22.88,4.44,1.31,6.66.49,2.58,1,5.16,1.45,7.74s1.07,5.35,1.56,8a54.46,54.46,0,0,0,2.24,8.54,26.43,26.43,0,0,0,3,6.17,3,3,0,0,0,.62.92v0a.17.17,0,0,0,.1.16.18.18,0,0,0,.12.13v.07h.06l.15.19a10.92,10.92,0,0,0,3,2.87h0l.35.2c0,.05,0,.08.09.07a2.8,2.8,0,0,0,.32.29,12.16,12.16,0,0,0,4.64,1.7,11.52,11.52,0,0,0,4.3-.08,10.92,10.92,0,0,0,4.3-2.16,24.41,24.41,0,0,0,6.15-7.73,51.65,51.65,0,0,0,3.69-8.62,77.14,77.14,0,0,0,2.69-10.67,62.81,62.81,0,0,0,1-9.87,42.69,42.69,0,0,0-.45-8.3,18.21,18.21,0,0,0-1.78-5.52,6.2,6.2,0,0,0-4.19-3.29c-.28-.06-.57-.12-.85-.16a6.62,6.62,0,0,0-5.08,1.35,6.38,6.38,0,0,0-2.46,4.3"/><path class="cls-12" d="M368.6,248.37a10.47,10.47,0,0,0,.42,3.2,5.19,5.19,0,0,0,2.41,3.06,9.05,9.05,0,0,0,5.51,1.08,10.12,10.12,0,0,0,3.8-.64,3.62,3.62,0,0,0,.08-1.27V227.42a16.27,16.27,0,0,1,.46-4.17,12,12,0,0,1,2.06-4.37,8.26,8.26,0,0,1,2.76-2.36,5.29,5.29,0,0,1,4.19-.42,6.32,6.32,0,0,1,2.54,1.59,9.85,9.85,0,0,1,1.9,2.73,22.16,22.16,0,0,1,1.93,6.94,32.75,32.75,0,0,1,.24,4.53c0,5.48,0,11,0,16.43a11.47,11.47,0,0,0,.3,2.68,5.72,5.72,0,0,0,4.41,4.41,14.42,14.42,0,0,0,7.06-.17,1.64,1.64,0,0,0,.35-.18,3,3,0,0,0,.09-1.21q0-12.06,0-24.11a30.55,30.55,0,0,0-.37-5,19.72,19.72,0,0,0-3.43-8.64,16,16,0,0,0-4.28-4.07,15.68,15.68,0,0,0-5.59-2.22,15,15,0,0,0-9.19,1,10.32,10.32,0,0,0-4.12,3,.2.2,0,0,0-.14.15.61.61,0,0,0-.32.33h0c-.3.18-.36.63-.85.68v-1.21q0-12.65,0-25.28a12.24,12.24,0,0,0-.25-2.57,6.32,6.32,0,0,0-3.63-4.78.16.16,0,0,0-.14-.08.21.21,0,0,1-.28-.12.36.36,0,0,0-.2-.06.18.18,0,0,1-.24-.11l-.57-.23a.19.19,0,0,0-.26,0,12.83,12.83,0,0,0-7.24.07,4.64,4.64,0,0,0-1.18.53.82.82,0,0,0-.4,1.1,2.88,2.88,0,0,0,.7,1.08,5.57,5.57,0,0,1,1.42,3.53c0,.47,0,.94,0,1.4q0,10.44,0,20.86,0,19.6,0,39.22"/><path class="cls-13" d="M545.42,195.37c0,.07,0,.14,0,.2a1.1,1.1,0,0,0-.16.75l-.42,1.16-1.31,2.14-.15.18h-.06v.07a.24.24,0,0,0-.14.14l-.17.14h0l-.31.33a7.24,7.24,0,0,1-3.61,1.59,2.31,2.31,0,0,0-.62.18,1.5,1.5,0,0,0-1,1.65,1.53,1.53,0,0,0,1.46,1.34c.32,0,.65,0,1,0a2.51,2.51,0,0,1,1.18.11,4,4,0,0,1,.08,1.29q0,11.44,0,22.9c0,1.55,0,3.1.16,4.65a18.18,18.18,0,0,0,1.3,5.43,1.36,1.36,0,0,0,0,.21,16.3,16.3,0,0,0,6.28,7.77,21.54,21.54,0,0,0,9.42,3.2,3.76,3.76,0,0,0,.75,0,1.37,1.37,0,0,0,1.27-1.26,1.42,1.42,0,0,0-1.13-1.7,6.37,6.37,0,0,1-2.86-1.44,8.31,8.31,0,0,1-2.31-3.71,13.4,13.4,0,0,1-.65-4.36c0-5.87,0-11.74,0-17.61q0-7.14,0-14.27a3.69,3.69,0,0,1,0-1.11,1.41,1.41,0,0,1,.8-.13c.33,0,.65,0,1,0a1.49,1.49,0,0,0,1.46-1.45,1.43,1.43,0,0,0-1.37-1.53c-.28,0-.57,0-.86,0a2.7,2.7,0,0,1-.91-.07,1.1,1.1,0,0,1-.14-.77c0-1,0-1.95,0-2.92a14.47,14.47,0,0,0-.24-2.79,6.92,6.92,0,0,0-2.73-4.62,7.24,7.24,0,0,0-4.15-1.33c-.15,0-.27.07-.44.27a25.3,25.3,0,0,1-.46,5.38"/><path class="cls-14" d="M578.68,247.77a15.91,15.91,0,0,0,5.45-2.78,10,10,0,0,0,3.87-9.43,9.19,9.19,0,0,0-.66-2.61,11.34,11.34,0,0,0-3.6-4.51,41,41,0,0,0-5.3-3.33,49.45,49.45,0,0,1-5.53-3.37,16.28,16.28,0,0,1-4.22-4.57,8.25,8.25,0,0,1-1.31-4,4.12,4.12,0,0,1,2-4.05,5.6,5.6,0,0,1,3.75-.7,2.51,2.51,0,0,1,2.26,2.5,4.67,4.67,0,0,1-.05,1.18,6.32,6.32,0,0,1-.35,1.36,6.46,6.46,0,0,0-.4,1.67,5,5,0,0,0,1.09,4.05,6.51,6.51,0,0,0,5.5,2.45,6.12,6.12,0,0,0,5.75-5.24,7.52,7.52,0,0,0-1.81-6,10.8,10.8,0,0,0-3.37-2.67,17.09,17.09,0,0,0-6.19-1.79,18.16,18.16,0,0,0-9.33,1.17,4.18,4.18,0,0,0-1.21.66,12.67,12.67,0,0,0-4.83,4.21,10.4,10.4,0,0,0-1.92,5.2,10.85,10.85,0,0,0,2.61,8,19.27,19.27,0,0,0,4.72,4h0l.21.14c0,.07,0,.1.13.08l.3.2.36.27h0q2.54,1.64,5.06,3.28a33.77,33.77,0,0,1,4.15,3.08,8.63,8.63,0,0,1,1.48,1.71,3.6,3.6,0,0,1-.19,4.32,5.65,5.65,0,0,1-1.16,1.13,8,8,0,0,1-6.23,1.45,5.11,5.11,0,0,1-3.92-3,7.25,7.25,0,0,1-.64-2.59,3.83,3.83,0,0,0-.41-2l0,0a.21.21,0,0,1-.14-.26,2,2,0,0,0-.81-1,2.87,2.87,0,0,0-4.36,1.11,3.41,3.41,0,0,0-.29,1.25,6.56,6.56,0,0,0,.84,3.41,10.19,10.19,0,0,0,4.27,4.56,4.27,4.27,0,0,0,1.57.87l0,0a16.91,16.91,0,0,0,6.71,1.46,19.72,19.72,0,0,0,6.29-.87"/><path class="cls-15" d="M447.59,207.91a1.55,1.55,0,0,0,1.36-1.56,1.51,1.51,0,0,0-1.36-1.44c-.39,0-.79,0-1.19,0-.24,0-.51.05-.7-.19a3.13,3.13,0,0,1-.08-1.06v-3.24a10.3,10.3,0,0,0-.51-3.3,6.47,6.47,0,0,0-2.68-3.54,6.4,6.4,0,0,0-4.19-1.1,5.78,5.78,0,0,0-.12,1.53,2.84,2.84,0,0,0-.06,1.16c0,.14,0,.28,0,.42-.07.69-.18,1.39-.28,2.08l-.05.09v.1c0,.23-.09.44-.13.66l-1.16,2.79c-.05.09-.09.18-.15.27a2.73,2.73,0,0,0-.66.91l-.24.21a6.63,6.63,0,0,1-3.74,2,7.35,7.35,0,0,0-.84.19,1.56,1.56,0,0,0-1.09,1.35A1.54,1.54,0,0,0,431,207.9c.49.06,1,0,1.51,0,.27,0,.58-.08.85.24,0,.37,0,.79,0,1.22q0,12.54,0,25.06a21.92,21.92,0,0,0,.79,5.87,12.52,12.52,0,0,0,1.35,3.5,1.41,1.41,0,0,0,.08.31,15.82,15.82,0,0,0,4.35,5.3c3.53,2.78,7.66,3.86,12.05,4.19a.52.52,0,0,0,.49-.14,7.19,7.19,0,0,0-.06-2.75l-1.16-.25a5.78,5.78,0,0,1-3.2-1.88,8.74,8.74,0,0,1-1.75-3.08,16,16,0,0,1-.74-5V209.3c0-.22,0-.44,0-.65s0-.44.17-.62a2.22,2.22,0,0,1,.93-.09c.29,0,.58,0,.86,0"/><path class="cls-16" d="M428,252.13a2.19,2.19,0,0,0-.66-1.09,5,5,0,0,1-1.38-2.76,9.37,9.37,0,0,1-.08-1.5q0-13.58,0-27.13c0-.58,0-1.16,0-1.74a7.16,7.16,0,0,0-.44-2.43,6.15,6.15,0,0,0-2.87-3.52,9.68,9.68,0,0,0-6.15-1.1,8.16,8.16,0,0,0-2.86.5,3.74,3.74,0,0,0-1,.57.66.66,0,0,0-.25.76,2.54,2.54,0,0,0,.66,1.1,5.17,5.17,0,0,1,1.34,2.88,12.58,12.58,0,0,1,.1,1.62V245.5a19.49,19.49,0,0,0,.08,2.16,6,6,0,0,0,1.52,3.71,3.41,3.41,0,0,0,.3.44,6.64,6.64,0,0,0,3.11,1.86,12.49,12.49,0,0,0,7.14,0,5.79,5.79,0,0,0,1.08-.49.8.8,0,0,0,.42-1"/><path class="cls-17" d="M425.69,200.8a5.55,5.55,0,0,0-4.32-4.46,5,5,0,0,0-4.82,1.1,5.67,5.67,0,0,0,0,9v.06l.06,0v0a5.76,5.76,0,0,0,9.07-5.77"/><path class="cls-18" d="M389.64,187.14v-9.79h1.75l3,9.25h.16l3-9.25h1.74v9.79h-.86v-9.26h-.17l-3,9.26h-1.6l-3-9.26h-.17v9.26Z"/><path class="cls-18" d="M402.91,187.33a3.33,3.33,0,0,1-1.29-.24,2.22,2.22,0,0,1-.92-.72,2,2,0,0,1-.33-1.15,1.85,1.85,0,0,1,.33-1.13,2.07,2.07,0,0,1,.91-.67,3.46,3.46,0,0,1,1.27-.23h2.49v-.54a1.75,1.75,0,0,0-.47-1.29,1.91,1.91,0,0,0-1.39-.46,2.17,2.17,0,0,0-1.42.44,2.15,2.15,0,0,0-.7,1.18l-.81-.24a3,3,0,0,1,.53-1.08,2.54,2.54,0,0,1,1-.77,3.33,3.33,0,0,1,1.44-.28,2.75,2.75,0,0,1,2,.67,2.45,2.45,0,0,1,.71,1.87V186q0,.42.39.42h.66v.73h-.9a.91.91,0,0,1-.68-.26,1,1,0,0,1-.25-.71v-.1h-.14a2.88,2.88,0,0,1-.47.6,2,2,0,0,1-.75.48A3.21,3.21,0,0,1,402.91,187.33Zm.06-.75a2.42,2.42,0,0,0,1.74-.65,2.48,2.48,0,0,0,.66-1.84v-.17H402.9a2.15,2.15,0,0,0-1.21.31,1.1,1.1,0,0,0-.49,1,1.19,1.19,0,0,0,.5,1A2.1,2.1,0,0,0,403,186.58Z"/><path class="cls-18" d="M408,187.14v-9.79h.84v9.79Z"/><path class="cls-18" d="M412.56,187.33a3.38,3.38,0,0,1-1.3-.24,2.18,2.18,0,0,1-.91-.72,1.91,1.91,0,0,1-.34-1.15,1.79,1.79,0,0,1,.34-1.13,2,2,0,0,1,.91-.67,3.42,3.42,0,0,1,1.27-.23H415v-.54a1.71,1.71,0,0,0-.48-1.29,1.9,1.9,0,0,0-1.38-.46,2,2,0,0,0-2.13,1.62l-.81-.24a3.2,3.2,0,0,1,.53-1.08,2.58,2.58,0,0,1,1-.77,3.33,3.33,0,0,1,1.44-.28,2.77,2.77,0,0,1,2,.67,2.44,2.44,0,0,1,.7,1.87V186a.37.37,0,0,0,.4.42h.65v.73H416a.94.94,0,0,1-.69-.26,1,1,0,0,1-.25-.71v-.1h-.14a2.88,2.88,0,0,1-.47.6,2.06,2.06,0,0,1-.74.48A3.25,3.25,0,0,1,412.56,187.33Zm.05-.75a2.39,2.39,0,0,0,1.74-.65,2.49,2.49,0,0,0,.67-1.84v-.17h-2.48a2.18,2.18,0,0,0-1.21.31,1.09,1.09,0,0,0-.48,1,1.19,1.19,0,0,0,.5,1A2.09,2.09,0,0,0,412.61,186.58Z"/><path class="cls-18" d="M417.66,189.93v-9.59h.81v1.25h.17a2.77,2.77,0,0,1,.91-1,3,3,0,0,1,1.74-.44,3.27,3.27,0,0,1,1.65.42,3.12,3.12,0,0,1,1.18,1.21,3.7,3.7,0,0,1,.44,1.87v.17a3.83,3.83,0,0,1-.43,1.87A3,3,0,0,1,423,186.9a3.25,3.25,0,0,1-1.67.43,3.62,3.62,0,0,1-1.26-.2,2.51,2.51,0,0,1-.86-.53,3,3,0,0,1-.51-.65h-.16v4Zm3.44-3.35a2.52,2.52,0,0,0,1.88-.74,2.83,2.83,0,0,0,.72-2.05v-.11a2.82,2.82,0,0,0-.72-2,2.76,2.76,0,0,0-3.76,0,2.82,2.82,0,0,0-.72,2v.11a2.83,2.83,0,0,0,.72,2.05A2.54,2.54,0,0,0,421.1,186.58Z"/><path class="cls-18" d="M425.85,189.93v-9.59h.81v1.25h.17a2.77,2.77,0,0,1,.91-1,3,3,0,0,1,1.74-.44,3.27,3.27,0,0,1,1.65.42,3.12,3.12,0,0,1,1.18,1.21,3.7,3.7,0,0,1,.45,1.87v.17a3.83,3.83,0,0,1-.44,1.87,3,3,0,0,1-1.17,1.21,3.25,3.25,0,0,1-1.67.43,3.62,3.62,0,0,1-1.26-.2,2.47,2.47,0,0,1-.85-.53,2.69,2.69,0,0,1-.51-.65h-.17v4Zm3.44-3.35a2.52,2.52,0,0,0,1.88-.74,2.83,2.83,0,0,0,.72-2.05v-.11a2.82,2.82,0,0,0-.72-2,2.75,2.75,0,0,0-3.75,0,2.79,2.79,0,0,0-.73,2v.11a2.79,2.79,0,0,0,.73,2.05A2.5,2.5,0,0,0,429.29,186.58Z"/><path class="cls-18" d="M436.66,187.27a3,3,0,0,1-1.35-.3,2.42,2.42,0,0,1-1-.93,3.1,3.1,0,0,1-.37-1.56v-4.14h.84v4.08a2,2,0,0,0,.56,1.6,2.17,2.17,0,0,0,1.5.5,2.36,2.36,0,0,0,1.74-.69,2.81,2.81,0,0,0,.7-2.09v-3.4h.84v6.8h-.81v-1.26h-.17a2.56,2.56,0,0,1-.82,1A2.79,2.79,0,0,1,436.66,187.27Z"/><path class="cls-18" d="M441.74,187.14v-6.8h.81v.85h.17a1.37,1.37,0,0,1,.58-.67,2.26,2.26,0,0,1,1.07-.21h.8v.79h-.9a1.72,1.72,0,0,0-1.23.43,1.81,1.81,0,0,0-.46,1.36v4.25Z"/><path class="cls-18" d="M447.88,187.33a3.3,3.3,0,0,1-1.29-.24,2.22,2.22,0,0,1-.92-.72,2,2,0,0,1-.33-1.15,1.85,1.85,0,0,1,.33-1.13,2.07,2.07,0,0,1,.91-.67,3.46,3.46,0,0,1,1.27-.23h2.49v-.54a1.71,1.71,0,0,0-.48-1.29,1.87,1.87,0,0,0-1.38-.46,2,2,0,0,0-2.12,1.62l-.81-.24a3,3,0,0,1,.53-1.08,2.54,2.54,0,0,1,1-.77,3.33,3.33,0,0,1,1.44-.28,2.75,2.75,0,0,1,2,.67,2.45,2.45,0,0,1,.71,1.87V186q0,.42.39.42h.66v.73h-.9a.91.91,0,0,1-.68-.26,1,1,0,0,1-.25-.71v-.1h-.14a2.88,2.88,0,0,1-.47.6,2,2,0,0,1-.75.48A3.21,3.21,0,0,1,447.88,187.33Zm.06-.75a2.42,2.42,0,0,0,1.74-.65,2.48,2.48,0,0,0,.66-1.84v-.17h-2.47a2.15,2.15,0,0,0-1.21.31,1.1,1.1,0,0,0-.49,1,1.19,1.19,0,0,0,.5,1A2.1,2.1,0,0,0,447.94,186.58Z"/><path class="cls-18" d="M453,187.14v-6.8h.81v.9H454a2.12,2.12,0,0,1,.67-.71,2.26,2.26,0,0,1,1.32-.33,2.18,2.18,0,0,1,1.33.38,2.06,2.06,0,0,1,.73.91h.17a2.32,2.32,0,0,1,.74-.91,2.35,2.35,0,0,1,1.42-.38,2.46,2.46,0,0,1,1.21.29,2,2,0,0,1,.81.79,2.35,2.35,0,0,1,.3,1.2v4.66h-.84v-4.58a1.58,1.58,0,0,0-.44-1.16,1.67,1.67,0,0,0-1.24-.44,1.9,1.9,0,0,0-1.36.52,2,2,0,0,0-.54,1.53v4.13h-.84v-4.58a1.58,1.58,0,0,0-.44-1.16,1.65,1.65,0,0,0-1.24-.44,1.86,1.86,0,0,0-1.35.52,2,2,0,0,0-.55,1.53v4.13Z"/><path class="cls-18" d="M466.93,187.14v-9.79h5.92v.81h-5v3.66h4.63v.81h-4.63v3.69h5.07v.82Z"/><path class="cls-18" d="M476.13,187.33a3.37,3.37,0,0,1-1.29-.24,2.22,2.22,0,0,1-.92-.72,2,2,0,0,1-.33-1.15,1.85,1.85,0,0,1,.33-1.13,2.07,2.07,0,0,1,.91-.67,3.46,3.46,0,0,1,1.27-.23h2.49v-.54a1.75,1.75,0,0,0-.47-1.29,1.91,1.91,0,0,0-1.39-.46,2.17,2.17,0,0,0-1.42.44,2.15,2.15,0,0,0-.7,1.18l-.81-.24a3.2,3.2,0,0,1,.53-1.08,2.54,2.54,0,0,1,1-.77,3.33,3.33,0,0,1,1.44-.28,2.75,2.75,0,0,1,2,.67,2.41,2.41,0,0,1,.71,1.87V186q0,.42.39.42h.66v.73h-.9a.93.93,0,0,1-.68-.26,1,1,0,0,1-.25-.71v-.1h-.14a2.88,2.88,0,0,1-.47.6,2,2,0,0,1-.75.48A3.21,3.21,0,0,1,476.13,187.33Zm.06-.75a2.4,2.4,0,0,0,1.74-.65,2.48,2.48,0,0,0,.66-1.84v-.17h-2.47a2.15,2.15,0,0,0-1.21.31,1.09,1.09,0,0,0-.48,1,1.18,1.18,0,0,0,.49,1A2.1,2.1,0,0,0,476.19,186.58Z"/><path class="cls-18" d="M483.88,187.33a3.64,3.64,0,0,1-2.11-.59,2.66,2.66,0,0,1-1.07-1.94l.83-.15a2.32,2.32,0,0,0,.45,1.16,1.87,1.87,0,0,0,.84.61,3.06,3.06,0,0,0,1.06.18,2.39,2.39,0,0,0,1.35-.34,1.07,1.07,0,0,0,.51-.94.86.86,0,0,0-.49-.85,4.55,4.55,0,0,0-1.28-.38l-.64-.11a4.92,4.92,0,0,1-1.16-.35,2.08,2.08,0,0,1-.82-.62,1.57,1.57,0,0,1-.3-1,1.61,1.61,0,0,1,.69-1.38,3.63,3.63,0,0,1,3.71,0,2.31,2.31,0,0,1,.89,1.52l-.79.16a1.56,1.56,0,0,0-.66-1.14,2.34,2.34,0,0,0-1.31-.34,2.24,2.24,0,0,0-1.23.3.94.94,0,0,0-.46.86.88.88,0,0,0,.42.82,3.22,3.22,0,0,0,1.15.38l.64.12a5.51,5.51,0,0,1,1.26.33,2.13,2.13,0,0,1,.89.6,1.61,1.61,0,0,1,.32,1,1.74,1.74,0,0,1-.72,1.49A3.31,3.31,0,0,1,483.88,187.33Z"/><path class="cls-18" d="M490,187.14a1.1,1.1,0,0,1-.81-.28,1.06,1.06,0,0,1-.28-.79v-5h-2.18v-.76h2.18V177.8h.84v2.54h2.38v.76h-2.38V186a.37.37,0,0,0,.42.42h1.59v.76Z"/><path class="cls-18" d="M495.38,187.14v-.82h1.4v-8.16h-1.4v-.81h3.72a4.24,4.24,0,0,1,3,1,3.88,3.88,0,0,1,1.07,3v1.8a3.85,3.85,0,0,1-1.07,3,4.29,4.29,0,0,1-3,1Zm2.29-.82h1.43a3.35,3.35,0,0,0,2.35-.74,3.09,3.09,0,0,0,.81-2.39v-1.88a3.1,3.1,0,0,0-.81-2.4,3.4,3.4,0,0,0-2.35-.74h-1.43Z"/><path class="cls-18" d="M504.77,179.17a.69.69,0,0,1-.51-.21.72.72,0,0,1-.21-.52.69.69,0,0,1,.21-.52.69.69,0,0,1,.51-.21.71.71,0,0,1,.53.21.72.72,0,0,1,.2.52.75.75,0,0,1-.2.52A.71.71,0,0,1,504.77,179.17Zm-.42,8v-6.8h.84v6.8Z"/><path class="cls-18" d="M509.51,187.33a3.6,3.6,0,0,1-2.1-.59,2.66,2.66,0,0,1-1.07-1.94l.82-.15a2.42,2.42,0,0,0,.46,1.16,1.87,1.87,0,0,0,.84.61,3,3,0,0,0,1.05.18,2.37,2.37,0,0,0,1.35-.34,1.07,1.07,0,0,0,.51-.94.86.86,0,0,0-.48-.85,4.66,4.66,0,0,0-1.28-.38L509,184a4.78,4.78,0,0,1-1.16-.35A2,2,0,0,1,507,183a1.57,1.57,0,0,1-.3-1,1.61,1.61,0,0,1,.69-1.38,3,3,0,0,1,1.84-.5,3.07,3.07,0,0,1,1.87.52,2.3,2.3,0,0,1,.88,1.52l-.78.16a1.56,1.56,0,0,0-.66-1.14,2.34,2.34,0,0,0-1.31-.34,2.24,2.24,0,0,0-1.23.3.94.94,0,0,0-.46.86.88.88,0,0,0,.42.82,3.23,3.23,0,0,0,1.14.38l.65.12a5.56,5.56,0,0,1,1.25.33,2.06,2.06,0,0,1,.89.6,1.56,1.56,0,0,1,.33,1,1.72,1.72,0,0,1-.73,1.49A3.29,3.29,0,0,1,509.51,187.33Z"/><path class="cls-18" d="M515.65,187.14a1.13,1.13,0,0,1-.82-.28,1.1,1.1,0,0,1-.27-.79v-5h-2.18v-.76h2.18V177.8h.84v2.54h2.38v.76H515.4V186a.37.37,0,0,0,.42.42h1.59v.76Z"/><path class="cls-18" d="M518.81,187.14v-6.8h.81v.85h.17a1.33,1.33,0,0,1,.58-.67,2.23,2.23,0,0,1,1.07-.21h.79v.79h-.89a1.72,1.72,0,0,0-1.23.43,1.78,1.78,0,0,0-.46,1.36v4.25Z"/><path class="cls-18" d="M523.55,179.17A.7.7,0,0,1,523,179a.72.72,0,0,1-.21-.52.69.69,0,0,1,.21-.52.7.7,0,0,1,.52-.21.69.69,0,0,1,.52.21.68.68,0,0,1,.2.52.71.71,0,0,1-.2.52A.69.69,0,0,1,523.55,179.17Zm-.42,8v-6.8H524v6.8Z"/><path class="cls-18" d="M528.69,187.33a3.57,3.57,0,0,1-1.77-.43,3.11,3.11,0,0,1-1.22-1.22,3.72,3.72,0,0,1-.45-1.87v-.14a3.71,3.71,0,0,1,.45-1.88,3.18,3.18,0,0,1,1.22-1.22,3.67,3.67,0,0,1,1.77-.42,3.39,3.39,0,0,1,1.66.37,2.82,2.82,0,0,1,1.06,1,3,3,0,0,1,.48,1.25l-.82.17a2.49,2.49,0,0,0-.35-1,2.11,2.11,0,0,0-.78-.73,2.89,2.89,0,0,0-2.58.07,2.48,2.48,0,0,0-.93,1,3.07,3.07,0,0,0-.34,1.47v.11a3.14,3.14,0,0,0,.34,1.48,2.46,2.46,0,0,0,.93,1,2.62,2.62,0,0,0,1.33.35,2.36,2.36,0,0,0,1.71-.58,2.52,2.52,0,0,0,.72-1.42l.83.16a3.3,3.3,0,0,1-.53,1.26,3,3,0,0,1-1.07,1A3.39,3.39,0,0,1,528.69,187.33Z"/><path class="cls-18" d="M535.35,187.14a1.11,1.11,0,0,1-.82-.28,1.1,1.1,0,0,1-.27-.79v-5h-2.19v-.76h2.19V177.8h.83v2.54h2.38v.76h-2.38V186a.37.37,0,0,0,.42.42h1.6v.76Z"/></g></svg>