<?xml version="1.0" encoding="UTF-8"?>
<svg id="Layer_2" xmlns="http://www.w3.org/2000/svg" xmlns:xlink="http://www.w3.org/1999/xlink" viewBox="0 0 1098.56 157.88">
  <defs>
    <style>
      .cls-1 {
        fill: #c1b06c;
      }

      .cls-2 {
        fill: #fff;
      }

      .cls-3 {
        fill: #e8d587;
      }

      .cls-4 {
        fill: none;
      }

      .cls-5 {
        fill: #69b295;
      }

      .cls-6 {
        fill: #e7d488;
        stroke: #e7d488;
        stroke-miterlimit: 10;
        stroke-width: 2px;
      }

      .cls-7 {
        fill: #c45180;
      }

      .cls-8 {
        fill: #812f8a;
      }

      .cls-9 {
        fill: #d35f59;
      }

      .cls-10 {
        clip-path: url(#clippath);
      }
    </style>
    <clipPath id="clippath">
      <path class="cls-4" d="M1098.56,115.57C735.33,255.61,363.22-24.46,0,115.57,0,91.15,0,66.73,0,42.3c363.22-140.04,735.33,140.04,1098.56,0,0,24.42,0,48.85,0,73.27Z"/>
    </clipPath>
  </defs>
  <g id="Layer_1-2" data-name="Layer_1">
    <g class="cls-10">
      <g>
        <g>
          <path class="cls-9" d="M146.43,78.32c-24.74,3.27-48.99,7.74-73.26,13.56,0-24.42,0-48.84,0-73.26,24.27-5.82,48.52-10.29,73.26-13.56v73.26Z"/>
          <path class="cls-7" d="M366.19,83.01c-24.38-3.15-48.75-5.71-73.26-7.56,0-24.42,0-48.84,0-73.26,24.51,1.84,48.88,4.41,73.26,7.56,0,24.42,0,48.84,0,73.26Z"/>
          <path class="cls-5" d="M73.26,91.86C48.29,98.4,24.07,106.25,0,115.58,0,91.16,0,66.74,0,42.32c24.07-9.33,48.29-17.17,73.26-23.71,0,24.42,0,48.84,0,73.26Z"/>
          <path class="cls-8" d="M292.94,75.45c-24.44-1.55-48.77-2.29-73.26-2.08,0-24.42,0-48.84,0-73.26,24.49-.21,48.82.54,73.26,2.08,0,24.42,0,48.84,0,73.26Z"/>
          <g>
            <path class="cls-2" d="M37.15,88.13c-1.8.58-2.7.87-4.5,1.47,0-10.11,0-20.22,0-30.34,1.8-.6,2.7-.89,4.5-1.47,0,10.11,0,20.22,0,30.34Z"/>
            <path class="cls-2" d="M46.57,47.23c-4.6,5.99-6.9,9.02-11.5,15.12-.07-.05-.1-.07-.17-.11-.07.09-.1.13-.17.22-4.6-3.1-6.91-4.62-11.51-7.61,1.62-2.19,2.44-3.29,4.06-5.47,3.05,2,4.57,3.02,7.62,5.07,3.05-4.04,4.57-6.05,7.62-10.04,1.62,1.12,2.43,1.68,4.05,2.82Z"/>
            <path class="cls-2" d="M48.21,66.53c-4.6,5.98-6.9,9-11.5,15.08-1.62-1.1-2.44-1.65-4.06-2.73,4.6-6.12,6.9-9.16,11.5-15.18,1.62,1.12,2.44,1.69,4.06,2.83Z"/>
            <path class="cls-2" d="M37.87,45.05c-1.19,1.57-1.78,2.35-2.97,3.93-1.19-.8-1.78-1.2-2.97-1.99,1.19-1.58,1.78-2.37,2.97-3.95,1.19.8,1.78,1.2,2.97,2.01Z"/>
          </g>
          <path class="cls-6" d="M125.85,67.44c-10.76,1.79-21.41,3.75-32.11,5.92v-38.16c3.19-3.86,4.78-5.78,7.96-9.6,6.47-1.28,9.71-1.88,16.18-2.98,3.19,2.64,4.78,3.98,7.96,6.66v38.16ZM97.44,68.9c9.89-2.04,14.84-2.95,24.73-4.56V31.4c-2.32-1.94-3.48-2.91-5.8-4.83-5.25.91-7.87,1.39-13.12,2.42-2.32,2.78-3.48,4.17-5.8,6.97,0,10.98,0,21.96,0,32.94Z"/>
          <g>
            <g>
              <path class="cls-3" d="M243.29,31.68c-.59,0-.89-.01-1.48-.02-.39.39-.59.58-.98.97v6.05c-.23.22-.35.33-.58.55-1.19-.01-1.78-.02-2.97-.02-.23-.22-.35-.34-.58-.56v-6.05c-.39-.39-.59-.59-.98-.99-.59,0-.89,0-1.48,0-.39.39-.59.59-.98.98v16.71c.39.39.59.59.98.98.59,0,.89,0,1.48,0,.39-.39.59-.59.98-.98v-6.07c.23-.22.35-.33.58-.55,1.19,0,1.78.01,2.97.02.23.23.35.34.58.56v6.07c.39.4.59.6.98.99.59,0,.89.01,1.48.02.4-.39.6-.58,1.01-.97v-16.71c-.4-.4-.6-.6-1.01-1Z"/>
              <path class="cls-3" d="M253.5,31.97c-2.32-.06-3.49-.09-5.81-.13-1.04,1.01-1.56,1.51-2.6,2.53v13.42c1.04,1.06,1.56,1.59,2.6,2.65,2.32.04,3.48.07,5.81.13,1.04-1.01,1.56-1.52,2.6-2.53v-13.42c-1.04-1.06-1.56-1.59-2.6-2.64ZM252.65,40.86s0,0-.01-.01v4.88s0,0,.01.01v.77c-.23.23-.35.34-.58.57-1.18-.03-1.77-.04-2.94-.07-.23-.24-.35-.36-.58-.6v-.6h0v-9.52h0v-.43c.23-.22.35-.33.58-.54,1.18.02,1.77.04,2.94.07.23.23.35.34.58.57v4.91Z"/>
              <path class="cls-3" d="M265.3,32.33c-2.97-.12-4.46-.17-7.43-.26-.39.38-.59.57-.98.95v16.66c.39.4.59.61.98,1.01.59.02.89.03,1.49.05.39-.38.59-.57.98-.95v-6.6c1.98.07,2.98.1,4.96.18,1.04-1,1.56-1.5,2.6-2.49v-5.83c-1.04-1.08-1.56-1.63-2.6-2.71ZM264.45,39.3c-.23.22-.35.34-.58.56-1.18-.04-1.77-.07-2.94-.11-.23-.24-.35-.36-.58-.6v-2.97c.23-.23.35-.34.58-.56,1.18.04,1.77.06,2.94.11.23.24.35.36.58.61v2.97Z"/>
              <path class="cls-3" d="M272.78,36.18c2.43.12,3.64.18,6.07.31.39-.37.59-.56.98-.93v-1.48c-.39-.41-.59-.62-.98-1.04-3.66-.2-5.49-.29-9.15-.45-.4.37-.6.56-1.01.94v16.58c.4.41.6.62,1.01,1.03,3.66.16,5.49.25,9.15.45.39-.37.59-.56.98-.93v-1.46c-.39-.41-.59-.62-.98-1.04-2.43-.13-3.64-.2-6.07-.31-.23-.24-.35-.37-.58-.61v-2.97c.23-.22.35-.33.58-.56,1,.05,1.5.07,2.49.12.4-.37.6-.56,1.01-.93v-1.46c-.4-.41-.6-.62-1.01-1.03-1-.05-1.5-.08-2.49-.12-.23-.23-.35-.35-.58-.58v-3c.23-.21.35-.32.58-.53Z"/>
            </g>
            <g>
              <path class="cls-3" d="M236.54,23.07c-1.27,0-1.91,0-3.19-.01-.14.14-.21.2-.35.34v5.77c.14.14.21.21.35.34.21,0,.31,0,.52,0,.14-.14.21-.2.35-.34v-2.09c.08-.08.12-.12.2-.2.35,0,.52,0,.87,0,.14-.14.21-.2.35-.34v-.51c-.14-.14-.21-.21-.35-.34-.35,0-.52,0-.87,0-.08-.08-.12-.12-.2-.19v-1.04c.08-.08.12-.12.2-.19.85,0,1.27,0,2.11,0,.14-.14.21-.2.34-.34v-.52c-.14-.14-.21-.21-.34-.34Z"/>
              <path class="cls-3" d="M239.14,24.28c.85,0,1.27.01,2.11.02.14-.14.21-.2.34-.34v-.52c-.14-.14-.21-.21-.34-.35-1.27-.01-1.91-.02-3.19-.03-.14.14-.21.2-.35.34v5.77c.14.14.21.21.35.34,1.27,0,1.91.02,3.19.03.14-.14.21-.2.34-.34v-.51c-.14-.14-.21-.21-.34-.35-.85,0-1.27-.01-2.11-.02-.08-.08-.12-.12-.2-.2v-1.04c.08-.08.12-.12.2-.2.35,0,.52,0,.87,0,.14-.14.21-.2.35-.34v-.51c-.14-.14-.21-.21-.35-.35-.35,0-.52,0-.87,0-.08-.08-.12-.12-.2-.2v-1.04c.08-.08.12-.12.2-.19Z"/>
              <path class="cls-3" d="M245.39,25.28c.21,0,.31,0,.52,0,.14-.13.21-.2.34-.34v-.88c-.36-.36-.54-.55-.91-.91-.81-.01-1.21-.02-2.02-.03-.36.35-.54.53-.9.88v2.03c.36.36.54.54.9.91.61,0,.92.01,1.53.02.08.08.12.12.19.21v1.04c-.08.08-.12.11-.19.19-.41,0-.62,0-1.03-.02-.08-.08-.12-.12-.19-.2v-.39c-.14-.14-.2-.21-.34-.35-.21,0-.31,0-.52,0-.14.13-.2.2-.34.34v.89c.36.36.54.54.9.91.81.01,1.21.02,2.02.03.36-.35.54-.53.91-.88v-2.03c-.36-.37-.54-.55-.91-.92-.61,0-.91-.01-1.52-.02-.08-.08-.12-.12-.19-.2v-1.03c.08-.08.12-.12.19-.2.41,0,.62,0,1.03.02.08.08.12.12.19.21v.38c.14.14.2.21.34.35Z"/>
              <path class="cls-3" d="M250.57,23.25c-1.26-.03-1.88-.04-3.14-.07-.14.13-.21.2-.34.34v.51c.14.14.21.21.34.35.39,0,.58.01.97.02v4.93c.14.14.21.21.34.35.21,0,.31,0,.52.01.14-.13.21-.2.34-.33v-4.92c.39,0,.58.01.97.02.14-.13.2-.2.34-.33v-.52c-.14-.14-.2-.21-.34-.35Z"/>
              <path class="cls-3" d="M255.24,24.54c.14-.13.21-.2.35-.33v-.52c-.14-.14-.21-.21-.35-.35-1.26-.04-1.9-.05-3.16-.08-.14.13-.2.2-.34.33v.52c.14.14.2.21.34.35.39,0,.59.01.98.02v4.1c-.39-.01-.59-.01-.98-.02-.14.13-.2.2-.34.33v.52c.14.14.2.21.34.35,1.26.03,1.9.05,3.16.08.14-.13.21-.2.35-.33v-.52c-.14-.14-.21-.21-.35-.35-.39-.01-.59-.02-.98-.03v-4.1c.39.01.59.02.98.03Z"/>
              <path class="cls-3" d="M259.32,23.51c-.21,0-.31-.01-.52-.02-.14.13-.2.2-.34.33,0,1.58,0,2.37,0,3.95-.28.28-.43.41-.71.69-.28-.29-.43-.44-.71-.73v-3.95c-.14-.14-.2-.21-.34-.35-.21,0-.31,0-.52-.02-.14.13-.21.2-.34.33v4.44c.67.69,1,1.03,1.67,1.72.19,0,.29,0,.48.01.67-.65,1-.97,1.67-1.62v-4.44c-.14-.14-.2-.21-.34-.35Z"/>
              <path class="cls-3" d="M263.46,23.65c-.82-.03-1.23-.05-2.05-.07-.37.35-.55.52-.91.87v5.21c.14.14.21.21.35.35.21,0,.31.01.52.02.14-.13.21-.2.35-.33v-2.09c.08-.08.12-.12.2-.2.42.01.63.02,1.04.04.08.08.12.13.2.21v2.09c.14.14.21.21.34.35.21,0,.32.01.53.02.14-.13.21-.2.34-.33v-5.21c-.37-.38-.55-.56-.91-.94ZM263.16,26.08c-.08.07-.12.11-.2.19-.42-.02-.63-.02-1.04-.04-.08-.08-.12-.12-.2-.2v-1.04c.08-.07.12-.11.2-.19.42.01.63.02,1.04.04.08.08.12.12.2.2v1.04Z"/>
              <path class="cls-3" d="M268.87,28.26c-.21,0-.31-.01-.52-.02-.14.13-.2.2-.34.33,0,.13,0,.19,0,.32-.08.08-.12.12-.2.19-.41-.02-.62-.03-1.03-.04-.08-.08-.12-.13-.2-.21,0-1.9,0-2.85,0-4.76-.14-.15-.2-.22-.34-.36-.21,0-.31-.01-.52-.02-.14.13-.21.2-.35.34v5.26c.36.38.54.56.91.94.81.03,1.22.05,2.03.09.36-.35.54-.52.91-.87,0-.33,0-.49,0-.82-.14-.14-.2-.21-.34-.36Z"/>
              <path class="cls-3" d="M273.99,24.09c-.81-.04-1.21-.06-2.02-.1-.36.34-.54.51-.91.85v4.67c.36.38.54.57.91.95.81.04,1.21.06,2.02.1.36-.34.54-.52.91-.86,0-1.87,0-2.8,0-4.67-.36-.38-.54-.57-.91-.94ZM273.7,27.18s0,0-.01-.01v1.7s0,0,.01.01v.27c-.08.08-.12.12-.2.19-.41-.02-.62-.03-1.03-.05-.08-.08-.12-.13-.2-.21v-.2s0,0,0,0c0-1.35,0-2.03,0-3.38h0v-.1c.08-.07.12-.11.2-.18.41.02.62.03,1.03.05.08.08.12.12.2.2v1.71Z"/>
              <path class="cls-3" d="M279.26,24.38c-1.27-.07-1.91-.1-3.19-.17-.14.13-.21.19-.35.32v5.77c.14.14.21.22.35.36.21.01.31.02.52.03.14-.13.21-.19.35-.32v-2.09c.08-.08.12-.12.2-.19.35.02.52.03.87.05.14-.13.21-.19.35-.32v-.51c-.14-.14-.21-.22-.35-.36-.35-.02-.52-.03-.87-.05-.08-.08-.12-.12-.2-.2v-1.04c.08-.07.12-.11.2-.18.85.04,1.27.07,2.12.11.14-.13.2-.19.34-.32v-.52c-.14-.14-.2-.22-.34-.36Z"/>
            </g>
          </g>
          <g>
            <path class="cls-1" d="M219.68,73.37c-24.56.59-48.85,2.19-73.26,4.96V5.07C170.83,2.3,195.13.69,219.68.11v73.26Z"/>
            <g>
              <path class="cls-2" d="M182.94,59.29c-6.24-5.82-9.36-8.7-15.6-14.37,1.31-1.43,1.96-2.14,3.27-3.56,6.24,5.71,9.36,8.6,15.6,14.45-1.31,1.39-1.96,2.09-3.27,3.48Z"/>
              <g>
                <path class="cls-2" d="M186.46,41.43c-1.36,1.45-2.05,2.17-3.41,3.63-1.36-1.27-2.05-1.91-3.41-3.17,1.36-1.46,2.05-2.19,3.41-3.65,1.36,1.27,2.05,1.91,3.41,3.19Z"/>
                <path class="cls-2" d="M179.82,56.35c6.24-6.68,9.36-9.99,15.6-16.53,1.31,1.24,1.96,1.87,3.27,3.12-6.24,6.52-9.36,9.81-15.6,16.46-1.31-1.22-1.96-1.83-3.27-3.05Z"/>
                <path class="cls-2" d="M179.64,35.07c1.36-1.46,2.05-2.19,3.41-3.65,1.36,1.27,2.05,1.91,3.41,3.19-1.36,1.45-2.05,2.17-3.41,3.63-1.36-1.27-2.05-1.91-3.41-3.17Z"/>
                <path class="cls-2" d="M183.16,17.19c6.24,5.82,9.36,8.77,15.6,14.73-1.31,1.37-1.96,2.05-3.27,3.42-6.24-5.93-9.36-8.87-15.6-14.66,1.31-1.4,1.96-2.1,3.27-3.5Z"/>
                <path class="cls-2" d="M186.28,20.15c-6.24,6.63-9.36,9.97-15.6,16.74-1.31-1.2-1.96-1.79-3.27-2.98,6.24-6.8,9.36-10.16,15.6-16.82,1.31,1.22,1.96,1.83,3.27,3.06Z"/>
              </g>
            </g>
          </g>
          <g>
            <path class="cls-2" d="M329.79,21.61c.43.28.58.65.57,1.14-.03,1.12,0,2.25-.01,3.38,0,.47-.22.76-.6.81-.52.07-.99-.34-.99-.9-.01-1.24,0-2.47,0-3.7,0-.42.25-.62.56-.78.16.02.32.03.48.05Z"/>
            <path class="cls-2" d="M349.99,44.55c-.24.4-.59.51-1.08.44-1.1-.16-2.2-.27-3.3-.4-.16-.02-.32-.05-.47-.12-.36-.17-.55-.53-.5-.91.05-.37.35-.63.77-.58,1.26.14,2.52.29,3.78.44.4.05.61.34.8.65v.48Z"/>
            <path class="cls-2" d="M312.61,51c-.45-.08-.7-.28-.82-.65-.12-.36.02-.71.37-.89.67-.34,1.36-.67,2.03-1,.39-.19.78-.39,1.17-.57.45-.21.92-.05,1.14.37.23.42.1.87-.35,1.09-1.04.52-2.09,1.02-3.14,1.52-.15.07-.31.1-.41.12Z"/>
            <path class="cls-2" d="M337.63,29.94c-.72-.08-1.14-.73-.86-1.22.63-1.08,1.3-2.14,1.97-3.19.21-.33.68-.34,1.03-.1.35.24.52.7.32,1.03-.64,1.08-1.29,2.14-1.97,3.19-.11.18-.39.23-.49.29Z"/>
            <path class="cls-2" d="M312.67,29.77c.08.04.26.11.42.22,1,.66,2,1.33,3,2,.5.34.66.8.42,1.2-.24.4-.71.45-1.21.12-1.04-.69-2.07-1.38-3.1-2.07-.38-.25-.52-.63-.41-.98.1-.33.43-.54.88-.49Z"/>
            <path class="cls-2" d="M343.36,36.4c-.43-.06-.75-.33-.84-.69-.1-.39.04-.68.37-.84.53-.26,1.08-.5,1.62-.75.53-.24,1.06-.49,1.59-.73.46-.2.91-.04,1.15.38.24.43.11.87-.34,1.08-1.05.5-2.11.98-3.17,1.46-.13.06-.29.08-.37.1Z"/>
            <path class="cls-2" d="M311.8,39.51c.6.05,1.19.1,1.79.16.56.05.89.39.89.88,0,.48-.34.76-.89.72-1.19-.1-2.39-.21-3.58-.32-.53-.05-.89-.42-.88-.89.01-.45.36-.74.88-.7.6.04,1.19.1,1.79.15Z"/>
            <path class="cls-2" d="M343.39,50.67c.09.05.26.11.4.21,1.03.7,2.05,1.41,3.07,2.13.48.34.63.8.4,1.18-.23.38-.7.43-1.18.11-1.05-.72-2.1-1.45-3.14-2.18-.39-.27-.53-.64-.41-.99.11-.34.42-.53.86-.47Z"/>
            <path class="cls-2" d="M328.76,59.67c0-.6,0-1.19,0-1.79,0-.55.32-.85.81-.8.47.05.78.42.78.95,0,1.21,0,2.42,0,3.62,0,.51-.33.83-.79.79-.47-.04-.8-.44-.8-.98,0-.6,0-1.19,0-1.79Z"/>
            <path class="cls-2" d="M322.42,55.1c-.04.09-.08.27-.17.42-.58.97-1.18,1.94-1.77,2.9-.28.45-.73.55-1.14.27-.41-.28-.51-.75-.24-1.2.6-.99,1.2-1.98,1.81-2.96.21-.34.56-.46.9-.33.35.13.59.46.6.9Z"/>
            <path class="cls-2" d="M337.64,55.81c.11.09.39.24.52.46.66,1.15,1.28,2.32,1.9,3.48.23.43.09.87-.28,1.05-.38.19-.85.03-1.1-.42-.64-1.15-1.26-2.29-1.87-3.45-.31-.6.05-1.2.82-1.12Z"/>
            <path class="cls-2" d="M322.42,27.47c0,.44-.23.73-.59.79-.38.07-.69-.1-.89-.44-.29-.5-.56-1.02-.84-1.53-.34-.62-.68-1.23-1.01-1.86-.26-.49-.15-.96.27-1.14.4-.18.84,0,1.11.48.6,1.09,1.2,2.18,1.79,3.28.08.15.13.33.16.42Z"/>
          </g>
        </g>
        <g>
          <path class="cls-9" d="M512.62,108.27c-24.39-4.79-48.79-9.44-73.26-13.81,0-24.42,0-48.84,0-73.26,24.47,4.37,48.87,9.02,73.26,13.81,0,24.42,0,48.84,0,73.26Z"/>
          <path class="cls-7" d="M732.37,148.14c-24.5-3.37-48.89-7.24-73.26-11.47,0-24.42,0-48.84,0-73.26,24.37,4.23,48.76,8.1,73.26,11.47,0,24.42,0,48.84,0,73.26Z"/>
          <path class="cls-5" d="M439.45,94.48c-24.37-4.23-48.76-8.1-73.26-11.47,0-24.42,0-48.84,0-73.26,24.5,3.37,48.89,7.24,73.26,11.47,0,24.42,0,48.84,0,73.26Z"/>
          <path class="cls-8" d="M659.12,136.67c-24.47-4.37-48.87-9.02-73.26-13.81,0-24.42,0-48.84,0-73.26,24.39,4.79,48.79,9.44,73.26,13.81,0,24.42,0,48.84,0,73.26Z"/>
          <g>
            <path class="cls-2" d="M403.33,74.38c-1.8-.28-2.7-.42-4.5-.7,0-10.11,0-20.22,0-30.34,1.8.28,2.7.42,4.5.7,0,10.11,0,20.22,0,30.34Z"/>
            <path class="cls-2" d="M412.76,37.93c-4.6,3.85-6.9,5.78-11.5,9.66-.07-.08-.1-.12-.17-.19-.07.06-.1.08-.17.14-4.6-5.32-6.91-7.97-11.51-13.26,1.62-1.38,2.44-2.07,4.06-3.45,3.05,3.51,4.57,5.27,7.62,8.79,3.05-2.57,4.57-3.85,7.62-6.41,1.62,1.89,2.43,2.83,4.05,4.72Z"/>
            <path class="cls-2" d="M414.4,57.99c-4.6,3.85-6.9,5.78-11.5,9.66-1.62-1.88-2.44-2.82-4.06-4.69,4.6-3.89,6.9-5.82,11.5-9.68,1.62,1.89,2.44,2.83,4.06,4.72Z"/>
            <path class="cls-2" d="M404.06,31.64c-1.19,1-1.78,1.5-2.97,2.5-1.19-1.37-1.78-2.06-2.97-3.43,1.19-1,1.78-1.51,2.97-2.51,1.19,1.37,1.78,2.06,2.97,3.44Z"/>
          </g>
          <path class="cls-6" d="M492.04,90.49c-10.7-2.06-21.4-4.08-32.11-6.08,0-12.72,0-25.44,0-38.16,3.19-2.6,4.78-3.9,7.96-6.49,6.47,1.21,9.71,1.82,16.18,3.06,3.19,3.8,4.78,5.7,7.96,9.5,0,12.72,0,25.44,0,38.16ZM463.62,81.4c9.89,1.83,14.84,2.78,24.73,4.68v-32.94c-2.32-2.77-3.48-4.15-5.8-6.92-5.25-1-7.87-1.5-13.12-2.49-2.32,1.89-3.48,2.83-5.8,4.72v32.94Z"/>
          <g>
            <g>
              <path class="cls-3" d="M609.48,85.81c-.59-.11-.89-.17-1.48-.29-.39.32-.59.47-.98.79v6.05c-.23.18-.35.27-.58.44-1.19-.23-1.78-.35-2.97-.58-.23-.27-.35-.4-.58-.67v-6.05c-.39-.47-.59-.7-.98-1.17-.59-.12-.89-.17-1.48-.29-.39.32-.59.47-.98.79v16.71c.39.47.59.7.98,1.17.59.12.89.17,1.48.29.39-.32.59-.47.98-.79v-6.07c.23-.18.35-.27.58-.44,1.19.23,1.78.35,2.97.58.23.27.35.4.58.67v6.07c.39.47.59.7.98,1.17.59.11.89.17,1.48.29.4-.31.6-.47,1.01-.79v-16.71c-.4-.47-.6-.7-1.01-1.17Z"/>
              <path class="cls-3" d="M619.69,87.85c-2.32-.44-3.49-.66-5.81-1.11-1.04.83-1.56,1.24-2.6,2.07v13.42c1.04,1.24,1.56,1.86,2.6,3.1,2.32.45,3.48.67,5.81,1.11,1.04-.84,1.56-1.26,2.6-2.11,0-5.37,0-8.05,0-13.42-1.04-1.23-1.56-1.84-2.6-3.07ZM618.84,96.6s0,0-.01-.02v4.88s0,0,.01.02v.77c-.23.19-.35.28-.58.47-1.18-.22-1.77-.34-2.94-.56-.23-.28-.35-.42-.58-.7v-.6h0v-9.52h0v-.43c.23-.18.35-.27.58-.45,1.18.23,1.77.34,2.94.56.23.27.35.4.58.67v4.91Z"/>
              <path class="cls-3" d="M631.49,90.05c-2.97-.55-4.46-.83-7.43-1.39-.39.32-.59.48-.98.8v16.66c.39.47.59.7.98,1.17.59.11.89.17,1.49.28.39-.32.59-.48.98-.8,0-2.64,0-3.96,0-6.6,1.98.37,2.98.56,4.96.93,1.04-.85,1.56-1.27,2.6-2.12v-5.83c-1.04-1.23-1.56-1.85-2.6-3.08ZM630.64,96.89c-.23.19-.35.28-.58.47-1.18-.22-1.77-.33-2.94-.55-.23-.28-.35-.42-.58-.69v-2.97c.23-.19.35-.28.58-.47,1.18.22,1.77.33,2.94.55.23.28.35.42.58.69v2.97Z"/>
              <path class="cls-3" d="M638.97,94.96c2.43.45,3.64.67,6.07,1.11.39-.32.59-.48.98-.8v-1.48c-.39-.46-.59-.7-.98-1.16-3.66-.67-5.49-1-9.15-1.68-.4.32-.6.48-1.01.79,0,6.63,0,9.95,0,16.58.4.47.6.7,1.01,1.17,3.66.68,5.49,1.01,9.15,1.68.39-.32.59-.48.98-.8v-1.46c-.39-.46-.59-.7-.98-1.16-2.43-.44-3.64-.66-6.07-1.11-.23-.28-.35-.41-.58-.69,0-1.19,0-1.78,0-2.97.23-.19.35-.29.58-.48,1,.18,1.5.28,2.49.46.4-.32.6-.48,1.01-.8v-1.46c-.4-.47-.6-.7-1.01-1.17-1-.18-1.5-.27-2.49-.46-.23-.27-.35-.4-.58-.66v-3c.23-.18.35-.27.58-.45Z"/>
            </g>
            <g>
              <path class="cls-3" d="M602.73,75.95c-1.27-.25-1.91-.37-3.19-.62-.14.11-.21.16-.35.27v5.77c.14.16.21.25.35.41.21.04.31.06.52.1.14-.11.21-.16.35-.27v-2.09c.08-.07.12-.1.2-.16.35.07.52.1.87.17.14-.11.21-.16.35-.27v-.51c-.14-.16-.21-.25-.35-.41-.35-.07-.52-.1-.87-.17-.08-.09-.12-.14-.2-.23v-1.04c.08-.06.12-.09.2-.15.85.16,1.27.25,2.11.41.14-.11.21-.16.34-.27v-.52c-.14-.16-.21-.24-.34-.41Z"/>
              <path class="cls-3" d="M605.33,77.66c.85.16,1.27.25,2.11.41.14-.11.21-.17.34-.28v-.52c-.14-.16-.21-.24-.34-.41-1.27-.25-1.91-.37-3.19-.62-.14.11-.21.16-.35.27,0,2.31,0,3.46,0,5.77.14.16.21.25.35.41,1.27.25,1.91.37,3.19.62.14-.11.21-.17.34-.28v-.51c-.14-.16-.21-.24-.34-.41-.85-.16-1.27-.25-2.11-.41-.08-.1-.12-.15-.2-.24v-1.04c.08-.07.12-.1.2-.16.35.07.52.1.87.17.14-.11.21-.16.35-.27v-.51c-.14-.16-.21-.25-.35-.41-.35-.07-.52-.1-.87-.17-.08-.09-.12-.14-.2-.23v-1.04c.08-.06.12-.09.2-.15Z"/>
              <path class="cls-3" d="M611.58,79.78c.21.04.31.06.52.1.14-.11.21-.17.34-.28v-.88c-.36-.43-.54-.64-.91-1.07-.81-.16-1.21-.23-2.02-.39-.36.29-.54.43-.9.72v2.03c.36.43.54.64.9,1.07.61.12.92.18,1.53.3.08.1.12.14.19.24v1.04c-.08.06-.12.09-.19.16-.41-.08-.62-.12-1.03-.2l-.19-.23v-.39c-.14-.16-.2-.24-.34-.41-.21-.04-.31-.06-.52-.1-.14.11-.2.17-.34.28v.89c.36.43.54.64.9,1.07.81.16,1.21.23,2.02.39.36-.29.54-.43.91-.72v-2.03c-.36-.43-.54-.65-.91-1.08-.61-.12-.91-.18-1.52-.29l-.19-.23v-1.03c.08-.07.12-.1.19-.17.41.08.62.12,1.03.2.08.1.12.14.19.24v.38c.14.16.2.24.34.41Z"/>
              <path class="cls-3" d="M616.75,78.65c-1.26-.24-1.88-.36-3.14-.6-.14.11-.21.17-.34.28v.51c.14.16.21.24.34.41.39.07.58.11.97.19v4.93c.14.16.21.24.34.41.21.04.31.06.52.1.14-.11.21-.17.34-.28v-4.92c.39.07.58.11.97.19.14-.11.2-.17.34-.28v-.52c-.14-.16-.2-.24-.34-.41Z"/>
              <path class="cls-3" d="M621.43,80.7c.14-.11.21-.16.35-.27v-.52c-.14-.16-.21-.24-.35-.41-1.26-.24-1.9-.36-3.16-.6-.14.11-.2.17-.34.28v.52c.14.16.2.24.34.41.39.07.59.11.98.19v4.1c-.39-.07-.59-.11-.98-.19-.14.11-.2.17-.34.28v.52c.14.16.2.24.34.41,1.26.24,1.9.36,3.16.6.14-.11.21-.16.35-.27v-.52c-.14-.16-.21-.25-.35-.41-.39-.07-.59-.11-.98-.19v-4.1c.39.07.59.11.98.19Z"/>
              <path class="cls-3" d="M625.51,80.32l-.52-.1c-.14.11-.2.17-.34.28v3.95c-.28.23-.43.35-.71.58-.28-.34-.43-.51-.71-.85v-3.95c-.14-.16-.2-.24-.34-.41-.21-.04-.31-.06-.52-.1-.14.11-.21.17-.34.28v4.44c.67.8,1,1.19,1.67,1.99.19.04.29.05.48.09.67-.54,1-.81,1.67-1.36v-4.44c-.14-.16-.2-.24-.34-.41Z"/>
              <path class="cls-3" d="M629.65,81.09c-.82-.15-1.23-.23-2.05-.38-.37.29-.55.44-.91.73v5.21c.14.16.21.24.35.41.21.04.31.06.52.1.14-.11.21-.17.35-.28v-2.09c.08-.07.12-.1.2-.16.42.08.63.12,1.04.2.08.1.12.14.2.24v2.09c.14.16.21.24.34.41.21.04.32.06.53.1.14-.11.21-.17.34-.28v-5.21c-.37-.43-.55-.65-.91-1.08ZM629.35,83.48c-.08.06-.12.09-.2.16-.42-.08-.63-.12-1.04-.2-.08-.09-.12-.14-.2-.23v-1.04c.08-.06.12-.09.2-.16.42.08.63.12,1.04.2.08.09.12.14.2.23v1.04Z"/>
              <path class="cls-3" d="M635.06,86.49c-.21-.04-.31-.06-.52-.1-.14.11-.2.17-.34.28,0,.13,0,.19,0,.32-.08.07-.12.1-.2.16-.41-.08-.62-.12-1.03-.19-.08-.1-.12-.14-.2-.24,0-1.9,0-2.85,0-4.76-.14-.17-.2-.25-.34-.41-.21-.04-.31-.06-.52-.1-.14.11-.21.17-.35.29v5.26c.36.43.54.64.91,1.07.81.15,1.22.23,2.03.38.36-.29.54-.44.91-.74,0-.33,0-.49,0-.82-.14-.16-.2-.24-.34-.41Z"/>
              <path class="cls-3" d="M640.18,83.03c-.81-.15-1.21-.22-2.02-.37-.36.29-.54.44-.91.73v4.67c.36.43.54.64.91,1.07.81.15,1.21.22,2.02.37.36-.3.54-.44.91-.74v-4.67c-.36-.42-.54-.64-.91-1.06ZM639.88,86.08s0,0-.01-.01v1.7s0,0,.01.01v.27c-.08.07-.12.1-.2.17-.41-.08-.62-.11-1.03-.19-.08-.1-.12-.14-.2-.24v-.2s0,0,0,0v-3.38s0,0,0,0v-.1l.2-.16c.41.08.62.11,1.03.19.08.09.12.14.2.23v1.71Z"/>
              <path class="cls-3" d="M645.45,84.01c-1.27-.23-1.91-.35-3.19-.58-.14.11-.21.17-.35.28v5.77c.14.16.21.24.35.41l.52.09c.14-.11.21-.17.35-.28v-2.09l.2-.17c.35.06.52.1.87.16.14-.11.21-.17.35-.28v-.51c-.14-.16-.21-.24-.35-.41-.35-.06-.52-.09-.87-.16-.08-.09-.12-.14-.2-.23v-1.04l.2-.16c.85.15,1.27.23,2.12.39.14-.11.2-.17.34-.28v-.52c-.14-.16-.2-.24-.34-.4Z"/>
            </g>
          </g>
          <g>
            <path class="cls-1" d="M585.87,122.86c-24.42-4.84-48.84-9.75-73.26-14.59,0-24.42,0-48.84,0-73.26,24.43,4.84,48.84,9.75,73.26,14.59,0,24.42,0,48.84,0,73.26Z"/>
            <g>
              <path class="cls-2" d="M549.12,99.96c-6.24-7.49-9.36-11.23-15.6-18.71,1.31-1.05,1.96-1.57,3.27-2.62,6.24,7.48,9.36,11.23,15.6,18.72-1.31,1.05-1.96,1.57-3.27,2.62Z"/>
              <g>
                <path class="cls-2" d="M552.65,83.03c-1.36,1.09-2.05,1.64-3.41,2.73-1.36-1.64-2.05-2.46-3.41-4.09,1.36-1.09,2.05-1.64,3.41-2.73,1.36,1.64,2.05,2.46,3.41,4.09Z"/>
                <path class="cls-2" d="M546,96.17c6.24-4.99,9.36-7.48,15.6-12.48,1.31,1.57,1.96,2.35,3.27,3.92-6.24,4.99-9.36,7.49-15.6,12.48-1.31-1.57-1.96-2.36-3.27-3.93Z"/>
                <path class="cls-2" d="M545.83,74.84c1.36-1.09,2.05-1.64,3.41-2.73,1.36,1.64,2.05,2.46,3.41,4.09-1.36,1.09-2.05,1.64-3.41,2.73-1.36-1.64-2.05-2.46-3.41-4.09Z"/>
                <path class="cls-2" d="M549.35,57.91c6.24,7.49,9.36,11.23,15.6,18.71-1.31,1.05-1.96,1.57-3.27,2.62-6.24-7.48-9.36-11.23-15.6-18.72,1.31-1.05,1.96-1.57,3.27-2.62Z"/>
                <path class="cls-2" d="M552.47,61.7c-6.24,4.99-9.36,7.48-15.6,12.48-1.31-1.57-1.96-2.35-3.27-3.92,6.24-4.99,9.36-7.49,15.6-12.48,1.31,1.57,1.96,2.36,3.27,3.93Z"/>
              </g>
            </g>
          </g>
          <g>
            <path class="cls-2" d="M695.98,85.77c.43.3.58.68.57,1.17-.03,1.12,0,2.25-.01,3.38,0,.47-.22.75-.6.78-.52.04-.99-.39-.99-.95-.01-1.24,0-2.47,0-3.7,0-.42.25-.61.56-.75.16.03.32.05.48.08Z"/>
            <path class="cls-2" d="M716.17,109.49c-.24.4-.59.49-1.08.41-1.1-.19-2.2-.33-3.3-.5-.16-.02-.32-.06-.47-.13-.36-.18-.55-.55-.5-.93.05-.37.35-.62.77-.56,1.26.17,2.52.37,3.78.55.4.06.61.35.8.67v.48Z"/>
            <path class="cls-2" d="M678.79,114.04c-.45-.11-.7-.34-.82-.71-.12-.37.02-.71.37-.86.67-.29,1.36-.56,2.03-.84.39-.16.78-.33,1.17-.48.45-.17.92.02,1.14.45.23.44.1.87-.35,1.06-1.04.44-2.09.87-3.14,1.29-.15.06-.32.07-.41.09Z"/>
            <path class="cls-2" d="M703.82,94.48c-.72-.11-1.14-.78-.86-1.26.63-1.06,1.3-2.09,1.97-3.11.21-.32.68-.32,1.03-.06.35.25.52.72.32,1.05-.64,1.05-1.29,2.09-1.97,3.11-.11.17-.39.22-.49.27Z"/>
            <path class="cls-2" d="M678.85,92.82c.08.05.26.13.42.25,1,.74,2,1.48,3,2.23.5.38.66.85.42,1.23-.24.38-.71.4-1.21.03-1.04-.76-2.07-1.53-3.1-2.31-.38-.28-.52-.67-.41-1.01.1-.32.43-.5.88-.42Z"/>
            <path class="cls-2" d="M709.55,101.15c-.43-.07-.75-.36-.84-.72-.1-.4.04-.68.37-.83.53-.24,1.08-.47,1.62-.7.53-.23,1.06-.46,1.59-.68.46-.19.91-.02,1.15.41.24.43.11.87-.34,1.07-1.05.47-2.11.92-3.17,1.36-.13.06-.29.07-.37.08Z"/>
            <path class="cls-2" d="M677.98,102.48c.6.1,1.19.2,1.79.3.55.1.89.46.89.94,0,.48-.34.74-.89.65-1.19-.19-2.39-.39-3.58-.6-.53-.09-.89-.5-.88-.96.01-.45.36-.71.88-.63.6.09,1.19.2,1.79.3Z"/>
            <path class="cls-2" d="M709.57,115.42c.09.05.26.12.4.23,1.03.74,2.05,1.48,3.07,2.23.48.35.63.82.4,1.19-.23.38-.7.42-1.18.08-1.05-.75-2.1-1.51-3.14-2.28-.39-.28-.53-.65-.41-1,.11-.33.42-.52.86-.44Z"/>
            <path class="cls-2" d="M694.94,123.78c0-.6,0-1.19,0-1.79,0-.55.32-.84.81-.75.47.08.78.46.78.99,0,1.21,0,2.42,0,3.62,0,.51-.33.81-.79.74-.47-.07-.8-.48-.8-1.02,0-.6,0-1.19,0-1.79Z"/>
            <path class="cls-2" d="M688.61,118.83c-.04.09-.08.26-.17.41-.58.93-1.18,1.86-1.77,2.78-.28.43-.73.5-1.14.2-.41-.3-.51-.78-.24-1.22.6-.95,1.2-1.9,1.81-2.84.21-.33.56-.42.9-.27.35.15.59.5.6.94Z"/>
            <path class="cls-2" d="M703.82,120.35c.11.1.39.25.52.48.66,1.18,1.28,2.37,1.9,3.56.23.43.09.87-.28,1.04-.38.17-.85,0-1.1-.46-.64-1.17-1.26-2.35-1.87-3.53-.31-.61.05-1.19.82-1.09Z"/>
            <path class="cls-2" d="M688.61,91.21c0,.44-.23.71-.59.75-.38.04-.69-.14-.89-.5-.29-.52-.56-1.05-.84-1.58-.34-.64-.68-1.28-1.01-1.93-.26-.51-.15-.97.27-1.13.4-.15.84.05,1.11.56.6,1.13,1.2,2.26,1.79,3.39.08.16.13.34.16.43Z"/>
          </g>
        </g>
        <g>
          <path class="cls-9" d="M878.8,157.78c-24.49.2-48.82-.54-73.26-2.09v-73.26c24.44,1.55,48.77,2.29,73.26,2.09,0,24.42,0,48.84,0,73.26Z"/>
          <path class="cls-7" d="M1098.56,115.57c-24.07,9.33-48.29,17.17-73.26,23.71,0-24.42,0-48.84,0-73.26,24.97-6.54,49.19-14.39,73.26-23.71,0,24.42,0,48.84,0,73.26Z"/>
          <path class="cls-5" d="M805.63,155.7c-24.51-1.84-48.88-4.41-73.26-7.56,0-24.42,0-48.84,0-73.26,24.38,3.15,48.75,5.71,73.26,7.56v73.26Z"/>
          <path class="cls-8" d="M1025.31,139.28c-24.27,5.82-48.52,10.28-73.26,13.55,0-24.42,0-48.84,0-73.26,24.74-3.27,48.99-7.73,73.26-13.55,0,24.42,0,48.84,0,73.26Z"/>
          <g>
            <path class="cls-2" d="M769.52,138.5c-1.8-.19-2.7-.28-4.5-.47v-30.34c1.8.19,2.7.29,4.5.47,0,10.11,0,20.22,0,30.34Z"/>
            <path class="cls-2" d="M778.94,101.49c-4.6,4.16-6.9,6.23-11.5,10.35-.07-.07-.1-.11-.17-.18-.07.06-.1.09-.17.15-4.6-5.09-6.91-7.64-11.51-12.78,1.62-1.44,2.44-2.16,4.06-3.6,3.05,3.39,4.57,5.08,7.62,8.44,3.05-2.72,4.57-4.09,7.62-6.84,1.62,1.78,2.43,2.68,4.05,4.45Z"/>
            <path class="cls-2" d="M780.59,121.43c-4.6,4.17-6.9,6.24-11.5,10.37-1.62-1.79-2.44-2.69-4.06-4.49,4.6-4.11,6.9-6.17,11.5-10.33,1.62,1.78,2.44,2.67,4.06,4.45Z"/>
            <path class="cls-2" d="M770.24,95.73c-1.19,1.07-1.78,1.6-2.97,2.66-1.19-1.31-1.78-1.97-2.97-3.29,1.19-1.06,1.78-1.59,2.97-2.65,1.19,1.31,1.78,1.97,2.97,3.28Z"/>
          </g>
          <path class="cls-6" d="M858.23,144.08c-10.7-.09-21.42-.41-32.11-.94v-38.16c3.19-3.03,4.78-4.56,7.96-7.62,6.47.25,9.71.35,16.18.48,3.19,3.25,4.78,4.87,7.96,8.08v38.16ZM829.81,139.62c9.89.43,14.84.58,24.73.72v-32.94c-2.32-2.36-3.48-3.54-5.8-5.91-5.25-.11-7.87-.19-13.12-.39-2.32,2.24-3.48,3.35-5.8,5.57v32.94Z"/>
          <g>
            <g>
              <path class="cls-3" d="M975.66,107.82c-.59.1-.89.14-1.48.24-.39.45-.59.68-.98,1.14,0,2.42,0,3.63,0,6.05-.23.26-.35.39-.58.65-1.19.19-1.78.28-2.97.46-.23-.19-.35-.28-.58-.47v-6.05c-.39-.33-.59-.5-.98-.83-.59.09-.89.13-1.49.22-.39.45-.59.67-.98,1.12v16.71c.39.34.59.5.98.84.59-.09.89-.13,1.49-.22.39-.45.59-.68.98-1.13v-6.07c.23-.26.35-.39.58-.65,1.19-.18,1.78-.27,2.97-.46.23.19.35.28.58.47v6.07c.39.33.59.5.98.83.59-.09.89-.14,1.48-.24.4-.46.6-.69,1.01-1.15,0-6.68,0-10.03,0-16.71-.4-.33-.6-.49-1.01-.82Z"/>
              <path class="cls-3" d="M985.87,106.16c-2.32.42-3.49.62-5.81,1.01-1.04,1.21-1.56,1.81-2.6,3.01v13.42c1.04.87,1.56,1.3,2.6,2.17,2.32-.39,3.49-.6,5.81-1.01,1.04-1.23,1.56-1.84,2.6-3.07v-13.42c-1.04-.84-1.56-1.26-2.6-2.1ZM985.02,115.22s0,0-.01-.01v4.88s0,0,.01.01v.77c-.23.28-.35.41-.58.69-1.18.21-1.77.31-2.94.51-.23-.19-.35-.29-.58-.48v-.6h0v-9.52h0v-.43c.23-.26.35-.39.58-.66,1.18-.2,1.77-.3,2.94-.51.23.18.35.27.58.45v4.91Z"/>
              <path class="cls-3" d="M997.68,103.9c-2.97.59-4.46.88-7.43,1.44-.39.47-.59.7-.98,1.16v16.66c.39.32.59.48.98.8.59-.11.89-.17,1.49-.28.39-.47.59-.7.98-1.17v-6.6c1.98-.38,2.98-.57,4.96-.97,1.04-1.25,1.56-1.87,2.6-3.13v-5.83c-1.04-.83-1.56-1.24-2.6-2.07ZM996.83,111.07c-.23.28-.35.42-.58.7-1.18.23-1.77.35-2.94.57-.23-.19-.35-.28-.58-.47v-2.97c.23-.28.35-.42.58-.7,1.18-.23,1.77-.34,2.94-.57.23.19.35.28.58.47v2.97Z"/>
              <path class="cls-3" d="M1005.15,105.88c2.43-.52,3.64-.78,6.07-1.33.39-.48.59-.72.98-1.2v-1.48c-.39-.3-.59-.46-.98-.76-3.66.82-5.49,1.22-9.15,1.98-.4.48-.6.71-1.01,1.19,0,6.63,0,9.95,0,16.58.4.31.6.46,1.01.77,3.66-.76,5.49-1.16,9.15-1.98.39-.48.59-.72.98-1.2v-1.46c-.39-.3-.59-.46-.98-.76-2.43.55-3.64.81-6.07,1.33-.23-.18-.35-.28-.58-.46v-2.97c.23-.28.35-.42.58-.71,1-.21,1.5-.32,2.49-.54.4-.48.6-.72,1.01-1.2v-1.46c-.4-.3-.6-.46-1.01-.76-1,.22-1.5.32-2.49.54-.23-.17-.35-.26-.58-.43v-3c.23-.27.35-.41.58-.68Z"/>
            </g>
            <g>
              <path class="cls-3" d="M968.92,100.32c-1.27.19-1.91.29-3.19.47-.14.16-.21.24-.35.39v5.77c.14.12.21.17.35.29.21-.03.31-.05.52-.08.14-.16.21-.24.35-.39v-2.09c.08-.09.12-.14.2-.23.35-.05.52-.08.87-.13.14-.16.21-.24.35-.39v-.51c-.14-.12-.21-.17-.35-.29-.35.05-.52.08-.87.13-.08-.07-.12-.1-.2-.16v-1.04c.08-.09.12-.13.2-.22.85-.12,1.27-.19,2.11-.31.14-.16.21-.24.34-.39v-.52c-.14-.12-.21-.17-.34-.29Z"/>
              <path class="cls-3" d="M971.51,101.12c.85-.13,1.27-.2,2.11-.33.14-.16.21-.24.34-.4v-.52c-.14-.11-.21-.17-.34-.29-1.27.2-1.91.3-3.19.5-.14.16-.21.24-.35.39v5.77c.14.12.21.17.35.29,1.27-.19,1.91-.29,3.19-.5.14-.16.21-.24.34-.4v-.51c-.14-.12-.21-.17-.34-.29-.85.13-1.27.2-2.11.33-.08-.07-.12-.1-.2-.17v-1.04c.08-.09.12-.14.2-.23.35-.05.52-.08.87-.13.14-.16.21-.24.35-.4v-.51c-.14-.11-.21-.17-.35-.29-.35.05-.52.08-.87.13-.08-.07-.12-.1-.2-.16v-1.04c.08-.09.12-.14.2-.23Z"/>
              <path class="cls-3" d="M977.76,101.04c.21-.03.31-.05.52-.09.14-.16.21-.24.34-.4v-.88c-.36-.3-.54-.45-.91-.75-.81.13-1.21.2-2.02.33-.36.42-.54.62-.9,1.04v2.03c.36.3.54.45.9.75.61-.1.92-.15,1.53-.25.08.07.12.1.19.17v1.04l-.19.23c-.41.07-.62.1-1.03.17-.08-.06-.12-.1-.19-.16v-.39c-.14-.11-.2-.17-.34-.29-.21.03-.31.05-.52.08-.14.16-.2.24-.34.4v.89c.36.3.54.45.9.75.81-.13,1.21-.2,2.02-.33.36-.42.54-.63.91-1.05,0-.81,0-1.22,0-2.03-.36-.3-.54-.45-.91-.75-.61.1-.91.15-1.52.25-.08-.07-.12-.1-.19-.16v-1.03c.08-.09.12-.14.19-.23.41-.07.62-.1,1.03-.17.08.07.12.1.19.17v.38c.14.11.2.17.34.29Z"/>
              <path class="cls-3" d="M982.94,98.03c-1.26.22-1.88.33-3.14.54-.14.16-.21.24-.34.4v.51c.14.11.21.17.34.28.39-.07.58-.1.97-.16,0,1.97,0,2.96,0,4.93.14.11.21.17.34.28.21-.04.31-.05.52-.09.14-.16.21-.24.34-.4,0-1.97,0-2.95,0-4.92.39-.07.58-.1.97-.17.14-.16.2-.24.34-.4v-.52c-.14-.11-.2-.17-.34-.28Z"/>
              <path class="cls-3" d="M987.61,98.36c.14-.16.21-.24.35-.41v-.52c-.14-.11-.21-.17-.35-.28-1.26.23-1.9.34-3.16.57-.14.16-.2.24-.34.4v.52c.14.11.2.17.34.28.39-.07.59-.1.98-.17v4.1c-.39.07-.59.1-.98.17-.14.16-.2.24-.34.4v.52c.14.11.2.17.34.28,1.26-.22,1.9-.34,3.16-.57.14-.16.21-.24.35-.41v-.52c-.14-.11-.21-.17-.35-.28-.39.07-.59.11-.98.18v-4.1c.39-.07.59-.11.98-.18Z"/>
              <path class="cls-3" d="M991.69,96.45c-.21.04-.31.06-.52.1-.14.16-.2.24-.34.41v3.95c-.28.34-.43.51-.71.84-.28-.23-.43-.35-.71-.58v-3.95c-.14-.11-.2-.17-.34-.28-.21.04-.31.06-.52.1-.14.16-.21.24-.34.4v4.44c.67.55,1,.82,1.67,1.36.19-.04.29-.05.48-.09.67-.79,1-1.19,1.67-1.99v-4.44c-.14-.11-.2-.17-.34-.28Z"/>
              <path class="cls-3" d="M995.83,95.65c-.82.16-1.23.24-2.05.4-.37.43-.55.65-.91,1.08v5.21c.14.11.21.16.35.27.21-.04.31-.06.52-.1.14-.16.21-.25.35-.41v-2.09c.08-.1.12-.15.2-.24.42-.08.63-.12,1.04-.2.08.07.12.1.2.16v2.09c.14.11.21.16.34.27.21-.04.32-.06.53-.1.14-.16.21-.25.34-.41v-5.21c-.37-.29-.55-.43-.91-.72ZM995.54,98.15c-.08.09-.12.14-.2.23-.42.08-.63.12-1.04.2-.08-.06-.12-.09-.2-.15v-1.04c.08-.09.12-.14.2-.23.42-.08.63-.12,1.04-.2.08.06.12.09.2.15v1.04Z"/>
              <path class="cls-3" d="M1001.25,98.95c-.21.04-.31.06-.52.11-.14.16-.2.25-.34.41,0,.13,0,.2,0,.33-.08.1-.12.15-.2.24-.41.08-.62.13-1.03.21-.08-.06-.12-.1-.2-.16,0-1.9,0-2.86,0-4.76-.14-.11-.2-.17-.34-.28-.21.04-.31.06-.52.1-.14.17-.21.25-.35.42v5.26c.36.29.54.43.91.72.81-.16,1.22-.25,2.03-.41.36-.44.54-.65.91-1.09,0-.33,0-.49,0-.82-.14-.11-.2-.16-.34-.27Z"/>
              <path class="cls-3" d="M1006.36,93.46c-.81.17-1.21.26-2.02.43-.36.44-.54.65-.91,1.09,0,1.87,0,2.8,0,4.67.36.29.54.43.91.71.81-.17,1.21-.26,2.02-.43.36-.44.54-.66.91-1.1v-4.67c-.36-.28-.54-.42-.91-.7ZM1006.07,96.63s0,0-.01,0v1.7s0,0,.01,0v.27c-.08.1-.12.15-.2.25-.41.09-.62.13-1.03.22-.08-.06-.12-.1-.2-.16v-.2s0,0,0,0v-3.38s0,0,0,0v-.1c.08-.09.12-.14.2-.24.41-.09.62-.13,1.03-.22.08.06.12.09.2.15,0,.68,0,1.03,0,1.71Z"/>
              <path class="cls-3" d="M1011.64,92.32c-1.27.29-1.91.43-3.19.71-.14.17-.21.25-.35.42v5.77c.14.11.21.16.35.26.21-.05.31-.07.52-.11.14-.17.21-.25.35-.42v-2.09c.08-.1.12-.15.2-.25.35-.08.52-.12.87-.19.14-.17.21-.25.35-.42v-.51c-.14-.11-.21-.16-.35-.26-.35.08-.52.12-.87.19-.08-.06-.12-.09-.2-.15v-1.04c.08-.1.12-.14.2-.24.85-.19,1.27-.28,2.12-.47.14-.17.2-.25.34-.42v-.52c-.14-.11-.2-.16-.34-.26Z"/>
            </g>
          </g>
          <g>
            <path class="cls-1" d="M952.05,152.83c-24.41,2.77-48.71,4.36-73.26,4.95,0-24.42,0-48.84,0-73.26,24.55-.58,48.85-2.18,73.26-4.95,0,24.42,0,48.84,0,73.26Z"/>
            <g>
              <path class="cls-2" d="M915.31,140.71c-6.24-5.82-9.36-8.77-15.6-14.73,1.31-1.37,1.96-2.05,3.27-3.42,6.24,5.93,9.36,8.87,15.6,14.66-1.31,1.4-1.96,2.1-3.27,3.5Z"/>
              <g>
                <path class="cls-2" d="M918.83,122.83c-1.36,1.46-2.05,2.19-3.41,3.65-1.36-1.27-2.05-1.91-3.41-3.19,1.36-1.45,2.05-2.17,3.41-3.63,1.36,1.27,2.05,1.91,3.41,3.17Z"/>
                <path class="cls-2" d="M912.19,137.75c6.24-6.62,9.36-9.97,15.6-16.74,1.31,1.2,1.96,1.79,3.27,2.99-6.24,6.8-9.36,10.16-15.6,16.82-1.31-1.22-1.96-1.83-3.27-3.06Z"/>
                <path class="cls-2" d="M912.01,116.46c1.36-1.45,2.05-2.17,3.41-3.63,1.36,1.27,2.05,1.91,3.41,3.17-1.36,1.46-2.05,2.19-3.41,3.65-1.36-1.27-2.05-1.91-3.41-3.19Z"/>
                <path class="cls-2" d="M915.54,98.6c6.24,5.82,9.36,8.7,15.6,14.37-1.31,1.43-1.96,2.14-3.27,3.56-6.24-5.71-9.36-8.6-15.6-14.45,1.31-1.39,1.96-2.09,3.27-3.48Z"/>
                <path class="cls-2" d="M918.66,101.55c-6.24,6.68-9.36,9.99-15.6,16.53-1.31-1.24-1.96-1.87-3.27-3.12,6.24-6.52,9.36-9.81,15.6-16.46,1.31,1.22,1.96,1.83,3.27,3.05Z"/>
              </g>
            </g>
          </g>
          <g>
            <path class="cls-2" d="M1062.17,71.66c.43.1.58.4.57.9-.03,1.14,0,2.26-.01,3.39,0,.47-.22.86-.6,1.07-.52.29-.99.08-.99-.48-.01-1.23,0-2.47,0-3.7,0-.42.25-.73.56-1.02.16-.05.32-.1.48-.15Z"/>
            <path class="cls-2" d="M1082.36,85.38c-.24.52-.59.8-1.08.96-1.1.37-2.2.79-3.3,1.18-.16.05-.32.1-.47.1-.36,0-.55-.27-.5-.68.05-.4.35-.79.77-.94,1.26-.46,2.52-.91,3.78-1.37.4-.15.61.04.8.26v.48Z"/>
            <path class="cls-2" d="M1044.98,107.97c-.45.09-.7-.02-.82-.34-.12-.31.02-.72.37-1.03.67-.6,1.36-1.18,2.03-1.77.39-.34.78-.69,1.17-1.02.45-.38.92-.41,1.14-.08.23.33.1.83-.35,1.22-1.04.92-2.09,1.83-3.14,2.73-.15.13-.32.22-.41.28Z"/>
            <path class="cls-2" d="M1070,76.56c-.72.25-1.14-.22-.86-.84.63-1.37,1.3-2.73,1.97-4.08.21-.43.68-.65,1.03-.57.35.08.52.46.32.89-.64,1.37-1.29,2.73-1.97,4.09-.11.23-.39.41-.49.51Z"/>
            <path class="cls-2" d="M1045.04,86.72c.08.01.26.02.42.06,1,.28,2,.57,3,.85.5.14.66.54.42,1.03-.24.49-.71.72-1.21.59-1.04-.29-2.07-.58-3.1-.89-.38-.11-.52-.43-.41-.82.1-.37.43-.7.88-.82Z"/>
            <path class="cls-2" d="M1075.74,80.38c-.43.15-.75.02-.84-.3-.1-.35.04-.7.37-1.02.53-.51,1.08-1.01,1.62-1.51.53-.49,1.06-.99,1.59-1.48.46-.42.91-.48,1.15-.17.24.31.11.82-.34,1.24-1.05,1-2.11,1.98-3.17,2.96-.13.12-.29.21-.37.27Z"/>
            <path class="cls-2" d="M1044.17,96.79c.6-.17,1.19-.35,1.79-.52.56-.16.89.05.89.53,0,.48-.34.89-.89,1.06-1.19.35-2.39.7-3.58,1.03-.53.15-.89-.09-.88-.57.01-.46.36-.87.88-1.03.6-.18,1.19-.34,1.79-.51Z"/>
            <path class="cls-2" d="M1075.76,94.64c.09,0,.26,0,.4.02,1.03.22,2.05.45,3.07.68.48.11.63.5.4,1-.23.49-.7.77-1.18.67-1.05-.22-2.1-.46-3.14-.7-.39-.09-.53-.39-.41-.79.11-.39.42-.73.86-.87Z"/>
            <path class="cls-2" d="M1061.13,110.17c0-.6,0-1.19,0-1.79,0-.55.32-.99.81-1.14.47-.15.78.08.78.61,0,1.21,0,2.41,0,3.62,0,.51-.33.97-.79,1.12-.47.16-.8-.1-.8-.63,0-.6,0-1.19,0-1.79Z"/>
            <path class="cls-2" d="M1054.79,108.23c-.04.11-.08.3-.17.49-.58,1.21-1.18,2.41-1.77,3.61-.28.56-.73.84-1.14.73-.41-.11-.51-.55-.24-1.11.6-1.23,1.2-2.46,1.81-3.69.21-.43.56-.68.9-.69.35-.01.59.22.6.66Z"/>
            <path class="cls-2" d="M1070.01,102.43c.11.04.39.06.52.23.66.85,1.28,1.73,1.9,2.62.23.32.09.83-.28,1.17-.38.36-.85.42-1.1.08-.64-.86-1.26-1.72-1.87-2.61-.31-.46.05-1.22.82-1.49Z"/>
            <path class="cls-2" d="M1054.79,80.6c0,.43-.23.82-.59,1.03-.38.22-.69.18-.89-.09-.29-.38-.56-.79-.84-1.19-.34-.48-.68-.96-1.01-1.45-.26-.39-.15-.9.27-1.25.4-.34.84-.34,1.11.04.6.85,1.2,1.7,1.79,2.55.08.12.13.28.16.35Z"/>
          </g>
        </g>
      </g>
    </g>
  </g>
</svg>