<?xml version="1.0" encoding="UTF-8"?>
<svg id="Layer_2" xmlns="http://www.w3.org/2000/svg" viewBox="0 0 141.69 195.58">
  <defs>
    <style>
      .cls-1 {
        fill: #f8a570;
      }

      .cls-2 {
        fill: #fff;
      }

      .cls-3 {
        fill: #383838;
      }

      .cls-4 {
        fill: #f27b70;
      }

      .cls-5 {
        fill: #f27f97;
      }

      .cls-6 {
        fill: #4abdad;
      }

      .cls-7 {
        fill: #6bafd8;
      }
    </style>
  </defs>
  <g id="Layer_1-2" data-name="Layer_1">
    <polygon class="cls-2" points="127.98 0 13.72 0 0 13.94 0 181.64 13.72 195.58 127.98 195.58 141.69 181.64 141.69 13.94 127.98 0"/>
    <g>
      <path class="cls-1" d="M27.6,172.65c.8-.37,1.51-.86,2.05-1.57.37-.48.62-1.02.72-1.62.09-.52.08-1.04,0-1.55-.13-.8-.5-1.48-1.05-2.06-.47-.49-1.02-.88-1.6-1.23-.76-.45-1.53-.87-2.3-1.3-.78-.44-1.5-.95-2.11-1.61-.51-.55-.92-1.16-1.13-1.88-.13-.44-.17-.88-.04-1.32.15-.51.47-.86.96-1.07.33-.14.69-.19,1.05-.19.21,0,.41.05.6.14.2.1.36.25.45.44.11.24.17.49.12.76-.04.27-.09.53-.19.78-.07.17-.11.35-.14.54-.1.68.06,1.28.53,1.78.75.8,1.7,1.06,2.75.74.92-.27,1.48-.93,1.68-1.86.07-.35.05-.7,0-1.06-.01-.1-.04-.2-.07-.3-.18-.58-.5-1.08-.95-1.49-.62-.58-1.37-.94-2.18-1.18-.44-.13-.89-.21-1.35-.26-.94-.11-1.88-.09-2.8.14-.3.08-.6.15-.88.29h0s-.09.03-.13.05h0-.02c-.18.1-.36.17-.53.27-.73.4-1.36.93-1.84,1.61-.37.52-.63,1.08-.74,1.7-.2,1.07,0,2.07.56,3,.3.49.66.92,1.1,1.3.44.38.9.72,1.4,1.03.25.21.53.37.8.54.16.1.3.22.47.28.04.03.09.06.13.09l.05.03s.04.02.06.03c.02,0,.03.02.05.02l.06.04s.06.06.1.07h0s.06.04.09.05c0,.01.02.02.03.02.09.07.18.14.27.2.49.32.99.64,1.45,1.01.28.22.55.45.78.72.15.18.28.38.36.6.15.38.14.76-.05,1.13-.16.32-.4.56-.68.77-.33.25-.71.42-1.12.51-.59.14-1.17.16-1.75-.05-.57-.2-.98-.58-1.22-1.12-.15-.33-.23-.69-.25-1.05,0-.17,0-.35-.09-.52,0-.08,0-.16-.06-.22h0s-.05-.04-.04-.08c0-.01,0-.03-.02-.03-.05-.02-.06-.06-.06-.11-.19-.31-.47-.5-.84-.55-.62-.09-1.22.34-1.31,1.02-.05.41.02.8.17,1.17.38.95,1.03,1.67,1.91,2.2.06.03.11.07.18.07h0s.04.03.06.05c.03.05.08.07.14.06l.1.06h0s.06.03.09.05h0s.01,0,.01,0c.03.01.06.03.09.04,0,.02.02.02.04.01l.18.07s.08.05.14.04c.03.01.05.02.08.03.11.06.23.09.34.12.42.12.84.18,1.27.23.68.07,1.35.03,2.02-.07.7-.11,1.37-.3,2.02-.6"/>
      <path class="cls-1" d="M71.27,173.43c.91-.19,1.71-.6,2.38-1.25.4-.39.69-.86.9-1.37.29-.71.41-1.45.41-2.21,0-4.11,0-8.22,0-12.33,0-.07,0-.15,0-.22,0-.06,0-.11-.06-.18-.15-.06-.34-.08-.52-.11-.45-.07-.9-.08-1.34.04-.57.15-.95.5-1.13,1.07-.06.21-.08.42-.08.63,0,1.55,0,3.09,0,4.64,0,.63-.05,1.26-.21,1.88-.11.42-.26.82-.49,1.18-.17.28-.38.53-.68.7-.39.23-.78.23-1.17-.02-.17-.11-.3-.25-.41-.41-.26-.36-.42-.77-.53-1.19-.2-.73-.26-1.48-.27-2.24,0-.92,0-1.84,0-2.77,0-.1.02-.2-.03-.3-.32-.11-.52-.14-.83-.14-.11,0-.22-.03-.34-.03-.39,0-.77.05-1.12.22-.37.17-.61.45-.75.83-.11.28-.13.58-.13.88,0,.77-.02,1.55.02,2.32.04.85.2,1.66.58,2.43.36.73.86,1.33,1.58,1.73.05.03.09.07.14.09.38.2.78.32,1.21.36.96.08,1.79-.22,2.5-.87.35-.33.63-.71.85-1.14.01-.03.03-.07.07-.07,0,0,.02,0,.02.01,0,.08.01.17.01.25,0,1.28,0,2.57,0,3.85,0,.33-.02.65-.05.97-.03.35-.09.7-.19,1.04-.07.26-.18.51-.33.74-.23.33-.54.54-.95.58-.38.03-.68-.15-.82-.5-.11-.27-.12-.54-.06-.82.04-.18.09-.36.14-.54.08-.26.09-.52.03-.77-.19-.88-1.05-1.46-1.88-1.41-.19.01-.4.01-.56.15-.55.17-.88.54-1.04,1.07-.12.4-.08.81.06,1.2.17.49.49.89.91,1.21.15.14.31.26.51.33h.02s.07.04.1.06h0c.06.03.11.07.17.1.45.21.92.33,1.4.4.66.09,1.31.07,1.96-.07"/>
      <path class="cls-1" d="M103.45,156.66s-.09.04-.13.05h-.02s0,.01,0,.01c-.18.06-.34.17-.49.27-.52.34-.92.79-1.11,1.4-.1.34-.12.68-.03,1.02.21.78.94,1.3,1.77,1.27.17.04.31-.03.47-.07.86-.27,1.55-1.18,1.18-2.23-.04-.12-.07-.25-.08-.38-.08-.91.83-1.41,1.43-1.28.49.11.87.35,1.12.77.41.69.44,1.41.16,2.15-.13.33-.32.61-.62.81-.25.17-.52.29-.82.37-.62.18-1.26.27-1.9.4-.26.05-.54.09-.78.21-.04.01-.09.02-.13.03,0,0-.02,0-.02,0,0,0-.02.02-.03.02-.18.06-.36.12-.53.19-.52.24-.97.57-1.3,1.03-.54.76-.79,1.6-.72,2.52.03.32.1.62.24.91.24.49.59.91,1.03,1.23.45.33.95.56,1.49.69.1.04.2.07.31.03.03.07.08.05.14.05.07.04.14.04.22.05.51.03,1.01.03,1.51-.09.84-.21,1.54-.63,2.04-1.34.04-.06.07-.13.16-.15.02.03.03.06.05.1.2.61.64,1,1.25,1.19.46.15.94.15,1.42.1.21-.02.41-.06.6-.14.09-.03.17-.07.25-.12.11-.07.12-.14.09-.26-.03-.12-.11-.21-.19-.3-.22-.24-.33-.52-.34-.84,0-.12,0-.24,0-.36,0-1.61,0-3.22,0-4.83,0-.7-.11-1.39-.38-2.05-.36-.88-.95-1.57-1.77-2.08-.81-.51-1.71-.76-2.66-.83-.94-.07-1.86.05-2.74.39-.06.02-.12.04-.17.1M107.97,160.96c0,.99,0,1.97,0,2.96,0,.6-.13,1.18-.39,1.73-.23.48-.55.89-.99,1.19-.24.16-.49.27-.78.3-.59.06-1.07-.16-1.43-.62-.42-.54-.55-1.15-.45-1.82.08-.56.35-1.03.74-1.44.36-.38.79-.68,1.23-.98.37-.25.75-.5,1.11-.76.36-.26.68-.56.9-.95,0-.01.03-.02.07-.05v.45Z"/>
      <path class="cls-1" d="M37.93,158.76c.23.51.27,1.04.14,1.58-.16.65-.52,1.12-1.16,1.37-.3.12-.6.21-.92.27-.42.08-.85.15-1.27.24-.16.03-.31.08-.46.12-.03.01-.06.02-.1.03-.13,0-.24.03-.35.09-.39.09-.74.26-1.08.46-.42.26-.76.6-1.02,1.02-.32.52-.51,1.09-.57,1.7-.09.88.17,1.66.77,2.31.55.59,1.23.96,2.02,1.14.03.01.05.03.07.04.6.12,1.21.16,1.82.06.53-.09,1.01-.28,1.46-.57.34-.23.63-.5.86-.84.03-.05.05-.12.13-.13.07.06.08.14.11.22.19.46.53.78.99.98.59.24,1.21.26,1.83.15.21-.04.42-.1.61-.2.12-.06.16-.14.13-.28-.01-.08-.05-.14-.09-.2-.04-.06-.1-.11-.15-.17-.14-.18-.25-.37-.27-.6-.03-.23-.05-.46-.05-.7,0-1.59,0-3.19,0-4.78,0-.76-.14-1.5-.47-2.19-.43-.91-1.12-1.57-2.01-2.04-.5-.26-1.04-.43-1.6-.53-.43-.08-.86-.12-1.29-.12-.54.01-1.07.09-1.59.22-.19.05-.38.09-.55.2l-.08.02s-.02.03-.04.02c-.39.14-.74.36-1.06.62-.35.3-.63.66-.76,1.11-.12.4-.14.8.01,1.2.3.82,1.22,1.28,2.05,1.07.06,0,.11,0,.17-.02.56-.2.97-.57,1.17-1.13.09-.23.11-.47.08-.71-.02-.22-.11-.41-.15-.62-.08-.4.02-.74.29-1.03.43-.47,1.06-.54,1.65-.21.34.19.58.48.73.82M38.2,161.55c0,1.18.02,2.37,0,3.55-.01.78-.25,1.5-.72,2.14-.28.37-.62.67-1.06.84-.63.24-1.28.06-1.72-.42-.49-.54-.64-1.19-.55-1.9.09-.64.4-1.15.86-1.59.35-.33.74-.61,1.13-.87.38-.26.77-.5,1.13-.78.33-.26.65-.54.85-.92.01-.02.03-.05.04-.07l.04.03Z"/>
      <path class="cls-1" d="M80.38,169.07s.05.03.08.02c.04.04.1.05.16.06.21.03.41.06.62.07.83.06,1.63-.09,2.37-.47.52-.26.98-.61,1.4-1.02.7-.7,1.19-1.53,1.49-2.47.29-.89.39-1.81.3-2.75-.09-.89-.32-1.74-.74-2.53-.4-.75-.93-1.39-1.62-1.9-.74-.55-1.57-.87-2.49-.94-.69-.06-1.37.05-2.01.31h0s-.06.02-.08.03c-.02,0-.04.02-.06.03-.1.02-.19.07-.27.13-.03.01-.05.03-.08.04h-.02s-.01.02-.01.02c-.02.01-.05.03-.07.04h-.02s-.01.02-.01.02c-.06.03-.11.07-.17.1-.03.01-.07.03-.1.04h0s-.02,0-.02.02c-.02.01-.04.03-.06.04-.03,0-.05,0-.05.03-.18.12-.35.25-.51.39-.52.45-.93.99-1.26,1.59-.42.77-.67,1.59-.78,2.46-.04.32-.04.65-.04.98,0,.6.11,1.18.28,1.76.22.76.57,1.45,1.06,2.08.34.43.73.82,1.2,1.12.16.14.34.24.53.33,0,0,0,0,0,0,.04.02.08.03.12.05.07.06.16.08.25.1v.02s.04,0,.04,0c.02.01.05.02.07.04.02,0,.04.01.06.02,0,.02.02.02.03.01.04.01.08.03.12.04h0c.1.06.21.1.33.09M81.83,158.45c.16.11.31.24.44.39.33.38.56.82.74,1.28.32.8.51,1.63.59,2.49.06.63.09,1.26.05,1.9-.04.75-.14,1.5-.41,2.22-.12.31-.25.62-.47.89-.05.07-.11.13-.17.19-.38.39-.96.45-1.42.07-.21-.17-.39-.37-.54-.6-.26-.4-.46-.83-.62-1.28-.22-.63-.35-1.27-.45-1.93-.08-.52-.09-1.04-.1-1.67,0-.25,0-.62.04-.98.09-.8.23-1.58.62-2.3.11-.21.26-.39.43-.55.35-.35.89-.34,1.25-.1"/>
      <path class="cls-1" d="M119.44,158.18c-.12.78.27,1.74,1.3,1.97.15.03.28.09.42.17.34.2.55.51.68.86.15.4.21.81.23,1.23.04.86-.09,1.71-.27,2.55-.15.7-.37,1.39-.63,2.06-.23.59-.5,1.16-.85,1.7-.16.25-.35.49-.57.69-.16.15-.34.27-.56.3-.31.05-.57-.06-.79-.28-.17-.18-.3-.38-.41-.6-.25-.51-.41-1.06-.55-1.61-.14-.55-.26-1.1-.37-1.66-.18-.98-.39-1.95-.58-2.93-.16-.82-.31-1.65-.47-2.47-.08-.4-.25-.76-.52-1.07-.08-.09-.15-.19-.27-.24-.02-.02-.04-.03-.06-.05-.03,0-.05-.01-.06-.04-.24-.18-.52-.29-.82-.36-.59-.14-1.17-.09-1.76.02-.08.01-.17.03-.24.1,0,.03,0,.07,0,.1.09.46.17.91.26,1.37.11.57.23,1.15.34,1.72.13.67.25,1.33.38,2,.13.69.28,1.38.41,2.08.14.75.33,1.49.58,2.21.2.56.45,1.1.79,1.6.03.1.1.16.16.24,0,0,0,0,0,0,0,.02,0,.03.03.04,0,.02.01.03.03.04v.02s.02,0,.02,0c.01.02.03.03.04.05.2.3.47.54.77.74h0s.06.03.09.05c0,.01.01.02.02.02.03.02.05.05.08.07.37.22.78.38,1.21.44.37.05.75.07,1.12-.02.42-.1.79-.3,1.12-.56.69-.54,1.19-1.24,1.6-2,.39-.71.7-1.46.96-2.23.3-.9.53-1.82.7-2.76.15-.84.25-1.7.27-2.55.02-.72,0-1.43-.12-2.14-.09-.5-.22-.98-.46-1.43-.24-.44-.6-.73-1.09-.85-.07-.02-.15-.03-.22-.04-.49-.07-.93.05-1.32.35-.37.28-.57.66-.64,1.11"/>
      <path class="cls-1" d="M42.97,169.73c0,.28.02.56.11.83.11.34.31.61.63.79.45.26.93.32,1.44.28.29.01.79-.07.99-.17.04-.11.02-.22.02-.33,0-2.27,0-4.55,0-6.82,0-.36.03-.73.12-1.08.11-.41.27-.79.54-1.13.2-.25.43-.46.72-.61.35-.18.71-.23,1.09-.11.25.08.48.22.66.41.21.21.36.45.49.71.28.57.42,1.17.5,1.79.05.39.06.78.06,1.17,0,1.42,0,2.83,0,4.25,0,.23.02.46.08.69.15.62.55.98,1.15,1.14.62.17,1.23.09,1.84-.04.03,0,.07-.03.09-.05.04-.11.02-.21.02-.31,0-2.08,0-4.15,0-6.23,0-.43-.03-.85-.1-1.28-.13-.81-.4-1.57-.89-2.24-.31-.42-.68-.77-1.12-1.05-.45-.28-.93-.48-1.46-.58-.83-.16-1.63-.08-2.4.26-.41.19-.79.42-1.08.79-.02,0-.03.02-.04.04-.04.02-.07.05-.08.09h0c-.08.04-.09.16-.22.17v-.31c0-2.18,0-4.36,0-6.54,0-.22-.02-.45-.06-.66-.12-.56-.41-.99-.95-1.24,0-.01-.02-.02-.04-.02-.03.01-.06,0-.07-.03-.02-.01-.03-.02-.05-.02-.03,0-.05,0-.06-.03-.05-.02-.1-.04-.15-.06-.02-.02-.04-.03-.07-.01-.63-.19-1.26-.15-1.89.02-.11.03-.21.08-.31.14-.12.07-.14.15-.1.28.03.11.11.19.18.28.23.26.35.57.37.91,0,.12.01.24.01.36,0,1.8,0,3.59,0,5.39,0,3.38,0,6.76,0,10.14"/>
      <path class="cls-1" d="M89.11,156.03s0,.04-.01.05c-.04.06-.05.12-.04.19-.04.1-.07.2-.11.3l-.34.55s-.03.03-.04.05h-.02s0,.02,0,.02c-.02,0-.03.02-.04.04-.01.01-.03.02-.04.04h0s-.05.05-.08.08c-.28.21-.58.38-.94.41-.05,0-.11.03-.16.05-.18.08-.27.24-.25.42.03.2.17.33.38.35.08,0,.17,0,.25,0,.1,0,.21-.02.31.03.04.11.02.22.02.33,0,1.97,0,3.95,0,5.92,0,.4,0,.8.04,1.2.04.48.15.95.34,1.4,0,.02,0,.04,0,.05.34.84.87,1.51,1.64,2.01.75.49,1.58.72,2.46.83.07,0,.13.01.2,0,.18-.02.31-.14.33-.32.03-.22-.08-.39-.3-.44-.28-.06-.53-.18-.75-.37-.3-.26-.48-.59-.6-.96-.13-.36-.17-.74-.17-1.13,0-1.52,0-3.04,0-4.55,0-1.23,0-2.46,0-3.69,0-.1-.02-.2.01-.29.08-.05.14-.03.21-.03.08,0,.17,0,.25,0,.22-.02.38-.17.38-.38,0-.17-.08-.36-.36-.39-.07,0-.15,0-.22,0-.08,0-.17.01-.24-.02-.05-.07-.04-.14-.04-.2,0-.25,0-.5,0-.75,0-.24-.01-.48-.06-.72-.1-.48-.3-.9-.71-1.19-.32-.23-.69-.33-1.08-.34-.04,0-.07.02-.11.07.01.45-.03.92-.12,1.39"/>
      <path class="cls-1" d="M97.78,169.57c.52-.15,1-.38,1.42-.72.8-.63,1.12-1.45,1.01-2.44-.03-.23-.08-.46-.17-.67-.2-.48-.53-.85-.94-1.17-.43-.34-.91-.6-1.38-.86-.49-.27-.99-.53-1.44-.87-.44-.33-.82-.71-1.1-1.18-.19-.32-.32-.65-.34-1.02-.02-.44.12-.81.51-1.05.3-.18.64-.23.98-.18.36.05.56.29.59.65,0,.1,0,.21-.01.31-.02.12-.04.24-.09.35-.06.14-.09.28-.11.43-.05.39.03.75.29,1.05.37.45.85.65,1.44.63.6-.02,1.38-.48,1.5-1.35.08-.58-.1-1.11-.47-1.56-.24-.29-.54-.52-.88-.69-.51-.26-1.05-.41-1.61-.46-.83-.08-1.65-.03-2.43.3-.11.05-.23.09-.32.17-.52.25-.93.62-1.26,1.09-.28.4-.46.85-.5,1.34-.06.78.19,1.46.68,2.07.35.42.77.76,1.23,1.05h0s.04.02.06.03c0,.02.01.03.03.02l.08.05s.06.05.09.07h0c.44.28.88.56,1.32.85.38.24.75.5,1.08.8.15.13.28.28.39.44.24.36.22.78-.05,1.12-.09.11-.19.21-.3.29-.49.35-1.03.48-1.63.37-.48-.08-.82-.35-1.02-.78-.1-.21-.15-.44-.17-.67-.01-.17,0-.35-.11-.51h0s-.04-.05-.04-.08c-.04-.11-.12-.19-.21-.25-.39-.29-.93-.15-1.14.29-.05.1-.07.21-.08.32-.02.32.08.6.22.88.25.5.61.91,1.11,1.18.12.11.26.17.41.22h0c.55.25,1.14.35,1.75.37.56.02,1.11-.07,1.64-.23"/>
      <path class="cls-1" d="M63.58,159.27c.21-.03.36-.2.35-.4,0-.19-.15-.34-.36-.37-.1-.01-.21,0-.31,0-.06,0-.13.01-.18-.05-.03-.09-.02-.18-.02-.27,0-.28,0-.56,0-.84,0-.29-.04-.57-.13-.85-.13-.39-.35-.7-.7-.92-.33-.21-.69-.33-1.09-.28-.05.14-.02.27-.03.4-.03.1-.02.2-.01.3,0,.04,0,.07,0,.11-.02.18-.05.36-.07.54v.02s-.01.03-.01.03c-.01.06-.02.11-.03.17-.1.24-.2.48-.3.72-.01.02-.03.05-.04.07-.08.06-.12.15-.17.23-.02.02-.04.04-.06.06-.27.28-.59.45-.98.52-.07.01-.15.03-.22.05-.16.05-.27.19-.28.35-.02.22.13.4.35.43.13.02.26,0,.39.01.07,0,.15-.02.22.06,0,.1,0,.21,0,.32,0,2.16,0,4.32,0,6.48,0,.52.07,1.02.21,1.52.09.31.17.63.35.91,0,.03,0,.06.02.08.28.54.66,1,1.14,1.37.92.72,2,1,3.15,1.08.05,0,.09,0,.13-.04.04-.29.03-.53-.02-.71-.1-.02-.2-.04-.3-.06-.33-.07-.61-.24-.83-.49-.21-.23-.36-.5-.46-.8-.14-.42-.19-.85-.19-1.29,0-2.69,0-5.38,0-8.08,0-.06,0-.11,0-.17,0-.05,0-.11.05-.16.08-.04.16-.02.24-.02.08,0,.15,0,.22,0"/>
      <path class="cls-1" d="M58.46,170.7c-.02-.11-.09-.2-.17-.28-.2-.2-.31-.44-.36-.71-.02-.13-.02-.26-.02-.39,0-2.34,0-4.68,0-7.01,0-.15,0-.3,0-.45,0-.22-.04-.43-.11-.63-.13-.39-.38-.7-.75-.91-.5-.28-1.04-.36-1.61-.29-.26-.02-.5.06-.75.13-.1.03-.18.09-.27.15-.07.05-.08.12-.06.2.03.11.1.2.17.28.19.21.31.46.35.75.02.14.03.28.03.42,0,2.35,0,4.69,0,7.03,0,.19,0,.37.02.56.04.36.13.69.4.96.03.04.05.08.08.11.22.24.5.39.81.48.62.18,1.24.16,1.86-.01.1-.03.19-.08.28-.13.11-.06.14-.14.11-.26"/>
      <path class="cls-1" d="M57.87,157.43c-.13-.61-.52-1-1.13-1.15-.46-.11-.89-.04-1.26.29-.74.48-.81,1.77,0,2.33v.02s.02,0,.02,0c0,0,0,0,0,0,.46.34.96.36,1.49.17.5-.18,1.06-.83.88-1.66"/>
      <path class="cls-5" d="M123.21,145.2c-.1.8-.58,1.97-1.19,2.44-.81.63-1.9.87-2.91.66-.83-.18-1.49-.63-1.84-1.28-.9-1.67-.59-3.67-.59-5.48,0-1.91-.12-3.83-.38-5.73-.47-3.42-1.4-6.8-2.95-9.89-.95-1.9-2.14-3.69-3.55-5.28-4.2-4.72-10.44-7.29-17.02-7.29-2.4,0-4.86.34-7.26,1.05-8.08,2.37-11.5,5.2-15.25,12.63,0,0-.05.13-.13.34-.25.67-.9,2.45-1.49,4.01-.48,1.26-1.71,2.1-3.06,2.1-1.07,0-2.04-.49-2.67-1.35-.61-.85-.78-1.9-.45-2.89,1.06-3.18,3.41-9.1,7.29-13.13,4.21-4.35,9.86-7.44,15.93-8.7,6.32-1.32,13.01-.69,18.84,1.78,5.72,2.43,10.62,6.58,13.81,11.67,3.91,6.23,4.69,13.67,4.94,20.78.05,1.2.08,2.24-.07,3.56"/>
      <path class="cls-4" d="M105.52,90.13c-7.25,1.54-12.32-7.97-6.88-13.29,3.51-3.43,9.14-2.41,11.68,1.4,2.92,4.37.46,10.77-4.8,11.89"/>
      <path class="cls-4" d="M41.95,98.47c.07,3.58-4.81,5.17-6.79,2.13-1.28-1.96-.07-4.23,1.93-5.11,2.29-1.01,4.82.38,4.87,2.98"/>
      <path class="cls-7" d="M96.08,48.68c3.19,3.01,4.93,6.72,6.64,10.66.72,1.66,1.8,4.48,1.44,6.36-.19.96-1.62,1.29-2.42,1.02-2.8-.98-3.04-5.11-3.64-7.49-.84-3.37-3.24-6.18-6.19-7.97-1.47-.89-3.12-1.58-4.81-1.9-1.58-.29-5.26.37-5.53-2.04-.32-2.82,4.63-2.88,6.37-2.5,2.9.62,6.13,1.97,8.14,3.87"/>
      <path class="cls-6" d="M18.43,45.79c0,.41.11.93.56,1.04.5.12.89-.36,1.07-.78.49-1.19.55-2.48.95-3.69.78-2.37,1.49-4.93,3.01-6.97,1.52-2.03,3.83-3.21,6.09-4.25,2.34-1.07,4.46-2.08,6.24-3.98.95-1.02,1.75-2.25,1.53-3.68-.53-3.57-5.13.49-6.35,1.18-.16.09-.33.18-.51.15-.73-.1-.02-1.83-.33-2.28-.66-.95-2.27-.12-2.97.34-.6.4-1.09.96-1.76,1.27-1.09.51-1.23-.16-1.63-1-.35-.73-1.34-1.12-2.22-1.02-.89.1-1.66.61-2.21,1.22-1.4,1.56-1.53,3.74-1.25,5.72.28,2.03,1.15,4.23.98,6.27-.2,2.38-1.24,8-1.2,10.46"/>
      <path class="cls-4" d="M123.27,73.24c0,.53.07,2.37-1.1,2.47-.89.09-3.11.21-4.23.17-1.78-.06-2.31.23-2.38-1.37-.1-2.34.09-5.69.07-7.99-.02-3.17-.1-6.34-.19-9.5-.18-6.2-1.62-13.09-6.21-17.7-2.45-2.46-5.73-4.11-9.16-4.73-4.6-.84-9.09.75-13.52,1.76-3.18.72-6.63.67-9.09-1.73-.92-.9-1.6-2-2.18-3.14-.56-1.1-.95-2.37-1.73-3.34-.81-1.01-1.95-1.56-3.21-1.77-6.06-1.02-10.32,4.09-15.58,5.86-2.44.81-5.23.9-7.52-.24-2.3-1.14-3.92-3.67-3.5-6.14.42-2.47,3.22-4.43,5.68-3.65,2.03.64,3.05,2.64,4.86,3.58,1.89.98,4.27.86,6.28.32.98-.26,1.91-.65,2.82-1.07,2.56-1.2,4.99-2.73,7.9-2.92,1.54-.1,3.12.27,4.39,1.16,1.72,1.21,2.36,3.22,3.04,5.09,1.19,3.23,3.95,4.85,7.44,4.15,8.14-1.64,15.43-4.04,23.01.9,7.91,5.17,12.81,14.3,13.73,23.51.62,6.17.39,10.04.39,16.34"/>
      <path class="cls-3" d="M74.67,30.27c-.17-.37-.33-.75-.49-1.15.18.37.39.9.49,1.15"/>
      <path class="cls-5" d="M69.73,33.74c-.02-.06-.05-.12-.08-.18-.8-1.7-2.99-2.25-4.68-1.61-1.21.46-1.89,1.82-1.97,3.04-.06.99.43,1.93,1.25,2.49.55.37,1.18.53,1.83.53.5,0,1.02-.13,1.53-.09,1.36.11,1.87,2.17,3.34,1.87.23-.05.44-.18.55-.38.07-.14.1-.29.09-.45-.02-.74-.53-1.43-.96-2-.3-.39-.68-.69-.75-1.21-.05-.39.06-.78.03-1.17-.02-.29-.09-.57-.2-.84"/>
      <path class="cls-4" d="M35.93,138.65c-2.68,0-5.36-.11-8.05-.06-2.29.05-5.81-.41-7.65,1.11-1.99,1.64-2.24,5.91-.13,7.53,1.11.85,2.7.82,4,.98,1.77.22,3.99.16,5.78.14,3.56-.02,6.64,0,10.17-.02,4.71-.03,11.13-.09,15.84-.11,1.44,0,3.39.16,4.5-1.09.63-.72.96-1.66,1.07-2.61.14-1.21-.08-2.5-.83-3.46-.64-.82-1.62-1.33-2.63-1.6-4.07-1.08-10.38-.65-14.56-.74-2.5-.05-5.01-.08-7.51-.07"/>
      <path class="cls-1" d="M70.86,136.75c3.29-1.94,7.24-1.83,10.82-.86,2.84.77,5.6,1.42,8.58.51.6-.18,1.17-.41,1.7-.69.13-.07.67-.41,1.06-.67.19-.13.5-.08.56.09.39,1.11.29,2.32-.36,3.41-.73,1.22-2.16,2.26-3.9,2.75-4.18,1.19-9.45-.83-12.98,2.08-1.47,1.22-2.1,3.12-3.71,4.27-2.18,1.55-5.24.45-6.26-1.56-1.54-3.05,1.43-7.54,4.49-9.34"/>
      <path class="cls-6" d="M75.89,131.62c-.01.18,0,.36.04.54.08.33.33.57.68.6.46.03,1.07-.25,1.17-.74.08-.39-.07-.8.02-1.19.02-.1.06-.2.12-.29.87-1.24,2.37-1.34,3.75-1.61,1.95-.37,2.33-1.49,3.78-2.59,3.52-2.69,4.84,2.88,7.47,3.89,2.28.87,3.42-2.97,5.68-1.86,1.15.57,2.61,2.63,2.62,3.97.05,5.71-2.71,7.39-2.71,11.47,0,4.51,5.12,5.81,8.16,3.34,3.88-3.16,3.47-11.66,1.83-16.16-1.64-4.52-4.84-8.82-9.43-10.64-6.56-2.61-14.38-.65-19.27,4.46-.51.53-.98,1.1-1.42,1.7-.52.7-.97,1.46-1.38,2.22-.39.73-.78,1.49-1.01,2.29-.06.19-.1.4-.11.61"/>
      <path class="cls-7" d="M34.5,115.78c-.28-.28-.54-.61-.79-.98-.7-1.06-2.2-4.87-.23-5.46.34-.1.7,0,1,.21.81.54,1.32,1.6,2.39,1.5,1.72-.16,1.2-3.32,1.79-4.57.47-.98,1.71-1.58,2.63-1.17,1.11.49.72,2.19.6,3.22-.02.14-.03.29,0,.43.04.14.14.26.26.26.09,0,.17-.07.24-.14.41-.42.42-1.08.65-1.62.37-.85,1.29-.93,1.98-.67,1.93.72,1.25,3.24.53,4.75-2.05,4.29-7.59,7.8-11.07,4.24"/>
      <path class="cls-1" d="M52.48,104.96c-.28-.28-.54-.61-.79-.98-.7-1.06-2.2-4.87-.23-5.46.34-.1.7,0,1,.21.81.54,1.32,1.6,2.39,1.5,1.72-.16,1.2-3.32,1.79-4.57.47-.98,1.71-1.58,2.63-1.17,1.11.49.72,2.19.6,3.22-.02.14-.03.29,0,.43.04.14.14.26.26.26.09,0,.17-.07.24-.14.41-.42.42-1.08.65-1.62.37-.85,1.29-.92,1.98-.67,1.93.72,1.25,3.24.53,4.75-2.05,4.29-7.59,7.8-11.07,4.24"/>
      <path class="cls-7" d="M56.28,130.35c2.14.66,1.61-1.76,2.38-4.22.78-2.46,2.57-4.04.43-4.7-2.14-.66-4.5.8-5.28,3.26-.78,2.46.33,5,2.46,5.66"/>
      <path class="cls-1" d="M47.06,132.89s0,.01,0,.02c-.02.51-.72.73-1.1.34-.94-.95-2.39-1.58-4.04-1.61-.89-.02-1.79.16-2.59.52-.4.18-.77.4-1.11.65-.11.09-.22.18-.32.27-.33.3-.86.31-1.21.03-.07-.05-.13-.1-.19-.16-.33-.27-.7-.51-1.09-.7-.8-.39-1.69-.6-2.59-.61-1.25-.02-2.49.34-3.49,1.02-.25.17-.49.36-.71.57-.16.15-.23.42-.5.36-.3-.07-.51-.49-.72-.66-.31-.26-.66-.48-1.03-.66-.81-.4-1.73-.61-2.65-.63-1.8-.03-3.41.65-4.38,1.73-.24.26-.71.22-.85-.1-.07-.16-.11-.35-.1-.58.05-2.27,2.44-4.07,5.32-4.01,1.63.03,3.08.65,4.02,1.59.23.23.62.23.84,0,.98-.99,2.52-1.63,4.25-1.59.9.02,1.8.22,2.59.6.54.26.96.62,1.36,1.01.27.25.71.24.97-.02.13-.14.27-.27.43-.39.35-.27.73-.5,1.14-.68.81-.36,1.72-.53,2.62-.51,2.89.06,5.19,1.94,5.14,4.21"/>
      <path class="cls-5" d="M47.06,126.13s0,.01,0,.02c-.02.51-.72.73-1.1.34-.94-.95-2.39-1.58-4.04-1.61-.89-.02-1.79.16-2.59.52-.4.18-.77.4-1.11.65-.11.08-.22.17-.32.27-.33.3-.86.31-1.21.03-.07-.05-.13-.1-.19-.16-.33-.27-.7-.51-1.09-.7-.8-.39-1.69-.6-2.59-.61-1.25-.02-2.49.34-3.49,1.02-.25.17-.49.36-.71.57-.16.15-.23.42-.5.36-.3-.07-.51-.49-.72-.66-.31-.26-.66-.48-1.03-.66-.81-.4-1.73-.61-2.65-.63-1.8-.03-3.41.65-4.38,1.73-.24.26-.71.22-.85-.1-.07-.16-.11-.35-.1-.58.05-2.27,2.44-4.07,5.32-4.01,1.63.03,3.08.65,4.02,1.59.23.23.62.23.84,0,.98-.99,2.52-1.63,4.25-1.59.9.02,1.8.22,2.59.6.54.26.96.62,1.36,1.01.27.25.71.24.97-.02.13-.14.27-.27.43-.39.35-.27.73-.5,1.14-.68.81-.36,1.72-.53,2.62-.51,2.89.06,5.19,1.94,5.14,4.21"/>
      <path class="cls-7" d="M67.79,109.28c1.23,1.85,2.37-.36,4.54-1.78,2.18-1.42,4.57-1.52,3.33-3.37-1.23-1.85-4-2.2-6.17-.78-2.17,1.42-2.94,4.08-1.71,5.93"/>
      <path class="cls-7" d="M91.03,100.52c-.21,2.21,2.07,1.19,4.67,1.43,2.59.24,4.52,1.65,4.73-.56.21-2.21-1.73-4.19-4.32-4.43-2.59-.24-4.87,1.36-5.07,3.56"/>
      <path class="cls-6" d="M33.11,73.48c.22.62.54,1.22.97,1.75.99,1.24,2.49,1.85,4,1.17.99-.44,1.77-1.24,2.58-1.97,1.02-.91,2.14-1.72,3.41-2.24,1.59-.65,3.46-.76,5.03,0,1.4.67,2.3,2.2,3.84,2.6,1.98.53,3.93-.95,5.95-.76,1.2.11,2.29.58,3.41.96,3.19,1.08,6.56,1.5,9.91,1.41,1.05-.03,2.12-.19,3.03-.71,1.58-.91,2.39-3.16.85-4.52-1.04-.91-2.51-.65-3.77-.52-2.75.29-6.09,1.03-8.75.02-3.04-1.16-3.68-4.55-5.14-7.1-1.13-1.98-3.78-2.47-5.1-.41-.66,1.04-1.02,2.24-1.39,3.4-.25.78-.42,1.79-1.11,2.32-.93.72-2.32.49-3.37.21-2.9-.79-5.32-2.77-8.22-3.52-4.89-1.27-7.57,3.92-6.14,7.92"/>
      <path class="cls-1" d="M117.64,90.61c-.82-.06-1.6.59-1.63,1.35-.12,3.56-.42,10.73-.36,11.74.08,1.26.67,7.92,4.13,7.16,3.44-.76,3.7-4.4,3.47-7.28-.34-4.34-.17-6.92.03-11.26.02-.33.02-.7-.18-.97-.25-.35-.74-.41-1.17-.43-1.43-.1-2.86-.2-4.29-.3M119.72,107.53c-2.68,1.03-1.73-6.55-.81-9.67.13-.45.82-.54.95-.12.81,2.61,2.44,8.81-.14,9.8"/>
      <path class="cls-6" d="M118.48,80.74c.03-.15.1-.29.22-.41.46-.45,1.31-.39,1.86-.2.71.24.98.79.89,1.53-.04.31-.02.67.27.85.31.19.72.04,1.02.26.34.23.43.73.48,1.17.07.68.12,1.41.09,2.09-.02.42-.15.86-.49,1.09-.23.16-.51.19-.78.22-1.07.09-2.12-.08-3.18-.09-.71,0-1.66.14-2.15-.5-.26-.33-.26-.76-.3-1.16-.05-.54-.11-1.08-.08-1.62,0-.15.02-.3.07-.44.14-.35.56-.49.89-.59.36-.11.74-.28.98-.59.37-.47.11-1.06.23-1.6"/>
      <path class="cls-1" d="M119.5,34.11c.15-.29.23-.62.24-.95.02-1.46-.36-2.93-1.08-4.21-.41-.73-.71-1.52-.76-2.35-.09-1.45.33-2.45,1.45-3.24.82-.58,1.98-1.08,3.06-1.34.18-.04.3.18.17.3-.44.4-.77.96-1.03,1.51-.21.43-.39.88-.44,1.36-.06.58.09,1.17.28,1.73.42,1.21,1.06,2.34,1.49,3.55.43,1.21.65,2.56.19,3.75-.44,1.14-1.51,2-2.72,2.19-1.21.19-2.51-.31-3.3-1.27-.36-.43,1.15-.45,1.18-.45.56.01.94.03,1.27-.59"/>
      <path class="cls-5" d="M112.69,28.07c-.26.22-.59.31-.92.34-1.51.16-2.94-.67-4.31-1.35-3.89-1.92-8.21-2.81-12.5-2.57-1.25.07-2.53.24-3.62.9-1.33.8-2.3,2.28-3.76,2.76-.61.19-1.26.2-1.88.06-.88-.19-1.73-.67-2.26-1.44-.52-.78-.67-1.86-.24-2.7.63-1.22,2.12-1.53,3.43-1.66,4.08-.41,8.18-.37,12.27-.34,3.87.03,7.82-.17,11.69.1,1.09.08,1.95.31,2.39,1.46.4,1.05.64,3.65-.29,4.45"/>
      <path class="cls-1" d="M35.05,82.77c.91.63,1.8,1.28,2.64,2,.13.11.26.22.4.32.14.1.3.2.33.37.06.32-.25.47-.48.6-.88.51-1.76,1.02-2.6,1.58-.86.57-1.71,1.15-2.62,1.62-.95.48-1.25-.9-1.07-1.57.06-.24.2-.45.4-.59.11-.08.24-.13.37-.17.09-.03.29-.04.35-.12.05-.07-.03-.17-.07-.25-.21-.36-.57-.62-.71-1.03-.11-.33-.05-.72.17-1,.22-.29.65-.4.97-.54.04-.02.08-.04.11-.08.23-.28-.73-.69-.87-.85-.33-.37-.47-.89-.57-1.37-.04-.21-.17-.71.14-.77.13-.03.27.03.39.09.95.48,1.83,1.15,2.72,1.76"/>
      <path class="cls-6" d="M28.56,87.83c.12-.48.45-.9.89-1.15.08-.04.17-.1.16-.18,0-.07-.06-.11-.11-.16-.4-.32-.71-.75-.87-1.24-.1-.28-.14-.58-.06-.86.05-.17.17-.32.31-.42.14-.09.18-.27.11-.42-.11-.23-.16-.5-.15-.76,0-.39.11-.76.22-1.13.05-.17.1-.35.2-.49.07-.1.02-.24-.11-.27-1.04-.18-6.17-.19-7.19-.05-1.71.22-2.94,1.12-3.36,2.82-.41,1.67-.18,3.86.97,5.22.91,1.07,4.83.82,6.1.75.29-.01,2.33.03,2.6-.09.53-.24.16-1.12.28-1.58"/>
      <path class="cls-1" d="M34.23,36.76c1.31-.13,3.67-.1,5.28,1.49,0,0,.33-3.04,2.84-4.25.95-.46,2.1.01,2.43,1.01l1.89,5.74c.32.97-.19,2.02-1.16,2.38-1.29.47-2.94,1.25-3.66,2.43-.32.52-1.02.68-1.56.39-1.37-.72-3.6-1.72-4.83-1.35-.53.16-1.11-.06-1.36-.55-.68-1.35-1.33-3.05-1.61-5.6-.11-1,1.13-1.62,1.74-1.68"/>
      <path class="cls-5" d="M27.95,104.57c-.68-1.11-1.27-2.41-1.09-3.74,0,0,.71.14,1.39-1.44.68-1.6-1.62-2.95-2.74-3.59-1.2-.68-7.37-2.78-6.68.49.54,2.6,1.29,4.59,2.3,4.61-.09,0-.64,1.61-.69,1.74-.26.61-.49,1.22-.83,1.79-.33.54-.71,1.04-1,1.6-.31.6-.26,1.26.14,1.8.84,1.16,3.51,6.44,4.36,8.76.11.3.38.67.71.67.27,0,.51-.16.61-.41.22-.51.43-1.03.65-1.54.57-1.35,1.16-2.69,1.78-4.02.44-.95.88-1.91,1.46-2.8.41-.62.89-1.14.71-1.93-.16-.74-.7-1.34-1.09-1.97M25.31,108.52c0,.75-.61,1.36-1.37,1.36s-1.37-.61-1.37-1.36.61-1.36,1.37-1.36,1.37.61,1.37,1.36"/>
      <path class="cls-1" d="M53.51,90.23c-.7,0-1.4-.02-2.09-.06-.25-.02-.51-.04-.73-.17-.25-.14-.43-.42-.45-.7-.03-.37.19-.66.44-.91.71-.68,1.33-1.45,2.1-2.07.27-.22.64-.37.96-.24.71.27,1.27.84,1.77,1.39.41.45,1.17,1.09,1.18,1.75.01.98-1.27,1.06-1.98,1.04-.4-.01-.8-.02-1.2-.02"/>
      <path class="cls-4" d="M44.97,90.24c-.7,0-1.4-.02-2.09-.06-.25-.02-.51-.04-.73-.17-.25-.14-.43-.42-.45-.7-.03-.37.19-.66.44-.91.71-.68,1.33-1.45,2.1-2.07.27-.22.64-.37.96-.24.71.27,1.27.84,1.77,1.39.41.45,1.17,1.09,1.18,1.75.01.98-1.27,1.06-1.98,1.04-.4-.01-.8-.02-1.2-.02"/>
      <path class="cls-5" d="M61.7,90.22c-.7,0-1.4-.02-2.09-.06-.25-.02-.51-.04-.73-.17-.25-.14-.43-.42-.45-.7-.03-.37.19-.66.44-.91.71-.68,1.33-1.45,2.1-2.07.27-.22.64-.37.96-.24.71.27,1.27.84,1.77,1.39.41.45,1.17,1.09,1.18,1.75.01.98-1.27,1.06-1.98,1.04-.4-.01-.8-.02-1.2-.02"/>
      <path class="cls-1" d="M53.44,84.26c-.7,0-1.4-.02-2.09-.06-.25-.02-.51-.04-.73-.17-.25-.14-.43-.42-.45-.7-.03-.37.19-.66.44-.91.71-.68,1.33-1.45,2.1-2.07.27-.22.64-.37.96-.24.71.27,1.27.84,1.77,1.39.41.45,1.17,1.09,1.18,1.75.01.98-1.27,1.06-1.98,1.04-.4-.01-.8-.02-1.2-.02"/>
      <path class="cls-4" d="M44.9,84.27c-.7,0-1.4-.02-2.09-.06-.25-.02-.51-.04-.73-.17-.25-.14-.43-.42-.45-.7-.03-.37.19-.66.44-.91.71-.68,1.33-1.45,2.1-2.07.27-.22.64-.37.96-.24.71.27,1.27.84,1.77,1.39.41.45,1.17,1.09,1.18,1.75.01.98-1.27,1.06-1.98,1.04-.4-.01-.8-.02-1.2-.02"/>
      <path class="cls-5" d="M61.63,84.25c-.7,0-1.4-.02-2.09-.06-.25-.02-.51-.04-.73-.17-.25-.14-.43-.42-.45-.7-.03-.37.19-.66.44-.91.7-.68,1.33-1.45,2.09-2.07.27-.22.64-.37.96-.24.71.27,1.27.84,1.77,1.39.41.45,1.17,1.09,1.18,1.75.01.98-1.27,1.06-1.98,1.04-.4-.01-.8-.02-1.2-.02"/>
      <path class="cls-4" d="M108.22,104.76c-.4-.19-.8-.38-1.19-.59-.14-.08-.28-.16-.37-.29-.11-.15-.13-.35-.07-.52.08-.22.3-.33.51-.4.6-.21,1.17-.48,1.79-.63.21-.05.47-.04.62.12.33.34.5.82.64,1.27.11.37.37.94.19,1.32-.27.57-1.03.27-1.43.07-.23-.11-.46-.22-.69-.33"/>
      <path class="cls-4" d="M63.1,115.72c-.26.36-.53.71-.81,1.05-.1.12-.21.24-.36.31-.17.07-.37.06-.53-.03-.2-.12-.27-.35-.31-.57-.09-.62-.26-1.23-.29-1.86-.01-.22.05-.46.23-.59.4-.26.91-.34,1.38-.38.39-.04,1-.19,1.35.06.51.37.08,1.05-.2,1.41-.15.2-.31.4-.46.61"/>
      <path class="cls-4" d="M83.7,102.18c-.44.08-.88.15-1.32.21-.16.02-.33.03-.48-.02-.17-.06-.31-.21-.36-.39-.06-.23.05-.44.18-.62.37-.51.67-1.07,1.08-1.55.14-.17.36-.3.58-.26.47.09.89.38,1.26.67.31.24.85.55.93.96.12.62-.68.81-1.12.88-.25.04-.5.08-.75.12"/>
      <path class="cls-7" d="M92.3,147.15c-1.62,1.15-3.77,1.34-5.71,1.17-1.6-.14-4.13-.44-4.71-2.23-.24-.73.23-1.13.86-.65,1.16.88,2.73.78,4,.19,1.17-.54,2.12-1.41,3.24-2.02.98-.53,2.6-.85,3.32.27.71,1.09-.05,2.59-1,3.27"/>
      <path class="cls-6" d="M100.59,45.86c3.44,3.08,4.35,7.4,5.98,11.48.09.22.19.46.38.61,1.96,1.56,2.39-5.24,2.34-6.01-.33-4.94-3.59-9.39-8.31-11.1-1.03-.37-6.39-2.21-6.18.07.15,1.66,2.55,2.75,3.79,3.49.74.44,1.4.93,2,1.46"/>
      <path class="cls-1" d="M87.05,87.92c-3.41,3.91-7.78,6.23-12.01,6.37-1.76.08-3.06-1.65-2.79-3.5.25-1.75,1.53-2.45,2.98-2.69,1.57-.26,2.94-.73,4.31-1.62,2.67-1.73,5.17-4.46,6.37-7.57,2-5.19.04-13.23-5.43-14.92-2.11-.65-3.94-.03-5.97.55-2.61.75-5.07,1.45-7.56-.48-1.96-1.53-2.3-4.19-2.63-6.77-.43-3.4-.88-6.9-4.98-7.71-4.71-.93-6.89,3.42-8.13,6.78-1.41,3.85-4.34,7.02-8.48,5.46-2.24-.84-3.9-2.73-6.06-3.73-2.2-1.02-4.52-1.04-6.74-.1-2.6,1.11-4.55,3.59-5.34,6.43-.41,1.46-.55,3.08-.26,4.59.33,1.76,1.37,3.43,1.08,5.29-.18,1.19-1.06,2.23-2.16,2.55-3.74,1.07-4.63-5.25-4.8-7.96-.25-3.87.76-7.77,2.82-10.96,3.19-4.95,8.27-7.42,13.93-6.79,2.08.23,3.96,1.24,5.78,2.28,1.5.86,3.53,1.88,5.13.67,1.6-1.2,1.92-3.52,2.75-5.28,2.27-4.81,7.61-6.39,12.27-5.21,2.24.57,4.39,1.76,5.97,3.57,1.17,1.34,1.86,3.06,2.29,4.81.51,2.08.05,5,1.97,6.34,1.2.84,2.54.39,3.78-.05,4.08-1.44,8.5-.45,11.81,2.45,4.16,3.65,5.22,9.33,5.38,13.45.17,4.61-1.8,9.75-5.3,13.76"/>
    </g>
  </g>
</svg>